<svg xmlns="http://www.w3.org/2000/svg" xmlns:xlink="http://www.w3.org/1999/xlink" width="105" height="105" viewBox="0 0 105 105">
  <defs>
    <clipPath id="clip-path">
      <rect id="Rectángulo_34091" data-name="Rectángulo 34091" width="82" height="82" transform="translate(409 4614)" fill="#fff"/>
    </clipPath>
  </defs>
  <g id="Grupo_86844" data-name="Grupo 86844" transform="translate(-397 -4591)">
    <circle id="Elipse_4905" data-name="Elipse 4905" cx="52.5" cy="52.5" r="52.5" transform="translate(397 4591)" fill="#7e5ee3"/>
    <g id="Enmascarar_grupo_9" data-name="Enmascarar grupo 9" clip-path="url(#clip-path)">
      <g id="_015---Cream-Pot" data-name="015---Cream-Pot" transform="translate(409 4623.56)">
        <g id="Layer_3" transform="translate(0 1.367)">
          <path id="Shape" d="M2.734,27.313V30.1C.939,29.273.874,28.171,2.734,27.313Z" fill="#00695c"/>
          <path id="Shape-2" data-name="Shape" d="M58.125,56.8c-11.219,4.99-56.758,4.853-56.758-3.486V28.707c0,3.916,26.121,4.1,30.074,4.1,5.577,0,10.786-.164,15.269-.465,1.408,7.912,5.509,18.811,11.414,24.456Z" fill="#009688"/>
          <path id="Shape-3" data-name="Shape" d="M46.71,32.343c-1.289.086-2.653.159-4.055.221,1.5,7.976,5.468,18.6,11.368,24.234-8.723,3.874-31.41,3.349-22.583,3.349,11.606,0,21.667-1.121,26.684-3.349-5.905-5.646-10.006-16.55-11.414-24.456Z" fill="#00695c"/>
          <path id="Shape-4" data-name="Shape" d="M13.738,25.1c-13.4-1.5-15.06-4.394-2.242-6.179A23.03,23.03,0,0,0,13.738,25.1Z" fill="#707070"/>
          <path id="Shape-5" data-name="Shape" d="M45.74,25.426a182.149,182.149,0,0,1-32-.328c-3.316-6.357-3.75-13.142.164-20.97A24.544,24.544,0,0,1,16.4,0s0,10.936,9.569,12.3c9.091,1.512,10.7-5.022,18.742-3.636a12.812,12.812,0,0,1,2.543.67A39.889,39.889,0,0,0,45.74,25.426Z" fill="#ffeb3a"/>
          <path id="Shape-6" data-name="Shape" d="M21.872,12.3a16.01,16.01,0,0,0,4.608.051c-.172-.021-.328-.025-.507-.051C16.4,10.936,16.4,0,16.4,0a27.613,27.613,0,0,0-3.039,5.273A10.328,10.328,0,0,0,21.872,12.3Z" fill="#fdd834"/>
          <path id="Shape-7" data-name="Shape" d="M45.74,25.426c-1.3.109-2.666.205-4.074.273a39.379,39.379,0,0,1,1.49-16.363,12.812,12.812,0,0,0-2.543-.67,12.859,12.859,0,0,1,6.644.67,39.889,39.889,0,0,0-1.517,16.09Z" fill="#fdd834"/>
          <path id="Shape-8" data-name="Shape" d="M72.888,58.508c-7,1.572-15.556-9.993-19.124-25.823S52.971,2.734,59.97,1.162s15.556,9.979,19.124,25.809S79.887,56.922,72.888,58.508Z" fill="#00695c"/>
          <path id="Shape-9" data-name="Shape" d="M46.71,32.343c-4.76.3-9.678.465-15.269.465-13.479,0-24.893-.93-28.707-2.707V21.872c0,1.312,4.306,2.474,11,3.226a182.448,182.448,0,0,0,32,.328A64.758,64.758,0,0,0,46.71,32.343Z" fill="#9e9e9e"/>
          <path id="Shape-10" data-name="Shape" d="M46.71,32.343c-1.285.082-2.638.164-4.046.219A57.2,57.2,0,0,1,41.68,25.7c1.408-.068,2.761-.164,4.06-.273A61.525,61.525,0,0,0,46.71,32.343Z" fill="#707070"/>
          <path id="Shape-11" data-name="Shape" d="M72.888,58.508,66.217,60c-2.6.588-5.4-.629-8.093-3.2C48.077,47.2,42.5,22.419,47.257,9.337c1.312-3.65,3.376-6.069,6.042-6.671l6.671-1.5c-7,1.572-9.774,15.679-6.206,31.523S65.889,60.08,72.888,58.508Z" fill="#009688"/>
        </g>
        <g id="Layer_2" transform="translate(0 -1.367)">
          <path id="Shape-12" data-name="Shape" d="M0,56.047c0,7.4,21.987,8.2,31.441,8.2,11.71,0,21.234-1.137,26.419-3.133a10.981,10.981,0,0,0,7.05,3.133c1.111,0,1.081-.059,8.279-1.679,3.945-.889,6.823-4.968,8.109-11.483a54.364,54.364,0,0,0-.864-21.675C76.644,12.586,67.53.783,59.672,2.558l-6.667,1.5c-2.8.632-5,2.916-6.507,6.332-9.826-2.668-10.884,4.644-20.331,3.29-8.259-1.18-8.4-10.553-8.4-10.95a1.367,1.367,0,0,0-2.441-.846c-.286.364-6.685,8.654-5.39,18.616-7.488,1.187-8.572,2.668-8.572,4.1v4.648A2.614,2.614,0,0,0,0,31.441ZM13.585,29.191a182.76,182.76,0,0,0,30.927.428c.145,1.367.327,2.761.573,4.182-9.1.528-33.081.828-40.984-1.893V27.34a41.7,41.7,0,0,0,9.484,1.851ZM2.734,56.047V39.718a76.939,76.939,0,0,0,17.685,2.659,1.37,1.37,0,1,0,.171-2.734C10.6,39.021,5.412,37.829,2.734,36.832V34.312c8.214,3.155,33.549,2.761,42.881,2.2,1.65,7.695,4.921,16.515,10.108,22.465-5.067,1.621-13.716,2.539-24.282,2.539-19.8,0-28.707-3.2-28.707-5.468ZM77.766,30.011a51.571,51.571,0,0,1,.848,20.546c-1.047,5.312-3.243,8.719-6.026,9.346-5.478,1.23-13.807-8.436-17.5-24.786S54.8,6.458,60.274,5.225a4.433,4.433,0,0,1,.965-.105c5.446,0,13.055,9.475,16.527,24.892ZM53.605,6.727l.828-.187c-8.529,12.907-.927,46.673,12.315,54.68l-.83.187c-2.785.626-6.229-1.5-9.453-5.859a51.593,51.593,0,0,1-8.041-18.926,66.611,66.611,0,0,1-1.352-8.67C46.08,16.066,49.152,7.73,53.605,6.727ZM13.833,10.534c.137,6.3,3.234,10.721,8.974,12.635a1.369,1.369,0,1,0,.864-2.6c-5.878-1.96-7.245-6.742-7.1-11.141a11.647,11.647,0,0,0,9.207,6.957C36.133,17.871,37.222,10.9,45.542,12.97a41.147,41.147,0,0,0-1.258,13.924,180.926,180.926,0,0,1-29.647-.344,19.353,19.353,0,0,1-.8-16.016ZM10.46,23.19a24.076,24.076,0,0,0,1.009,2.975,29.035,29.035,0,0,1-6.835-1.556A24.553,24.553,0,0,1,10.46,23.19Z"/>
          <circle id="Oval" cx="1.367" cy="1.367" r="1.367" transform="translate(24.606 39.643)"/>
          <path id="Shape-13" data-name="Shape" d="M57.6,22.231a1.367,1.367,0,0,0,2.72-.273c-.652-6.523.662-8.587,1.5-9.237a2.353,2.353,0,0,1,2.111-.287,1.367,1.367,0,0,0,1-2.544,5.058,5.058,0,0,0-4.734.63c-2.328,1.751-3.2,5.691-2.6,11.711Z"/>
          <path id="Shape-14" data-name="Shape" d="M69.033,53.216a5.058,5.058,0,0,0,4.735-.632c2.324-1.751,3.2-5.691,2.6-11.711a1.367,1.367,0,1,0-2.72.273c.653,6.523-.662,8.586-1.5,9.237a2.347,2.347,0,0,1-2.109.288,1.367,1.367,0,0,0-1,2.544Z"/>
        </g>
      </g>
    </g>
  </g>
</svg>
