<svg xmlns="http://www.w3.org/2000/svg" xmlns:xlink="http://www.w3.org/1999/xlink" width="63" height="63" viewBox="0 0 63 63">
  <defs>
    <clipPath id="clip-path">
      <rect id="confundido" width="63" height="63" transform="translate(355 8682)" fill="#7e5ee3"/>
    </clipPath>
  </defs>
  <g id="Enmascarar_grupo_15" data-name="Enmascarar grupo 15" transform="translate(-355 -8682)" clip-path="url(#clip-path)">
    <g id="escala-de-peso" transform="translate(355 8686.245)">
      <g id="Grupo_83714" data-name="Grupo 83714">
        <path id="Trazado_114428" data-name="Trazado 114428" d="M32.071,17.253H16.1a4.382,4.382,0,0,0-4.315,3.286L3.866,49.022c-.83,2.983,1.179,4.259,2.989,4.259H57.286c1.81,0,3.819-1.276,2.989-4.259L52.357,20.539a4.382,4.382,0,0,0-4.315-3.286Zm0,0" fill="#cbe558" fill-rule="evenodd"/>
        <path id="Trazado_114429" data-name="Trazado 114429" d="M32.071,22.142a13.135,13.135,0,1,0,9.289,3.844,13.092,13.092,0,0,0-9.289-3.844Zm0,0" fill="#f9fceb" fill-rule="evenodd"/>
        <path id="Trazado_114430" data-name="Trazado 114430" d="M61.771,1.229H1.229A7.949,7.949,0,0,0,9.157,9.15H53.843a7.949,7.949,0,0,0,7.928-7.921Zm0,0" fill="#cbe558" fill-rule="evenodd"/>
        <path id="Trazado_114431" data-name="Trazado 114431" d="M20.354,9.15H25.5v8.1H20.354Zm0,0" fill="#ffc15a" fill-rule="evenodd"/>
        <path id="Trazado_114432" data-name="Trazado 114432" d="M38.046,9.15H43.19v8.1H38.046Zm0,0" fill="#ffc15a" fill-rule="evenodd"/>
        <path id="Trazado_114433" data-name="Trazado 114433" d="M32.071,32.984a2.286,2.286,0,1,0,2.211,2.283A2.248,2.248,0,0,0,32.071,32.984Zm0,0" fill="#ff6977" fill-rule="evenodd"/>
      </g>
      <path id="Trazado_114434" data-name="Trazado 114434" d="M21.979,45.476a14.351,14.351,0,0,0,20.182,0c.023-.02.046-.039.067-.061s.039-.043.058-.064a14.319,14.319,0,0,0,.027-20.14c-.026-.032-.055-.064-.085-.094a1.236,1.236,0,0,0-.1-.086,14.352,14.352,0,0,0-20.125,0c-.033.027-.065.055-.1.086s-.058.062-.085.094a14.319,14.319,0,0,0,.027,20.14c.019.022.037.044.058.064s.044.041.067.061ZM20.223,36.5H21.63a1.229,1.229,0,1,0,0-2.458H20.223a11.832,11.832,0,0,1,2.606-6.267l.992.991a1.229,1.229,0,1,0,1.738-1.739l-.989-.989a11.861,11.861,0,0,1,6.273-2.6v1.4a1.229,1.229,0,1,0,2.458,0v-1.4a11.861,11.861,0,0,1,6.273,2.6l-.99.988a1.229,1.229,0,1,0,1.737,1.739l.992-.991a11.833,11.833,0,0,1,2.607,6.267H42.51a1.229,1.229,0,1,0,0,2.458h1.408a11.84,11.84,0,0,1-2.606,6.268l-.993-.992a1.229,1.229,0,0,0-1.737,1.739l.991.99A11.864,11.864,0,0,1,33.3,47.1V45.7a1.229,1.229,0,1,0-2.458,0v1.4a11.863,11.863,0,0,1-6.274-2.6l.991-.99a1.229,1.229,0,1,0-1.738-1.739l-.993.992A11.837,11.837,0,0,1,20.223,36.5Zm0,0"/>
      <path id="Trazado_114435" data-name="Trazado 114435" d="M32.071,38.782A3.525,3.525,0,0,0,33.3,31.987V30.032a1.229,1.229,0,1,0-2.458,0v1.955a3.525,3.525,0,0,0,1.229,6.794Zm0-2.458a1.058,1.058,0,1,1,.982-1.057A1.023,1.023,0,0,1,32.071,36.324Zm0,0"/>
      <path id="Trazado_114436" data-name="Trazado 114436" d="M53.541,20.21a5.589,5.589,0,0,0-5.5-4.186H44.419V10.379h9.424A9.164,9.164,0,0,0,63,1.229,1.229,1.229,0,0,0,61.771,0H1.229A1.229,1.229,0,0,0,0,1.229,9.165,9.165,0,0,0,9.157,10.38h9.968v5.644H16.1a5.589,5.589,0,0,0-5.5,4.186L7.7,30.63a1.229,1.229,0,0,0,2.368.658l2.9-10.42a3.153,3.153,0,0,1,3.13-2.387H48.042a3.152,3.152,0,0,1,3.13,2.386l7.918,28.483a2.36,2.36,0,0,1-.158,2,2.106,2.106,0,0,1-1.648.7H6.855a2.1,2.1,0,0,1-1.647-.7,2.357,2.357,0,0,1-.158-2.005l2.285-8.228a1.229,1.229,0,1,0-2.368-.658L2.682,48.692a4.533,4.533,0,0,0,.569,4.15,4.5,4.5,0,0,0,3.6,1.667H57.286a4.25,4.25,0,0,0,4.174-5.817ZM2.571,2.458H60.429a6.709,6.709,0,0,1-6.586,5.464H9.157A6.708,6.708,0,0,1,2.571,2.458Zm34.245,7.921v5.645H26.724V10.379ZM21.583,16.024V10.379h2.683v5.645Zm17.692,0V10.379h2.687v5.645Zm0,0"/>
      <path id="Trazado_114437" data-name="Trazado 114437" d="M7.053,37.325a1.229,1.229,0,0,0,1.554-.778l.007-.021a1.229,1.229,0,0,0-2.332-.777l-.007.021a1.23,1.23,0,0,0,.778,1.555Zm0,0"/>
    </g>
  </g>
</svg>
