<svg xmlns="http://www.w3.org/2000/svg" width="201.051" height="440.038" viewBox="0 0 201.051 440.038">
  <g id="Grupo_86837" data-name="Grupo 86837" transform="translate(-172.58 -70.729)">
    <g id="Character" transform="translate(172.58 70.729)">
      <g id="Grupo_86825" data-name="Grupo 86825">
        <path id="Trazado_160542" data-name="Trazado 160542" d="M253.149,97.528c-13.286,6.258-14.575,24.421-9.588,39.859,3.594,11.121-5.833,11.706-8.048,27.358-3.492,24.678,18.59,44.791,42.051,40.446s.743-52.84,9.355-69.745S267.434,90.8,253.149,97.528Z" transform="translate(-137.537 -84.57)" fill="#263238"/>
        <path id="Trazado_160543" data-name="Trazado 160543" d="M281.445,378.837l15.117,1.109c-2.088,12.032-4.059,31.031-4.059,31.031H280.521S281.892,387.07,281.445,378.837Z" transform="translate(-121.188 17.169)" fill="#ce7a63"/>
        <path id="Trazado_160544" data-name="Trazado 160544" d="M224.521,378.837l15,1.109c-3.365,12.032-7.355,31.031-7.355,31.031H220.183S224.094,387.07,224.521,378.837Z" transform="translate(-142.93 17.169)" fill="#ce7a63"/>
        <path id="Trazado_160545" data-name="Trazado 160545" d="M272.247,414.944c10.415,0,9.675-.161,15.541-.358,5.025-.178,6.177.448,10.211.358,3.37-.072,3.48-3.292,2.713-7-.294-1.42-.736-3.083-1.15-5.129a2.487,2.487,0,0,0-2.472-2.011H284.906a2.872,2.872,0,0,0-2.3,1.162,17.543,17.543,0,0,1-12.106,6.8C264.84,409.521,268.1,414.944,272.247,414.944Z" transform="translate(-125.891 25.085)" fill="#407bff"/>
        <path id="Trazado_160546" data-name="Trazado 160546" d="M212.119,414.944c10.415,0,9.675-.161,15.542-.358,5.024-.178,6.176.448,10.209.358,3.37-.072,3.48-3.292,2.712-7-.294-1.42-.736-3.083-1.149-5.129a2.488,2.488,0,0,0-2.472-2.011H224.778a2.868,2.868,0,0,0-2.3,1.162,17.549,17.549,0,0,1-12.107,6.8C204.712,409.521,207.967,414.944,212.119,414.944Z" transform="translate(-147.558 25.085)" fill="#407bff"/>
        <path id="Trazado_160547" data-name="Trazado 160547" d="M239.637,206.1s-9.469,73.647-8.644,120.416C227.4,370.419,221.63,454.4,221.63,454.4c.17,2.243,12.015,1.348,14.114,0,0,0,27.112-56.669,22.7-127.887C288.571,252.237,286.773,206.1,286.773,206.1Z" transform="translate(-142.409 -45.076)" fill="#263238"/>
        <path id="Trazado_160548" data-name="Trazado 160548" d="M267.8,256.117c-2.337,9.592-5.341,20.231-9.18,31.8-1.12-23.318-7.423-54.527-7.636-55.589Z" transform="translate(-131.83 -35.623)" opacity="0.2"/>
        <path id="Trazado_160549" data-name="Trazado 160549" d="M244.3,206.1s21.534,83.125,30.065,123.943c8.961,42.868,21.521,95.882,19.026,124.36,2.4,1.418,10.971,1.5,15.819,0,0,0,18.442-81.195-5.009-122.463,8.486-101.547-18.375-125.84-18.375-125.84Z" transform="translate(-134.24 -45.076)" fill="#263238"/>
        <g id="Grupo_86817" data-name="Grupo 86817" transform="translate(157.375 401.902)">
          <path id="Trazado_160550" data-name="Trazado 160550" d="M279.83,384.664a41.058,41.058,0,0,1-.718,5.848,1.181,1.181,0,0,0,.982,1.439c5.764.928,14.182-.416,16.855-.9a1.251,1.251,0,0,0,1.005-1.007l1.02-5.471a1.178,1.178,0,0,0-1.185-1.407l-16.734.322A1.252,1.252,0,0,0,279.83,384.664Z" transform="translate(-279.082 -383.172)" fill="#263238"/>
          <path id="Trazado_160551" data-name="Trazado 160551" d="M279.83,384.664a41.058,41.058,0,0,1-.718,5.848,1.181,1.181,0,0,0,.982,1.439c5.764.928,14.182-.416,16.855-.9a1.251,1.251,0,0,0,1.005-1.007l1.02-5.471a1.178,1.178,0,0,0-1.185-1.407l-16.734.322A1.252,1.252,0,0,0,279.83,384.664Z" transform="translate(-279.082 -383.172)" fill="#fff" opacity="0.1"/>
        </g>
        <g id="Grupo_86818" data-name="Grupo 86818" transform="translate(77.315 402.02)">
          <path id="Trazado_160552" data-name="Trazado 160552" d="M220.986,384.375c-.158,1.526-.452,4.243-.744,6.252a1.172,1.172,0,0,0,1.013,1.341c4.943.688,12.955.064,15.587-.173a1.259,1.259,0,0,0,1.1-.929L239.4,385.4a1.18,1.18,0,0,0-1.092-1.5l-16.028-.639A1.253,1.253,0,0,0,220.986,384.375Z" transform="translate(-220.228 -383.258)" fill="#263238"/>
          <path id="Trazado_160553" data-name="Trazado 160553" d="M220.986,384.375c-.158,1.526-.452,4.243-.744,6.252a1.172,1.172,0,0,0,1.013,1.341c4.943.688,12.955.064,15.587-.173a1.259,1.259,0,0,0,1.1-.929L239.4,385.4a1.18,1.18,0,0,0-1.092-1.5l-16.028-.639A1.253,1.253,0,0,0,220.986,384.375Z" transform="translate(-220.228 -383.258)" fill="#fff" opacity="0.1"/>
        </g>
        <path id="Trazado_160554" data-name="Trazado 160554" d="M181.394,167.6l2.632,3.265a4.886,4.886,0,0,0,4.088,1.808l7.359-.437a9.1,9.1,0,0,0,7.177-4.263l.967-1.547c-4-5.715-12.526-8.944-12.526-8.944l-2.329-1.19a4.061,4.061,0,0,0-5.535,1.65l-2.417,4.584A4.678,4.678,0,0,0,181.394,167.6Z" transform="translate(-157.297 -63.198)" fill="#ce7a63"/>
        <g id="Grupo_86819" data-name="Grupo 86819" transform="translate(0 50.006)">
          <rect id="Rectángulo_35270" data-name="Rectángulo 35270" width="16.763" height="19.613" rx="1.469" transform="matrix(0.978, -0.208, 0.208, 0.978, 24.35, 32.199)" fill="#407bff"/>
          <rect id="Rectángulo_35271" data-name="Rectángulo 35271" width="1.36" height="4.881" transform="translate(0 0.913) rotate(-42.159)" fill="#407bff"/>
          <rect id="Rectángulo_35272" data-name="Rectángulo 35272" width="8.866" height="1.36" transform="translate(43.102 20.626) rotate(-49.36)" fill="#407bff"/>
          <rect id="Rectángulo_35273" data-name="Rectángulo 35273" width="1.36" height="21.145" transform="translate(6.691 8.304) rotate(-42.16)" fill="#407bff"/>
          <rect id="Rectángulo_35274" data-name="Rectángulo 35274" width="1.36" height="17.956" transform="translate(1.26 24.369) rotate(-70.796)" fill="#407bff"/>
          <rect id="Rectángulo_35275" data-name="Rectángulo 35275" width="9.689" height="7.808" rx="0.651" transform="matrix(0.978, -0.208, 0.208, 0.978, 27.143, 28.323)" fill="#407bff"/>
          <path id="Rectángulo_35276" data-name="Rectángulo 35276" d="M.614,0H11.081A.615.615,0,0,1,11.7.615V5.15a.614.614,0,0,1-.614.614H.614A.614.614,0,0,1,0,5.15V.614A.614.614,0,0,1,.614,0Z" transform="matrix(0.978, -0.208, 0.208, 0.978, 25.263, 24.304)" fill="#263238"/>
          <rect id="Rectángulo_35277" data-name="Rectángulo 35277" width="13.867" height="11.156" transform="translate(27.997 35.43) rotate(-11.99)" fill="#fff" opacity="0.8"/>
        </g>
        <g id="Grupo_86820" data-name="Grupo 86820" transform="translate(29.727 88.578)">
          <path id="Trazado_160555" data-name="Trazado 160555" d="M267.352,161.975c-.4.671-.643,1.03-.959,1.515l-.9,1.328-1.8,2.555q-1.814,2.514-3.746,4.895c-2.591,3.171-5.278,6.256-8.178,9.171a92.045,92.045,0,0,1-19.63,15.447c-1.846,1.064-3.746,2.061-5.707,2.961l-1.479.661-.37.165-.2.087-.326.129c-.437.17-.876.332-1.336.463a16.737,16.737,0,0,1-5.58.69,20.8,20.8,0,0,1-9.067-2.631,37.2,37.2,0,0,1-6.184-4.295,76.031,76.031,0,0,1-9.069-9.45c-1.322-1.627-2.606-3.254-3.859-4.908q-.935-1.245-1.834-2.522c-.612-.892-1.186-1.631-1.884-2.717l17.348-9.442c.212.562.6,1.445.963,2.163.378.754.771,1.509,1.177,2.258.8,1.5,1.662,2.972,2.589,4.367a41.529,41.529,0,0,0,5.964,7.372,16.07,16.07,0,0,0,2.956,2.309,5.277,5.277,0,0,0,1.631.683c.069.01.012-.007,0,0s0,0,0,0l0,0,.121-.053.275-.125,1.1-.494c1.461-.673,2.9-1.432,4.312-2.251a64.223,64.223,0,0,0,8.1-5.766,77.86,77.86,0,0,0,7.3-7.1,81.207,81.207,0,0,0,6.385-8.094c.979-1.415,1.919-2.855,2.806-4.308.445-.726.877-1.451,1.276-2.185l.577-1.084c.165-.322.4-.775.456-.928Z" transform="translate(-185.246 -152.844)" fill="#407bff"/>
          <path id="Trazado_160556" data-name="Trazado 160556" d="M267.352,161.975c-.4.671-.643,1.03-.959,1.515l-.9,1.328-1.8,2.555q-1.814,2.514-3.746,4.895c-2.591,3.171-5.278,6.256-8.178,9.171a92.045,92.045,0,0,1-19.63,15.447c-1.846,1.064-3.746,2.061-5.707,2.961l-1.479.661-.37.165-.2.087-.326.129c-.437.17-.876.332-1.336.463a16.737,16.737,0,0,1-5.58.69,20.8,20.8,0,0,1-9.067-2.631,37.2,37.2,0,0,1-6.184-4.295,76.031,76.031,0,0,1-9.069-9.45c-1.322-1.627-2.606-3.254-3.859-4.908q-.935-1.245-1.834-2.522c-.612-.892-1.186-1.631-1.884-2.717l17.348-9.442c.212.562.6,1.445.963,2.163.378.754.771,1.509,1.177,2.258.8,1.5,1.662,2.972,2.589,4.367a41.529,41.529,0,0,0,5.964,7.372,16.07,16.07,0,0,0,2.956,2.309,5.277,5.277,0,0,0,1.631.683c.069.01.012-.007,0,0s0,0,0,0l0,0,.121-.053.275-.125,1.1-.494c1.461-.673,2.9-1.432,4.312-2.251a64.223,64.223,0,0,0,8.1-5.766,77.86,77.86,0,0,0,7.3-7.1,81.207,81.207,0,0,0,6.385-8.094c.979-1.415,1.919-2.855,2.806-4.308.445-.726.877-1.451,1.276-2.185l.577-1.084c.165-.322.4-.775.456-.928Z" transform="translate(-185.246 -152.844)" fill="#fff" opacity="0.7"/>
        </g>
        <path id="Trazado_160557" data-name="Trazado 160557" d="M231.2,165.623a224.556,224.556,0,0,0,.369,24.191c.435,10.506,2.752,21.546,5.586,38.545,5.749,3.37,34.834,1.972,53.448-.433-1.13-14.9.714-31.92,10.809-65.439,2.34-7.772-2.878-15.236-11.213-16.032-2.227-.212-4.59-.389-7.014-.5-9.426-.43-17.154-.714-25.528,0-2.774.237-5.65.566-8.4.925C239.338,148.176,231.506,156.3,231.2,165.623Z" transform="translate(-139.02 -66.905)" fill="#407bff"/>
        <path id="Trazado_160558" data-name="Trazado 160558" d="M235.08,210.616a252.626,252.626,0,0,0,56.445-.116,1.281,1.281,0,0,0,.979-1.792q-.69-1.622-1.368-3.247a1.182,1.182,0,0,0-1.212-.751,247.4,247.4,0,0,1-54.271,0,1.217,1.217,0,0,0-1.313,1.134q-.171,1.683-.339,3.365A1.265,1.265,0,0,0,235.08,210.616Z" transform="translate(-137.953 -45.579)" fill="#407bff"/>
        <path id="Trazado_160559" data-name="Trazado 160559" d="M275.782,124.731c-2.221,8.214-4.95,23.263.388,28.744,0,0,1.623,8.044-20.426,7.3-16.972-.575-5.1-7.3-5.1-7.3,9.322-2.186,9.592-8.982,8.472-15.364Z" transform="translate(-133.408 -74.396)" fill="#ce7a63"/>
        <g id="Grupo_86821" data-name="Grupo 86821" transform="translate(128.933 77.796)">
          <path id="Trazado_160560" data-name="Trazado 160560" d="M272.59,144.918s-9.665,8.585-12.541,29.277c-5.494,39.527,2.835,201.4,2.835,201.4s35.335-11.545,48.217-22.614c.6-11.07-20.787-113.067-18.907-142.345s5.5-54.777,1.725-60.286S272.59,144.918,272.59,144.918Z" transform="translate(-258.174 -144.918)" fill="#407bff"/>
          <path id="Trazado_160561" data-name="Trazado 160561" d="M272.59,144.918s-9.665,8.585-12.541,29.277c-5.494,39.527,2.835,201.4,2.835,201.4s35.335-11.545,48.217-22.614c.6-11.07-20.787-113.067-18.907-142.345s5.5-54.777,1.725-60.286S272.59,144.918,272.59,144.918Z" transform="translate(-258.174 -144.918)" fill="#fff" opacity="0.7"/>
        </g>
        <g id="Grupo_86822" data-name="Grupo 86822" transform="translate(80.545 78.616)">
          <path id="Trazado_160562" data-name="Trazado 160562" d="M259.991,145.521c-14.722,18.9-14.6,141.709-10.355,229.855-13.065-1.574-27.033-28.1-27.033-28.1s14.2-93.5,11.468-133.164-2.347-53.468,4.028-60.787S259.991,145.521,259.991,145.521Z" transform="translate(-222.603 -145.521)" fill="#407bff"/>
          <path id="Trazado_160563" data-name="Trazado 160563" d="M259.991,145.521c-14.722,18.9-14.6,141.709-10.355,229.855-13.065-1.574-27.033-28.1-27.033-28.1s14.2-93.5,11.468-133.164-2.347-53.468,4.028-60.787S259.991,145.521,259.991,145.521Z" transform="translate(-222.603 -145.521)" fill="#fff" opacity="0.7"/>
        </g>
        <path id="Trazado_160564" data-name="Trazado 160564" d="M271.34,144.5c-2.557,2.164-14.626,13.1-12.984,57.9,1.215-5.078,6.74-29.129,12.689-40.58-1.275-1.249-4.092-1.388-4.092-1.388a8.349,8.349,0,0,1,5.184-.914c1.66-3.345,5.066-10.379,8.371-14.157C276.928,143.166,271.34,144.5,271.34,144.5Z" transform="translate(-129.23 -67.416)" fill="#fff"/>
        <path id="Trazado_160565" data-name="Trazado 160565" d="M243.012,202.043s2.621-41.731,11.279-56.607c-2.125-.472-6.453-.724-9.837,1.534-1.811,2.179-4.172,10.547-4.172,12.357a6.026,6.026,0,0,1,4.152.452,13.9,13.9,0,0,0-4.27,1.594C239.594,164.384,239.327,180.144,243.012,202.043Z" transform="translate(-135.851 -67.05)" fill="#fff"/>
        <g id="Grupo_86823" data-name="Grupo 86823" transform="translate(135.853 117.148)">
          <path id="Trazado_160566" data-name="Trazado 160566" d="M276.291,185.2H264.609a1.491,1.491,0,0,1-1.341-1.764l.488-5.547a1.84,1.84,0,0,1,1.65-1.766h11.681a1.491,1.491,0,0,1,1.341,1.766l-.487,5.547A1.841,1.841,0,0,1,276.291,185.2Z" transform="translate(-263.26 -173.027)" fill="#fff"/>
          <path id="Trazado_160567" data-name="Trazado 160567" d="M268.65,185.2h-3.178l2.449-9.077H271.1Z" transform="translate(-262.463 -173.026)" fill="#407bff" opacity="0.1"/>
          <path id="Trazado_160568" data-name="Trazado 160568" d="M271.9,185.2h-3.177l2.449-9.077h3.178Z" transform="translate(-261.29 -173.026)" fill="#407bff" opacity="0.1"/>
          <path id="Trazado_160569" data-name="Trazado 160569" d="M269.171,177.9h0c-.573,0-.992-.339-.933-.751l.367-2.551a1.108,1.108,0,0,1,1.148-.75h0c.573,0,.992.337.932.75l-.366,2.551A1.111,1.111,0,0,1,269.171,177.9Z" transform="translate(-261.469 -173.846)" fill="#407bff"/>
        </g>
        <path id="Trazado_160570" data-name="Trazado 160570" d="M265.672,128.744l-9.865,7.913a25.541,25.541,0,0,1,.45,4.531c3.537-.5,8.63-4.346,9.273-8.01A12.282,12.282,0,0,0,265.672,128.744Z" transform="translate(-130.093 -72.95)" opacity="0.2"/>
        <path id="Trazado_160571" data-name="Trazado 160571" d="M283.7,118.146c-2.492,13.262-3.265,18.913-10.834,25.274-11.383,9.569-27.023,4.507-28.518-9.014C243,122.235,247.3,102.591,260.966,98.212,274.431,93.9,286.188,104.882,283.7,118.146Z" transform="translate(-134.308 -84.295)" fill="#ce7a63"/>
        <path id="Trazado_160572" data-name="Trazado 160572" d="M257.531,124.99c-3.482,0-6.394-3.541-6.527-7.982a9.368,9.368,0,0,1,1.685-5.8,5.814,5.814,0,0,1,4.508-2.562h.152c3.484,0,6.395,3.541,6.528,7.982h0c.133,4.505-2.647,8.257-6.195,8.363Zm-.18-15.667h-.133a5.144,5.144,0,0,0-3.979,2.283,8.684,8.684,0,0,0-1.555,5.38c.122,4.133,2.847,7.406,5.979,7.321,3.174-.094,5.658-3.531,5.535-7.663h0C263.077,112.573,260.467,109.323,257.352,109.323Z" transform="translate(-131.825 -80.193)" fill="#fff"/>
        <path id="Trazado_160573" data-name="Trazado 160573" d="M251.875,114.815a.338.338,0,0,1-.2-.067c-.011-.007-1.034-.755-1.545-.215a.34.34,0,0,1-.5-.467c.733-.782,1.883-.283,2.446.136a.34.34,0,0,1-.2.612Z" transform="translate(-132.352 -78.387)" fill="#fff"/>
        <path id="Trazado_160574" data-name="Trazado 160574" d="M247.108,124.076c-3.484,0-6.395-3.542-6.528-7.982-.133-4.507,2.646-8.259,6.194-8.363.052,0,.1,0,.152,0,3.484,0,6.395,3.542,6.528,7.982.135,4.505-2.645,8.259-6.194,8.363Zm-.181-15.668c-.045,0-.088,0-.133,0-3.172.094-5.656,3.531-5.534,7.663.121,4.073,2.732,7.323,5.847,7.323l.133,0c3.175-.094,5.658-3.531,5.534-7.663C252.652,111.657,250.042,108.407,246.927,108.407Z" transform="translate(-135.582 -80.523)" fill="#fff"/>
        <path id="Trazado_160575" data-name="Trazado 160575" d="M269.394,104.715c-5.433,12.108,3.606,17.709,4.95,21.487,1.895,10.506-22.031,31.363-14.928,64.026,10.32-18.259,24.535-17.395,26.031-29.673,1.541-12.655-4.8-19.062,1.928-31.135s9.113-26.474-2.7-28.717S269.394,104.715,269.394,104.715Z" transform="translate(-129.269 -83.23)" fill="#263238"/>
        <path id="Trazado_160576" data-name="Trazado 160576" d="M271.757,175.027a.339.339,0,0,1-.229-.592c6.87-6.228,7.393-14.367,7.948-22.983.363-5.656.74-11.5,2.986-16.993,3.953-9.664,7.23-23.233,3.45-29.676a6.794,6.794,0,0,0-5.293-3.427.339.339,0,0,1-.3-.378.324.324,0,0,1,.378-.3,7.445,7.445,0,0,1,5.8,3.757c3.9,6.649.8,20-3.408,30.277-2.2,5.386-2.578,11.178-2.937,16.78-.563,8.758-1.1,17.03-8.17,23.444A.341.341,0,0,1,271.757,175.027Z" transform="translate(-124.468 -83.063)" fill="#263238"/>
        <path id="Trazado_160577" data-name="Trazado 160577" d="M276.547,110.674c-8.973,1.02-24.818-.042-28.464-4.647s1.1-16.342,11.646-18.156c8.565-1.472,13.711,9.067,13.711,9.067s8.163-4.028,15.277,5.267C295.2,110.674,281.032,120.279,276.547,110.674Z" transform="translate(-133.315 -87.729)" fill="#263238"/>
        <path id="Trazado_160578" data-name="Trazado 160578" d="M275.228,118.219a.28.28,0,0,1-.057-.005l-15.025-2.582a.339.339,0,0,1,.114-.669l15.025,2.581a.341.341,0,0,1-.057.676Z" transform="translate(-128.632 -77.918)" fill="#fff"/>
        <path id="Trazado_160579" data-name="Trazado 160579" d="M258.464,114.8c-.16,1.122-.873,1.989-1.592,1.936s-1.171-1.005-1.009-2.128.873-1.989,1.592-1.936S258.626,113.679,258.464,114.8Z" transform="translate(-130.085 -78.742)" fill="#263238"/>
        <path id="Trazado_160580" data-name="Trazado 160580" d="M248.507,114.214c-.162,1.122-.875,1.989-1.593,1.936s-1.171-1.005-1.009-2.128.873-1.989,1.592-1.936S248.668,113.092,248.507,114.214Z" transform="translate(-133.673 -78.953)" fill="#263238"/>
        <path id="Trazado_160581" data-name="Trazado 160581" d="M247.963,112.405l-2.529-.971S246.487,113.639,247.963,112.405Z" transform="translate(-133.831 -79.188)" fill="#263238"/>
        <path id="Trazado_160582" data-name="Trazado 160582" d="M251.7,115.207s-2.559,4.693-4.946,6.872c1.253,1.49,3.81,1.041,3.81,1.041Z" transform="translate(-133.357 -77.828)" fill="#ba4d3c"/>
        <path id="Trazado_160583" data-name="Trazado 160583" d="M254.327,125.4a10.715,10.715,0,0,1-1.866.026.3.3,0,0,1-.276-.354.356.356,0,0,1,.371-.306,9.407,9.407,0,0,0,7.6-2.951.317.317,0,1,1,.49.4A9.906,9.906,0,0,1,254.327,125.4Z" transform="translate(-131.4 -75.494)" fill="#263238"/>
        <path id="Trazado_160584" data-name="Trazado 160584" d="M275.142,124.708a9.278,9.278,0,0,1-6.2,4.217c-3.161.438-4.062-3.238-2.612-6.619,1.3-3.046,4.523-6.942,7.423-5.813C276.612,117.606,277.062,121.809,275.142,124.708Z" transform="translate(-126.544 -77.437)" fill="#ce7a63"/>
        <path id="Trazado_160585" data-name="Trazado 160585" d="M262.292,111.663a.6.6,0,0,1-.405-.3,4.844,4.844,0,0,0-3.821-2.557.605.605,0,0,1-.594-.668.718.718,0,0,1,.725-.633,6.05,6.05,0,0,1,4.867,3.176.675.675,0,0,1-.283.9A.691.691,0,0,1,262.292,111.663Z" transform="translate(-129.495 -80.602)" fill="#263238"/>
        <path id="Trazado_160586" data-name="Trazado 160586" d="M246.091,108.184a.61.61,0,0,1-.453-.147.653.653,0,0,1-.023-.925,6.931,6.931,0,0,1,5.613-2.5.6.6,0,0,1,.525.725.717.717,0,0,1-.763.582,5.539,5.539,0,0,0-4.425,2.027A.7.7,0,0,1,246.091,108.184Z" transform="translate(-133.831 -81.651)" fill="#263238"/>
        <path id="Trazado_160587" data-name="Trazado 160587" d="M257.921,112.994l-2.529-.973S256.445,114.226,257.921,112.994Z" transform="translate(-130.243 -78.976)" fill="#263238"/>
        <path id="Trazado_160588" data-name="Trazado 160588" d="M273.695,219.647l.963-4.082a4.879,4.879,0,0,1,2.906-3.4l6.823-2.787a9.1,9.1,0,0,1,8.316.741l1.541.978c-1.134,6.879-7.43,13.478-7.43,13.478l-1.586,2.08a4.059,4.059,0,0,1-5.7.9l-4.163-3.089A4.677,4.677,0,0,1,273.695,219.647Z" transform="translate(-123.695 -44.137)" fill="#ce7a63"/>
        <g id="Grupo_86824" data-name="Grupo 86824" transform="translate(153.376 82.269)">
          <path id="Trazado_160589" data-name="Trazado 160589" d="M286.009,148.206c.714.471,1.118.771,1.639,1.148l1.438,1.077c.941.72,1.866,1.428,2.774,2.159q2.718,2.187,5.273,4.516a122.56,122.56,0,0,1,9.754,9.869,99.111,99.111,0,0,1,8.517,11.193c1.273,2,2.508,4.039,3.606,6.179a66.426,66.426,0,0,1,3.078,6.562l.669,1.7.087.226.14.415.261.837c.136.547.276,1.114.355,1.651a18.369,18.369,0,0,1-.048,5.9,29.329,29.329,0,0,1-2.917,8.489,72.72,72.72,0,0,1-8.131,12.146c-2.877,3.624-5.894,6.976-8.955,10.254-1.543,1.626-3.064,3.268-4.64,4.856l-2.383,2.377c-.819.809-1.554,1.564-2.495,2.449l-12.58-15.226c.69-.475,1.562-1.113,2.337-1.7l2.363-1.877c1.563-1.275,3.13-2.552,4.621-3.9a106.146,106.146,0,0,0,8.431-8.377,48.794,48.794,0,0,0,6.377-8.755,13.38,13.38,0,0,0,1.367-3.465c.059-.363.023-.528.038-.445.008.011,0,.065.023.094a.313.313,0,0,0,.018.079l.019.035-.057-.147-.5-1.262a60.374,60.374,0,0,0-12.432-18.6,79.719,79.719,0,0,0-8.593-7.807c-1.53-1.2-3.1-2.345-4.686-3.434-.8-.541-1.589-1.081-2.394-1.571l-1.2-.716c-.365-.211-.852-.488-1.042-.574Z" transform="translate(-276.142 -148.206)" fill="#407bff"/>
          <path id="Trazado_160590" data-name="Trazado 160590" d="M286.009,148.206c.714.471,1.118.771,1.639,1.148l1.438,1.077c.941.72,1.866,1.428,2.774,2.159q2.718,2.187,5.273,4.516a122.56,122.56,0,0,1,9.754,9.869,99.111,99.111,0,0,1,8.517,11.193c1.273,2,2.508,4.039,3.606,6.179a66.426,66.426,0,0,1,3.078,6.562l.669,1.7.087.226.14.415.261.837c.136.547.276,1.114.355,1.651a18.369,18.369,0,0,1-.048,5.9,29.329,29.329,0,0,1-2.917,8.489,72.72,72.72,0,0,1-8.131,12.146c-2.877,3.624-5.894,6.976-8.955,10.254-1.543,1.626-3.064,3.268-4.64,4.856l-2.383,2.377c-.819.809-1.554,1.564-2.495,2.449l-12.58-15.226c.69-.475,1.562-1.113,2.337-1.7l2.363-1.877c1.563-1.275,3.13-2.552,4.621-3.9a106.146,106.146,0,0,0,8.431-8.377,48.794,48.794,0,0,0,6.377-8.755,13.38,13.38,0,0,0,1.367-3.465c.059-.363.023-.528.038-.445.008.011,0,.065.023.094a.313.313,0,0,0,.018.079l.019.035-.057-.147-.5-1.262a60.374,60.374,0,0,0-12.432-18.6,79.719,79.719,0,0,0-8.593-7.807c-1.53-1.2-3.1-2.345-4.686-3.434-.8-.541-1.589-1.081-2.394-1.571l-1.2-.716c-.365-.211-.852-.488-1.042-.574Z" transform="translate(-276.142 -148.206)" fill="#fff" opacity="0.7"/>
        </g>
      </g>
    </g>
  </g>
</svg>
