<svg xmlns="http://www.w3.org/2000/svg" width="766" height="534" viewBox="0 0 766 534">
  <g id="Grupo_86846" data-name="Grupo 86846" transform="translate(3052 3272)">
    <path id="Trazado_160603" data-name="Trazado 160603" d="M20,0H746a20,20,0,0,1,20,20V514a20,20,0,0,1-20,20H20A20,20,0,0,1,0,514V20A20,20,0,0,1,20,0Z" transform="translate(-3052 -3272)" fill="#fff3e1"/>
    <path id="Trazado_160604" data-name="Trazado 160604" d="M73.865,12.474H72.2V17H69.11V4.2h5.036a5.621,5.621,0,0,1,3.56,1.01,3.421,3.421,0,0,1,1.283,2.853,4.155,4.155,0,0,1-.541,2.213A3.837,3.837,0,0,1,76.757,11.7l2.672,5.167V17h-3.3ZM72.2,10.1h1.951a1.751,1.751,0,0,0,1.323-.463,1.788,1.788,0,0,0,.444-1.291,1.809,1.809,0,0,0-.448-1.3,1.735,1.735,0,0,0-1.318-.471H72.2Zm13.122,7.075a4.889,4.889,0,0,1-3.542-1.305,4.507,4.507,0,0,1-1.354-3.4v-.246a5.84,5.84,0,0,1,.541-2.575A3.955,3.955,0,0,1,82.54,7.925,4.763,4.763,0,0,1,85,7.314a4.117,4.117,0,0,1,3.164,1.244,4.887,4.887,0,0,1,1.16,3.467v1.151H83.437a2.135,2.135,0,0,0,.694,1.257,2.066,2.066,0,0,0,1.389.457,2.662,2.662,0,0,0,2.2-.984l1.354,1.6A3.784,3.784,0,0,1,87.5,16.723,5.3,5.3,0,0,1,85.317,17.176ZM84.983,9.6q-1.3,0-1.547,1.723h2.988v-.229a1.467,1.467,0,0,0-.36-1.1A1.434,1.434,0,0,0,84.983,9.6Zm5.186,2.575a6.421,6.421,0,0,1,.475-2.549,3.821,3.821,0,0,1,1.362-1.709,3.591,3.591,0,0,1,2.065-.6,2.855,2.855,0,0,1,2.32,1L96.5,7.49h2.689V16.64a4.009,4.009,0,0,1-.584,2.184,3.75,3.75,0,0,1-1.692,1.424,6.219,6.219,0,0,1-2.566.5,5.365,5.365,0,0,1-2.026-.4,3.657,3.657,0,0,1-1.5-1.028l1.239-1.74a2.716,2.716,0,0,0,2.18.976,1.764,1.764,0,0,0,1.969-2.021v-.3a2.781,2.781,0,0,1-2.153.94,3.437,3.437,0,0,1-2.812-1.332,5.517,5.517,0,0,1-1.072-3.564Zm2.971.185a3.383,3.383,0,0,0,.439,1.85,1.387,1.387,0,0,0,1.23.681,1.573,1.573,0,0,0,1.4-.642v-4a1.534,1.534,0,0,0-1.38-.65,1.4,1.4,0,0,0-1.239.708A3.858,3.858,0,0,0,93.14,12.359ZM103.994,17h-2.971V7.49h2.971ZM100.848,5.029a1.334,1.334,0,0,1,.457-1.043,1.934,1.934,0,0,1,2.373,0,1.334,1.334,0,0,1,.457,1.043,1.334,1.334,0,0,1-.457,1.043,1.934,1.934,0,0,1-2.373,0A1.334,1.334,0,0,1,100.848,5.029Zm9.949,9.3a.684.684,0,0,0-.4-.606,6.016,6.016,0,0,0-1.5-.475,6.853,6.853,0,0,1-1.828-.646,3.062,3.062,0,0,1-1.1-.971,2.319,2.319,0,0,1-.378-1.31,2.628,2.628,0,0,1,1.081-2.158,4.453,4.453,0,0,1,2.83-.848,4.934,4.934,0,0,1,3.023.853,2.666,2.666,0,0,1,1.143,2.241H110.7q0-1.143-1.2-1.143a1.194,1.194,0,0,0-.782.259.8.8,0,0,0-.316.646.737.737,0,0,0,.387.642,3.654,3.654,0,0,0,1.235.4,10.671,10.671,0,0,1,1.49.378,2.706,2.706,0,0,1,2.145,2.646,2.491,2.491,0,0,1-1.156,2.118,5.068,5.068,0,0,1-2.993.817,5.172,5.172,0,0,1-2.18-.439,3.645,3.645,0,0,1-1.494-1.2,2.707,2.707,0,0,1-.536-1.591h2.769a1.145,1.145,0,0,0,.439.962,1.808,1.808,0,0,0,1.081.3,1.422,1.422,0,0,0,.91-.246A.787.787,0,0,0,110.8,14.328Zm7.69-9.2V7.49h1.564V9.547h-1.564V13.9a1.111,1.111,0,0,0,.193.747,1.037,1.037,0,0,0,.765.211,4.345,4.345,0,0,0,.738-.053v2.118a5.466,5.466,0,0,1-1.67.255,3.1,3.1,0,0,1-2.259-.721,2.954,2.954,0,0,1-.729-2.188V9.547h-1.213V7.49h1.213V5.126Zm8.481,5.045-.976-.07a1.752,1.752,0,0,0-1.793.879V17h-2.962V7.49h2.777l.1,1.222a2.294,2.294,0,0,1,2.083-1.4,2.888,2.888,0,0,1,.826.105Zm.378,1.986a5.613,5.613,0,0,1,.554-2.536,3.96,3.96,0,0,1,1.591-1.709,4.791,4.791,0,0,1,2.435-.6,4.373,4.373,0,0,1,3.366,1.323,5.076,5.076,0,0,1,1.23,3.6v.105a4.925,4.925,0,0,1-1.235,3.529,4.384,4.384,0,0,1-3.344,1.305,4.434,4.434,0,0,1-3.261-1.217,4.761,4.761,0,0,1-1.327-3.3Zm2.962.185a3.538,3.538,0,0,0,.413,1.934,1.376,1.376,0,0,0,1.222.615q1.582,0,1.617-2.435v-.3q0-2.558-1.635-2.558-1.485,0-1.608,2.206ZM142.965,17V9.547h-1.38V7.49h1.38V6.734a3.286,3.286,0,0,1,.958-2.522,3.785,3.785,0,0,1,2.689-.9A5.89,5.89,0,0,1,148,3.5l.009,2.18a2.706,2.706,0,0,0-.729-.079q-1.345,0-1.345,1.16V7.49h1.854V9.547h-1.854V17Zm5.493-4.843a5.613,5.613,0,0,1,.554-2.536A3.96,3.96,0,0,1,150.6,7.912a4.791,4.791,0,0,1,2.435-.6A4.373,4.373,0,0,1,156.4,8.637a5.076,5.076,0,0,1,1.23,3.6v.105a4.925,4.925,0,0,1-1.235,3.529,4.384,4.384,0,0,1-3.344,1.305,4.434,4.434,0,0,1-3.261-1.217,4.761,4.761,0,0,1-1.327-3.3Zm2.962.185a3.538,3.538,0,0,0,.413,1.934,1.376,1.376,0,0,0,1.222.615q1.582,0,1.617-2.435v-.3q0-2.558-1.635-2.558-1.485,0-1.608,2.206ZM153.441,3.5h3.129l-2.443,2.76-2.417,0Zm11.25,6.671-.976-.07a1.752,1.752,0,0,0-1.793.879V17h-2.962V7.49h2.777l.1,1.222a2.294,2.294,0,0,1,2.083-1.4,2.888,2.888,0,0,1,.826.105Zm3.867-2.681.1,1.116a3.27,3.27,0,0,1,2.716-1.292,2.407,2.407,0,0,1,2.435,1.433A3.165,3.165,0,0,1,176.6,7.314q2.892,0,2.971,3.5V17H176.6V11a1.813,1.813,0,0,0-.246-1.063,1.048,1.048,0,0,0-.9-.334,1.4,1.4,0,0,0-1.31.782l.009.123V17h-2.971V11.015a1.906,1.906,0,0,0-.237-1.081,1.045,1.045,0,0,0-.905-.334,1.42,1.42,0,0,0-1.3.782V17h-2.962V7.49Zm18.369,8.481a3.054,3.054,0,0,1-2.54,1.2,3,3,0,0,1-2.369-.91,3.826,3.826,0,0,1-.8-2.615V7.49h2.962v6.179a1.065,1.065,0,0,0,1.187,1.222,1.548,1.548,0,0,0,1.45-.729V7.49h2.979V17h-2.777ZM194.539,17h-2.971V3.5h2.971Zm7.181,0a3.344,3.344,0,0,1-.281-.853,2.754,2.754,0,0,1-2.285,1.028,3.374,3.374,0,0,1-2.285-.813,2.588,2.588,0,0,1-.94-2.043,2.66,2.66,0,0,1,1.143-2.338,5.821,5.821,0,0,1,3.322-.791h.914v-.5q0-1.316-1.134-1.316a.927.927,0,0,0-1.055,1.042h-2.962a2.655,2.655,0,0,1,1.173-2.239,4.931,4.931,0,0,1,2.993-.86A4.323,4.323,0,0,1,203.2,8.2a3.086,3.086,0,0,1,1.081,2.435v4.21a4.311,4.311,0,0,0,.4,2V17Zm-1.854-1.934a1.652,1.652,0,0,0,.918-.237,1.487,1.487,0,0,0,.523-.536V12.772h-.861q-1.547,0-1.547,1.389a.848.848,0,0,0,.272.655A.986.986,0,0,0,199.865,15.066ZM211.054,17V9.547h-1.38V7.49h1.38V6.734a3.286,3.286,0,0,1,.958-2.522,3.785,3.785,0,0,1,2.689-.9,5.89,5.89,0,0,1,1.389.185l.009,2.18a2.706,2.706,0,0,0-.729-.079q-1.345,0-1.345,1.16V7.49h1.854V9.547h-1.854V17Zm11.224,0a3.344,3.344,0,0,1-.281-.853,2.754,2.754,0,0,1-2.285,1.028,3.374,3.374,0,0,1-2.285-.813,2.588,2.588,0,0,1-.94-2.043,2.66,2.66,0,0,1,1.143-2.338,5.821,5.821,0,0,1,3.322-.791h.914v-.5q0-1.316-1.134-1.316a.927.927,0,0,0-1.055,1.042h-2.962a2.655,2.655,0,0,1,1.173-2.239,4.931,4.931,0,0,1,2.993-.86,4.323,4.323,0,0,1,2.874.888,3.086,3.086,0,0,1,1.081,2.435v4.21a4.311,4.311,0,0,0,.4,2V17Zm-1.854-1.934a1.652,1.652,0,0,0,.918-.237,1.487,1.487,0,0,0,.523-.536V12.772H221q-1.547,0-1.547,1.389a.848.848,0,0,0,.272.655A.986.986,0,0,0,220.423,15.066Zm11.8-4.9-.976-.07a1.752,1.752,0,0,0-1.793.879V17H226.5V7.49h2.777l.1,1.222a2.294,2.294,0,0,1,2.083-1.4,2.888,2.888,0,0,1,.826.105Zm3.867-2.681.1,1.116a3.27,3.27,0,0,1,2.716-1.292,2.407,2.407,0,0,1,2.435,1.433,3.165,3.165,0,0,1,2.795-1.433q2.892,0,2.971,3.5V17h-2.971V11a1.813,1.813,0,0,0-.246-1.063,1.048,1.048,0,0,0-.9-.334,1.4,1.4,0,0,0-1.31.782l.009.123V17h-2.971V11.015a1.906,1.906,0,0,0-.237-1.081,1.045,1.045,0,0,0-.905-.334,1.42,1.42,0,0,0-1.3.782V17h-2.962V7.49ZM254.155,17a3.344,3.344,0,0,1-.281-.853,2.754,2.754,0,0,1-2.285,1.028,3.374,3.374,0,0,1-2.285-.813,2.588,2.588,0,0,1-.94-2.043,2.66,2.66,0,0,1,1.143-2.338,5.821,5.821,0,0,1,3.322-.791h.914v-.5q0-1.316-1.134-1.316a.927.927,0,0,0-1.055,1.042h-2.962a2.655,2.655,0,0,1,1.173-2.239,4.931,4.931,0,0,1,2.993-.86,4.323,4.323,0,0,1,2.874.888,3.086,3.086,0,0,1,1.081,2.435v4.21a4.311,4.311,0,0,0,.4,2V17ZM252.3,15.066a1.652,1.652,0,0,0,.918-.237,1.487,1.487,0,0,0,.523-.536V12.772h-.861q-1.547,0-1.547,1.389a.848.848,0,0,0,.272.655A.986.986,0,0,0,252.3,15.066Zm10.072-.176a1.317,1.317,0,0,0,.967-.338,1.241,1.241,0,0,0,.334-.945h2.777a3.288,3.288,0,0,1-1.121,2.566,4.168,4.168,0,0,1-2.887,1,4.22,4.22,0,0,1-3.27-1.3,5.125,5.125,0,0,1-1.2-3.6v-.123A5.792,5.792,0,0,1,258.51,9.6a3.872,3.872,0,0,1,1.534-1.7,4.573,4.573,0,0,1,2.373-.593,4.116,4.116,0,0,1,2.944,1.028,3.647,3.647,0,0,1,1.09,2.786h-2.777a1.626,1.626,0,0,0-.36-1.134,1.244,1.244,0,0,0-.967-.4Q261.2,9.6,261,11.067a10.357,10.357,0,0,0-.062,1.283,4.068,4.068,0,0,0,.343,1.986A1.187,1.187,0,0,0,262.373,14.891Zm9.932,2.285a4.889,4.889,0,0,1-3.542-1.305,4.507,4.507,0,0,1-1.354-3.4v-.246a5.84,5.84,0,0,1,.541-2.575,3.955,3.955,0,0,1,1.578-1.727,4.763,4.763,0,0,1,2.461-.611,4.117,4.117,0,0,1,3.164,1.244,4.887,4.887,0,0,1,1.16,3.467v1.151h-5.889a2.135,2.135,0,0,0,.694,1.257,2.066,2.066,0,0,0,1.389.457,2.662,2.662,0,0,0,2.2-.984l1.354,1.6a3.784,3.784,0,0,1-1.569,1.217A5.3,5.3,0,0,1,272.3,17.176ZM271.971,9.6q-1.3,0-1.547,1.723h2.988v-.229a1.467,1.467,0,0,0-.36-1.1A1.434,1.434,0,0,0,271.971,9.6Zm-.035-6.108h3.129l-2.443,2.76-2.417,0Zm11.232,12.48a3.054,3.054,0,0,1-2.54,1.2,3,3,0,0,1-2.369-.91,3.826,3.826,0,0,1-.8-2.615V7.49h2.962v6.179a1.065,1.065,0,0,0,1.187,1.222,1.548,1.548,0,0,0,1.45-.729V7.49h2.979V17h-2.777ZM291.1,5.126V7.49h1.564V9.547H291.1V13.9a1.111,1.111,0,0,0,.193.747,1.037,1.037,0,0,0,.765.211,4.345,4.345,0,0,0,.738-.053v2.118a5.466,5.466,0,0,1-1.67.255,3.1,3.1,0,0,1-2.259-.721,2.954,2.954,0,0,1-.729-2.188V9.547H286.93V7.49h1.213V5.126ZM296.958,17h-2.971V7.49h2.971ZM293.812,5.029a1.334,1.334,0,0,1,.457-1.043,1.934,1.934,0,0,1,2.373,0,1.334,1.334,0,0,1,.457,1.043,1.334,1.334,0,0,1-.457,1.043,1.934,1.934,0,0,1-2.373,0A1.334,1.334,0,0,1,293.812,5.029Zm8.991,9.861a1.317,1.317,0,0,0,.967-.338,1.241,1.241,0,0,0,.334-.945h2.777a3.288,3.288,0,0,1-1.121,2.566,4.168,4.168,0,0,1-2.887,1,4.22,4.22,0,0,1-3.27-1.3,5.125,5.125,0,0,1-1.2-3.6v-.123A5.792,5.792,0,0,1,298.94,9.6a3.872,3.872,0,0,1,1.534-1.7,4.573,4.573,0,0,1,2.373-.593,4.116,4.116,0,0,1,2.944,1.028,3.647,3.647,0,0,1,1.09,2.786H304.1a1.626,1.626,0,0,0-.36-1.134,1.244,1.244,0,0,0-.967-.4q-1.151,0-1.345,1.468a10.357,10.357,0,0,0-.062,1.283,4.068,4.068,0,0,0,.343,1.986A1.187,1.187,0,0,0,302.8,14.891ZM313.49,17a3.344,3.344,0,0,1-.281-.853,2.754,2.754,0,0,1-2.285,1.028,3.374,3.374,0,0,1-2.285-.813,2.588,2.588,0,0,1-.94-2.043,2.66,2.66,0,0,1,1.143-2.338,5.821,5.821,0,0,1,3.322-.791h.914v-.5q0-1.316-1.134-1.316a.927.927,0,0,0-1.055,1.042h-2.962A2.655,2.655,0,0,1,309.1,8.175a4.931,4.931,0,0,1,2.993-.86,4.323,4.323,0,0,1,2.874.888,3.086,3.086,0,0,1,1.081,2.435v4.21a4.311,4.311,0,0,0,.4,2V17Zm-1.854-1.934a1.652,1.652,0,0,0,.918-.237,1.487,1.487,0,0,0,.523-.536V12.772h-.861q-1.547,0-1.547,1.389a.848.848,0,0,0,.272.655A.986.986,0,0,0,311.636,15.066Z" transform="translate(-2861 -3236)" fill="#12263f"/>
    <g id="Grupo_86540" data-name="Grupo 86540" transform="translate(-99.25 -867)">
      <g id="Rectángulo_35164" data-name="Rectángulo 35164" transform="translate(-2908.75 -2335)" fill="#fff" stroke="#707070" stroke-width="1">
        <rect width="679" height="416" stroke="none"/>
        <rect x="0.5" y="0.5" width="678" height="415" fill="none"/>
      </g>
      <g id="Rectángulo_35170" data-name="Rectángulo 35170" transform="translate(-2895.75 -2271)" fill="#fff" stroke="#707070" stroke-width="1">
        <rect width="653" height="25" stroke="none"/>
        <rect x="0.5" y="0.5" width="652" height="24" fill="none"/>
      </g>
      <g id="Rectángulo_35200" data-name="Rectángulo 35200" transform="translate(-2895.75 -2191)" fill="#f3f9ff" stroke="#707070" stroke-width="1">
        <rect width="653" height="38" stroke="none"/>
        <rect x="0.5" y="0.5" width="652" height="37" fill="none"/>
      </g>
      <g id="Rectángulo_35172" data-name="Rectángulo 35172" transform="translate(-2895.75 -2231)" fill="#fff" stroke="#707070" stroke-width="1">
        <rect width="480" height="25" stroke="none"/>
        <rect x="0.5" y="0.5" width="479" height="24" fill="none"/>
      </g>
      <g id="Rectángulo_35173" data-name="Rectángulo 35173" transform="translate(-2410.75 -2231)" fill="#fff" stroke="#707070" stroke-width="1">
        <rect width="168" height="25" stroke="none"/>
        <rect x="0.5" y="0.5" width="167" height="24" fill="none"/>
      </g>
      <text id="Registro_Fórmula" data-name="Registro Fórmula" transform="translate(-2568.75 -2294)" fill="#12263f" font-size="16" font-family="Roboto-Black, Roboto" font-weight="800"><tspan x="-62.258" y="0">Registro Fórmula</tspan></text>
      <text id="Nombre:" transform="translate(-2888.5 -2254)" fill="#12263f" font-size="14" font-family="Roboto-Regular, Roboto"><tspan x="0" y="0">Nombre:</tspan></text>
      <text id="Forma_farmacéutica_vía_administración:" data-name="Forma farmacéutica / vía administración:" transform="translate(-2888.5 -2214)" fill="#12263f" font-size="14" font-family="Roboto-Regular, Roboto"><tspan x="0" y="0">Forma farmacéutica / vía administración:</tspan></text>
      <text id="Componentes_de_la_fórmula" data-name="Componentes de la fórmula" transform="translate(-2867.5 -2167.5)" fill="#12263f" font-size="14" font-family="Roboto-Regular, Roboto"><tspan x="0" y="0">Componentes de la fórmula</tspan></text>
      <text id="Lote_Caducidad" data-name="Lote / Caducidad" transform="translate(-2537.5 -2167.5)" fill="#12263f" font-size="14" font-family="Roboto-Regular, Roboto"><tspan x="-53.341" y="0">Lote / Caducidad</tspan></text>
      <text id="Cantidad" transform="translate(-2370.945 -2167.5)" fill="#12263f" font-size="14" font-family="Roboto-Regular, Roboto"><tspan x="-27.915" y="0">Cantidad</tspan></text>
      <text id="Unidades" transform="translate(-2284.945 -2167.5)" fill="#12263f" font-size="14" font-family="Roboto-Regular, Roboto"><tspan x="-29.121" y="0">Unidades</tspan></text>
      <text id="Lote:" transform="translate(-2400.945 -2214)" fill="#12263f" font-size="14" font-family="Roboto-Regular, Roboto"><tspan x="0" y="0">Lote:</tspan></text>
      <g id="Rectángulo_35199" data-name="Rectángulo 35199" transform="translate(-2895.75 -2191)" fill="none" stroke="#707070" stroke-width="1">
        <rect width="653" height="237" stroke="none"/>
        <rect x="0.5" y="0.5" width="652" height="236" fill="none"/>
      </g>
      <line id="Línea_239" data-name="Línea 239" x2="653" transform="translate(-2895.5 -2153)" fill="none" stroke="#707070" stroke-width="1"/>
      <line id="Línea_240" data-name="Línea 240" x2="653" transform="translate(-2895.5 -2114)" fill="none" stroke="#707070" stroke-width="1"/>
      <line id="Línea_241" data-name="Línea 241" x2="653" transform="translate(-2895.5 -2075)" fill="none" stroke="#707070" stroke-width="1"/>
      <line id="Línea_242" data-name="Línea 242" x2="653" transform="translate(-2895.5 -2036)" fill="none" stroke="#707070" stroke-width="1"/>
      <line id="Línea_243" data-name="Línea 243" x2="653" transform="translate(-2895.5 -1997)" fill="none" stroke="#707070" stroke-width="1"/>
      <line id="Línea_244" data-name="Línea 244" y2="237" transform="translate(-2655.5 -2191)" fill="none" stroke="#707070" stroke-width="1"/>
      <line id="Línea_245" data-name="Línea 245" y2="237" transform="translate(-2415.75 -2191)" fill="none" stroke="#707070" stroke-width="1"/>
      <line id="Línea_246" data-name="Línea 246" y2="237" transform="translate(-2326.75 -2191)" fill="none" stroke="#707070" stroke-width="1"/>
    </g>
  </g>
</svg>
