<svg xmlns="http://www.w3.org/2000/svg" xmlns:xlink="http://www.w3.org/1999/xlink" width="607.62" height="185" viewBox="0 0 607.62 185">
  <defs>
    <clipPath id="clip-path">
      <rect id="Rectángulo_34066" data-name="Rectángulo 34066" width="85" height="85" transform="translate(285 4025)" fill="#fff"/>
    </clipPath>
    <clipPath id="clip-path-2">
      <path id="path3378" d="M0-85H85V0H0Z"/>
    </clipPath>
    <clipPath id="clip-path-3">
      <rect id="Rectángulo_34067" data-name="Rectángulo 34067" width="85" height="85" transform="translate(495 4025)" fill="#fff"/>
    </clipPath>
    <clipPath id="clip-path-4">
      <path id="path597" d="M0-85H85V0H0Z" fill="#12263f"/>
    </clipPath>
    <clipPath id="clip-path-5">
      <rect id="Rectángulo_34068" data-name="Rectángulo 34068" width="85" height="85" transform="translate(705 3976)" fill="#fff"/>
    </clipPath>
    <clipPath id="clip-path-6">
      <rect id="Rectángulo_34069" data-name="Rectángulo 34069" width="85" height="85" transform="translate(705 4076)" fill="#fff"/>
    </clipPath>
  </defs>
  <g id="Grupo_86843" data-name="Grupo 86843" transform="translate(-285 -3976)">
    <path id="Trazado_160625" data-name="Trazado 160625" d="M2.939,9.493V13H.889V3.047H4.771a4.492,4.492,0,0,1,1.972.41A3.022,3.022,0,0,1,8.053,4.623a3.25,3.25,0,0,1,.458,1.719,2.858,2.858,0,0,1-1,2.307,4.171,4.171,0,0,1-2.772.844Zm0-1.661H4.771a1.8,1.8,0,0,0,1.241-.383,1.392,1.392,0,0,0,.427-1.094,1.642,1.642,0,0,0-.431-1.183,1.609,1.609,0,0,0-1.189-.465H2.939Zm11.006-.376a5.367,5.367,0,0,0-.711-.055,1.447,1.447,0,0,0-1.47.759V13H9.789V5.6h1.866l.055.882a1.831,1.831,0,0,1,1.647-1.019,2.07,2.07,0,0,1,.615.089Zm4.225,5.681a3.631,3.631,0,0,1-2.649-1A3.548,3.548,0,0,1,14.5,9.479V9.288A4.468,4.468,0,0,1,14.93,7.3a3.161,3.161,0,0,1,1.22-1.354,3.425,3.425,0,0,1,1.8-.475,3.07,3.07,0,0,1,2.389.957,3.889,3.889,0,0,1,.872,2.714v.807H16.5a1.835,1.835,0,0,0,.578,1.162,1.746,1.746,0,0,0,1.22.438,2.132,2.132,0,0,0,1.784-.827l.971,1.087a2.966,2.966,0,0,1-1.2.981A3.947,3.947,0,0,1,18.17,13.137ZM17.944,7.06a1.234,1.234,0,0,0-.954.4,2.062,2.062,0,0,0-.468,1.14h2.748V8.44a1.471,1.471,0,0,0-.355-1.02A1.274,1.274,0,0,0,17.944,7.06ZM28.991,9.37a4.436,4.436,0,0,1-.776,2.738,2.488,2.488,0,0,1-2.1,1.029,2.3,2.3,0,0,1-1.812-.779v3.486H22.333V5.6h1.832l.068.725a2.322,2.322,0,0,1,1.873-.861,2.5,2.5,0,0,1,2.126,1.012,4.556,4.556,0,0,1,.759,2.789ZM27.016,9.22a2.927,2.927,0,0,0-.366-1.6,1.19,1.19,0,0,0-1.063-.562,1.293,1.293,0,0,0-1.278.713V10.81a1.315,1.315,0,0,0,1.292.734Q27.016,11.544,27.016,9.22ZM34.5,13a2.194,2.194,0,0,1-.2-.663,2.39,2.39,0,0,1-1.866.8,2.626,2.626,0,0,1-1.8-.629,2.023,2.023,0,0,1-.714-1.586,2.09,2.09,0,0,1,.872-1.8,4.3,4.3,0,0,1,2.519-.636h.909V8.058a1.219,1.219,0,0,0-.263-.82,1.035,1.035,0,0,0-.831-.308,1.177,1.177,0,0,0-.783.239.813.813,0,0,0-.284.656H30.085a1.984,1.984,0,0,1,.4-1.189A2.621,2.621,0,0,1,31.6,5.778a4.086,4.086,0,0,1,1.627-.311,3.228,3.228,0,0,1,2.17.687,2.4,2.4,0,0,1,.8,1.931v3.206a3.536,3.536,0,0,0,.294,1.593V13Zm-1.634-1.374a1.7,1.7,0,0,0,.807-.195,1.28,1.28,0,0,0,.547-.523V9.637h-.738Q32,9.637,31.9,10.662l-.007.116a.791.791,0,0,0,.26.608A1.009,1.009,0,0,0,32.867,11.626Zm9.01-4.17a5.367,5.367,0,0,0-.711-.055,1.447,1.447,0,0,0-1.47.759V13H37.721V5.6h1.866l.055.882a1.831,1.831,0,0,1,1.647-1.019,2.07,2.07,0,0,1,.615.089ZM46.908,13a2.194,2.194,0,0,1-.2-.663,2.39,2.39,0,0,1-1.866.8,2.626,2.626,0,0,1-1.8-.629,2.023,2.023,0,0,1-.714-1.586,2.09,2.09,0,0,1,.872-1.8,4.3,4.3,0,0,1,2.519-.636h.909V8.058a1.219,1.219,0,0,0-.263-.82,1.035,1.035,0,0,0-.831-.308,1.177,1.177,0,0,0-.783.239.813.813,0,0,0-.284.656H42.492a1.984,1.984,0,0,1,.4-1.189,2.621,2.621,0,0,1,1.121-.858,4.086,4.086,0,0,1,1.627-.311,3.228,3.228,0,0,1,2.17.687,2.4,2.4,0,0,1,.8,1.931v3.206a3.536,3.536,0,0,0,.294,1.593V13Zm-1.634-1.374a1.7,1.7,0,0,0,.807-.195,1.28,1.28,0,0,0,.547-.523V9.637H45.89q-1.483,0-1.579,1.025l-.007.116a.791.791,0,0,0,.26.608A1.009,1.009,0,0,0,45.274,11.626ZM49.82,9.247A4.457,4.457,0,0,1,50.6,6.492a2.517,2.517,0,0,1,2.123-1.025,2.265,2.265,0,0,1,1.784.807V2.5h1.982V13H54.7l-.1-.786a2.325,2.325,0,0,1-1.9.923,2.511,2.511,0,0,1-2.1-1.029A4.6,4.6,0,0,1,49.82,9.247Zm1.976.141a2.936,2.936,0,0,0,.362,1.6,1.179,1.179,0,0,0,1.053.556,1.321,1.321,0,0,0,1.292-.776V7.836a1.3,1.3,0,0,0-1.278-.776Q51.8,7.06,51.8,9.388Zm5.913-.154a4.387,4.387,0,0,1,.424-1.962,3.1,3.1,0,0,1,1.22-1.333A3.56,3.56,0,0,1,61.2,5.467a3.368,3.368,0,0,1,2.444.916A3.676,3.676,0,0,1,64.7,8.871l.014.506a3.866,3.866,0,0,1-.95,2.731,3.683,3.683,0,0,1-5.1,0,3.934,3.934,0,0,1-.954-2.789Zm1.976.14a2.765,2.765,0,0,0,.4,1.612,1.424,1.424,0,0,0,2.256.007,3.025,3.025,0,0,0,.4-1.763,2.737,2.737,0,0,0-.4-1.6A1.311,1.311,0,0,0,61.2,7.06a1.29,1.29,0,0,0-1.121.565A3.076,3.076,0,0,0,59.685,9.374Zm9.427-.14a4.387,4.387,0,0,1,.424-1.962,3.1,3.1,0,0,1,1.22-1.333A3.56,3.56,0,0,1,72.6,5.467a3.368,3.368,0,0,1,2.444.916A3.676,3.676,0,0,1,76.1,8.871l.014.506a3.866,3.866,0,0,1-.95,2.731,3.683,3.683,0,0,1-5.1,0,3.934,3.934,0,0,1-.954-2.789Zm1.976.14a2.765,2.765,0,0,0,.4,1.612,1.424,1.424,0,0,0,2.256.007,3.025,3.025,0,0,0,.4-1.763,2.737,2.737,0,0,0-.4-1.6A1.311,1.311,0,0,0,72.6,7.06a1.29,1.29,0,0,0-1.121.565A3.076,3.076,0,0,0,71.087,9.374Zm-63.67,20a4.436,4.436,0,0,1-.776,2.738,2.488,2.488,0,0,1-2.1,1.029,2.3,2.3,0,0,1-1.812-.779v3.486H.759V25.6H2.591l.068.725a2.322,2.322,0,0,1,1.873-.861,2.5,2.5,0,0,1,2.126,1.012,4.556,4.556,0,0,1,.759,2.789ZM5.441,29.22a2.927,2.927,0,0,0-.366-1.6,1.19,1.19,0,0,0-1.063-.562,1.293,1.293,0,0,0-1.278.713V30.81a1.315,1.315,0,0,0,1.292.734Q5.441,31.544,5.441,29.22ZM12.8,27.456a5.367,5.367,0,0,0-.711-.055,1.447,1.447,0,0,0-1.47.759V33H8.641V25.6h1.866l.055.882a1.831,1.831,0,0,1,1.647-1.019,2.07,2.07,0,0,1,.615.089Zm.4,1.777a4.387,4.387,0,0,1,.424-1.962,3.1,3.1,0,0,1,1.22-1.333,3.56,3.56,0,0,1,1.849-.472,3.368,3.368,0,0,1,2.444.916,3.676,3.676,0,0,1,1.056,2.488l.014.506a3.866,3.866,0,0,1-.95,2.731,3.3,3.3,0,0,1-2.55,1.029,3.319,3.319,0,0,1-2.553-1.025,3.934,3.934,0,0,1-.954-2.789Zm1.976.14a2.765,2.765,0,0,0,.4,1.612,1.424,1.424,0,0,0,2.256.007,3.025,3.025,0,0,0,.4-1.763,2.737,2.737,0,0,0-.4-1.6,1.311,1.311,0,0,0-1.135-.568,1.29,1.29,0,0,0-1.121.565A3.076,3.076,0,0,0,15.169,29.374Zm5.94-.127a4.457,4.457,0,0,1,.776-2.755,2.517,2.517,0,0,1,2.123-1.025,2.265,2.265,0,0,1,1.784.807V22.5h1.982V33H25.99l-.1-.786a2.325,2.325,0,0,1-1.9.923,2.511,2.511,0,0,1-2.1-1.029A4.6,4.6,0,0,1,21.109,29.247Zm1.976.141a2.936,2.936,0,0,0,.362,1.6,1.179,1.179,0,0,0,1.053.556,1.321,1.321,0,0,0,1.292-.776V27.836a1.3,1.3,0,0,0-1.278-.776Q23.085,27.06,23.085,29.388Zm10.65,2.86a2.477,2.477,0,0,1-2.023.889,2.337,2.337,0,0,1-1.815-.684,2.918,2.918,0,0,1-.639-2V25.6h1.976v4.784q0,1.157,1.053,1.157a1.426,1.426,0,0,0,1.381-.7V25.6h1.982V33H33.79Zm6.48-.7a1.3,1.3,0,0,0,.889-.3,1.054,1.054,0,0,0,.355-.8h1.853a2.534,2.534,0,0,1-.41,1.377,2.706,2.706,0,0,1-1.1.971,3.455,3.455,0,0,1-1.548.345,3.211,3.211,0,0,1-2.5-1.008,3.99,3.99,0,0,1-.916-2.786v-.13a3.944,3.944,0,0,1,.909-2.728,3.174,3.174,0,0,1,2.5-1.019,3.111,3.111,0,0,1,2.225.79,2.8,2.8,0,0,1,.851,2.1H41.46a1.358,1.358,0,0,0-.355-.938,1.321,1.321,0,0,0-1.945.142,2.916,2.916,0,0,0-.352,1.633V29.4a2.953,2.953,0,0,0,.349,1.643A1.2,1.2,0,0,0,40.216,31.544Zm6.59-7.759V25.6H48.07v1.449H46.806v3.691a.881.881,0,0,0,.157.588.79.79,0,0,0,.6.178,3.151,3.151,0,0,0,.581-.048v1.5a4.067,4.067,0,0,1-1.2.178,1.886,1.886,0,0,1-2.119-2.1V27.053H43.75V25.6h1.08V23.785Zm1.853,5.448a4.387,4.387,0,0,1,.424-1.962,3.1,3.1,0,0,1,1.22-1.333,3.56,3.56,0,0,1,1.849-.472,3.368,3.368,0,0,1,2.444.916,3.676,3.676,0,0,1,1.056,2.488l.014.506a3.866,3.866,0,0,1-.95,2.731,3.683,3.683,0,0,1-5.1,0,3.934,3.934,0,0,1-.954-2.789Zm1.976.14a2.765,2.765,0,0,0,.4,1.612,1.424,1.424,0,0,0,2.256.007,3.025,3.025,0,0,0,.4-1.763,2.737,2.737,0,0,0-.4-1.6,1.311,1.311,0,0,0-1.135-.568,1.29,1.29,0,0,0-1.121.565A3.076,3.076,0,0,0,50.634,29.374ZM1.3,53V47.053H.2V45.6H1.3v-.629a2.553,2.553,0,0,1,.714-1.931,2.767,2.767,0,0,1,2-.687,4.656,4.656,0,0,1,1,.136L5,44.011a2.519,2.519,0,0,0-.6-.062q-1.114,0-1.114,1.055v.6h1.47v1.449H3.281V53Zm8.764,0a2.194,2.194,0,0,1-.2-.663,2.39,2.39,0,0,1-1.866.8,2.626,2.626,0,0,1-1.8-.629,2.023,2.023,0,0,1-.714-1.586,2.09,2.09,0,0,1,.872-1.8,4.3,4.3,0,0,1,2.519-.636h.909v-.424a1.219,1.219,0,0,0-.263-.82,1.035,1.035,0,0,0-.831-.308,1.177,1.177,0,0,0-.783.239.813.813,0,0,0-.284.656H5.646a1.984,1.984,0,0,1,.4-1.189,2.621,2.621,0,0,1,1.121-.858,4.086,4.086,0,0,1,1.627-.311,3.228,3.228,0,0,1,2.17.687,2.4,2.4,0,0,1,.8,1.931v3.206a3.536,3.536,0,0,0,.294,1.593V53ZM8.429,51.626a1.7,1.7,0,0,0,.807-.195,1.28,1.28,0,0,0,.547-.523V49.637H9.044q-1.483,0-1.579,1.025l-.007.116a.791.791,0,0,0,.26.608A1.009,1.009,0,0,0,8.429,51.626Zm9.01-4.17a5.367,5.367,0,0,0-.711-.055,1.447,1.447,0,0,0-1.47.759V53H13.282V45.6h1.866l.055.882a1.831,1.831,0,0,1,1.647-1.019,2.07,2.07,0,0,1,.615.089Zm2.8-1.853.062.827a2.6,2.6,0,0,1,2.126-.964,1.973,1.973,0,0,1,1.962,1.128,2.54,2.54,0,0,1,2.222-1.128,2.206,2.206,0,0,1,1.791.7,3.221,3.221,0,0,1,.588,2.109V53H27.009V48.272a1.414,1.414,0,0,0-.246-.922,1.089,1.089,0,0,0-.868-.291,1.233,1.233,0,0,0-1.23.85L24.671,53H22.7V48.279a1.4,1.4,0,0,0-.253-.932,1.1,1.1,0,0,0-.861-.288,1.28,1.28,0,0,0-1.217.7V53H18.389V45.6ZM34.795,53a2.194,2.194,0,0,1-.2-.663,2.39,2.39,0,0,1-1.866.8,2.626,2.626,0,0,1-1.8-.629,2.023,2.023,0,0,1-.714-1.586,2.09,2.09,0,0,1,.872-1.8,4.3,4.3,0,0,1,2.519-.636h.909v-.424a1.219,1.219,0,0,0-.263-.82,1.035,1.035,0,0,0-.831-.308,1.177,1.177,0,0,0-.783.239.813.813,0,0,0-.284.656H30.379a1.984,1.984,0,0,1,.4-1.189,2.621,2.621,0,0,1,1.121-.858,4.086,4.086,0,0,1,1.627-.311,3.228,3.228,0,0,1,2.17.687,2.4,2.4,0,0,1,.8,1.931v3.206a3.536,3.536,0,0,0,.294,1.593V53Zm-1.634-1.374a1.7,1.7,0,0,0,.807-.195,1.28,1.28,0,0,0,.547-.523V49.637h-.738q-1.483,0-1.579,1.025l-.007.116a.791.791,0,0,0,.26.608A1.009,1.009,0,0,0,33.161,51.626Zm7.93-.082a1.3,1.3,0,0,0,.889-.3,1.054,1.054,0,0,0,.355-.8h1.853a2.534,2.534,0,0,1-.41,1.377,2.706,2.706,0,0,1-1.1.971,3.455,3.455,0,0,1-1.548.345,3.211,3.211,0,0,1-2.5-1.008,3.99,3.99,0,0,1-.916-2.786v-.13a3.944,3.944,0,0,1,.909-2.728,3.174,3.174,0,0,1,2.5-1.019,3.111,3.111,0,0,1,2.225.79,2.8,2.8,0,0,1,.851,2.1H42.335a1.358,1.358,0,0,0-.355-.938,1.321,1.321,0,0,0-1.945.142,2.916,2.916,0,0,0-.352,1.633V49.4a2.953,2.953,0,0,0,.349,1.643A1.2,1.2,0,0,0,41.091,51.544Zm7.629,1.593a3.631,3.631,0,0,1-2.649-1,3.548,3.548,0,0,1-1.022-2.659v-.191a4.468,4.468,0,0,1,.431-1.993,3.161,3.161,0,0,1,1.22-1.354,3.425,3.425,0,0,1,1.8-.475,3.07,3.07,0,0,1,2.389.957,3.889,3.889,0,0,1,.872,2.714v.807h-4.71a1.835,1.835,0,0,0,.578,1.162,1.746,1.746,0,0,0,1.22.438,2.132,2.132,0,0,0,1.784-.827L51.6,51.8a2.966,2.966,0,0,1-1.2.981A3.947,3.947,0,0,1,48.72,53.137Zm-.226-6.077a1.234,1.234,0,0,0-.954.4,2.062,2.062,0,0,0-.468,1.14H49.82V48.44a1.471,1.471,0,0,0-.355-1.02A1.274,1.274,0,0,0,48.494,47.06Zm.178-4.56h2.153l-1.894,2.119H47.325Zm8.641,9.748a2.477,2.477,0,0,1-2.023.889,2.337,2.337,0,0,1-1.815-.684,2.918,2.918,0,0,1-.639-2V45.6h1.976v4.784q0,1.157,1.053,1.157a1.426,1.426,0,0,0,1.381-.7V45.6h1.982V53H57.367Zm5.77-8.463V45.6h1.265v1.449H63.082v3.691a.881.881,0,0,0,.157.588.79.79,0,0,0,.6.178,3.15,3.15,0,0,0,.581-.048v1.5a4.067,4.067,0,0,1-1.2.178,1.886,1.886,0,0,1-2.119-2.1V47.053h-1.08V45.6h1.08V43.785ZM67.532,53H65.55V45.6h1.982Zm-2.1-9.311a.973.973,0,0,1,.3-.731,1.281,1.281,0,0,1,1.617,0,1.044,1.044,0,0,1,0,1.47,1.267,1.267,0,0,1-1.606,0A.97.97,0,0,1,65.434,43.689Zm6.8,7.854a1.3,1.3,0,0,0,.889-.3,1.054,1.054,0,0,0,.355-.8h1.853a2.534,2.534,0,0,1-.41,1.377,2.706,2.706,0,0,1-1.1.971,3.455,3.455,0,0,1-1.548.345,3.211,3.211,0,0,1-2.5-1.008,3.99,3.99,0,0,1-.916-2.786v-.13a3.944,3.944,0,0,1,.909-2.728,3.174,3.174,0,0,1,2.5-1.019,3.111,3.111,0,0,1,2.225.79,2.8,2.8,0,0,1,.851,2.1H73.479a1.358,1.358,0,0,0-.355-.938,1.321,1.321,0,0,0-1.945.142,2.916,2.916,0,0,0-.352,1.633V49.4a2.953,2.953,0,0,0,.349,1.643A1.2,1.2,0,0,0,72.235,51.544Zm3.917-2.311a4.387,4.387,0,0,1,.424-1.962,3.1,3.1,0,0,1,1.22-1.333,3.56,3.56,0,0,1,1.849-.472,3.368,3.368,0,0,1,2.444.916,3.676,3.676,0,0,1,1.056,2.488l.014.506a3.866,3.866,0,0,1-.95,2.731,3.683,3.683,0,0,1-5.1,0,3.934,3.934,0,0,1-.954-2.789Zm1.976.14a2.765,2.765,0,0,0,.4,1.612,1.424,1.424,0,0,0,2.256.007,3.025,3.025,0,0,0,.4-1.763,2.737,2.737,0,0,0-.4-1.6,1.311,1.311,0,0,0-1.135-.568,1.29,1.29,0,0,0-1.121.565A3.076,3.076,0,0,0,78.128,49.374Z" transform="translate(379 4039)" fill="#12263f"/>
    <path id="Trazado_160626" data-name="Trazado 160626" d="M6.508,10.949h-3.6L2.229,13H.048L3.753,3.047h1.9L9.379,13H7.2ZM3.466,9.288H5.954L4.7,5.563Zm8.962-5.5V5.6h1.265V7.053H12.428v3.691a.881.881,0,0,0,.157.588.79.79,0,0,0,.6.178,3.15,3.15,0,0,0,.581-.048v1.5a4.067,4.067,0,0,1-1.2.178,1.886,1.886,0,0,1-2.119-2.1V7.053H9.372V5.6h1.08V3.785ZM16.878,13H14.9V5.6h1.982Zm-2.1-9.311a.973.973,0,0,1,.3-.731,1.281,1.281,0,0,1,1.617,0,.967.967,0,0,1,.3.731.97.97,0,0,1-.3.738,1.267,1.267,0,0,1-1.606,0A.97.97,0,0,1,14.779,3.689Zm7.13,9.447a3.631,3.631,0,0,1-2.649-1,3.548,3.548,0,0,1-1.022-2.659V9.288A4.468,4.468,0,0,1,18.669,7.3a3.161,3.161,0,0,1,1.22-1.354,3.425,3.425,0,0,1,1.8-.475,3.07,3.07,0,0,1,2.389.957,3.889,3.889,0,0,1,.872,2.714v.807h-4.71a1.835,1.835,0,0,0,.578,1.162,1.746,1.746,0,0,0,1.22.438,2.132,2.132,0,0,0,1.784-.827l.971,1.087a2.966,2.966,0,0,1-1.2.981A3.947,3.947,0,0,1,21.909,13.137ZM21.684,7.06a1.234,1.234,0,0,0-.954.4,2.062,2.062,0,0,0-.468,1.14H23.01V8.44a1.471,1.471,0,0,0-.355-1.02A1.274,1.274,0,0,0,21.684,7.06ZM27.891,5.6l.062.854a2.582,2.582,0,0,1,2.126-.991,2.146,2.146,0,0,1,1.75.69,3.221,3.221,0,0,1,.588,2.064V13H30.44V8.259a1.287,1.287,0,0,0-.273-.915,1.222,1.222,0,0,0-.909-.284,1.359,1.359,0,0,0-1.251.713V13H26.031V5.6Zm5.715,3.644a4.457,4.457,0,0,1,.776-2.755A2.517,2.517,0,0,1,36.5,5.467a2.265,2.265,0,0,1,1.784.807V2.5h1.982V13H38.486l-.1-.786a2.325,2.325,0,0,1-1.9.923,2.511,2.511,0,0,1-2.1-1.029A4.6,4.6,0,0,1,33.605,9.247Zm1.976.141a2.936,2.936,0,0,0,.362,1.6A1.179,1.179,0,0,0,37,11.544a1.321,1.321,0,0,0,1.292-.776V7.836A1.3,1.3,0,0,0,37.01,7.06Q35.581,7.06,35.581,9.388Zm9.625,3.749a3.631,3.631,0,0,1-2.649-1,3.548,3.548,0,0,1-1.022-2.659V9.288A4.468,4.468,0,0,1,41.966,7.3a3.161,3.161,0,0,1,1.22-1.354,3.425,3.425,0,0,1,1.8-.475,3.07,3.07,0,0,1,2.389.957,3.889,3.889,0,0,1,.872,2.714v.807h-4.71a1.835,1.835,0,0,0,.578,1.162,1.746,1.746,0,0,0,1.22.438,2.132,2.132,0,0,0,1.784-.827l.971,1.087a2.966,2.966,0,0,1-1.2.981A3.947,3.947,0,0,1,45.206,13.137ZM44.98,7.06a1.234,1.234,0,0,0-.954.4,2.062,2.062,0,0,0-.468,1.14h2.748V8.44a1.471,1.471,0,0,0-.355-1.02A1.274,1.274,0,0,0,44.98,7.06Zm12.3,5.188a2.477,2.477,0,0,1-2.023.889,2.337,2.337,0,0,1-1.815-.684,2.918,2.918,0,0,1-.639-2V5.6h1.976v4.784q0,1.157,1.053,1.157a1.426,1.426,0,0,0,1.381-.7V5.6H59.2V13H57.34ZM62.508,5.6l.062.854A2.582,2.582,0,0,1,64.7,5.467a2.146,2.146,0,0,1,1.75.69,3.221,3.221,0,0,1,.588,2.064V13H65.058V8.259a1.287,1.287,0,0,0-.273-.915,1.222,1.222,0,0,0-.909-.284,1.359,1.359,0,0,0-1.251.713V13H60.648V5.6ZM72.816,13a2.194,2.194,0,0,1-.2-.663,2.39,2.39,0,0,1-1.866.8,2.626,2.626,0,0,1-1.8-.629,2.023,2.023,0,0,1-.714-1.586,2.09,2.09,0,0,1,.872-1.8,4.3,4.3,0,0,1,2.519-.636h.909V8.058a1.219,1.219,0,0,0-.263-.82,1.035,1.035,0,0,0-.831-.308,1.177,1.177,0,0,0-.783.239.813.813,0,0,0-.284.656H68.4a1.985,1.985,0,0,1,.4-1.189,2.621,2.621,0,0,1,1.121-.858,4.086,4.086,0,0,1,1.627-.311,3.228,3.228,0,0,1,2.17.687,2.4,2.4,0,0,1,.8,1.931v3.206a3.536,3.536,0,0,0,.294,1.593V13Zm-1.634-1.374a1.7,1.7,0,0,0,.807-.195,1.28,1.28,0,0,0,.547-.523V9.637H71.8q-1.483,0-1.579,1.025l-.007.116a.791.791,0,0,0,.26.608A1.009,1.009,0,0,0,71.183,11.626ZM7.417,29.37a4.436,4.436,0,0,1-.776,2.738,2.488,2.488,0,0,1-2.1,1.029,2.3,2.3,0,0,1-1.812-.779v3.486H.759V25.6H2.591l.068.725a2.322,2.322,0,0,1,1.873-.861,2.5,2.5,0,0,1,2.126,1.012,4.556,4.556,0,0,1,.759,2.789ZM5.441,29.22a2.927,2.927,0,0,0-.366-1.6,1.19,1.19,0,0,0-1.063-.562,1.293,1.293,0,0,0-1.278.713V30.81a1.315,1.315,0,0,0,1.292.734Q5.441,31.544,5.441,29.22ZM12.8,27.456a5.367,5.367,0,0,0-.711-.055,1.447,1.447,0,0,0-1.47.759V33H8.641V25.6h1.866l.055.882a1.831,1.831,0,0,1,1.647-1.019,2.07,2.07,0,0,1,.615.089Zm4.225,5.681a3.631,3.631,0,0,1-2.649-1,3.548,3.548,0,0,1-1.022-2.659v-.191a4.468,4.468,0,0,1,.431-1.993A3.161,3.161,0,0,1,15,25.942a3.425,3.425,0,0,1,1.8-.475,3.07,3.07,0,0,1,2.389.957,3.889,3.889,0,0,1,.872,2.714v.807h-4.71a1.835,1.835,0,0,0,.578,1.162,1.746,1.746,0,0,0,1.22.438,2.132,2.132,0,0,0,1.784-.827l.971,1.087a2.966,2.966,0,0,1-1.2.981A3.947,3.947,0,0,1,17.021,33.137ZM16.8,27.06a1.234,1.234,0,0,0-.954.4,2.062,2.062,0,0,0-.468,1.14h2.748V28.44a1.471,1.471,0,0,0-.355-1.02A1.274,1.274,0,0,0,16.8,27.06Zm8.395,3.9a.637.637,0,0,0-.359-.571,4.077,4.077,0,0,0-1.152-.373q-2.639-.554-2.639-2.242a2.032,2.032,0,0,1,.817-1.644,3.3,3.3,0,0,1,2.136-.66,3.547,3.547,0,0,1,2.252.663,2.09,2.09,0,0,1,.844,1.723H25.115a.956.956,0,0,0-.273-.7,1.157,1.157,0,0,0-.854-.277,1.182,1.182,0,0,0-.772.226.712.712,0,0,0-.273.574.609.609,0,0,0,.311.53,3.2,3.2,0,0,0,1.049.349,8.571,8.571,0,0,1,1.244.332,2.044,2.044,0,0,1,1.565,1.989,1.929,1.929,0,0,1-.868,1.637A3.745,3.745,0,0,1,24,33.137a3.912,3.912,0,0,1-1.651-.332,2.77,2.77,0,0,1-1.131-.909,2.113,2.113,0,0,1-.41-1.248h1.873a1.031,1.031,0,0,0,.39.807,1.546,1.546,0,0,0,.971.28,1.43,1.43,0,0,0,.858-.215A.67.67,0,0,0,25.19,30.956Zm6.269.588a1.3,1.3,0,0,0,.889-.3,1.054,1.054,0,0,0,.355-.8h1.853a2.534,2.534,0,0,1-.41,1.377,2.706,2.706,0,0,1-1.1.971,3.455,3.455,0,0,1-1.548.345,3.211,3.211,0,0,1-2.5-1.008,3.99,3.99,0,0,1-.916-2.786v-.13a3.944,3.944,0,0,1,.909-2.728,3.174,3.174,0,0,1,2.5-1.019,3.111,3.111,0,0,1,2.225.79,2.8,2.8,0,0,1,.851,2.1H32.7a1.358,1.358,0,0,0-.355-.938,1.321,1.321,0,0,0-1.945.142,2.916,2.916,0,0,0-.352,1.633V29.4a2.953,2.953,0,0,0,.349,1.643A1.2,1.2,0,0,0,31.459,31.544Zm8.381-4.088a5.367,5.367,0,0,0-.711-.055,1.447,1.447,0,0,0-1.47.759V33H35.684V25.6H37.55l.055.882a1.831,1.831,0,0,1,1.647-1.019,2.07,2.07,0,0,1,.615.089ZM42.875,33H40.893V25.6h1.982Zm-2.1-9.311a.973.973,0,0,1,.3-.731,1.281,1.281,0,0,1,1.617,0,1.044,1.044,0,0,1,0,1.47,1.267,1.267,0,0,1-1.606,0A.97.97,0,0,1,40.776,23.689ZM51.16,29.37a4.436,4.436,0,0,1-.776,2.738,2.488,2.488,0,0,1-2.1,1.029,2.3,2.3,0,0,1-1.812-.779v3.486H44.5V25.6h1.832l.068.725a2.322,2.322,0,0,1,1.873-.861A2.5,2.5,0,0,1,50.4,26.479a4.556,4.556,0,0,1,.759,2.789Zm-1.976-.151a2.927,2.927,0,0,0-.366-1.6,1.19,1.19,0,0,0-1.063-.562,1.293,1.293,0,0,0-1.278.713V30.81a1.315,1.315,0,0,0,1.292.734Q49.185,31.544,49.185,29.22Zm6.275,2.324a1.3,1.3,0,0,0,.889-.3,1.054,1.054,0,0,0,.355-.8h1.853a2.534,2.534,0,0,1-.41,1.377,2.706,2.706,0,0,1-1.1.971,3.455,3.455,0,0,1-1.548.345,3.211,3.211,0,0,1-2.5-1.008,3.99,3.99,0,0,1-.916-2.786v-.13a3.944,3.944,0,0,1,.909-2.728,3.174,3.174,0,0,1,2.5-1.019,3.111,3.111,0,0,1,2.225.79,2.8,2.8,0,0,1,.851,2.1H56.7a1.358,1.358,0,0,0-.355-.938,1.321,1.321,0,0,0-1.945.142,2.916,2.916,0,0,0-.352,1.633V29.4a2.953,2.953,0,0,0,.349,1.643A1.2,1.2,0,0,0,55.46,31.544ZM61.77,33H59.787V25.6H61.77Zm-2.1-9.311a.973.973,0,0,1,.3-.731,1.281,1.281,0,0,1,1.617,0,1.044,1.044,0,0,1,0,1.47,1.267,1.267,0,0,1-1.606,0A.97.97,0,0,1,59.671,23.689Zm3.418,5.544a4.387,4.387,0,0,1,.424-1.962,3.1,3.1,0,0,1,1.22-1.333,3.56,3.56,0,0,1,1.849-.472,3.368,3.368,0,0,1,2.444.916,3.676,3.676,0,0,1,1.056,2.488l.014.506a3.866,3.866,0,0,1-.95,2.731,3.683,3.683,0,0,1-5.1,0,3.934,3.934,0,0,1-.954-2.789Zm1.976.14a2.765,2.765,0,0,0,.4,1.612,1.424,1.424,0,0,0,2.256.007,3.025,3.025,0,0,0,.4-1.763,2.737,2.737,0,0,0-.4-1.6,1.311,1.311,0,0,0-1.135-.568,1.29,1.29,0,0,0-1.121.565A3.076,3.076,0,0,0,65.064,29.374ZM66.972,22.5h2.153l-1.894,2.119H65.625Zm6.159,3.1.062.854a2.582,2.582,0,0,1,2.126-.991,2.146,2.146,0,0,1,1.75.69,3.221,3.221,0,0,1,.588,2.064V33H75.681V28.259a1.287,1.287,0,0,0-.273-.915,1.222,1.222,0,0,0-.909-.284,1.359,1.359,0,0,0-1.251.713V33H71.271V25.6Zm-70.52,20,.062.827A2.6,2.6,0,0,1,4.8,45.467a1.973,1.973,0,0,1,1.962,1.128,2.54,2.54,0,0,1,2.222-1.128,2.206,2.206,0,0,1,1.791.7,3.221,3.221,0,0,1,.588,2.109V53H9.379V48.272a1.414,1.414,0,0,0-.246-.922,1.089,1.089,0,0,0-.868-.291,1.233,1.233,0,0,0-1.23.85L7.041,53H5.065V48.279a1.4,1.4,0,0,0-.253-.932,1.1,1.1,0,0,0-.861-.288,1.28,1.28,0,0,0-1.217.7V53H.759V45.6Zm13.672,7.533a3.631,3.631,0,0,1-2.649-1,3.548,3.548,0,0,1-1.022-2.659v-.191a4.468,4.468,0,0,1,.431-1.993,3.161,3.161,0,0,1,1.22-1.354,3.425,3.425,0,0,1,1.8-.475,3.07,3.07,0,0,1,2.389.957,3.889,3.889,0,0,1,.872,2.714v.807h-4.71a1.835,1.835,0,0,0,.578,1.162,1.746,1.746,0,0,0,1.22.438,2.132,2.132,0,0,0,1.784-.827l.971,1.087a2.966,2.966,0,0,1-1.2.981A3.947,3.947,0,0,1,16.283,53.137Zm-.226-6.077a1.234,1.234,0,0,0-.954.4,2.062,2.062,0,0,0-.468,1.14h2.748V48.44a1.471,1.471,0,0,0-.355-1.02A1.274,1.274,0,0,0,16.058,47.06Zm.178-4.56h2.153L16.5,44.619H14.889Zm3.9,6.747a4.457,4.457,0,0,1,.776-2.755,2.517,2.517,0,0,1,2.123-1.025,2.265,2.265,0,0,1,1.784.807V42.5H26.8V53H25.02l-.1-.786a2.325,2.325,0,0,1-1.9.923,2.511,2.511,0,0,1-2.1-1.029A4.6,4.6,0,0,1,20.139,49.247Zm1.976.141a2.936,2.936,0,0,0,.362,1.6,1.179,1.179,0,0,0,1.053.556,1.321,1.321,0,0,0,1.292-.776V47.836a1.3,1.3,0,0,0-1.278-.776Q22.114,47.06,22.114,49.388ZM30.42,53H28.438V45.6H30.42Zm-2.1-9.311a.973.973,0,0,1,.3-.731,1.281,1.281,0,0,1,1.617,0,1.044,1.044,0,0,1,0,1.47,1.267,1.267,0,0,1-1.606,0A.97.97,0,0,1,28.321,43.689Zm6.8,7.854a1.3,1.3,0,0,0,.889-.3,1.054,1.054,0,0,0,.355-.8H38.22a2.534,2.534,0,0,1-.41,1.377,2.706,2.706,0,0,1-1.1.971,3.455,3.455,0,0,1-1.548.345,3.211,3.211,0,0,1-2.5-1.008,3.99,3.99,0,0,1-.916-2.786v-.13a3.944,3.944,0,0,1,.909-2.728,3.174,3.174,0,0,1,2.5-1.019,3.111,3.111,0,0,1,2.225.79,2.8,2.8,0,0,1,.851,2.1H36.367a1.358,1.358,0,0,0-.355-.938,1.321,1.321,0,0,0-1.945.142,2.916,2.916,0,0,0-.352,1.633V49.4a2.953,2.953,0,0,0,.349,1.643A1.2,1.2,0,0,0,35.123,51.544ZM43.634,53a2.194,2.194,0,0,1-.2-.663,2.39,2.39,0,0,1-1.866.8,2.626,2.626,0,0,1-1.8-.629,2.023,2.023,0,0,1-.714-1.586,2.09,2.09,0,0,1,.872-1.8,4.3,4.3,0,0,1,2.519-.636h.909v-.424a1.219,1.219,0,0,0-.263-.82,1.035,1.035,0,0,0-.831-.308,1.177,1.177,0,0,0-.783.239.813.813,0,0,0-.284.656H39.218a1.984,1.984,0,0,1,.4-1.189,2.621,2.621,0,0,1,1.121-.858,4.086,4.086,0,0,1,1.627-.311,3.228,3.228,0,0,1,2.17.687,2.4,2.4,0,0,1,.8,1.931v3.206a3.536,3.536,0,0,0,.294,1.593V53ZM42,51.626a1.7,1.7,0,0,0,.807-.195,1.28,1.28,0,0,0,.547-.523V49.637h-.738q-1.483,0-1.579,1.025l-.007.116a.791.791,0,0,0,.26.608A1.009,1.009,0,0,0,42,51.626Z" transform="translate(589 4039)" fill="#12263f"/>
    <path id="Trazado_160627" data-name="Trazado 160627" d="M3.069,13H1.019V3.047H3.069ZM6.658,5.6l.062.854a2.582,2.582,0,0,1,2.126-.991,2.146,2.146,0,0,1,1.75.69,3.221,3.221,0,0,1,.588,2.064V13H9.208V8.259a1.287,1.287,0,0,0-.273-.915,1.222,1.222,0,0,0-.909-.284,1.359,1.359,0,0,0-1.251.713V13H4.8V5.6Zm8.388-1.818V5.6h1.265V7.053H15.046v3.691a.881.881,0,0,0,.157.588.79.79,0,0,0,.6.178,3.15,3.15,0,0,0,.581-.048v1.5a4.067,4.067,0,0,1-1.2.178,1.886,1.886,0,0,1-2.119-2.1V7.053H11.99V5.6h1.08V3.785Zm5.77,9.352a3.631,3.631,0,0,1-2.649-1,3.548,3.548,0,0,1-1.022-2.659V9.288A4.468,4.468,0,0,1,17.575,7.3,3.161,3.161,0,0,1,18.8,5.942a3.425,3.425,0,0,1,1.8-.475,3.07,3.07,0,0,1,2.389.957,3.889,3.889,0,0,1,.872,2.714v.807h-4.71a1.835,1.835,0,0,0,.578,1.162,1.746,1.746,0,0,0,1.22.438,2.132,2.132,0,0,0,1.784-.827L23.7,11.8a2.966,2.966,0,0,1-1.2.981A3.947,3.947,0,0,1,20.815,13.137ZM20.59,7.06a1.234,1.234,0,0,0-.954.4,2.062,2.062,0,0,0-.468,1.14h2.748V8.44a1.471,1.471,0,0,0-.355-1.02A1.274,1.274,0,0,0,20.59,7.06Zm8.545.4a5.367,5.367,0,0,0-.711-.055,1.447,1.447,0,0,0-1.47.759V13H24.979V5.6h1.866l.055.882a1.831,1.831,0,0,1,1.647-1.019,2.07,2.07,0,0,1,.615.089Zm3.842,3.131L34.351,5.6h2.064L33.92,13H32.033l-2.5-7.4H31.6Zm7.622,2.55a3.631,3.631,0,0,1-2.649-1,3.548,3.548,0,0,1-1.022-2.659V9.288A4.468,4.468,0,0,1,37.358,7.3a3.161,3.161,0,0,1,1.22-1.354,3.425,3.425,0,0,1,1.8-.475,3.07,3.07,0,0,1,2.389.957,3.889,3.889,0,0,1,.872,2.714v.807h-4.71a1.835,1.835,0,0,0,.578,1.162,1.746,1.746,0,0,0,1.22.438,2.132,2.132,0,0,0,1.784-.827l.971,1.087a2.966,2.966,0,0,1-1.2.981A3.947,3.947,0,0,1,40.6,13.137ZM40.373,7.06a1.234,1.234,0,0,0-.954.4,2.062,2.062,0,0,0-.468,1.14H41.7V8.44a1.471,1.471,0,0,0-.355-1.02A1.274,1.274,0,0,0,40.373,7.06ZM46.58,5.6l.062.854a2.582,2.582,0,0,1,2.126-.991,2.146,2.146,0,0,1,1.75.69,3.221,3.221,0,0,1,.588,2.064V13H49.13V8.259a1.287,1.287,0,0,0-.273-.915,1.222,1.222,0,0,0-.909-.284,1.359,1.359,0,0,0-1.251.713V13H44.721V5.6Zm9.1,5.94a1.3,1.3,0,0,0,.889-.3,1.054,1.054,0,0,0,.355-.8h1.853a2.534,2.534,0,0,1-.41,1.377,2.706,2.706,0,0,1-1.1.971,3.455,3.455,0,0,1-1.548.345,3.211,3.211,0,0,1-2.5-1.008,3.99,3.99,0,0,1-.916-2.786v-.13A3.944,3.944,0,0,1,53.2,6.485a3.174,3.174,0,0,1,2.5-1.019,3.111,3.111,0,0,1,2.225.79,2.8,2.8,0,0,1,.851,2.1H56.923a1.358,1.358,0,0,0-.355-.938,1.321,1.321,0,0,0-1.945.142A2.916,2.916,0,0,0,54.271,9.2V9.4a2.953,2.953,0,0,0,.349,1.643A1.2,1.2,0,0,0,55.679,11.544ZM61.988,13H60.006V5.6h1.982Zm-2.1-9.311a.973.973,0,0,1,.3-.731,1.281,1.281,0,0,1,1.617,0,.967.967,0,0,1,.3.731.97.97,0,0,1-.3.738,1.267,1.267,0,0,1-1.606,0A.97.97,0,0,1,59.89,3.689Zm3.418,5.544a4.387,4.387,0,0,1,.424-1.962,3.1,3.1,0,0,1,1.22-1.333A3.56,3.56,0,0,1,66.8,5.467a3.368,3.368,0,0,1,2.444.916A3.676,3.676,0,0,1,70.3,8.871l.014.506a3.866,3.866,0,0,1-.95,2.731,3.683,3.683,0,0,1-5.1,0,3.934,3.934,0,0,1-.954-2.789Zm1.976.14a2.765,2.765,0,0,0,.4,1.612,1.424,1.424,0,0,0,2.256.007,3.025,3.025,0,0,0,.4-1.763,2.737,2.737,0,0,0-.4-1.6A1.311,1.311,0,0,0,66.8,7.06a1.29,1.29,0,0,0-1.121.565A3.076,3.076,0,0,0,65.283,9.374ZM67.19,2.5h2.153L67.45,4.619H65.844ZM73.35,5.6l.062.854a2.582,2.582,0,0,1,2.126-.991,2.146,2.146,0,0,1,1.75.69,3.221,3.221,0,0,1,.588,2.064V13H75.9V8.259a1.287,1.287,0,0,0-.273-.915,1.222,1.222,0,0,0-.909-.284,1.359,1.359,0,0,0-1.251.713V13H71.49V5.6ZM3.124,23.785V25.6H4.389v1.449H3.124v3.691a.881.881,0,0,0,.157.588.79.79,0,0,0,.6.178,3.151,3.151,0,0,0,.581-.048v1.5a4.067,4.067,0,0,1-1.2.178,1.886,1.886,0,0,1-2.119-2.1V27.053H.068V25.6h1.08V23.785Zm5.77,9.352a3.631,3.631,0,0,1-2.649-1,3.548,3.548,0,0,1-1.022-2.659v-.191A4.468,4.468,0,0,1,5.653,27.3a3.161,3.161,0,0,1,1.22-1.354,3.425,3.425,0,0,1,1.8-.475,3.07,3.07,0,0,1,2.389.957,3.889,3.889,0,0,1,.872,2.714v.807H7.226A1.835,1.835,0,0,0,7.8,31.106a1.746,1.746,0,0,0,1.22.438,2.132,2.132,0,0,0,1.784-.827l.971,1.087a2.966,2.966,0,0,1-1.2.981A3.947,3.947,0,0,1,8.894,33.137ZM8.668,27.06a1.234,1.234,0,0,0-.954.4,2.062,2.062,0,0,0-.468,1.14H9.994V28.44a1.471,1.471,0,0,0-.355-1.02A1.274,1.274,0,0,0,8.668,27.06Zm.178-4.56H11L9.105,24.619H7.5Zm7.287,9.044a1.3,1.3,0,0,0,.889-.3,1.054,1.054,0,0,0,.355-.8h1.853a2.534,2.534,0,0,1-.41,1.377,2.706,2.706,0,0,1-1.1.971,3.455,3.455,0,0,1-1.548.345,3.211,3.211,0,0,1-2.5-1.008,3.99,3.99,0,0,1-.916-2.786v-.13a3.944,3.944,0,0,1,.909-2.728,3.174,3.174,0,0,1,2.5-1.019,3.111,3.111,0,0,1,2.225.79,2.8,2.8,0,0,1,.851,2.1H17.377a1.358,1.358,0,0,0-.355-.938,1.321,1.321,0,0,0-1.945.142,2.916,2.916,0,0,0-.352,1.633V29.4a2.953,2.953,0,0,0,.349,1.643A1.2,1.2,0,0,0,16.133,31.544Zm6.043-5.94.062.854a2.582,2.582,0,0,1,2.126-.991,2.146,2.146,0,0,1,1.75.69,3.221,3.221,0,0,1,.588,2.064V33H24.726V28.259a1.287,1.287,0,0,0-.273-.915,1.222,1.222,0,0,0-.909-.284,1.359,1.359,0,0,0-1.251.713V33H20.316V25.6ZM30.283,33H28.3V25.6h1.982Zm-2.1-9.311a.973.973,0,0,1,.3-.731,1.281,1.281,0,0,1,1.617,0,1.044,1.044,0,0,1,0,1.47,1.267,1.267,0,0,1-1.606,0A.97.97,0,0,1,28.185,23.689Zm6.8,7.854a1.3,1.3,0,0,0,.889-.3,1.054,1.054,0,0,0,.355-.8h1.853a2.534,2.534,0,0,1-.41,1.377,2.706,2.706,0,0,1-1.1.971,3.455,3.455,0,0,1-1.548.345,3.211,3.211,0,0,1-2.5-1.008,3.99,3.99,0,0,1-.916-2.786v-.13a3.944,3.944,0,0,1,.909-2.728,3.174,3.174,0,0,1,2.5-1.019,3.111,3.111,0,0,1,2.225.79,2.8,2.8,0,0,1,.851,2.1H36.23a1.358,1.358,0,0,0-.355-.938,1.321,1.321,0,0,0-1.945.142,2.916,2.916,0,0,0-.352,1.633V29.4a2.953,2.953,0,0,0,.349,1.643A1.2,1.2,0,0,0,34.986,31.544ZM43.5,33a2.194,2.194,0,0,1-.2-.663,2.39,2.39,0,0,1-1.866.8,2.626,2.626,0,0,1-1.8-.629,2.023,2.023,0,0,1-.714-1.586,2.09,2.09,0,0,1,.872-1.8,4.3,4.3,0,0,1,2.519-.636h.909v-.424a1.219,1.219,0,0,0-.263-.82,1.035,1.035,0,0,0-.831-.308,1.177,1.177,0,0,0-.783.239.813.813,0,0,0-.284.656H39.081a1.984,1.984,0,0,1,.4-1.189,2.621,2.621,0,0,1,1.121-.858,4.086,4.086,0,0,1,1.627-.311,3.228,3.228,0,0,1,2.17.687,2.4,2.4,0,0,1,.8,1.931v3.206a3.536,3.536,0,0,0,.294,1.593V33Zm-1.634-1.374a1.7,1.7,0,0,0,.807-.195,1.28,1.28,0,0,0,.547-.523V29.637h-.738q-1.483,0-1.579,1.025l-.007.116a.791.791,0,0,0,.26.608A1.009,1.009,0,0,0,41.863,31.626Z" transform="translate(800 4000)" fill="#12263f"/>
    <path id="Trazado_160628" data-name="Trazado 160628" d="M4.566,10.532,6.822,3.047H9.105L5.64,13H3.5L.048,3.047H2.324ZM13.884,13a2.194,2.194,0,0,1-.2-.663,2.39,2.39,0,0,1-1.866.8,2.626,2.626,0,0,1-1.8-.629A2.023,2.023,0,0,1,9.3,10.922a2.09,2.09,0,0,1,.872-1.8,4.3,4.3,0,0,1,2.519-.636H13.6V8.058a1.219,1.219,0,0,0-.263-.82,1.035,1.035,0,0,0-.831-.308,1.177,1.177,0,0,0-.783.239.813.813,0,0,0-.284.656H9.468a1.984,1.984,0,0,1,.4-1.189,2.621,2.621,0,0,1,1.121-.858,4.086,4.086,0,0,1,1.627-.311,3.228,3.228,0,0,1,2.17.687,2.4,2.4,0,0,1,.8,1.931v3.206a3.536,3.536,0,0,0,.294,1.593V13ZM12.25,11.626a1.7,1.7,0,0,0,.807-.195,1.28,1.28,0,0,0,.547-.523V9.637h-.738q-1.483,0-1.579,1.025l-.007.116a.791.791,0,0,0,.26.608A1.009,1.009,0,0,0,12.25,11.626Zm9.01-4.17a5.367,5.367,0,0,0-.711-.055,1.447,1.447,0,0,0-1.47.759V13H17.1V5.6H18.97l.055.882a1.831,1.831,0,0,1,1.647-1.019,2.07,2.07,0,0,1,.615.089ZM24.295,13H22.313V5.6h1.982ZM22.2,3.689a.973.973,0,0,1,.3-.731,1.281,1.281,0,0,1,1.617,0,.967.967,0,0,1,.3.731.97.97,0,0,1-.3.738,1.267,1.267,0,0,1-1.606,0A.97.97,0,0,1,22.2,3.689ZM30.208,13a2.194,2.194,0,0,1-.2-.663,2.39,2.39,0,0,1-1.866.8,2.626,2.626,0,0,1-1.8-.629,2.023,2.023,0,0,1-.714-1.586,2.09,2.09,0,0,1,.872-1.8,4.3,4.3,0,0,1,2.519-.636h.909V8.058a1.219,1.219,0,0,0-.263-.82,1.035,1.035,0,0,0-.831-.308,1.177,1.177,0,0,0-.783.239.813.813,0,0,0-.284.656H25.792a1.984,1.984,0,0,1,.4-1.189,2.621,2.621,0,0,1,1.121-.858,4.086,4.086,0,0,1,1.627-.311,3.228,3.228,0,0,1,2.17.687,2.4,2.4,0,0,1,.8,1.931v3.206a3.536,3.536,0,0,0,.294,1.593V13Zm-1.634-1.374a1.7,1.7,0,0,0,.807-.195,1.28,1.28,0,0,0,.547-.523V9.637h-.738q-1.483,0-1.579,1.025l-.007.116a.791.791,0,0,0,.26.608A1.009,1.009,0,0,0,28.574,11.626Zm7.93-.082a1.3,1.3,0,0,0,.889-.3,1.054,1.054,0,0,0,.355-.8H39.6a2.534,2.534,0,0,1-.41,1.377,2.706,2.706,0,0,1-1.1.971,3.455,3.455,0,0,1-1.548.345,3.211,3.211,0,0,1-2.5-1.008,3.99,3.99,0,0,1-.916-2.786v-.13a3.944,3.944,0,0,1,.909-2.728,3.174,3.174,0,0,1,2.5-1.019,3.111,3.111,0,0,1,2.225.79,2.8,2.8,0,0,1,.851,2.1H37.748a1.358,1.358,0,0,0-.355-.938,1.321,1.321,0,0,0-1.945.142A2.916,2.916,0,0,0,35.1,9.2V9.4a2.953,2.953,0,0,0,.349,1.643A1.2,1.2,0,0,0,36.5,11.544ZM42.813,13H40.831V5.6h1.982Zm-2.1-9.311a.973.973,0,0,1,.3-.731,1.281,1.281,0,0,1,1.617,0,.967.967,0,0,1,.3.731.97.97,0,0,1-.3.738,1.267,1.267,0,0,1-1.606,0A.97.97,0,0,1,40.715,3.689Zm3.418,5.544a4.387,4.387,0,0,1,.424-1.962,3.1,3.1,0,0,1,1.22-1.333,3.56,3.56,0,0,1,1.849-.472,3.368,3.368,0,0,1,2.444.916,3.676,3.676,0,0,1,1.056,2.488l.014.506a3.866,3.866,0,0,1-.95,2.731,3.683,3.683,0,0,1-5.1,0,3.934,3.934,0,0,1-.954-2.789Zm1.976.14a2.765,2.765,0,0,0,.4,1.612,1.424,1.424,0,0,0,2.256.007,3.025,3.025,0,0,0,.4-1.763,2.737,2.737,0,0,0-.4-1.6,1.311,1.311,0,0,0-1.135-.568,1.29,1.29,0,0,0-1.121.565A3.076,3.076,0,0,0,46.108,9.374ZM48.016,2.5h2.153L48.275,4.619H46.669Zm6.159,3.1.062.854a2.582,2.582,0,0,1,2.126-.991,2.146,2.146,0,0,1,1.75.69A3.221,3.221,0,0,1,58.7,8.222V13H56.725V8.259a1.287,1.287,0,0,0-.273-.915,1.222,1.222,0,0,0-.909-.284,1.359,1.359,0,0,0-1.251.713V13H52.315V5.6Zm9.2,3.644a4.457,4.457,0,0,1,.776-2.755,2.517,2.517,0,0,1,2.123-1.025,2.265,2.265,0,0,1,1.784.807V2.5h1.982V13H68.257l-.1-.786a2.325,2.325,0,0,1-1.9.923,2.511,2.511,0,0,1-2.1-1.029A4.6,4.6,0,0,1,63.376,9.247Zm1.976.141a2.936,2.936,0,0,0,.362,1.6,1.179,1.179,0,0,0,1.053.556,1.321,1.321,0,0,0,1.292-.776V7.836A1.3,1.3,0,0,0,66.78,7.06Q65.352,7.06,65.352,9.388Zm9.625,3.749a3.631,3.631,0,0,1-2.649-1,3.548,3.548,0,0,1-1.022-2.659V9.288A4.468,4.468,0,0,1,71.736,7.3a3.161,3.161,0,0,1,1.22-1.354,3.425,3.425,0,0,1,1.8-.475,3.07,3.07,0,0,1,2.389.957,3.889,3.889,0,0,1,.872,2.714v.807h-4.71a1.835,1.835,0,0,0,.578,1.162,1.746,1.746,0,0,0,1.22.438,2.132,2.132,0,0,0,1.784-.827l.971,1.087a2.966,2.966,0,0,1-1.2.981A3.947,3.947,0,0,1,74.977,13.137ZM74.751,7.06a1.234,1.234,0,0,0-.954.4,2.062,2.062,0,0,0-.468,1.14h2.748V8.44a1.471,1.471,0,0,0-.355-1.02A1.274,1.274,0,0,0,74.751,7.06ZM84.711,13H82.729V2.5h1.982Zm5.913,0a2.194,2.194,0,0,1-.2-.663,2.39,2.39,0,0,1-1.866.8,2.626,2.626,0,0,1-1.8-.629,2.023,2.023,0,0,1-.714-1.586,2.09,2.09,0,0,1,.872-1.8,4.3,4.3,0,0,1,2.519-.636h.909V8.058a1.219,1.219,0,0,0-.263-.82,1.035,1.035,0,0,0-.831-.308,1.177,1.177,0,0,0-.783.239.813.813,0,0,0-.284.656H86.208a1.985,1.985,0,0,1,.4-1.189,2.621,2.621,0,0,1,1.121-.858,4.086,4.086,0,0,1,1.627-.311,3.228,3.228,0,0,1,2.17.687,2.4,2.4,0,0,1,.8,1.931v3.206a3.536,3.536,0,0,0,.294,1.593V13ZM88.99,11.626a1.7,1.7,0,0,0,.807-.195,1.28,1.28,0,0,0,.547-.523V9.637h-.738q-1.483,0-1.579,1.025l-.007.116a.791.791,0,0,0,.26.608A1.009,1.009,0,0,0,88.99,11.626ZM3.835,31.544a1.3,1.3,0,0,0,.889-.3,1.054,1.054,0,0,0,.355-.8H6.932a2.534,2.534,0,0,1-.41,1.377,2.706,2.706,0,0,1-1.1.971,3.455,3.455,0,0,1-1.548.345,3.211,3.211,0,0,1-2.5-1.008,3.99,3.99,0,0,1-.916-2.786v-.13a3.944,3.944,0,0,1,.909-2.728,3.174,3.174,0,0,1,2.5-1.019,3.111,3.111,0,0,1,2.225.79,2.8,2.8,0,0,1,.851,2.1H5.079a1.358,1.358,0,0,0-.355-.938,1.185,1.185,0,0,0-.9-.361,1.19,1.19,0,0,0-1.042.5A2.916,2.916,0,0,0,2.427,29.2V29.4a2.953,2.953,0,0,0,.349,1.643A1.2,1.2,0,0,0,3.835,31.544Zm3.917-2.311a4.387,4.387,0,0,1,.424-1.962A3.1,3.1,0,0,1,9.4,25.938a3.56,3.56,0,0,1,1.849-.472,3.368,3.368,0,0,1,2.444.916,3.676,3.676,0,0,1,1.056,2.488l.014.506a3.866,3.866,0,0,1-.95,2.731,3.3,3.3,0,0,1-2.55,1.029,3.319,3.319,0,0,1-2.553-1.025,3.934,3.934,0,0,1-.954-2.789Zm1.976.14a2.765,2.765,0,0,0,.4,1.612,1.308,1.308,0,0,0,1.135.558,1.311,1.311,0,0,0,1.121-.551,3.025,3.025,0,0,0,.4-1.763,2.737,2.737,0,0,0-.4-1.6,1.311,1.311,0,0,0-1.135-.568,1.29,1.29,0,0,0-1.121.565A3.076,3.076,0,0,0,9.728,29.374Zm8.1-3.77.062.827a2.6,2.6,0,0,1,2.126-.964,1.973,1.973,0,0,1,1.962,1.128A2.54,2.54,0,0,1,24.2,25.467a2.206,2.206,0,0,1,1.791.7,3.221,3.221,0,0,1,.588,2.109V33H24.6V28.272a1.414,1.414,0,0,0-.246-.922,1.089,1.089,0,0,0-.868-.291,1.233,1.233,0,0,0-1.23.85L22.258,33H20.282V28.279a1.4,1.4,0,0,0-.253-.932,1.1,1.1,0,0,0-.861-.288,1.28,1.28,0,0,0-1.217.7V33H15.976V25.6ZM34.754,29.37a4.436,4.436,0,0,1-.776,2.738,2.488,2.488,0,0,1-2.1,1.029,2.3,2.3,0,0,1-1.812-.779v3.486H28.1V25.6h1.832l.068.725a2.322,2.322,0,0,1,1.873-.861A2.5,2.5,0,0,1,34,26.479a4.556,4.556,0,0,1,.759,2.789Zm-1.976-.151a2.927,2.927,0,0,0-.366-1.6,1.19,1.19,0,0,0-1.063-.562,1.293,1.293,0,0,0-1.278.713V30.81a1.315,1.315,0,0,0,1.292.734Q32.778,31.544,32.778,29.22ZM38.063,33H36.08V22.5h1.982Zm5.031.137a3.631,3.631,0,0,1-2.649-1,3.548,3.548,0,0,1-1.022-2.659v-.191a4.468,4.468,0,0,1,.431-1.993,3.161,3.161,0,0,1,1.22-1.354,3.425,3.425,0,0,1,1.8-.475,3.07,3.07,0,0,1,2.389.957,3.889,3.889,0,0,1,.872,2.714v.807h-4.71A1.835,1.835,0,0,0,42,31.106a1.746,1.746,0,0,0,1.22.438,2.132,2.132,0,0,0,1.784-.827l.971,1.087a2.966,2.966,0,0,1-1.2.981A3.947,3.947,0,0,1,43.094,33.137Zm-.226-6.077a1.234,1.234,0,0,0-.954.4,2.062,2.062,0,0,0-.468,1.14h2.748V28.44a1.471,1.471,0,0,0-.355-1.02A1.274,1.274,0,0,0,42.868,27.06Zm6.48-1.456v7.8a2.646,2.646,0,0,1-.649,1.9,2.468,2.468,0,0,1-1.873.68,4.017,4.017,0,0,1-.978-.116V34.306a3.708,3.708,0,0,0,.622.062q.9,0,.9-.95V25.6Zm-2.14-1.914a.973.973,0,0,1,.3-.731,1.286,1.286,0,0,1,1.62,0,1.048,1.048,0,0,1-.007,1.47,1.267,1.267,0,0,1-1.606,0A.97.97,0,0,1,47.209,23.689ZM52.979,33H51V25.6h1.982Zm-2.1-9.311a.973.973,0,0,1,.3-.731,1.281,1.281,0,0,1,1.617,0,1.044,1.044,0,0,1,0,1.47,1.267,1.267,0,0,1-1.606,0A.97.97,0,0,1,50.88,23.689ZM54.3,29.247a4.457,4.457,0,0,1,.776-2.755A2.517,2.517,0,0,1,57.2,25.467a2.265,2.265,0,0,1,1.784.807V22.5h1.982V33H59.179l-.1-.786a2.325,2.325,0,0,1-1.9.923,2.511,2.511,0,0,1-2.1-1.029A4.6,4.6,0,0,1,54.3,29.247Zm1.976.141a2.936,2.936,0,0,0,.362,1.6,1.179,1.179,0,0,0,1.053.556,1.321,1.321,0,0,0,1.292-.776V27.836A1.3,1.3,0,0,0,57.7,27.06Q56.273,27.06,56.273,29.388ZM66.78,33a2.194,2.194,0,0,1-.2-.663,2.39,2.39,0,0,1-1.866.8,2.626,2.626,0,0,1-1.8-.629,2.023,2.023,0,0,1-.714-1.586,2.09,2.09,0,0,1,.872-1.8,4.3,4.3,0,0,1,2.519-.636H66.5v-.424a1.219,1.219,0,0,0-.263-.82,1.035,1.035,0,0,0-.831-.308,1.177,1.177,0,0,0-.783.239.813.813,0,0,0-.284.656H62.364a1.984,1.984,0,0,1,.4-1.189,2.621,2.621,0,0,1,1.121-.858,4.086,4.086,0,0,1,1.627-.311,3.228,3.228,0,0,1,2.17.687,2.4,2.4,0,0,1,.8,1.931v3.206a3.536,3.536,0,0,0,.294,1.593V33Zm-1.634-1.374a1.7,1.7,0,0,0,.807-.195,1.28,1.28,0,0,0,.547-.523V29.637h-.738q-1.483,0-1.579,1.025l-.007.116a.791.791,0,0,0,.26.608A1.009,1.009,0,0,0,65.146,31.626Zm4.546-2.379a4.457,4.457,0,0,1,.776-2.755,2.517,2.517,0,0,1,2.123-1.025,2.265,2.265,0,0,1,1.784.807V22.5h1.982V33H74.573l-.1-.786a2.325,2.325,0,0,1-1.9.923,2.511,2.511,0,0,1-2.1-1.029A4.6,4.6,0,0,1,69.692,29.247Zm1.976.141a2.936,2.936,0,0,0,.362,1.6,1.179,1.179,0,0,0,1.053.556,1.321,1.321,0,0,0,1.292-.776V27.836A1.3,1.3,0,0,0,73.1,27.06Q71.668,27.06,71.668,29.388Z" transform="translate(800 4100)" fill="#12263f"/>
    <g id="Enmascarar_grupo_1" data-name="Enmascarar grupo 1" clip-path="url(#clip-path)">
      <g id="g3372" transform="translate(285 4110)">
        <g id="g3374">
          <g id="g3376" clip-path="url(#clip-path-2)">
            <g id="g3382" transform="translate(9.104 -48.528)">
              <path id="path3384" d="M0,0H71.6S70.48,37.821,36.138,37.821,0,0,0,0" fill="#9ec7ff"/>
            </g>
            <g id="g3386" transform="translate(39.407 -48.303)">
              <path id="path3388" d="M0,0A42.217,42.217,0,0,0-3.04-6.375,45.141,45.141,0,0,0-11.207,0a34.206,34.206,0,0,0-8.774,13.326C-26.434,6.048-36.07,3.257-36.07,3.257s-4.427,13.5,1.262,24.27S-15.47,42.246-15.47,42.246l.026-.082h0l.039.064a45.341,45.341,0,0,0,8.486-6.688c3.638-3.624,7.407-8.623,8.964-14.747C4.008,13.079,2.034,5.256,0,0" fill="#b6edba" fill-rule="evenodd"/>
            </g>
            <g id="g3390" transform="translate(83.317 -25.576)">
              <path id="path3392" d="M0,0H-8.313V-8.313H-19.358V0h-8.313V11.045h8.313v8.313H-8.313V11.045H0Z" fill="#ff6977"/>
            </g>
            <g id="g3394" transform="translate(82.39 -71.086)">
              <path id="path3396" d="M0,0A7.856,7.856,0,0,0-7.856-7.856,7.856,7.856,0,0,0-15.712,0,7.856,7.856,0,0,0-7.856,7.856,7.856,7.856,0,0,0,0,0" fill="#dfedff"/>
            </g>
            <g id="g3398" transform="translate(47.514 -48.219)">
              <path id="path3400" d="M0,0,19.191-20.2S21.8-14.814,25.5-14.983L12.373-.168Z" fill="#dfedff"/>
            </g>
            <g id="g3402" transform="translate(81.633 -16.214)">
              <path id="path3404" d="M0,0H-6.63A1.683,1.683,0,0,0-8.313,1.684v6.63h-7.678V1.684A1.683,1.683,0,0,0-17.675,0H-24.3V-7.678h6.63a1.683,1.683,0,0,0,1.683-1.684v-6.63h7.678v6.63A1.683,1.683,0,0,0-6.63-7.678H0ZM-46.121,2.706A32.548,32.548,0,0,0-38.549-10.88c1.8-7.088.475-14.208-1.285-19.525h37.3A37.742,37.742,0,0,1-5.076-18.324,1.684,1.684,0,0,0-6.63-19.358H-17.675a1.684,1.684,0,0,0-1.683,1.683v6.63h-6.63a1.683,1.683,0,0,0-1.683,1.683V1.684a1.676,1.676,0,0,0,.329,1,32.525,32.525,0,0,1-9.436,1.384,32.625,32.625,0,0,1-9.343-1.359M-60.294-19.122a32.743,32.743,0,0,1,8.037-11.763,46.533,46.533,0,0,1,6.386-5.2A45.768,45.768,0,0,1-43.8-31.482c1.93,4.989,3.842,12.469,1.984,19.772-1.238,4.87-4.105,9.569-8.521,13.969a46.328,46.328,0,0,1-4.722,4.094,42.946,42.946,0,0,0,.682-6.489c0-.012.009-.023.013-.036l4.251-13.047a1.683,1.683,0,0,0-1.079-2.122,1.683,1.683,0,0,0-2.122,1.079l-1.847,5.67A25.788,25.788,0,0,0-57.469-14.9a25.154,25.154,0,0,0-2.825-4.221m-10.481-8.333c-.118-.974-.2-1.961-.245-2.951h13.7a34.792,34.792,0,0,0-5.509,8.584,37.451,37.451,0,0,0-7.95-5.634M-15-49.536a9.6,9.6,0,0,0,3.729,3.24L-22.61-33.773H-29.68Zm7.9-11.508A6.18,6.18,0,0,1-.927-54.872,6.179,6.179,0,0,1-7.1-48.7a6.18,6.18,0,0,1-6.173-6.172A6.18,6.18,0,0,1-7.1-61.044m8.783,50H-4.908A40.849,40.849,0,0,0,.868-32.089,1.683,1.683,0,0,0-.815-33.773H-18.068L-7.594-45.345A9.264,9.264,0,0,0,2.44-54.872a9.676,9.676,0,0,0-9.54-9.54,9.55,9.55,0,0,0-9.539,9.54,9.538,9.538,0,0,0,.2,1.938L-34.257-33.8c-.008.008-.014.018-.022.026h-6.808a41.932,41.932,0,0,0-2.749-5.577,1.683,1.683,0,0,0-2.266-.576,46.164,46.164,0,0,0-8.01,6.154H-72.74a1.683,1.683,0,0,0-1.684,1.683c0,.978.035,1.959.1,2.934a33.5,33.5,0,0,0-3.508-1.294A1.683,1.683,0,0,0-79.9-29.357c-.19.579-4.581,14.312,1.373,25.581.634,1.2,1.643,3.469,3.381,2.494A1.7,1.7,0,0,0-74.317-3.1a19.368,19.368,0,0,0-1.229-2.251c-4.154-7.862-2.506-17.5-1.6-21.3,3.657,1.394,12.543,5.461,16.7,13.323,3.439,6.509,2.9,14.23,2.1,18.854l-8.8-16.118a1.683,1.683,0,0,0-2.284-.67,1.684,1.684,0,0,0-.67,2.285l8.742,16c-.821-.392-1.75-.881-2.773-1.492a1.683,1.683,0,0,0-2.308.582,1.683,1.683,0,0,0,.582,2.308,25.873,25.873,0,0,0,7.875,3.388,1.687,1.687,0,0,0,.751-.039A43.759,43.759,0,0,0-48.731,5.4,35.971,35.971,0,0,0-36.779,7.431a35.825,35.825,0,0,0,16.619-4.05c.008,0,.8,0,.8,0V10a1.683,1.683,0,0,0,1.683,1.683H-6.63A1.683,1.683,0,0,0-4.946,10V3.367h6.63A1.683,1.683,0,0,0,3.367,1.684V-9.362a1.683,1.683,0,0,0-1.683-1.683" fill="#12263f"/>
            </g>
            <g id="g3406" transform="translate(10.591 -15.032)">
              <path id="path3408" d="M0,0A1.66,1.66,0,0,0-1.66,1.66,1.66,1.66,0,0,0,0,3.32,1.66,1.66,0,0,0,1.66,1.66,1.66,1.66,0,0,0,0,0"/>
            </g>
          </g>
        </g>
      </g>
    </g>
    <g id="Enmascarar_grupo_2" data-name="Enmascarar grupo 2" clip-path="url(#clip-path-3)">
      <g id="g591" transform="translate(495 4110)">
        <g id="g593">
          <g id="g595" clip-path="url(#clip-path-4)">
            <g id="g601" transform="translate(66.871 -59.486)">
              <path id="path603" d="M0,0-14.16,28.278l9.517,4.772L0,23.779,15.18-6.532c3.133-6.259-6.388-11.026-9.521-4.772Z" fill="#ffc15a" fill-rule="evenodd"/>
            </g>
            <g id="g605" transform="translate(62.228 -26.437)">
              <path id="path607" d="M0,0-9.517-4.772-10.655,9.384Z" fill="#ffe6c0" fill-rule="evenodd"/>
            </g>
            <g id="g609" transform="translate(52.711 -31.208)">
              <path id="path611" d="M0,0,14.16-28.278V-39.332H6.483a4.473,4.473,0,0,1-4.46-4.461v-8.339H-45.608a4.793,4.793,0,0,0-4.779,4.781V24.762a4.8,4.8,0,0,0,4.779,4.786H9.38a4.8,4.8,0,0,0,4.779-4.786V-4.5L9.517,4.772-1.138,14.155Z" fill="#f9f9f9" fill-rule="evenodd"/>
            </g>
            <g id="g613" transform="translate(54.734 -75.001)">
              <path id="path615" d="M0,0A4.473,4.473,0,0,0,4.46,4.461h7.677L0-8.339Z" fill="#d7d6d8" fill-rule="evenodd"/>
            </g>
            <g id="g617" transform="translate(34.595 -1.66)">
              <path id="path619" d="M0,0H.033" fill="none" stroke="#12263f" stroke-linecap="round" stroke-linejoin="round" stroke-miterlimit="10" stroke-width="3.322"/>
            </g>
            <g id="g621" transform="translate(31.034 -58.728)">
              <path id="path623" d="M0,0A1.931,1.931,0,0,0,1.924,1.929h3.34A1.932,1.932,0,0,0,7.193,0V-3.534h3.533a1.934,1.934,0,0,0,1.929-1.925V-8.8a1.934,1.934,0,0,0-1.929-1.925H7.193v-3.534a1.931,1.931,0,0,0-1.929-1.929H1.924A1.931,1.931,0,0,0,0-14.264v3.534H-3.538A1.93,1.93,0,0,0-5.462-8.8v3.346A1.93,1.93,0,0,0-3.538-3.534H0Z" fill="#ff6977" fill-rule="evenodd"/>
            </g>
            <g id="g625" transform="translate(54.734 -83.34)">
              <path id="path627" d="M0,0V8.339A4.473,4.473,0,0,0,4.46,12.8h7.677Z" fill="none" stroke="#12263f" stroke-linecap="round" stroke-linejoin="round" stroke-miterlimit="10" stroke-width="3.322"/>
            </g>
            <g id="g629" transform="translate(28.259 -31.434)">
              <path id="path631" d="M0,0,23.314,0" fill="none" stroke="#12263f" stroke-linecap="round" stroke-linejoin="round" stroke-miterlimit="10" stroke-width="3.322"/>
            </g>
            <g id="g633" transform="translate(27.981 -1.66)">
              <path id="path635" d="M0,0H-20.877a4.8,4.8,0,0,1-4.779-4.786V-76.9a4.793,4.793,0,0,1,4.779-4.781h47.63M38.89-34.047V-4.786A4.8,4.8,0,0,1,34.111,0H13.233M38.89-68.88v11.054" fill="none" stroke="#12263f" stroke-linecap="round" stroke-linejoin="round" stroke-miterlimit="10" stroke-width="3.322"/>
            </g>
            <g id="g637" transform="translate(28.259 -45.82)">
              <path id="path639" d="M0,0,23.314.009" fill="none" stroke="#12263f" stroke-linecap="round" stroke-linejoin="round" stroke-miterlimit="10" stroke-width="3.322"/>
            </g>
            <g id="g641" transform="translate(82.052 -66.018)">
              <path id="path643" d="M0,0-19.824,39.581l-9.517-4.772L-9.521-4.772C-6.388-11.026,3.133-6.259,0,0Z" fill="none" stroke="#12263f" stroke-linecap="round" stroke-linejoin="round" stroke-miterlimit="10" stroke-width="3.322"/>
            </g>
            <g id="g645" transform="translate(52.711 -31.208)">
              <path id="path647" d="M0,0-1.138,14.155,9.517,4.772" fill="none" stroke="#12263f" stroke-linecap="round" stroke-linejoin="round" stroke-miterlimit="10" stroke-width="3.322"/>
            </g>
            <g id="g649" transform="translate(28.259 -17.044)">
              <path id="path651" d="M0,0,23.314-.009" fill="none" stroke="#12263f" stroke-linecap="round" stroke-linejoin="round" stroke-miterlimit="10" stroke-width="3.322"/>
            </g>
            <g id="g653" transform="translate(12.415 -29.924)">
              <path id="path655" d="M0,0,2.719,2.409,8.665-5.929" fill="none" stroke="#12263f" stroke-linecap="round" stroke-linejoin="round" stroke-miterlimit="10" stroke-width="3.322"/>
            </g>
            <g id="g657" transform="translate(12.415 -16.931)">
              <path id="path659" d="M0,0,2.719,2.414,8.665-5.929" fill="none" stroke="#12263f" stroke-linecap="round" stroke-linejoin="round" stroke-miterlimit="10" stroke-width="3.322"/>
            </g>
            <g id="g661" transform="translate(12.415 -42.921)">
              <path id="path663" d="M0,0,2.719,2.414,8.665-5.929" fill="none" stroke="#12263f" stroke-linecap="round" stroke-linejoin="round" stroke-miterlimit="10" stroke-width="3.322"/>
            </g>
            <g id="g665" transform="translate(32.958 -74.921)">
              <path id="path667" d="M0,0H3.34A1.932,1.932,0,0,1,5.269,1.929V5.464H8.8A1.934,1.934,0,0,1,10.73,7.388v3.341A1.935,1.935,0,0,1,8.8,12.659H5.269v3.534A1.932,1.932,0,0,1,3.34,18.122H0a1.935,1.935,0,0,1-1.929-1.929V12.659H-5.461a1.931,1.931,0,0,1-1.924-1.929V7.388A1.93,1.93,0,0,1-5.461,5.464h3.533V1.929A1.935,1.935,0,0,1,0,0Z" fill="none" stroke="#12263f" stroke-linecap="round" stroke-linejoin="round" stroke-miterlimit="10" stroke-width="3.322"/>
            </g>
          </g>
        </g>
      </g>
    </g>
    <g id="Enmascarar_grupo_3" data-name="Enmascarar grupo 3" clip-path="url(#clip-path-5)">
      <g id="Fill_Outline" data-name="Fill Outline" transform="translate(702.167 3973.167)">
        <g id="Color">
          <path id="Trazado_114249" data-name="Trazado 114249" d="M66.583,66.583l-4.25,8.5h-34l-4.25-8.5H17l5.516,11.034a5.667,5.667,0,0,0,5.069,3.132h35.5a5.667,5.667,0,0,0,5.069-3.133l5.516-11.034Z" fill="#b8bebf"/>
          <path id="Trazado_114250" data-name="Trazado 114250" d="M72.25,69.417l-4.094,8.2a5.7,5.7,0,0,1-5.072,3.131h-35.5a5.7,5.7,0,0,1-5.072-3.131l-4.094-8.2h.439a5.667,5.667,0,0,1,4.958,2.918L25.3,75a5.65,5.65,0,0,0,4.944,2.918H60.421A5.65,5.65,0,0,0,65.365,75l1.488-2.663a5.667,5.667,0,0,1,4.958-2.918Z" fill="#d0d8da"/>
          <path id="Trazado_114251" data-name="Trazado 114251" d="M71,5.5,66.583,9.917,72.25,12.75l2.833-2.833H86.417V4.25H74.011A4.25,4.25,0,0,0,71,5.5Z" fill="#e9f1f2"/>
          <path id="Trazado_114252" data-name="Trazado 114252" d="M86.417,7.083V9.917H75.083L72.25,12.75,66.583,9.917,71,5.5a3.258,3.258,0,0,1,.482-.4,4.25,4.25,0,0,0,3.6,1.983Z" fill="#d0d8da"/>
          <path id="Trazado_114253" data-name="Trazado 114253" d="M55.994,14.591H75.827a5.667,5.667,0,0,1,5.667,5.667H50.327A5.667,5.667,0,0,1,55.994,14.591Z" transform="translate(17.545 -30.621) rotate(30.001)" fill="#e9f1f2"/>
          <path id="Trazado_114254" data-name="Trazado 114254" d="M77.987,27.682,51,12.1a5.5,5.5,0,0,1,1.714-1.842L73.086,22.015a5.58,5.58,0,0,0,5.043.283,5.6,5.6,0,0,1-.142,5.383Z" fill="#d0d8da"/>
          <g id="Grupo_83660" data-name="Grupo 83660">
            <path id="Trazado_114255" data-name="Trazado 114255" d="M50.432,13.838H56.1v2.833a2.833,2.833,0,1,1-5.667,0Z" transform="translate(15.471 -24.398) rotate(30.001)" fill="#ade8f4"/>
            <path id="Trazado_114256" data-name="Trazado 114256" d="M60.244,19.5H65.91v2.833a2.833,2.833,0,0,1-5.667,0Z" transform="translate(19.619 -28.547) rotate(30.001)" fill="#ade8f4"/>
            <path id="Trazado_114257" data-name="Trazado 114257" d="M70.058,25.171h5.667V28a2.833,2.833,0,1,1-5.667,0Z" transform="translate(23.769 -32.695) rotate(30.001)" fill="#ade8f4"/>
          </g>
          <path id="Trazado_114258" data-name="Trazado 114258" d="M61.66,9.69H75.827a2.833,2.833,0,0,1,2.833,2.833v2.833H58.827V12.523A2.833,2.833,0,0,1,61.66,9.69Z" transform="translate(15.471 -32.695) rotate(30.001)" fill="#e9f1f2"/>
          <path id="Trazado_114259" data-name="Trazado 114259" d="M77.336,17.482l-1.417,2.451L58.735,10.016l1.232-2.125,13.5,7.792a2.823,2.823,0,0,0,3.867-1.034,2.849,2.849,0,0,1,0,2.833Z" fill="#d0d8da"/>
          <path id="Trazado_114260" data-name="Trazado 114260" d="M4.25,4.25h34V32.583h-34Z" fill="#ade8f4"/>
          <path id="Trazado_114261" data-name="Trazado 114261" d="M26.208,12.457l-1-1A2.833,2.833,0,0,0,21.2,15.461l5.009,5.009,5.009-5.009a2.833,2.833,0,1,0-4.008-4.006Z" fill="#ff7373"/>
          <path id="Trazado_114262" data-name="Trazado 114262" d="M38.25,26.917v5.667h-34V4.25H9.917V5.667a21.257,21.257,0,0,0,21.25,21.25Z" fill="#48cae4"/>
          <path id="Trazado_114263" data-name="Trazado 114263" d="M26.038,16.051A4.237,4.237,0,0,0,29.4,17.283l-3.187,3.188-5.015-5.015a2.833,2.833,0,0,1,0-3.995,2.751,2.751,0,0,1,2.366-.793,2.76,2.76,0,0,0-.354,1.374,2.809,2.809,0,0,0,.822,2Z" fill="#ef5350"/>
          <path id="Trazado_114264" data-name="Trazado 114264" d="M41.083,66.583h8.5V77.917h-8.5Z" fill="#d0d8da"/>
          <path id="Trazado_114265" data-name="Trazado 114265" d="M49.583,68H43.917a5.667,5.667,0,0,0,5.667,5.667v4.25h-8.5V66.583h8.5Z" fill="#93999a"/>
          <path id="Trazado_114266" data-name="Trazado 114266" d="M29.75,43.917h8.5A11.333,11.333,0,0,1,49.583,55.25H29.75a5.667,5.667,0,1,1,0-11.333Z" fill="#f9dbaf"/>
          <path id="Trazado_114267" data-name="Trazado 114267" d="M49.583,55.25H29.75a5.667,5.667,0,0,1-5.667-5.667,4.2,4.2,0,0,1,.057-.737,5.6,5.6,0,0,0,2.777.737,5.667,5.667,0,0,0,5.667-5.667H38.25A11.333,11.333,0,0,1,49.583,55.25Z" fill="#edb88e"/>
          <path id="Trazado_114268" data-name="Trazado 114268" d="M4.25,60.917H86.417v5.667H4.25Z" fill="#e9f1f2"/>
          <path id="Trazado_114269" data-name="Trazado 114269" d="M86.417,63.75v2.833H4.25V60.917H9.917A2.842,2.842,0,0,0,12.75,63.75Z" fill="#d0d8da"/>
          <path id="Trazado_114270" data-name="Trazado 114270" d="M9.917,55.25H80.75v5.667H9.917Z" fill="#48cae4"/>
          <path id="Trazado_114271" data-name="Trazado 114271" d="M80.75,58.083v2.833H9.917V55.25H68a2.842,2.842,0,0,0,2.833,2.833Z" fill="#00b4d8"/>
          <circle id="Elipse_4872" data-name="Elipse 4872" cx="5.667" cy="5.667" r="5.667" transform="translate(14.167 38.25)" fill="#f9dbaf"/>
          <path id="Trazado_114272" data-name="Trazado 114272" d="M18.417,49.583h1.417A5.667,5.667,0,0,1,25.5,55.25H12.75a5.667,5.667,0,0,1,5.667-5.667Z" fill="#0096c7"/>
          <path id="Trazado_114273" data-name="Trazado 114273" d="M65.167,60.917H32.583V44.31a2.833,2.833,0,0,1,3.2-2.8L62.7,45.019a2.833,2.833,0,0,1,2.466,2.8Z" fill="#95d5b2"/>
          <path id="Trazado_114274" data-name="Trazado 114274" d="M65.167,55.25v5.667H32.583v-16.6a2.843,2.843,0,0,1,3.2-2.819l6.772.878A14.167,14.167,0,0,0,56.667,55.25Z" fill="#52b788"/>
          <path id="Trazado_114275" data-name="Trazado 114275" d="M65.167,48.167h4.958a3.542,3.542,0,1,1,0,7.083H65.167Z" fill="#f9dbaf"/>
          <path id="Trazado_114276" data-name="Trazado 114276" d="M73.6,52.417a3.542,3.542,0,0,1-3.471,2.833H65.167V48.167H68a4.25,4.25,0,0,0,4.25,4.25Z" fill="#edb88e"/>
          <path id="Trazado_114277" data-name="Trazado 114277" d="M56.667,44.214V51l-17-1.417V42Z" fill="#ade8f4"/>
          <path id="Trazado_114278" data-name="Trazado 114278" d="M45.73,50.093l-6.063-.51V42l2.89.382A14.158,14.158,0,0,0,45.73,50.093Z" fill="#48cae4"/>
          <path id="Trazado_114279" data-name="Trazado 114279" d="M40.375,75.083h9.917a8.5,8.5,0,0,1,8.5,8.5v2.833H31.875V83.583a8.5,8.5,0,0,1,8.5-8.5Z" fill="#e9f1f2"/>
          <path id="Trazado_114280" data-name="Trazado 114280" d="M25.457,44.6a5.667,5.667,0,1,1-8.415-5.61,5.477,5.477,0,0,0-.042.68,5.667,5.667,0,0,0,8.457,4.93Z" fill="#edb88e"/>
          <path id="Trazado_114281" data-name="Trazado 114281" d="M58.792,83.583v2.833H31.875V83.583a8.5,8.5,0,0,1,4.774-7.636,11.279,11.279,0,0,0,10.1,6.219H58.664a7.749,7.749,0,0,1,.127,1.417Z" fill="#d0d8da"/>
          <path id="Trazado_114282" data-name="Trazado 114282" d="M57.134,15.64l-1.417,2.451a2.852,2.852,0,0,1-2.465,1.417,2.787,2.787,0,0,1-1.4-.382,2.828,2.828,0,0,0,0-4.9l-.326-.184.708-1.233Z" fill="#48cae4"/>
          <path id="Trazado_114283" data-name="Trazado 114283" d="M66.952,21.307l-1.417,2.451a2.852,2.852,0,0,1-2.465,1.417,2.787,2.787,0,0,1-1.4-.383,2.828,2.828,0,0,0,0-4.9l-.34-.2.708-1.218Z" fill="#48cae4"/>
          <path id="Trazado_114284" data-name="Trazado 114284" d="M76.769,26.973l-1.417,2.451a2.84,2.84,0,0,1-3.882,1.034,2.928,2.928,0,0,0,1.048-1.034,2.815,2.815,0,0,0-1.048-3.867l-.326-.184.708-1.233Z" fill="#48cae4"/>
        </g>
        <g id="Outline_copy" data-name="Outline copy">
          <path id="Trazado_114285" data-name="Trazado 114285" d="M86.417,8.5H75.083a1.417,1.417,0,0,0-1,.415l-1.134,1.134L70.1,8.4l1.9-1.9a2.849,2.849,0,0,1,2-.83H86.417a1.417,1.417,0,0,0,0-2.833H74.009A5.7,5.7,0,0,0,70,4.494l-2.439,2.44L64.73,5.3A4.25,4.25,0,0,0,58.922,6.86l-.781,1.35a7.083,7.083,0,0,0-8.377,3.178,1.417,1.417,0,0,0,.527,1.929l-.708,1.227a4.25,4.25,0,0,0,3.675,6.375,4.294,4.294,0,0,0,1.106-.142,4.224,4.224,0,0,0,2.58-1.983l.708-1.227,2.454,1.417L59.4,20.212a4.252,4.252,0,1,0,7.367,4.25l.708-1.225,2.452,1.417-.708,1.227a4.252,4.252,0,0,0,7.367,4.25l.708-1.227a1.417,1.417,0,0,0,1.935-.518,7.1,7.1,0,0,0-1.452-8.844l.781-1.352A4.25,4.25,0,0,0,77,12.38l-1.512-.874.184-.173H86.417a1.417,1.417,0,0,0,0-2.833ZM54.491,17.381a1.417,1.417,0,1,1-2.454-1.417l.708-1.227L55.2,16.154Zm9.816,5.667a1.417,1.417,0,0,1-2.455-1.417L62.56,20.4l2.454,1.417Zm9.813,5.667A1.417,1.417,0,1,1,71.668,27.3l.708-1.227,2.452,1.417ZM76.1,16.775,75.395,18l-5.412-3.127a1.417,1.417,0,1,0-1.417,2.454l6.648,3.838a4.25,4.25,0,0,1,2.053,4.457L53.143,11.695a4.25,4.25,0,0,1,4.889-.449l5.623,3.246a1.417,1.417,0,1,0,1.417-2.454L60.68,9.5l.708-1.227a1.417,1.417,0,0,1,1.937-.519l12.268,7.083a1.417,1.417,0,0,1,.514,1.935Z" fill="#12263f"/>
          <path id="Trazado_114286" data-name="Trazado 114286" d="M43.917,25.5a1.416,1.416,0,0,0,1-.415l2.834-2.834a1.417,1.417,0,1,0-2-2l-2.833,2.833a1.417,1.417,0,0,0,1,2.418Z" fill="#12263f"/>
          <path id="Trazado_114287" data-name="Trazado 114287" d="M48.582,29.335a1.417,1.417,0,0,0,2,0L53.418,26.5a1.417,1.417,0,1,0-2-2l-2.833,2.833A1.417,1.417,0,0,0,48.582,29.335Z" fill="#12263f"/>
          <path id="Trazado_114288" data-name="Trazado 114288" d="M63.75,38.25a1.417,1.417,0,0,0,1.343-.969l1.417-4.25a1.418,1.418,0,0,0-2.692-.9L62.4,36.386A1.417,1.417,0,0,0,63.75,38.25Z" fill="#12263f"/>
          <path id="Trazado_114289" data-name="Trazado 114289" d="M73.667,39.667V36.833a1.417,1.417,0,0,0-2.833,0v2.833a1.417,1.417,0,1,0,2.833,0Z" fill="#12263f"/>
          <path id="Trazado_114290" data-name="Trazado 114290" d="M57.845,34.786l2.833-4.25a1.417,1.417,0,0,0-2.357-1.573l-2.833,4.25a1.417,1.417,0,1,0,2.357,1.572Z" fill="#12263f"/>
          <path id="Trazado_114291" data-name="Trazado 114291" d="M4.25,34h34a1.417,1.417,0,0,0,1.417-1.417V21.25a1.417,1.417,0,0,0-2.833,0v9.917H5.667V5.667H36.833v9.917a1.417,1.417,0,0,0,2.833,0V4.25A1.417,1.417,0,0,0,38.25,2.833h-34A1.417,1.417,0,0,0,2.833,4.25V32.583A1.417,1.417,0,0,0,4.25,34Z" fill="#12263f"/>
          <path id="Trazado_114292" data-name="Trazado 114292" d="M9.917,28.333H17a1.417,1.417,0,0,0,1.179-.631l1.479-2.22L21.4,28.967a1.417,1.417,0,0,0,1.041.765,1.371,1.371,0,0,0,.227.018,1.416,1.416,0,0,0,1-.415L25.5,27.5l.415.415a1.417,1.417,0,0,0,1,.415h5.667a1.417,1.417,0,0,0,0-2.833H27.5l-1-1a1.417,1.417,0,0,0-2,0l-1.444,1.444-1.946-3.909a1.417,1.417,0,0,0-1.187-.783,1.387,1.387,0,0,0-1.266.628L16.242,25.5H9.917a1.417,1.417,0,1,0,0,2.833Z" fill="#12263f"/>
          <path id="Trazado_114293" data-name="Trazado 114293" d="M9.917,22.667H12.75a1.417,1.417,0,1,0,0-2.833H9.917a1.417,1.417,0,1,0,0,2.833Z" fill="#12263f"/>
          <path id="Trazado_114294" data-name="Trazado 114294" d="M9.917,17h4.25a1.417,1.417,0,1,0,0-2.833H9.917a1.417,1.417,0,1,0,0,2.833Z" fill="#12263f"/>
          <path id="Trazado_114295" data-name="Trazado 114295" d="M25.207,21.472a1.417,1.417,0,0,0,2,0l5.008-5.008a4.25,4.25,0,0,0,0-6.011,4.352,4.352,0,0,0-6.011,0,4.353,4.353,0,0,0-6.009,0,4.25,4.25,0,0,0,0,6.011Zm-3-9.017a1.417,1.417,0,0,1,2,0l1,1a1.417,1.417,0,0,0,2,0l1-1a1.451,1.451,0,0,1,2,0,1.417,1.417,0,0,1,0,2l-4.006,4.008L22.2,14.46a1.417,1.417,0,0,1,0-2Z" fill="#12263f"/>
          <path id="Trazado_114296" data-name="Trazado 114296" d="M9.917,11.333h4.25a1.417,1.417,0,1,0,0-2.833H9.917a1.417,1.417,0,1,0,0,2.833Z" fill="#12263f"/>
          <path id="Trazado_114297" data-name="Trazado 114297" d="M86.417,59.5h-4.25V55.25a1.417,1.417,0,0,0-1.417-1.417H74.586a4.907,4.907,0,0,0,.5-2.125,4.958,4.958,0,0,0-4.958-4.958h-3.7a4.25,4.25,0,0,0-3.542-3.144l-.9-.116a1.417,1.417,0,1,0-.368,2.809l.9.118a1.417,1.417,0,0,1,1.232,1.4V59.5h-8.5a1.417,1.417,0,0,0,0,2.833H85v2.833H4.25A1.417,1.417,0,0,0,4.25,68H16.125L21.25,78.251a7.045,7.045,0,0,0,6.335,3.916h2.986a9.953,9.953,0,0,0-.113,1.417v2.833a1.417,1.417,0,0,0,1.417,1.417H38.25a1.417,1.417,0,1,0,0-2.833H33.292V83.583A7.092,7.092,0,0,1,40.375,76.5h9.917a7.092,7.092,0,0,1,7.083,7.083V85H43.917a1.417,1.417,0,1,0,0,2.833H58.792a1.417,1.417,0,0,0,1.417-1.417V83.583a9.953,9.953,0,0,0-.113-1.417h2.986a7.045,7.045,0,0,0,6.335-3.916L74.542,68H86.417a1.417,1.417,0,0,0,1.417-1.417V60.917A1.417,1.417,0,0,0,86.417,59.5ZM72.25,51.708a2.125,2.125,0,0,1-2.125,2.125H66.583v-4.25h3.542A2.125,2.125,0,0,1,72.25,51.708Zm-5.667,4.958h12.75V59.5H66.583Zm-26.917,17H29.209L26.375,68H39.667ZM42.5,68h5.667v5.667H42.5ZM51,68H64.291l-2.833,5.667H51ZM31.429,79.333H27.585a4.226,4.226,0,0,1-3.8-2.349L19.292,68h3.916l3.858,7.717a1.417,1.417,0,0,0,1.268.783h5.116A9.939,9.939,0,0,0,31.429,79.333Zm35.453-2.349a4.226,4.226,0,0,1-3.8,2.349H59.238a9.939,9.939,0,0,0-2.02-2.833h5.116a1.417,1.417,0,0,0,1.275-.783L67.459,68h3.916Z" fill="#12263f"/>
          <path id="Trazado_114298" data-name="Trazado 114298" d="M4.25,62.333H49.583a1.417,1.417,0,0,0,0-2.833H34V44.31a1.417,1.417,0,0,1,1.6-1.405l2.649.346v6.333A1.417,1.417,0,0,0,39.549,51l17,1.417A1.417,1.417,0,0,0,58.083,51V44.211a1.417,1.417,0,0,0-1.4-1.417l-20.713-2.7A4.229,4.229,0,0,0,31.575,42.5H29.75a7,7,0,0,0-2.911.643,7.065,7.065,0,1,0-11.822,5.933,7.083,7.083,0,0,0-3.542,4.757H9.917A1.417,1.417,0,0,0,8.5,55.25V59.5H4.25a1.417,1.417,0,1,0,0,2.833ZM41.083,43.621,55.25,45.462v3.992L41.083,48.28Zm-9.917,1.713v8.5H29.75a4.25,4.25,0,0,1,0-8.5ZM19.833,39.667a4.25,4.25,0,1,1-4.25,4.25,4.25,4.25,0,0,1,4.25-4.25ZM18.417,51h1.417a4.259,4.259,0,0,1,4.008,2.833H14.409A4.258,4.258,0,0,1,18.417,51Zm-7.083,5.667H31.167V59.5H11.333Z" fill="#12263f"/>
          <path id="Trazado_114299" data-name="Trazado 114299" d="M52.417,80.75A1.417,1.417,0,0,0,51,79.333H39.667a1.417,1.417,0,1,0,0,2.833H51A1.417,1.417,0,0,0,52.417,80.75Z" fill="#12263f"/>
        </g>
      </g>
    </g>
    <g id="Enmascarar_grupo_4" data-name="Enmascarar grupo 4" clip-path="url(#clip-path-6)">
      <g id="g9081" transform="translate(705 4161)">
        <g id="g9083">
          <g id="g9085" clip-path="url(#clip-path-4)">
            <g id="g9091" transform="translate(44.511 -53.838)">
              <path id="path9093" d="M0,0A6.011,6.011,0,0,1-6.011-6.011v-9.465a.5.5,0,0,1,.5-.5H5.509a.5.5,0,0,1,.5.5v9.465A6.011,6.011,0,0,1,0,0" fill="#d8ecfe"/>
            </g>
            <g id="g9095" transform="translate(50.019 -69.816)">
              <path id="path9097" d="M0,0H-3.855a.5.5,0,0,1,.5.5V9.967a6.012,6.012,0,0,1-4.084,5.693,6,6,0,0,0,1.927.318A6.011,6.011,0,0,0,.5,9.967V.5A.5.5,0,0,0,0,0" fill="#b3dafe"/>
            </g>
            <g id="g9099" transform="translate(38.5 -63.023)">
              <path id="path9101" d="M0,0V3.174a6.011,6.011,0,0,0,12.022,0V0Z" fill="#62dbfb"/>
            </g>
            <g id="g9103" transform="translate(44.55 -53.799)">
              <path id="path9105" d="M0,0A6.011,6.011,0,0,0,6.011-6.011V-9.185H2.156v3.174A6.012,6.012,0,0,1-1.927-.317,6,6,0,0,0,0,0" fill="#01c1fa"/>
            </g>
            <g id="g9107" transform="translate(77.468 -15.669)">
              <path id="path9109" d="M0,0H-43.5l-4.255-9.064v-5.22H-6.923A6.924,6.924,0,0,1,0-7.361Z" fill="#d8ecfe"/>
            </g>
            <g id="g9111" transform="translate(70.545 -29.954)">
              <path id="path9113" d="M0,0H-4.19A6.924,6.924,0,0,1,2.734,6.924v7.361h4.19V6.924A6.924,6.924,0,0,0,0,0" fill="#b3dafe"/>
            </g>
            <g id="g9115" transform="translate(20.557 -37.47)">
              <path id="path9117" d="M0,0,4.47,9.586,9.776,7.111,5.306-2.474Z" fill="#feaf9e"/>
            </g>
            <g id="g9119" transform="translate(36.354 -22.636)">
              <path id="path9121" d="M0,0-3.459-7.418A4.1,4.1,0,0,0-8.914-9.413,4.024,4.024,0,0,0-10.791-4.1L-5.63,6.967H12.331a1.837,1.837,0,0,0,1.677-2.584A6.393,6.393,0,0,0,8.16.575H.9A1,1,0,0,1,0,0" fill="#ffcebf"/>
            </g>
            <g id="g9123" transform="translate(28.873 -30.055)">
              <path id="path9125" d="M0,0,3.459,7.418a1,1,0,0,0,.9.575H8.385a1,1,0,0,1-.9-.575L4.022,0A4.1,4.1,0,0,0-1.433-1.995c-.094.046-.185.1-.274.149A4.138,4.138,0,0,1,0,0" fill="#feaf9e"/>
            </g>
            <g id="g9127" transform="translate(50.362 -18.253)">
              <path id="path9129" d="M0,0A6.393,6.393,0,0,0-5.848-3.808H-9.87A6.393,6.393,0,0,1-4.022,0,1.837,1.837,0,0,1-5.7,2.584h4.022A1.837,1.837,0,0,0,0,0" fill="#feaf9e"/>
            </g>
            <g id="g9131" transform="translate(25.563 -26.736)">
              <path id="path9133" d="M0,0,2.429,5.209l7.293-3.4L7.293-3.4A4.023,4.023,0,0,0,1.946-5.347,4.023,4.023,0,0,0,0,0" fill="#00f3a7"/>
            </g>
            <g id="g9135" transform="translate(32.856 -30.137)">
              <path id="path9137" d="M0,0A4.023,4.023,0,0,0-5.347-1.946c-.031.014-.061.03-.091.045q-.129.064-.252.137A4.138,4.138,0,0,1-3.983.082L-.874,6.749l3.3-1.54Z" fill="#0ed290"/>
            </g>
            <g id="g9139" transform="translate(30.724 -15.669)">
              <path id="path9141" d="M0,0-19.586-42a1.929,1.929,0,0,0-2.564-.933l-6.214,2.9a1.93,1.93,0,0,0-.933,2.564L-8.188,7.8a1.675,1.675,0,0,0,1.519.967H46.744V0Z" fill="#62dbfb"/>
            </g>
            <path id="path9143" d="M73.279-6.907h4.19v-8.763h-4.19Z" fill="#01c1fa"/>
            <g id="g9145" transform="translate(82.079 -6.907)">
              <path id="path9147" d="M0,0H-4.611V-23.865a3.143,3.143,0,0,1,3.143-3.143,3.143,3.143,0,0,1,3.143,3.143V-1.676A1.676,1.676,0,0,1,0,0" fill="#62dbfb"/>
            </g>
            <g id="g9149" transform="translate(7.513 -40.089)">
              <path id="path9151" d="M0,0,10.678,22.9l2.673-2.485a2.474,2.474,0,0,0,.558-2.858L6.169.959A2.474,2.474,0,0,0,3.622-.451Z" fill="#3692bc"/>
            </g>
            <g id="g9153" transform="translate(28.268 -53.274)">
              <path id="path9155" d="M0,0-12.386,5.776l5.993,12.853L3.782,13.884a2.44,2.44,0,0,0,1.18-3.242Z" fill="#ffcebf"/>
            </g>
            <g id="g9157" transform="translate(19.273 -40.224)">
              <path id="path9159" d="M0,0,2.309-1.076a2.619,2.619,0,0,0,1.267-3.48,2.005,2.005,0,0,1,.97-2.665l4.87-2.271a5.484,5.484,0,0,0,2.653-7.288L10.875-19.34A2.014,2.014,0,0,0,8.2-20.315L-4.8-14.256a1.679,1.679,0,0,0-.812,2.231Z" fill="#3692bc"/>
            </g>
            <g id="g9161" transform="translate(60.889 -78.094)">
              <path id="path9163" d="M0,0A2.966,2.966,0,0,0-2.966,2.966,2.965,2.965,0,0,0,0,5.932,2.966,2.966,0,0,0,2.966,2.966,2.966,2.966,0,0,0,0,0" fill="#3692bc"/>
            </g>
            <g id="g9165" transform="translate(60.888 -29.954)">
              <path id="path9167" d="M0,0V-42.207" fill="none" stroke="#12263f" stroke-linecap="round" stroke-linejoin="round" stroke-miterlimit="10" stroke-width="2.49"/>
            </g>
            <g id="g9169" transform="translate(44.511 -69.816)">
              <path id="path9171" d="M0,0V-3.651a1.66,1.66,0,0,1,1.66-1.66H13.412" fill="none" stroke="#12263f" stroke-linecap="round" stroke-linejoin="round" stroke-miterlimit="10" stroke-width="2.49"/>
            </g>
            <g id="g9173" transform="translate(44.511 -53.838)">
              <path id="path9175" d="M0,0A6.011,6.011,0,0,1-6.011-6.011v-9.465a.5.5,0,0,1,.5-.5H5.509a.5.5,0,0,1,.5.5v9.465A6.011,6.011,0,0,1,0,0Z" fill="none" stroke="#12263f" stroke-linecap="round" stroke-linejoin="round" stroke-miterlimit="10" stroke-width="2.49"/>
            </g>
            <g id="g9177" transform="translate(38.5 -63.023)">
              <path id="path9179" d="M0,0V3.174a6.011,6.011,0,0,0,12.022,0V0Z" fill="none" stroke="#12263f" stroke-linecap="round" stroke-linejoin="round" stroke-miterlimit="10" stroke-width="2.49"/>
            </g>
            <g id="g9181" transform="translate(44.511 -29.954)">
              <path id="path9183" d="M0,0V-23.884" fill="none" stroke="#12263f" stroke-linecap="round" stroke-linejoin="round" stroke-miterlimit="10" stroke-width="2.49"/>
            </g>
            <g id="g9185" transform="translate(77.468 -23.03)">
              <path id="path9187" d="M0,0A6.924,6.924,0,0,0-6.923-6.924h-37.6" fill="none" stroke="#12263f" stroke-linecap="round" stroke-linejoin="round" stroke-miterlimit="10" stroke-width="2.49"/>
            </g>
            <g id="g9189" transform="translate(29.363 -32.44)">
              <path id="path9191" d="M0,0-2.183-4.68" fill="none" stroke="#12263f" stroke-linecap="round" stroke-linejoin="round" stroke-miterlimit="10" stroke-width="2.49"/>
            </g>
            <g id="g9193" transform="translate(27.992 -21.527)">
              <path id="path9195" d="M0,0,7.293-3.4" fill="none" stroke="#12263f" stroke-linecap="round" stroke-linejoin="round" stroke-miterlimit="10" stroke-width="2.49"/>
            </g>
            <g id="g9197" transform="translate(36.354 -22.636)">
              <path id="path9199" d="M0,0-3.459-7.418A4.1,4.1,0,0,0-8.914-9.413,4.024,4.024,0,0,0-10.791-4.1L-5.63,6.967H12.331a1.837,1.837,0,0,0,1.677-2.584A6.393,6.393,0,0,0,8.16.575H.9A1,1,0,0,1,0,0Z" fill="none" stroke="#12263f" stroke-linecap="round" stroke-linejoin="round" stroke-miterlimit="10" stroke-width="2.49"/>
            </g>
            <g id="g9201" transform="translate(77.468 -15.669)">
              <path id="path9203" d="M0,0H-46.744L-66.33-42a1.929,1.929,0,0,0-2.564-.933l-6.214,2.9a1.93,1.93,0,0,0-.933,2.564L-54.933,7.8a1.676,1.676,0,0,0,1.519.967h38.782" fill="none" stroke="#12263f" stroke-linecap="round" stroke-linejoin="round" stroke-miterlimit="10" stroke-width="2.49"/>
            </g>
            <g id="g9205" transform="translate(68.701 -6.907)">
              <path id="path9207" d="M0,0H8.767" fill="none" stroke="#12263f" stroke-linecap="round" stroke-linejoin="round" stroke-miterlimit="10" stroke-width="2.49"/>
            </g>
            <g id="g9209" transform="translate(82.079 -6.907)">
              <path id="path9211" d="M0,0H-4.611V-23.865a3.143,3.143,0,0,1,3.143-3.143,3.143,3.143,0,0,1,3.143,3.143V-1.676A1.676,1.676,0,0,1,0,0Z" fill="none" stroke="#12263f" stroke-linecap="round" stroke-linejoin="round" stroke-miterlimit="10" stroke-width="2.49"/>
            </g>
            <g id="g9213" transform="translate(18.191 -17.19)">
              <path id="path9215" d="M0,0,2.673-2.485a2.474,2.474,0,0,0,.558-2.858l-7.74-16.6A2.474,2.474,0,0,0-7.056-23.35l-3.622.45" fill="none" stroke="#12263f" stroke-linecap="round" stroke-linejoin="round" stroke-miterlimit="10" stroke-width="2.49"/>
            </g>
            <g id="g9217" transform="translate(29.657 -50.296)">
              <path id="path9219" d="M0,0,3.573,7.663a2.439,2.439,0,0,1-1.18,3.242L-7.783,15.65" fill="none" stroke="#12263f" stroke-linecap="round" stroke-linejoin="round" stroke-miterlimit="10" stroke-width="2.49"/>
            </g>
            <g id="g9221" transform="translate(19.273 -40.224)">
              <path id="path9223" d="M0,0,2.309-1.076a2.619,2.619,0,0,0,1.267-3.48,2.005,2.005,0,0,1,.97-2.665l4.87-2.271a5.484,5.484,0,0,0,2.653-7.288L10.875-19.34A2.014,2.014,0,0,0,8.2-20.315l-2.786,1.3" fill="none" stroke="#12263f" stroke-linecap="round" stroke-linejoin="round" stroke-miterlimit="10" stroke-width="2.49"/>
            </g>
            <g id="g9225" transform="translate(19.369 -56.76)">
              <path id="path9227" d="M0,0-4.891,2.28A1.679,1.679,0,0,0-5.7,4.512" fill="none" stroke="#12263f" stroke-linecap="round" stroke-linejoin="round" stroke-miterlimit="10" stroke-width="2.49"/>
            </g>
            <g id="g9229" transform="translate(60.889 -78.094)">
              <path id="path9231" d="M0,0A2.966,2.966,0,0,0-2.966,2.966,2.965,2.965,0,0,0,0,5.932,2.966,2.966,0,0,0,2.966,2.966,2.966,2.966,0,0,0,0,0Z" fill="none" stroke="#12263f" stroke-linecap="round" stroke-linejoin="round" stroke-miterlimit="10" stroke-width="2.49"/>
            </g>
          </g>
        </g>
      </g>
    </g>
    <path id="Trazado_114248" data-name="Trazado 114248" d="M-7679.667-7687.667H-7691v100h11.333" transform="translate(8376 11706.167)" fill="none" stroke="#7e5ee3" stroke-linejoin="round" stroke-width="5"/>
    <path id="Trazado_160629" data-name="Trazado 160629" d="M0,0H12" transform="translate(475 4068)" fill="none" stroke="#7e5ee3" stroke-width="5"/>
    <path id="Trazado_160630" data-name="Trazado 160630" d="M6.5,0,13,11H0Z" transform="translate(495 4061) rotate(90)" fill="#7e5ee3"/>
    <path id="Trazado_160631" data-name="Trazado 160631" d="M6.5,0,13,11H0Z" transform="translate(705 4012) rotate(90)" fill="#7e5ee3"/>
    <path id="Trazado_160632" data-name="Trazado 160632" d="M6.5,0,13,11H0Z" transform="translate(705 4112) rotate(90)" fill="#7e5ee3"/>
  </g>
</svg>
