<svg xmlns="http://www.w3.org/2000/svg" xmlns:xlink="http://www.w3.org/1999/xlink" width="71" height="71" viewBox="0 0 71 71">
  <defs>
    <clipPath id="clip-path">
      <rect id="Rectángulo_34084" data-name="Rectángulo 34084" width="71" height="71" transform="translate(-6602 -5662)" fill="#fff" stroke="#707070" stroke-width="1"/>
    </clipPath>
  </defs>
  <g id="Enmascarar_grupo_7" data-name="Enmascarar grupo 7" transform="translate(6602 5662)" clip-path="url(#clip-path)">
    <g id="voto-positivo" transform="translate(-6601.521 -5662)">
      <path id="Trazado_114358" data-name="Trazado 114358" d="M63.2,38.886A31.011,31.011,0,1,1,32.184,7.873,31.012,31.012,0,0,1,63.2,38.886Zm0,0" fill="#937de2"/>
      <path id="Trazado_114359" data-name="Trazado 114359" d="M32.184,7.873a31.278,31.278,0,0,0-4.82.373,31.015,31.015,0,0,1,0,61.276A31.013,31.013,0,1,0,32.184,7.873Zm0,0" fill="#7570d6"/>
      <path id="Trazado_114360" data-name="Trazado 114360" d="M67.067,36.593,49.359,48.319a6.03,6.03,0,0,1-4.284.928,6.05,6.05,0,0,0-4.294.926l-2.37,1.57L25.139,32.181,28.4,18.114A14.677,14.677,0,0,0,26.333,6.7,3.51,3.51,0,0,1,31.7,2.238l2.109,2.043a22.552,22.552,0,0,1,5.442,8.342L40.4,15.7,52.178,7.921a4.017,4.017,0,0,1,5.628,1.226,4.07,4.07,0,0,1-1.262,5.518.044.044,0,0,0-.016.056.045.045,0,0,0,.057.022,3.979,3.979,0,0,1,1.435-.267,4.015,4.015,0,0,1,3.943,4.8,4.105,4.105,0,0,1-1.684,2.544.086.086,0,0,0-.022.119,0,0,0,0,0,0,0,.084.084,0,0,0,.113.022,4.117,4.117,0,0,1,.974-.115,4.234,4.234,0,0,1,2.265.657,3.946,3.946,0,0,1,1.172,1.149,4.015,4.015,0,0,1-1.132,5.566c-.046.031-.091.062-.137.091a.063.063,0,0,0-.021.079.038.038,0,0,0,.015.015.065.065,0,0,0,.08,0A3.933,3.933,0,0,1,67,29.836a4.078,4.078,0,0,1,1.2,1.19,4.018,4.018,0,0,1-1.13,5.567Zm0,0" fill="#fdd7bd"/>
      <path id="Trazado_114361" data-name="Trazado 114361" d="M38.581,55.457,31.11,60.4,20.325,67.547a31.045,31.045,0,0,1-18.86-24.4l12.517-8.289L21.6,29.813a1.906,1.906,0,0,1,2.642.538L39.119,52.813a1.908,1.908,0,0,1-.538,2.644Zm0,0" fill="#87dbff"/>
      <path id="Trazado_114362" data-name="Trazado 114362" d="M38.581,55.457,31.11,60.4,13.981,34.859,21.6,29.813a1.906,1.906,0,0,1,2.642.538L39.119,52.813a1.908,1.908,0,0,1-.538,2.644Zm0,0" fill="#6fc7ff"/>
      <g id="Grupo_83684" data-name="Grupo 83684">
        <path id="Trazado_114363" data-name="Trazado 114363" d="M60.209,15.12l-5.892,3.153a1.909,1.909,0,0,1-2.435-.548l4.646-3.006a.044.044,0,0,0,.057.022,3.979,3.979,0,0,1,1.435-.267,4.045,4.045,0,0,1,2.189.645Zm0,0" fill="#fac5aa"/>
        <path id="Trazado_114364" data-name="Trazado 114364" d="M63.614,22.5l-5.764,3.082a1.907,1.907,0,0,1-2.435-.546l4.646-3.006.2-.094a.084.084,0,0,0,.113.022,4.124,4.124,0,0,1,.974-.115,4.226,4.226,0,0,1,2.265.657Zm0,0" fill="#fac5aa"/>
        <path id="Trazado_114365" data-name="Trazado 114365" d="M67,29.836l-5.077,2.716A1.91,1.91,0,0,1,59.487,32l4.024-2.6a.065.065,0,0,0,.08,0A3.933,3.933,0,0,1,67,29.836Zm0,0" fill="#fac5aa"/>
      </g>
      <path id="Trazado_114366" data-name="Trazado 114366" d="M69.118,30.416a5.085,5.085,0,0,0-3.149-2.168,5.115,5.115,0,0,0-3.411-7.373,5.127,5.127,0,0,0-.265-5.21A5.081,5.081,0,0,0,59.144,13.5a5.12,5.12,0,0,0-7.36-6.65l-5.1,3.376A31.853,31.853,0,0,0,38.08,7.311,23.666,23.666,0,0,0,34.8,3.338L32.687,1.294a4.614,4.614,0,0,0-7.059,5.861q.083.126.163.253A32.116,32.116,0,1,0,62.4,49.794a1.1,1.1,0,1,0-2.076-.75A29.947,29.947,0,0,1,22.741,67.271l8.982-5.948h0l7.465-4.943h0A3.011,3.011,0,0,0,40.04,52.2l-.1-.15,1.45-.96a4.918,4.918,0,0,1,3.5-.757,7.118,7.118,0,0,0,5.073-1.1L62,41.275a29.972,29.972,0,0,1-.407,3.1,1.1,1.1,0,0,0,.884,1.287,1.077,1.077,0,0,0,.2.019,1.1,1.1,0,0,0,1.084-.9,32.288,32.288,0,0,0,.528-5.021l3.389-2.245a5.121,5.121,0,0,0,1.442-7.1ZM44.543,11.643,41.17,13.877l-.664-1.789a23.625,23.625,0,0,0-.947-2.194,29.634,29.634,0,0,1,4.985,1.75ZM9.584,19.3A29.91,29.91,0,0,1,26.848,9.454a13.639,13.639,0,0,1,.688,8.26L24.844,29.342a3.005,3.005,0,0,0-3.853-.449l-7.624,5.049h0l-11,7.282c-.06-.776-.092-1.557-.092-2.338A29.9,29.9,0,0,1,9.584,19.3ZM38.316,54.026a.8.8,0,0,1-.345.51h0l-6.557,4.342L19.246,40.729a1.1,1.1,0,0,0-1.834,1.23L29.574,60.1l-9.36,6.2A30,30,0,0,1,2.657,43.639l11.009-7.267,1.267,1.89a1.1,1.1,0,1,0,1.834-1.23L15.51,35.157l6.7-4.423a.8.8,0,0,1,1.113.227L38.2,53.423a.8.8,0,0,1,.117.6ZM67.7,33.823a2.893,2.893,0,0,1-1.246,1.849l-3.875,2.566,0,0L48.749,47.4a4.915,4.915,0,0,1-3.5.757,7.122,7.122,0,0,0-5.073,1.1l-1.45.96-12.184-18.4,3.149-13.6A15.862,15.862,0,0,0,28.526,7.8a1.082,1.082,0,0,0-.047-.1,15.616,15.616,0,0,0-1.01-1.766A2.406,2.406,0,0,1,31.15,2.879l2.109,2.044a21.57,21.57,0,0,1,5.176,7.933l1.148,3.094.007.016.009.022c.008.019.016.036.024.051a1.089,1.089,0,0,0,.076.137,1.1,1.1,0,0,0,1.53.311L53,8.689a2.913,2.913,0,0,1,3.217,4.857l-1.022.677h0l-2.28,1.51-.009.006c-.013.009-.025.018-.036.027a1.1,1.1,0,0,0,1.264,1.808l2.282-1.511a2.913,2.913,0,0,1,3.215,4.858l-3.3,2.188a1.1,1.1,0,1,0,1.219,1.841l.511-.339,1.769-1.172A2.913,2.913,0,0,1,63.045,28.3l-1.65,1.093-.026.017-1.627,1.077a1.1,1.1,0,1,0,1.219,1.841l.511-.339h0l1.769-1.171A2.912,2.912,0,0,1,67.7,33.823Zm0,0"/>
    </g>
  </g>
</svg>
