<svg xmlns="http://www.w3.org/2000/svg" xmlns:xlink="http://www.w3.org/1999/xlink" width="57" height="57" viewBox="0 0 57 57">
  <defs>
    <clipPath id="clip-path">
      <rect id="Rectángulo_34075" data-name="Rectángulo 34075" width="57" height="57" transform="translate(-6633 -7069)" fill="#fff"/>
    </clipPath>
  </defs>
  <g id="Enmascarar_grupo_6" data-name="Enmascarar grupo 6" transform="translate(6633 7069)" clip-path="url(#clip-path)">
    <g id="hospital" transform="translate(-6633 -7069)">
      <g id="Grupo_83677" data-name="Grupo 83677">
        <g id="Grupo_83672" data-name="Grupo 83672">
          <g id="Grupo_83670" data-name="Grupo 83670">
            <path id="Trazado_114329" data-name="Trazado 114329" d="M1.726,56.165H11.854V18.5H4.175a3.34,3.34,0,0,0-3.34,3.34V55.274A.891.891,0,0,0,1.726,56.165Z" fill="#f7f6f7"/>
          </g>
          <path id="Trazado_114330" data-name="Trazado 114330" d="M8.514,18.5h3.34V56.165H8.514Z" fill="#edebed"/>
          <g id="Grupo_83671" data-name="Grupo 83671">
            <path id="Trazado_114331" data-name="Trazado 114331" d="M11.854,23.506H6.735a.891.891,0,0,0-.891.895l.019,4.111a.891.891,0,0,0,.891.887h5.1Z" fill="#bed8fb"/>
            <path id="Trazado_114332" data-name="Trazado 114332" d="M11.854,34.409H6.735a.891.891,0,0,0-.891.895l.019,4.111a.891.891,0,0,0,.891.887h5.1Z" fill="#bed8fb"/>
            <path id="Trazado_114333" data-name="Trazado 114333" d="M8.514,23.506h3.34V29.4H8.514Z" fill="#9dc6fb"/>
            <path id="Trazado_114334" data-name="Trazado 114334" d="M8.514,34.409h3.34V40.3H8.514Z" fill="#9dc6fb"/>
            <path id="Trazado_114335" data-name="Trazado 114335" d="M11.854,45.263H6.735a.891.891,0,0,0-.891.895l.019,4.111a.891.891,0,0,0,.891.887h5.1Z" fill="#bed8fb"/>
            <path id="Trazado_114336" data-name="Trazado 114336" d="M8.514,45.263h3.34v5.893H8.514Z" fill="#9dc6fb"/>
          </g>
        </g>
        <path id="Trazado_114337" data-name="Trazado 114337" d="M45.146,56.165H36.8L28.5,54.5l-8.3,1.67H11.8V14.027a3.34,3.34,0,0,1,3.34-3.34H41.806a3.34,3.34,0,0,1,3.34,3.34Z" fill="#f7f6f7"/>
        <path id="Trazado_114338" data-name="Trazado 114338" d="M41.806,10.688h-3.34a3.34,3.34,0,0,1,3.34,3.34V56.165h3.34V14.027A3.34,3.34,0,0,0,41.806,10.688Z" fill="#edebed"/>
        <g id="Grupo_83673" data-name="Grupo 83673">
          <circle id="Elipse_4886" data-name="Elipse 4886" cx="9.853" cy="9.853" r="9.853" transform="translate(18.647 0.835)" fill="#dd636e"/>
          <path id="Trazado_114339" data-name="Trazado 114339" d="M28.5.835a9.878,9.878,0,0,0-1.67.142,9.853,9.853,0,0,1,0,19.421A9.853,9.853,0,1,0,28.5.835Z" fill="#da4a54"/>
          <path id="Trazado_114340" data-name="Trazado 114340" d="M34.345,9.018H30.5a.334.334,0,0,1-.334-.334V4.843a.668.668,0,0,0-.668-.668h-2a.668.668,0,0,0-.668.668V8.684a.334.334,0,0,1-.334.334H22.655a.668.668,0,0,0-.668.668v2a.668.668,0,0,0,.668.668H26.5a.334.334,0,0,1,.334.334v3.841a.668.668,0,0,0,.668.668h2a.668.668,0,0,0,.668-.668V12.691a.334.334,0,0,1,.334-.334h3.841a.668.668,0,0,0,.668-.668v-2A.668.668,0,0,0,34.345,9.018Z" fill="#fff"/>
        </g>
        <path id="Trazado_114341" data-name="Trazado 114341" d="M20.2,39.792H36.8V56.165H20.2Z" fill="#655e67"/>
        <path id="Trazado_114342" data-name="Trazado 114342" d="M33.457,39.792H36.8V56.165h-3.34Z" fill="#544f56"/>
        <path id="Trazado_114343" data-name="Trazado 114343" d="M25.1,31.442h-7.4a.891.891,0,0,1-.891-.895l.019-4.111a.891.891,0,0,1,.891-.887H25.1A.891.891,0,0,1,26,26.44v4.111a.891.891,0,0,1-.891.891Z" fill="#bed8fb"/>
        <path id="Trazado_114344" data-name="Trazado 114344" d="M25.1,25.55h-3.34a.891.891,0,0,1,.891.891v4.111a.891.891,0,0,1-.891.891H25.1A.891.891,0,0,0,26,30.552V26.44A.891.891,0,0,0,25.1,25.55Z" fill="#9dc6fb"/>
        <path id="Trazado_114345" data-name="Trazado 114345" d="M31.9,25.55h7.373a.891.891,0,0,1,.891.895l-.019,4.111a.891.891,0,0,1-.891.887H31.9A.891.891,0,0,1,31,30.552V26.44A.891.891,0,0,1,31.9,25.55Z" fill="#bed8fb"/>
        <path id="Trazado_114346" data-name="Trazado 114346" d="M39.268,25.55h-3.34a.891.891,0,0,1,.891.895L36.8,30.556a.891.891,0,0,1-.891.887h3.34a.891.891,0,0,0,.891-.887l.019-4.111a.891.891,0,0,0-.891-.895Z" fill="#9dc6fb"/>
        <g id="Grupo_83676" data-name="Grupo 83676">
          <g id="Grupo_83674" data-name="Grupo 83674">
            <path id="Trazado_114347" data-name="Trazado 114347" d="M55.274,56.165H45.146V18.5h7.679a3.34,3.34,0,0,1,3.34,3.34V55.274A.891.891,0,0,1,55.274,56.165Z" fill="#f7f6f7"/>
          </g>
          <path id="Trazado_114348" data-name="Trazado 114348" d="M52.825,18.5h-3.34a3.34,3.34,0,0,1,3.34,3.34V55.274a.891.891,0,0,1-.891.891h3.34a.891.891,0,0,0,.891-.891V21.836a3.34,3.34,0,0,0-3.34-3.34Z" fill="#edebed"/>
          <g id="Grupo_83675" data-name="Grupo 83675">
            <path id="Trazado_114349" data-name="Trazado 114349" d="M45.146,23.506h5.118a.891.891,0,0,1,.891.895l-.019,4.111a.891.891,0,0,1-.891.887h-5.1" fill="#bed8fb"/>
            <path id="Trazado_114350" data-name="Trazado 114350" d="M45.146,34.409h5.118a.891.891,0,0,1,.891.895l-.019,4.111a.891.891,0,0,1-.891.887h-5.1Z" fill="#bed8fb"/>
            <path id="Trazado_114351" data-name="Trazado 114351" d="M45.146,45.263h5.118a.891.891,0,0,1,.891.895l-.019,4.111a.891.891,0,0,1-.891.887h-5.1Z" fill="#bed8fb"/>
          </g>
        </g>
        <path id="Trazado_114352" data-name="Trazado 114352" d="M37.8,36.452H19.2a.668.668,0,0,0-.668.668v2a.668.668,0,0,0,.668.668H37.8a.668.668,0,0,0,.668-.668v-2A.668.668,0,0,0,37.8,36.452Z" fill="#8b808e"/>
        <path id="Trazado_114353" data-name="Trazado 114353" d="M37.8,36.452h-3.34a.668.668,0,0,1,.668.668v2a.668.668,0,0,1-.668.668H37.8a.668.668,0,0,0,.668-.668v-2A.668.668,0,0,0,37.8,36.452Z" fill="#766d78"/>
      </g>
      <path id="Trazado_114354" data-name="Trazado 114354" d="M52.825,17.662H49.043a.835.835,0,0,0,0,1.67h3.782a2.508,2.508,0,0,1,2.5,2.5V55.274a.056.056,0,0,1-.056.056H45.981V51.99h4.265a1.729,1.729,0,0,0,1.726-1.718l.019-4.111a1.738,1.738,0,0,0-1.726-1.733H45.981V41.136h4.265a1.729,1.729,0,0,0,1.726-1.718l.019-4.111a1.738,1.738,0,0,0-1.726-1.733H45.981v-3.34h4.265a1.729,1.729,0,0,0,1.726-1.718L51.99,24.4a1.738,1.738,0,0,0-1.726-1.733H45.981V14.027a4.179,4.179,0,0,0-4.175-4.175H39.155a10.688,10.688,0,0,0-21.31,0h-2.7a4.179,4.179,0,0,0-4.175,4.175v3.634H4.175A4.179,4.179,0,0,0,0,21.836V55.274A1.728,1.728,0,0,0,1.726,57H55.274A1.727,1.727,0,0,0,57,55.274V21.836a4.179,4.179,0,0,0-4.175-4.175Zm-6.844,6.68h4.284a.056.056,0,0,1,.056.056L50.3,28.508a.056.056,0,0,1-.056.055H45.981Zm0,10.9h4.284a.053.053,0,0,1,.039.016.053.053,0,0,1,.016.04L50.3,39.411a.056.056,0,0,1-.056.055H45.981Zm0,10.854h4.284a.053.053,0,0,1,.039.016.053.053,0,0,1,.016.04L50.3,50.265a.056.056,0,0,1-.056.055H45.981ZM10.966,50.32H6.754a.055.055,0,0,1-.056-.055L6.68,46.154a.054.054,0,0,1,.016-.04.053.053,0,0,1,.039-.016h4.23Zm0-10.854H6.754a.055.055,0,0,1-.056-.055L6.68,35.3a.053.053,0,0,1,.016-.04.052.052,0,0,1,.039-.016h4.23Zm0-10.9H6.754a.055.055,0,0,1-.056-.055L6.68,24.4a.053.053,0,0,1,.016-.04.052.052,0,0,1,.039-.016h4.23Zm0-5.893H6.735A1.737,1.737,0,0,0,5.01,24.4l.019,4.111a1.729,1.729,0,0,0,1.726,1.717h4.212v3.34H6.735A1.737,1.737,0,0,0,5.01,35.307l.019,4.111a1.729,1.729,0,0,0,1.726,1.717h4.212v3.292H6.735A1.736,1.736,0,0,0,5.01,46.162l.019,4.111A1.729,1.729,0,0,0,6.754,51.99h4.212v3.34H1.726a.056.056,0,0,1-.056-.056V21.836a2.508,2.508,0,0,1,2.5-2.5h6.791ZM28.5,1.67a9.018,9.018,0,1,1-9.018,9.018A9.028,9.028,0,0,1,28.5,1.67Zm7.462,53.66H29.335v-14.7h6.627ZM19.368,38.957v-1.67H37.632v1.67ZM44.311,55.33H37.632v-14.7a1.534,1.534,0,0,0,1.67-1.5v-2a1.5,1.5,0,0,0-1.5-1.5H19.2a1.5,1.5,0,0,0-1.5,1.5v2a1.524,1.524,0,0,0,1.67,1.5v5.913a.835.835,0,0,0,1.67,0V40.627h6.627v14.7H21.038V50.436a.835.835,0,0,0-1.67,0V55.33H12.636v-41.3a2.508,2.508,0,0,1,2.5-2.5h2.7a10.688,10.688,0,0,0,21.31,0h2.651a2.508,2.508,0,0,1,2.5,2.5ZM26,13.192v3.34a1.5,1.5,0,0,0,1.5,1.5h2a1.5,1.5,0,0,0,1.5-1.5v-3.34h3.34a1.5,1.5,0,0,0,1.5-1.5v-2a1.5,1.5,0,0,0-1.5-1.5H31V4.843a1.5,1.5,0,0,0-1.5-1.5h-2a1.5,1.5,0,0,0-1.5,1.5v3.34h-3.34a1.5,1.5,0,0,0-1.5,1.5v2a1.5,1.5,0,0,0,1.5,1.5Zm-3.173-3.34H26.5a1.17,1.17,0,0,0,1.169-1.169V5.01h1.67V8.684A1.17,1.17,0,0,0,30.5,9.853h3.674v1.67H30.5a1.17,1.17,0,0,0-1.169,1.169v3.674h-1.67V12.691A1.17,1.17,0,0,0,26.5,11.522H22.822ZM25.16,49.668A.835.835,0,0,0,26,48.833V47.124a.835.835,0,0,0-1.67,0v1.709A.835.835,0,0,0,25.16,49.668ZM25.1,24.715H17.724A1.729,1.729,0,0,0,16,26.433l-.019,4.111a1.738,1.738,0,0,0,1.726,1.733h7.4a1.728,1.728,0,0,0,1.726-1.726V26.44A1.728,1.728,0,0,0,25.1,24.715Zm.056,5.837a.056.056,0,0,1-.056.056h-7.4a.065.065,0,0,1-.056-.056l.019-4.111a.056.056,0,0,1,.056-.055H25.1a.056.056,0,0,1,.056.056Zm6.68,19.116a.835.835,0,0,0,.835-.835V47.124a.835.835,0,0,0-1.67,0v1.709A.835.835,0,0,0,31.84,49.668Zm7.428-24.953H31.9A1.728,1.728,0,0,0,30.17,26.44v4.111A1.728,1.728,0,0,0,31.9,32.277h7.354a1.729,1.729,0,0,0,1.726-1.718l.019-4.111A1.738,1.738,0,0,0,39.268,24.715Zm.037,5.837a.056.056,0,0,1-.056.055H31.9a.056.056,0,0,1-.056-.056V26.44a.056.056,0,0,1,.056-.056h7.373a.056.056,0,0,1,.056.056Z"/>
    </g>
  </g>
</svg>
