<svg xmlns="http://www.w3.org/2000/svg" xmlns:xlink="http://www.w3.org/1999/xlink" width="57" height="57" viewBox="0 0 57 57">
  <defs>
    <clipPath id="clip-path">
      <rect id="Rectángulo_34074" data-name="Rectángulo 34074" width="57" height="57" transform="translate(-6633 -7145)" fill="#fff"/>
    </clipPath>
  </defs>
  <g id="Enmascarar_grupo_5" data-name="Enmascarar grupo 5" transform="translate(6633 7145)" clip-path="url(#clip-path)">
    <g id="pharmacy-drug-drug_store-dispensary-store" data-name="pharmacy-drug-drug store-dispensary-store" transform="translate(-6634.9 -7146.9)">
      <path id="Trazado_114302" data-name="Trazado 114302" d="M6.65,24.7h47.5V54.15H6.65Z" fill="#fee9ab"/>
      <path id="Trazado_114303" data-name="Trazado 114303" d="M50.35,24.7h3.8V54.15h-3.8Z" fill="#ffd422"/>
      <path id="Trazado_114304" data-name="Trazado 114304" d="M57.95,56.05a1.914,1.914,0,0,1-1.9,1.9H4.75a1.9,1.9,0,1,1,0-3.8h51.3A1.906,1.906,0,0,1,57.95,56.05Z" fill="#898890"/>
      <path id="Trazado_114305" data-name="Trazado 114305" d="M57.95,56.05a1.914,1.914,0,0,1-1.9,1.9h-3.8a1.9,1.9,0,1,0,0-3.8h3.8A1.906,1.906,0,0,1,57.95,56.05Z" fill="#57565c"/>
      <path id="Trazado_114306" data-name="Trazado 114306" d="M55.337,13.984,57,25.65a3.8,3.8,0,0,1-7.6,0V12.35h4.056a1.909,1.909,0,0,1,1.881,1.634Z" fill="#ff3051"/>
      <path id="Trazado_114307" data-name="Trazado 114307" d="M57,25.65a3.794,3.794,0,0,1-5.7,3.287,4.014,4.014,0,0,0,.789-.6A3.824,3.824,0,0,0,53.2,25.65L51.537,13.984a1.909,1.909,0,0,0-1.881-1.634h3.8a1.909,1.909,0,0,1,1.881,1.634Z" fill="#cd2a00"/>
      <rect id="Rectángulo_34076" data-name="Rectángulo 34076" width="19" height="17.1" rx="1.9" transform="translate(30.4 33.25)" fill="#46f8ff"/>
      <path id="Trazado_114308" data-name="Trazado 114308" d="M49.4,35.15v13.3a1.906,1.906,0,0,1-1.9,1.9H43.7a1.906,1.906,0,0,0,1.9-1.9V35.15a1.906,1.906,0,0,0-1.9-1.9h3.8A1.906,1.906,0,0,1,49.4,35.15Z" fill="#00d7df"/>
      <rect id="Rectángulo_34077" data-name="Rectángulo 34077" width="30.4" height="20.9" rx="1.9" transform="translate(15.2 2.85)" fill="#ebe5dd"/>
      <path id="Trazado_114309" data-name="Trazado 114309" d="M45.6,4.75v17.1a1.906,1.906,0,0,1-1.9,1.9H39.9a1.906,1.906,0,0,0,1.9-1.9V4.75a1.906,1.906,0,0,0-1.9-1.9h3.8a1.906,1.906,0,0,1,1.9,1.9Z" fill="#c0ab91"/>
      <path id="Trazado_114310" data-name="Trazado 114310" d="M24.7,39.9V54.15H11.4V39.9a6.65,6.65,0,0,1,13.3,0Z" fill="#a78966"/>
      <path id="Trazado_114311" data-name="Trazado 114311" d="M24.7,39.9V54.15H20.9V39.9a6.65,6.65,0,0,0-4.75-6.374A6.65,6.65,0,0,1,24.7,39.9Z" fill="#806749"/>
      <path id="Trazado_114312" data-name="Trazado 114312" d="M49.4,12.35v13.3a3.8,3.8,0,0,1-7.6,0v-1.9h1.9a1.906,1.906,0,0,0,1.9-1.9v-9.5Z" fill="#ff3051"/>
      <path id="Trazado_114313" data-name="Trazado 114313" d="M41.8,23.75v1.9a3.8,3.8,0,0,1-7.6,0v-1.9Z" fill="#ff3051"/>
      <path id="Trazado_114314" data-name="Trazado 114314" d="M41.8,13.3v3.8a2.85,2.85,0,1,1-5.7,0V13.3Z" fill="#e0e0e2"/>
      <path id="Trazado_114315" data-name="Trazado 114315" d="M41.8,9.5v3.8H36.1V9.5a2.85,2.85,0,1,1,5.7,0Z" fill="#ff3051"/>
      <path id="Trazado_114316" data-name="Trazado 114316" d="M34.2,23.75v1.9a3.8,3.8,0,0,1-7.6,0v-1.9Z" fill="#ff3051"/>
      <path id="Trazado_114317" data-name="Trazado 114317" d="M32.3,10.45v9.5H20.9v-9.5H32.3Z" fill="#bdfdff"/>
      <path id="Trazado_114318" data-name="Trazado 114318" d="M22.8,6.65h7.6v3.8H22.8Z" fill="#57a4ff"/>
      <g id="Grupo_83669" data-name="Grupo 83669">
        <path id="Trazado_114319" data-name="Trazado 114319" d="M26.6,23.75v1.9a3.8,3.8,0,0,1-7.6,0v-1.9Z" fill="#ff3051"/>
        <path id="Trazado_114320" data-name="Trazado 114320" d="M19,23.75v1.9a3.8,3.8,0,0,1-7.6,0V12.35h3.8v9.5a1.906,1.906,0,0,0,1.9,1.9Z" fill="#ff3051"/>
        <path id="Trazado_114321" data-name="Trazado 114321" d="M11.4,12.35v13.3a3.8,3.8,0,0,1-7.6,0L5.462,13.984A1.909,1.909,0,0,1,7.343,12.35Z" fill="#ff3051"/>
      </g>
      <path id="Trazado_114322" data-name="Trazado 114322" d="M32.3,51.3H47.5a2.85,2.85,0,0,0,2.85-2.85V35.15A2.85,2.85,0,0,0,47.5,32.3H32.3a2.85,2.85,0,0,0-2.85,2.85v13.3A2.85,2.85,0,0,0,32.3,51.3Zm-.95-16.15a.95.95,0,0,1,.95-.95H47.5a.95.95,0,0,1,.95.95v13.3a.95.95,0,0,1-.95.95H32.3a.95.95,0,0,1-.95-.95Z"/>
      <path id="Trazado_114323" data-name="Trazado 114323" d="M44.65,40.85h1.9v-3.8a.95.95,0,0,0-.95-.95H41.8V38h2.85Z"/>
      <path id="Trazado_114324" data-name="Trazado 114324" d="M20.9,44.65h1.9v1.9H20.9Z"/>
      <path id="Trazado_114325" data-name="Trazado 114325" d="M56.05,53.2h-1.9V30.3a4.766,4.766,0,0,0,3.8-4.655.627.627,0,0,0-.009-.133L56.278,13.851A2.869,2.869,0,0,0,53.456,11.4H46.55V4.75A2.859,2.859,0,0,0,43.7,1.9H17.1a2.859,2.859,0,0,0-2.85,2.85V11.4H7.343a2.869,2.869,0,0,0-2.821,2.451L2.859,25.517a.627.627,0,0,0-.009.133A4.766,4.766,0,0,0,6.65,30.3V53.2H4.75a2.85,2.85,0,0,0,0,5.7h51.3a2.85,2.85,0,1,0,0-5.7Zm-5.7-39.9h3.107a.941.941,0,0,1,.931.817l1.663,11.6a2.85,2.85,0,0,1-5.7-.066Zm-3.8,8.55V13.3h1.9V25.65a2.85,2.85,0,1,1-5.7,0V24.7h.95a2.859,2.859,0,0,0,2.85-2.85ZM16.15,4.75a.95.95,0,0,1,.95-.95H43.7a.95.95,0,0,1,.95.95v17.1a.95.95,0,0,1-.95.95H17.1a.95.95,0,0,1-.95-.95ZM40.85,24.7v.95a2.85,2.85,0,1,1-5.7,0V24.7Zm-7.6,0v.95a2.85,2.85,0,1,1-5.7,0V24.7Zm-7.6,0v.95a2.85,2.85,0,1,1-5.7,0V24.7ZM12.35,13.3h1.9v8.55A2.859,2.859,0,0,0,17.1,24.7h.95v.95a2.85,2.85,0,1,1-5.7,0ZM11.4,28.5a4.75,4.75,0,0,0,7.6,0,4.75,4.75,0,0,0,7.6,0,4.75,4.75,0,0,0,7.6,0,4.75,4.75,0,0,0,7.6,0,4.75,4.75,0,0,0,7.6,0,4.744,4.744,0,0,0,2.85,1.8V53.2H25.65V39.9a7.6,7.6,0,0,0-15.2,0V53.2H8.55V30.3a4.744,4.744,0,0,0,2.85-1.8ZM23.75,39.9V53.2H12.35V39.9a5.7,5.7,0,1,1,11.4,0Zm-19-14.184,1.662-11.6a.941.941,0,0,1,.931-.817H10.45V25.65a2.85,2.85,0,0,1-5.7.066ZM56.05,57H4.75a.95.95,0,0,1,0-1.9h51.3a.95.95,0,1,1,0,1.9Z"/>
      <path id="Trazado_114326" data-name="Trazado 114326" d="M33.25,7.6V5.7H19.95V7.6h1.9V9.5H20.9a.95.95,0,0,0-.95.95v9.5a.95.95,0,0,0,.95.95H32.3a.95.95,0,0,0,.95-.95v-9.5a.95.95,0,0,0-.95-.95h-.95V7.6Zm-9.5,0h5.7V9.5h-5.7ZM31.35,19h-9.5V11.4h9.5Z"/>
      <path id="Trazado_114327" data-name="Trazado 114327" d="M27.55,12.35h-1.9v1.9h-1.9v1.9h1.9v1.9h1.9v-1.9h1.9v-1.9h-1.9Z"/>
      <path id="Trazado_114328" data-name="Trazado 114328" d="M38.95,5.7a3.8,3.8,0,0,0-3.8,3.8v7.6a3.8,3.8,0,0,0,7.6,0V9.5A3.8,3.8,0,0,0,38.95,5.7Zm1.9,11.4a1.9,1.9,0,0,1-3.8,0V14.25h3.8Zm0-4.75h-3.8V9.5a1.9,1.9,0,0,1,3.8,0Z"/>
    </g>
  </g>
</svg>
