<svg xmlns="http://www.w3.org/2000/svg" xmlns:xlink="http://www.w3.org/1999/xlink" width="105" height="105" viewBox="0 0 105 105">
  <defs>
    <clipPath id="clip-path">
      <rect id="Rectángulo_34093" data-name="Rectángulo 34093" width="82" height="82" transform="translate(1111 4614)" fill="#fff"/>
    </clipPath>
  </defs>
  <g id="Grupo_86846" data-name="Grupo 86846" transform="translate(-1099 -4591)">
    <circle id="Elipse_4907" data-name="Elipse 4907" cx="52.5" cy="52.5" r="52.5" transform="translate(1099 4591)" fill="#7e5ee3"/>
    <g id="Enmascarar_grupo_11" data-name="Enmascarar grupo 11" clip-path="url(#clip-path)">
      <g id="detergente" transform="translate(1111 4614)">
        <g id="Grupo_83693" data-name="Grupo 83693">
          <path id="Trazado_114390" data-name="Trazado 114390" d="M46.639,1.139H11.393A3.537,3.537,0,0,0,7.847,4.685v6.964H50.206V4.685a3.569,3.569,0,0,0-3.567-3.546ZM35.467,8.274H22.586a1.88,1.88,0,1,1,0-3.76H35.467a1.88,1.88,0,1,1,0,3.76Z" fill="#b687d4"/>
          <path id="Trazado_114391" data-name="Trazado 114391" d="M50.206,12.788H7.847a1.138,1.138,0,0,1-1.139-1.139V4.685A4.691,4.691,0,0,1,11.393,0H46.638a4.7,4.7,0,0,1,4.707,4.685v6.965a1.138,1.138,0,0,1-1.139,1.139ZM8.986,10.51H49.067V4.685a2.421,2.421,0,0,0-2.429-2.407H11.393A2.41,2.41,0,0,0,8.986,4.685V10.51Zm26.481-1.1H22.586a3.018,3.018,0,0,1,0-6.037H35.467a3.018,3.018,0,0,1,0,6.037ZM22.586,5.653a.741.741,0,1,0,0,1.481H35.467a.741.741,0,0,0,0-1.481Z" fill="#101016"/>
          <path id="Trazado_114392" data-name="Trazado 114392" d="M55.521,24.033V64.8a8.765,8.765,0,0,1-8.765,8.765H11.261A8.765,8.765,0,0,1,2.5,64.8V24.033a13.732,13.732,0,0,1,2.128-7.343l3.2-5.063H50.189l3.2,5.063a13.732,13.732,0,0,1,2.128,7.343Z" fill="#9151b2"/>
          <path id="Trazado_114393" data-name="Trazado 114393" d="M55.521,40.788V64.8a8.759,8.759,0,0,1-8.769,8.77H11.263A8.759,8.759,0,0,1,2.494,64.8V40.788a24.041,24.041,0,0,1,15.352,3.439H40.168a24.01,24.01,0,0,1,15.352-3.439Z" fill="#b687d4"/>
          <path id="Trazado_114394" data-name="Trazado 114394" d="M55.521,24.024V64.785a8.752,8.752,0,0,1-8.751,8.774H28.322c5.4-5.174,15.973-17.39,17.323-35.613A49.073,49.073,0,0,0,40.29,11.628h9.9l3.217,5.062a13.783,13.783,0,0,1,2.115,7.334Z" opacity="0.1"/>
          <path id="Trazado_114395" data-name="Trazado 114395" d="M46.756,74.706H11.262a9.917,9.917,0,0,1-9.9-9.905V24.033a14.844,14.844,0,0,1,2.3-7.952l3.2-5.063a1.139,1.139,0,0,1,.962-.529h42.36a1.143,1.143,0,0,1,.963.529l3.205,5.063a14.875,14.875,0,0,1,2.3,7.952V64.8a9.916,9.916,0,0,1-9.9,9.905ZM8.455,12.767,5.586,17.3a12.575,12.575,0,0,0-1.951,6.733V64.8a7.635,7.635,0,0,0,7.626,7.627H46.756A7.635,7.635,0,0,0,54.381,64.8V24.033A12.583,12.583,0,0,0,52.431,17.3l-2.869-4.532H8.455Z" fill="#101016"/>
          <path id="Trazado_114396" data-name="Trazado 114396" d="M46.752,74.7H11.264a9.921,9.921,0,0,1-9.909-9.91V40.788a1.139,1.139,0,0,1,1-1.13,25.166,25.166,0,0,1,15.8,3.431h21.7a25.208,25.208,0,0,1,15.8-3.431,1.139,1.139,0,0,1,1,1.13V64.794a9.92,9.92,0,0,1-9.907,9.91ZM3.633,41.819V64.794a7.64,7.64,0,0,0,7.631,7.632H46.752a7.64,7.64,0,0,0,7.63-7.632V41.82A23.125,23.125,0,0,0,40.75,45.206a1.143,1.143,0,0,1-.583.16H17.846a1.146,1.146,0,0,1-.583-.16,23.174,23.174,0,0,0-13.63-3.388Z" fill="#101016"/>
          <circle id="Elipse_4908" data-name="Elipse 4908" cx="12.438" cy="12.438" r="12.438" transform="translate(16.578 29.617)" fill="#f0f0fc"/>
          <path id="Trazado_114397" data-name="Trazado 114397" d="M29.009,55.632A13.577,13.577,0,1,1,42.585,42.055,13.592,13.592,0,0,1,29.009,55.632Zm0-24.875a11.3,11.3,0,1,0,11.3,11.3,11.311,11.311,0,0,0-11.3-11.3Z" fill="#101016"/>
        </g>
        <g id="Grupo_83695" data-name="Grupo 83695">
          <path id="Trazado_114398" data-name="Trazado 114398" d="M45.19,49.652l-9,13.087H60.816l-9-13.087a4.018,4.018,0,0,0-6.621,0Z" fill="#f0f0fc"/>
          <g id="Grupo_83694" data-name="Grupo 83694">
            <path id="Trazado_114399" data-name="Trazado 114399" d="M60.817,63.878H36.187a1.14,1.14,0,0,1-.939-1.784l9-13.088a5.16,5.16,0,0,1,8.5,0l9,13.088a1.14,1.14,0,0,1-.939,1.784ZM38.352,61.6h20.3L50.874,50.3a2.963,2.963,0,0,0-4.745,0Z" fill="#101016"/>
            <circle id="Elipse_4909" data-name="Elipse 4909" cx="1.116" cy="1.116" r="1.116" transform="translate(46.571 51.035)" fill="#101016"/>
            <circle id="Elipse_4910" data-name="Elipse 4910" cx="1.116" cy="1.116" r="1.116" transform="translate(44.265 56.301)" fill="#101016"/>
            <circle id="Elipse_4911" data-name="Elipse 4911" cx="1.116" cy="1.116" r="1.116" transform="translate(50.442 54.927)" fill="#101016"/>
          </g>
          <path id="Trazado_114400" data-name="Trazado 114400" d="M76.3,67.758,51.164,69.8v-9.01H76.016a3.491,3.491,0,0,1,.282,6.971Z" fill="#79b6ef"/>
          <path id="Trazado_114401" data-name="Trazado 114401" d="M51.165,70.936A1.141,1.141,0,0,1,50.026,69.8V60.788a1.138,1.138,0,0,1,1.139-1.139H76.016a4.629,4.629,0,0,1,.374,9.242l-25.133,2.04c-.029,0-.06,0-.091,0ZM52.3,61.927v6.635l23.9-1.94a2.352,2.352,0,0,0-.191-4.7Z" fill="#101016"/>
          <path id="Trazado_114402" data-name="Trazado 114402" d="M53.107,80.861H43.895a6.815,6.815,0,0,1-6.652-5.332L34.734,64.276a2.865,2.865,0,0,1,2.8-3.489h21.94a2.865,2.865,0,0,1,2.8,3.489L59.759,75.529a6.815,6.815,0,0,1-6.652,5.332Z" fill="#79b6ef"/>
          <path id="Trazado_114403" data-name="Trazado 114403" d="M62.265,64.28,59.756,75.526A6.809,6.809,0,0,1,53.1,80.858H46.414a19.161,19.161,0,0,0,7.429-8.4,19.47,19.47,0,0,0,1.309-11.67h4.314a2.862,2.862,0,0,1,2.8,3.49Z" opacity="0.1"/>
          <path id="Trazado_114404" data-name="Trazado 114404" d="M53.107,82H43.9a7.906,7.906,0,0,1-7.764-6.224L33.623,64.523a4,4,0,0,1,3.907-4.874h21.94a4,4,0,0,1,3.908,4.876L60.87,75.776A7.905,7.905,0,0,1,53.107,82ZM37.531,61.927a1.727,1.727,0,0,0-1.685,2.1l2.509,11.253a5.643,5.643,0,0,0,5.541,4.44h9.211a5.642,5.642,0,0,0,5.539-4.44l2.509-11.253a1.724,1.724,0,0,0-1.684-2.1Z" fill="#101016"/>
        </g>
      </g>
    </g>
  </g>
</svg>
