<svg xmlns="http://www.w3.org/2000/svg" width="286.505" height="639.348" viewBox="0 0 286.505 639.348">
  <g id="Grupo_86296" data-name="Grupo 86296" transform="translate(-167.045 -34.467)">
    <g id="Grupo_86288" data-name="Grupo 86288" transform="translate(278.574 100.858)">
      <path id="Trazado_159653" data-name="Trazado 159653" d="M254.02,189.48c-9.562-20.956-17.9-31-14.242-68.4,0,0-8.545-30.8,20.346-41.829s56.56,19.945,56.967,45.657,5.5,48.922,34.993,67.826c47.816,30.648,59.888,56.345,61.414,85.337s-20.4,81.987-91.118,80.378C213.538,355.971,254.02,189.48,254.02,189.48Z" transform="translate(-238.597 -76.958)" fill="#2f497e"/>
      <path id="Trazado_159654" data-name="Trazado 159654" d="M268.334,151.483l-1.628-10.193s-18.82-3.153-22.278-17.293-3.051-22.584-3.051-22.584,3.153-1.628,6.2-8.951c0,0,7.019,6.917,15.564,8.239s15.261,0,17.09,5.291,3.2,9.512,5.137,9.359.559-4.323,2.645-7.122,7.325-4.475,11.6,1.323-2.212,15.182-10.681,16.861l-.05,24.359-8.829,34.387Z" transform="translate(-237.042 -68.238)" fill="#f9b7b8"/>
      <path id="Trazado_159655" data-name="Trazado 159655" d="M258.375,128.673a15.454,15.454,0,0,0,9.953-4.867s-7.251.978-10.745-.094Z" transform="translate(-227.919 -50.661)" fill="#e09da3"/>
      <path id="Trazado_159656" data-name="Trazado 159656" d="M288.658,144.092l-8.829,34.387L268.109,144.8l-1.628-10.193s-18.82-3.153-22.278-17.293a116.208,116.208,0,0,1-2.439-12.982" transform="translate(-236.816 -61.56)" fill="none" stroke="#2f497e" stroke-linecap="round" stroke-linejoin="round" stroke-width="0.75"/>
      <path id="Trazado_159657" data-name="Trazado 159657" d="M241.99,111.014a61.412,61.412,0,0,1-.613-9.6s3.153-1.628,6.2-8.951c0,0,7.019,6.917,15.564,8.239s15.261,0,17.09,5.291,3.2,9.512,5.137,9.359.559-4.323,2.645-7.122,7.325-4.475,11.6,1.323-2.212,15.182-10.681,16.861l-.05,24.359" transform="translate(-237.042 -68.238)" fill="none" stroke="#2f497e" stroke-linecap="round" stroke-linejoin="round" stroke-width="0.75"/>
      <g id="Grupo_86286" data-name="Grupo 86286" transform="translate(53.449 40.511)">
        <path id="Trazado_159658" data-name="Trazado 159658" d="M272.806,104.208a3.4,3.4,0,0,1,2.634-1.322c1.709,0,3.122,1.431,4,2.631a4.1,4.1,0,0,1,.7,3.072" transform="translate(-272.806 -102.886)" fill="none" stroke="#2f497e" stroke-linecap="round" stroke-linejoin="round" stroke-width="0.75"/>
        <line id="Línea_206" data-name="Línea 206" x1="2.771" y2="3.617" transform="translate(2.295 0.961)" fill="none" stroke="#2f497e" stroke-linecap="round" stroke-linejoin="round" stroke-width="0.75"/>
      </g>
      <g id="Grupo_86287" data-name="Grupo 86287" transform="translate(3.091 34.249)">
        <path id="Trazado_159659" data-name="Trazado 159659" d="M272.511,110.254c0-6.283-4.441-11.376-9.917-11.376s-9.918,5.094-9.918,11.376,4.44,11.375,9.918,11.375S272.511,116.537,272.511,110.254Z" transform="translate(-233.77 -98.878)" fill="none" stroke="#f16880" stroke-linecap="round" stroke-linejoin="round" stroke-width="1"/>
        <path id="Trazado_159660" data-name="Trazado 159660" d="M254.8,110.259c0-6.283-3.186-11.376-7.114-11.376s-7.114,5.094-7.114,11.376,3.184,11.375,7.114,11.375S254.8,116.542,254.8,110.259Z" transform="translate(-240.576 -98.875)" fill="none" stroke="#f16880" stroke-linecap="round" stroke-linejoin="round" stroke-width="1"/>
        <path id="Trazado_159661" data-name="Trazado 159661" d="M249.682,106.479a3.682,3.682,0,0,1,4.678-.008" transform="translate(-235.454 -95.095)" fill="none" stroke="#f16880" stroke-linecap="round" stroke-linejoin="round" stroke-width="1"/>
      </g>
      <path id="Trazado_159662" data-name="Trazado 159662" d="M259.679,117.556a1.709,1.709,0,1,0-1.709,1.708A1.708,1.708,0,0,0,259.679,117.556Z" transform="translate(-228.662 -55.084)" fill="#2f497e"/>
      <path id="Trazado_159663" data-name="Trazado 159663" d="M251.947,106.547s-3.739,4.273,0,6.562" transform="translate(-232.024 -60.316)" fill="none" stroke="#2f497e" stroke-linecap="round" stroke-linejoin="round" stroke-width="0.75"/>
      <circle id="Elipse_4976" data-name="Elipse 4976" cx="1.172" cy="1.172" r="1.172" transform="translate(8.186 44.457)" fill="#2f497e"/>
      <circle id="Elipse_4977" data-name="Elipse 4977" cx="1.172" cy="1.172" r="1.172" transform="translate(27.657 44.457)" fill="#2f497e"/>
      <path id="Trazado_159664" data-name="Trazado 159664" d="M257.583,123.712a26.952,26.952,0,0,0,11.165,0" transform="translate(-227.919 -50.661)" fill="none" stroke="#2f497e" stroke-linecap="round" stroke-linejoin="round" stroke-width="0.75"/>
    </g>
    <g id="Grupo_86289" data-name="Grupo 86289" transform="translate(221.336 488.296)">
      <path id="Trazado_159665" data-name="Trazado 159665" d="M237.937,345.135l-8.32,145.2s-23.04,13.123-25.94,14.648-1.831,3.358,1.069,3.358,33.416,1.527,36.927.611,2.594-15.107,4.883-28.993,23.651-106.508,28.84-155.032Z" transform="translate(-201.964 -324.925)" fill="#f9b7b8"/>
      <path id="Trazado_159666" data-name="Trazado 159666" d="M224.46,359.5c9.4,2.022,20.4,4.151,32.287,6.006,2.6-14.923,4.758-29.007,6-40.58l-37.458,20.21Z" transform="translate(-189.31 -324.925)" fill="#e09da3"/>
      <path id="Trazado_159667" data-name="Trazado 159667" d="M237.937,345.135l-8.32,145.2s-23.04,13.123-25.94,14.648-1.831,3.358,1.069,3.358,33.416,1.527,36.927.611,2.594-15.107,4.883-28.993,23.651-106.508,28.84-155.032Z" transform="translate(-201.964 -324.925)" fill="none" stroke="#2f497e" stroke-linecap="round" stroke-linejoin="round" stroke-width="0.75"/>
      <path id="Trazado_159668" data-name="Trazado 159668" d="M230.185,424.441l-.569,9.918s-23.04,13.123-25.94,14.648-1.831,3.358,1.069,3.358,33.416,1.527,36.927.611c3.47-.906,2.619-14.8,4.812-28.535Z" transform="translate(-201.964 -268.951)" fill="#2f497e"/>
      <path id="Trazado_159669" data-name="Trazado 159669" d="M230.185,424.441l-.569,9.918s-23.04,13.123-25.94,14.648-1.831,3.358,1.069,3.358,33.416,1.527,36.927.611c3.47-.906,2.619-14.8,4.812-28.535Z" transform="translate(-201.964 -268.951)" fill="none" stroke="#2f497e" stroke-linecap="round" stroke-linejoin="round" stroke-width="0.75"/>
    </g>
    <g id="Grupo_86290" data-name="Grupo 86290" transform="translate(372.742 489.149)">
      <path id="Trazado_159670" data-name="Trazado 159670" d="M335.882,337.972l8.761,152.909s23.042,13.123,25.94,14.648,1.831,3.358-1.067,3.358-33.418,1.525-36.927.609-2.594-15.106-4.883-28.991S304.053,374,298.866,325.471Z" transform="translate(-298.866 -325.471)" fill="#f9b7b8"/>
      <path id="Trazado_159671" data-name="Trazado 159671" d="M335.882,337.972l-37.016-12.5c1.3,12.209,3.634,27.21,6.426,43.046,11.622-1.609,22.453-4.345,31.849-8.553Z" transform="translate(-298.866 -325.471)" fill="#e09da3"/>
      <path id="Trazado_159672" data-name="Trazado 159672" d="M335.882,337.972l8.761,152.909s23.042,13.123,25.94,14.648,1.831,3.358-1.067,3.358-33.418,1.525-36.927.609-2.594-15.106-4.883-28.991S304.053,374,298.866,325.471Z" transform="translate(-298.866 -325.471)" fill="none" stroke="#2f497e" stroke-linecap="round" stroke-linejoin="round" stroke-width="0.75"/>
      <path id="Trazado_159673" data-name="Trazado 159673" d="M333.668,424.988l.569,9.918s23.042,13.123,25.94,14.648,1.831,3.358-1.067,3.358-33.418,1.525-36.927.609c-3.472-.9-2.619-14.8-4.814-28.534Z" transform="translate(-288.459 -269.497)" fill="#2f497e"/>
      <path id="Trazado_159674" data-name="Trazado 159674" d="M333.668,424.988l.569,9.918s23.042,13.123,25.94,14.648,1.831,3.358-1.067,3.358-33.418,1.525-36.927.609c-3.472-.9-2.619-14.8-4.814-28.534Z" transform="translate(-288.459 -269.497)" fill="none" stroke="#2f497e" stroke-linecap="round" stroke-linejoin="round" stroke-width="0.75"/>
    </g>
    <g id="Grupo_86293" data-name="Grupo 86293" transform="translate(167.522 34.467)">
      <path id="Trazado_159675" data-name="Trazado 159675" d="M309.867,168.028s-50.355,30.518-86.977-16.785-13.428-74.159-13.428-74.159l-17.09-14.037S148.425,107.6,177.417,170.774,264.7,233.032,264.7,233.032s3.662,138.756-9.359,261.235c0,0,111.9,19.531,162.866-4.578,0,0-29.4-147.2-32.451-183.617,0,0,27.263,7.731,36.418-6.919s-3.662-58.594-22.787-80.568-68.97-51.271-68.97-51.271l-9.156,20.346Z" transform="translate(-167.522 -18.392)" fill="#f9fbfc"/>
      <path id="Trazado_159676" data-name="Trazado 159676" d="M171.086,125.073c1.214,3.539,2.642,7.144,4.326,10.814,28.993,63.173,87.282,62.258,87.282,62.258l14.884-17.209C222.264,173.444,188.189,144.474,171.086,125.073Z" transform="translate(-165.518 16.495)" fill="#d0e0fc"/>
      <path id="Trazado_159677" data-name="Trazado 159677" d="M323.506,215.75c-7.826.4-16.26-3.816-24.732-10.076l13.158,20.176s27.263,7.731,36.418-6.919c1.7-2.727,2.645-6.472,2.928-10.9A62.111,62.111,0,0,1,323.506,215.75Z" transform="translate(-93.698 61.83)" fill="#d0e0fc"/>
      <path id="Trazado_159678" data-name="Trazado 159678" d="M315.723,210.061,289.814,193.18l-22.906-18.443-1.642,11.231c9.919,7.212,21.979,41.488,47.83,58.72,7.392,4.93,13.676,7.258,18.75,8.189-.48-3.725-.845-6.976-1.067-9.626Z" transform="translate(-112.545 44.429)" fill="#d0e0fc"/>
      <path id="Trazado_159679" data-name="Trazado 159679" d="M309.867,168.028s-50.355,30.518-86.977-16.785-13.428-74.159-13.428-74.159l-17.09-14.037S148.425,107.6,177.417,170.774,264.7,233.032,264.7,233.032s3.662,138.756-9.359,261.235c0,0,111.9,19.531,162.866-4.578,0,0-29.4-147.2-32.451-183.617,0,0,27.263,7.731,36.418-6.919s-3.662-58.594-22.787-80.568-68.97-51.271-68.97-51.271l-9.156,20.346Z" transform="translate(-167.522 -18.392)" fill="none" stroke="#2f497e" stroke-linecap="round" stroke-linejoin="round" stroke-width="0.75"/>
      <path id="Trazado_159680" data-name="Trazado 159680" d="M232.842,233.963h20V272.6" transform="translate(-130.782 77.741)" fill="none" stroke="#2f497e" stroke-linecap="round" stroke-linejoin="round" stroke-width="0.75"/>
      <path id="Trazado_159681" data-name="Trazado 159681" d="M311.457,233.963H293.913V272.6" transform="translate(-96.433 77.741)" fill="none" stroke="#2f497e" stroke-linecap="round" stroke-linejoin="round" stroke-width="0.75"/>
      <path id="Trazado_159682" data-name="Trazado 159682" d="M262.361,130.492,251.982,149l10.379,7.727-6.9,10.74L277.4,198.777l16.226-33.624-8.5-9.658,7.751-7.417-9.969-18.3-8.83,24.942Z" transform="translate(-120.017 19.143)" fill="#d0e0fc"/>
      <path id="Trazado_159683" data-name="Trazado 159683" d="M279.281,226.961a2.645,2.645,0,1,0-2.645,2.645A2.645,2.645,0,0,0,279.281,226.961Z" transform="translate(-107.638 72.316)" fill="none" stroke="#2f497e" stroke-linecap="round" stroke-linejoin="round" stroke-width="0.75"/>
      <path id="Trazado_159684" data-name="Trazado 159684" d="M280.062,260.792a2.645,2.645,0,1,0-2.645,2.644A2.645,2.645,0,0,0,280.062,260.792Z" transform="translate(-107.199 91.344)" fill="none" stroke="#2f497e" stroke-linecap="round" stroke-linejoin="round" stroke-width="0.75"/>
      <path id="Trazado_159685" data-name="Trazado 159685" d="M275.75,195.023l-20.324-33.707,6.714-9-9.766-7.477,9.766-14.344,11.393,19.633,9.155-20.345,9.359,13.835-6.562,7.782,7.172,8.85Z" transform="translate(-119.796 19.143)" fill="#f9fbfc"/>
      <path id="Trazado_159686" data-name="Trazado 159686" d="M275.75,195.023l-20.324-33.707,6.714-9-9.766-7.477,9.766-14.344,11.393,19.633,9.155-20.345,9.359,13.835-6.562,7.782,7.172,8.85Z" transform="translate(-119.796 19.143)" fill="none" stroke="#2f497e" stroke-linecap="round" stroke-linejoin="round" stroke-width="0.75"/>
      <g id="Grupo_86292" data-name="Grupo 86292" transform="translate(27.368 0)">
        <path id="Trazado_159687" data-name="Trazado 159687" d="M204.761,59.631a3.168,3.168,0,0,1-3.1-3.219c-.2-3.228,4.934-2.973,7.681-.736S204.761,59.631,204.761,59.631Z" transform="translate(-175.693 -23.485)" fill="#f9b7b8"/>
        <path id="Trazado_159688" data-name="Trazado 159688" d="M218.684,57.084c2.747,2.492,1.017,6.969-.712,9.258S204.6,72.648,199.686,79.159L185.038,66.876l8.011-9.792,4.526-5.6S205.8,58.551,211,58.236" transform="translate(-185.038 -24.893)" fill="#f9b7b8"/>
        <g id="Grupo_86291" data-name="Grupo 86291" transform="translate(15.484)">
          <rect id="Rectángulo_35096" data-name="Rectángulo 35096" width="2.441" height="3.052" transform="matrix(0.981, 0.195, -0.195, 0.981, 1.379, 60.575)" fill="#b7cffc" stroke="#2f497e" stroke-linecap="round" stroke-linejoin="round" stroke-width="0.714"/>
          <rect id="Rectángulo_35097" data-name="Rectángulo 35097" width="4.883" height="62.562" transform="translate(12.226 0) rotate(11.269)" fill="#2f497e"/>
          <rect id="Rectángulo_35098" data-name="Rectángulo 35098" width="1.558" height="5.226" transform="translate(1.216 63.655) rotate(11.269)" fill="#b7cffc" stroke="#2f497e" stroke-linecap="round" stroke-linejoin="round" stroke-width="0.714"/>
        </g>
        <path id="Trazado_159689" data-name="Trazado 159689" d="M201.653,56.222c.07,0,.139-.009.208-.017a53.714,53.714,0,0,0,7.478-1.134" transform="translate(-175.693 -22.879)" fill="#f9b7b8"/>
        <path id="Trazado_159690" data-name="Trazado 159690" d="M193.062,51.489s8.22,7.062,13.423,6.747" transform="translate(-180.525 -24.893)" fill="none" stroke="#2f497e" stroke-linecap="round" stroke-linejoin="round" stroke-width="0.75"/>
        <path id="Trazado_159691" data-name="Trazado 159691" d="M213.411,55.07c2.747,2.492,1.017,6.969-.712,9.258s-13.376,6.306-18.285,12.817" transform="translate(-179.765 -22.879)" fill="none" stroke="#2f497e" stroke-linecap="round" stroke-linejoin="round" stroke-width="0.75"/>
        <path id="Trazado_159692" data-name="Trazado 159692" d="M191.431,55.245s-1.78-3.766,2.645-4.476,12.868.914,12.868,3.458c0,2.881-3.358.764-7.579,2.239A8.993,8.993,0,0,1,191.431,55.245Z" transform="translate(-181.641 -25.393)" fill="#f9b7b8"/>
        <path id="Trazado_159693" data-name="Trazado 159693" d="M191.431,55.245s-1.78-3.766,2.645-4.476,12.868.914,12.868,3.458c0,2.881-3.358.764-7.579,2.239A8.993,8.993,0,0,1,191.431,55.245Z" transform="translate(-181.641 -25.393)" fill="none" stroke="#2f497e" stroke-linecap="round" stroke-linejoin="round" stroke-width="0.75"/>
        <path id="Trazado_159694" data-name="Trazado 159694" d="M188.954,58.527c-.141-1.272-.344-3.255,1.233-4.475s6.459-1.984,10.173-.561,5.289,3.408,4.069,4.578-5.289.458-5.289.458Z" transform="translate(-182.888 -24.2)" fill="#f9b7b8"/>
        <path id="Trazado_159695" data-name="Trazado 159695" d="M188.954,58.527c-.141-1.272-.344-3.255,1.233-4.475s6.459-1.984,10.173-.561,5.289,3.408,4.069,4.578-5.289.458-5.289.458Z" transform="translate(-182.888 -24.2)" fill="none" stroke="#2f497e" stroke-linecap="round" stroke-linejoin="round" stroke-width="0.75"/>
        <path id="Trazado_159696" data-name="Trazado 159696" d="M186.519,61.175s-.1-3.217,2.034-4.514,9.919-1.678,13.5,0,2.242,4.731-.863,4.5S186.519,61.175,186.519,61.175Z" transform="translate(-184.205 -22.614)" fill="#f9b7b8"/>
        <path id="Trazado_159697" data-name="Trazado 159697" d="M186.519,61.175s-.1-3.217,2.034-4.514,9.919-1.678,13.5,0,2.242,4.731-.863,4.5S186.519,61.175,186.519,61.175Z" transform="translate(-184.205 -22.614)" fill="none" stroke="#2f497e" stroke-linecap="round" stroke-linejoin="round" stroke-width="0.75"/>
        <path id="Trazado_159698" data-name="Trazado 159698" d="M185.038,63.438c.152-2.6,1.448-6.562,9.765-5.723s7.544,2.636,7.083,3.811c-.75,1.912-11.584-.377-11.584-.377Z" transform="translate(-185.038 -21.455)" fill="#f9b7b8"/>
        <path id="Trazado_159699" data-name="Trazado 159699" d="M185.038,63.438c.152-2.6,1.448-6.562,9.765-5.723s7.319,2.57,7.083,3.811c-.216,1.131-2.889,1.556-5.234.62" transform="translate(-185.038 -21.455)" fill="none" stroke="#2f497e" stroke-linecap="round" stroke-linejoin="round" stroke-width="0.75"/>
        <path id="Trazado_159700" data-name="Trazado 159700" d="M204.761,59.631a3.168,3.168,0,0,1-3.1-3.219c-.2-3.228,4.934-2.973,7.681-.736" transform="translate(-175.693 -23.485)" fill="none" stroke="#2f497e" stroke-linecap="round" stroke-linejoin="round" stroke-width="0.75"/>
      </g>
      <path id="Trazado_159701" data-name="Trazado 159701" d="M183.426,64.007l2.518-2.67L200.593,73.62l-2.312,2.589Z" transform="translate(-158.577 -19.354)" fill="#f16880"/>
      <path id="Trazado_159702" data-name="Trazado 159702" d="M183.426,64.007l2.518-2.67L200.593,73.62l-2.312,2.589Z" transform="translate(-158.577 -19.354)" fill="none" stroke="#2f497e" stroke-linecap="round" stroke-linejoin="round" stroke-width="0.75"/>
      <path id="Trazado_159703" data-name="Trazado 159703" d="M265.917,142.8s10.756,199.281,8.925,313.884" transform="translate(-112.179 26.467)" fill="none" stroke="#2f497e" stroke-linecap="round" stroke-linejoin="round" stroke-width="0.75"/>
    </g>
    <g id="Grupo_86295" data-name="Grupo 86295" transform="translate(250.118 216.788)">
      <path id="Trazado_159704" data-name="Trazado 159704" d="M327.922,244.148c-24.618-5.7-57.578-55.138-57.578-55.138l12.207-15.868s43.743,23.6,59.409,33.569S327.922,244.148,327.922,244.148Z" transform="translate(-192.285 -138.788)" fill="#f9fbfc"/>
      <path id="Trazado_159705" data-name="Trazado 159705" d="M327.922,239.616a103.448,103.448,0,0,0,9.292-10.111c-21.123-1.234-46.154-33.307-64.347-48.307l-2.523,3.28S303.3,233.918,327.922,239.616Z" transform="translate(-192.285 -134.257)" fill="#d0e0fc"/>
      <path id="Trazado_159706" data-name="Trazado 159706" d="M327.922,244.148c-24.618-5.7-57.578-55.138-57.578-55.138l12.207-15.868s43.743,23.6,59.409,33.569" transform="translate(-192.285 -138.788)" fill="none" stroke="#2f497e" stroke-linecap="round" stroke-linejoin="round" stroke-width="0.75"/>
      <g id="Grupo_86294" data-name="Grupo 86294" transform="translate(0 0)">
        <rect id="Rectángulo_35099" data-name="Rectángulo 35099" width="66.019" height="95.013" transform="matrix(0.998, -0.061, 0.061, 0.998, 3.615, 4.034)" fill="#8aacdd"/>
        <rect id="Rectángulo_35100" data-name="Rectángulo 35100" width="66.019" height="95.013" transform="matrix(0.998, -0.061, 0.061, 0.998, 3.615, 4.034)" fill="none" stroke="#2f497e" stroke-linecap="round" stroke-linejoin="round" stroke-width="0.75"/>
        <rect id="Rectángulo_35101" data-name="Rectángulo 35101" width="66.019" height="95.013" transform="matrix(0.998, -0.061, 0.061, 0.998, 0, 4.256)" fill="#d0e0fc"/>
        <rect id="Rectángulo_35102" data-name="Rectángulo 35102" width="66.019" height="95.013" transform="matrix(0.998, -0.061, 0.061, 0.998, 0, 4.256)" fill="none" stroke="#2f497e" stroke-linecap="round" stroke-linejoin="round" stroke-width="0.75"/>
      </g>
      <path id="Trazado_159707" data-name="Trazado 159707" d="M282.551,173.142,270.344,189.01s.78,1.169,2.177,3.151l13.493-17.145C283.839,173.836,282.551,173.142,282.551,173.142Z" transform="translate(-192.285 -138.788)" fill="#f16880"/>
      <path id="Trazado_159708" data-name="Trazado 159708" d="M272.867,181.2l-2.523,3.28s.78,1.169,2.177,3.151l3.167-4.025Q274.253,182.34,272.867,181.2Z" transform="translate(-192.285 -134.257)" fill="#db5270"/>
      <path id="Trazado_159709" data-name="Trazado 159709" d="M282.551,173.142,270.344,189.01s.78,1.169,2.177,3.151l13.493-17.145C283.839,173.836,282.551,173.142,282.551,173.142Z" transform="translate(-192.285 -138.788)" fill="none" stroke="#2f497e" stroke-linecap="round" stroke-linejoin="round" stroke-width="0.75"/>
      <path id="Trazado_159710" data-name="Trazado 159710" d="M285.22,178.836c-2.758-1.866-10.619-13.326-19.621-15.818l.309,5.04Z" transform="translate(-194.954 -144.483)" fill="#f9b7b8"/>
      <path id="Trazado_159711" data-name="Trazado 159711" d="M280.819,194.472c-4.1-5.191-15.87-9.765-18.157-10.833s-3.969-3.155-3.511-5.036c0,0-4.425-1.17-4.933-2.848a4.053,4.053,0,0,1,.3-3.039s-2.778-.519-2.8-2.166c-.025-1.8,1.4-2.628,4.989-2.628a3.061,3.061,0,0,1-1.373-2.875c.228-1.906,10.331-2.987,20.348,1.825L293.026,178.6Z" transform="translate(-202.76 -144.25)" fill="#f9b7b8"/>
      <path id="Trazado_159712" data-name="Trazado 159712" d="M285.22,178.836c-2.758-1.866-10.619-13.326-19.621-15.818l.194,3.169" transform="translate(-194.954 -144.483)" fill="none" stroke="#2f497e" stroke-linecap="round" stroke-linejoin="round" stroke-width="0.75"/>
      <path id="Trazado_159713" data-name="Trazado 159713" d="M274.379,181a74.73,74.73,0,0,0-17.912-7.678c-.242,1.806,1.361,3.742,3.539,4.759,2.287,1.067,14.059,5.642,18.157,10.833l2.523-3.28A59.385,59.385,0,0,0,274.379,181Z" transform="translate(-200.104 -138.689)" fill="#e09da3"/>
      <path id="Trazado_159714" data-name="Trazado 159714" d="M293.026,178.6l-12.208,15.868c-4.1-5.191-15.87-9.765-18.157-10.833s-3.969-3.155-3.511-5.036c0,0-4.425-1.17-4.933-2.848a4.053,4.053,0,0,1,.3-3.039s-2.778-.519-2.8-2.166c-.025-1.8,1.4-2.628,4.989-2.628a3.061,3.061,0,0,1-1.373-2.875c.228-1.906,10.331-2.987,20.348,1.825" transform="translate(-202.76 -144.25)" fill="none" stroke="#2f497e" stroke-linecap="round" stroke-linejoin="round" stroke-width="0.75"/>
      <path id="Trazado_159715" data-name="Trazado 159715" d="M254.914,166.306A48.566,48.566,0,0,1,266,169.459" transform="translate(-200.963 -142.633)" fill="none" stroke="#2f497e" stroke-linecap="round" stroke-linejoin="round" stroke-width="0.75"/>
      <path id="Trazado_159716" data-name="Trazado 159716" d="M253.514,169.374a73.265,73.265,0,0,1,12.361,4.056" transform="translate(-201.751 -140.908)" fill="none" stroke="#2f497e" stroke-linecap="round" stroke-linejoin="round" stroke-width="0.75"/>
      <path id="Trazado_159717" data-name="Trazado 159717" d="M256.476,173.142a23.488,23.488,0,0,1,6.409,2.492" transform="translate(-200.085 -138.788)" fill="none" stroke="#2f497e" stroke-linecap="round" stroke-linejoin="round" stroke-width="0.75"/>
    </g>
  </g>
</svg>
