<svg xmlns="http://www.w3.org/2000/svg" xmlns:xlink="http://www.w3.org/1999/xlink" width="105" height="105" viewBox="0 0 105 105">
  <defs>
    <clipPath id="clip-path">
      <rect id="Rectángulo_34092" data-name="Rectángulo 34092" width="82" height="82" transform="translate(760 4614)" fill="#fff"/>
    </clipPath>
  </defs>
  <g id="Grupo_86845" data-name="Grupo 86845" transform="translate(-748 -4591)">
    <circle id="Elipse_4906" data-name="Elipse 4906" cx="52.5" cy="52.5" r="52.5" transform="translate(748 4591)" fill="#7e5ee3"/>
    <g id="Enmascarar_grupo_10" data-name="Enmascarar grupo 10" clip-path="url(#clip-path)">
      <g id="Filled_Outline" transform="translate(753.067 4611.09)">
        <path id="Trazado_114376" data-name="Trazado 114376" d="M76.693,83.541H41.086V47.608a17.8,17.8,0,1,1,35.608,0Z" fill="#21d6d3"/>
        <path id="Trazado_114377" data-name="Trazado 114377" d="M71.044,34.238H46.392V24.994A1.717,1.717,0,0,1,48.1,23.282H69.332a1.717,1.717,0,0,1,1.712,1.712Z" fill="#156887"/>
        <path id="Trazado_114378" data-name="Trazado 114378" d="M71.044,28.76H46.392V24.994A1.717,1.717,0,0,1,48.1,23.282H69.332a1.717,1.717,0,0,1,1.712,1.712Z" fill="#21d6d3"/>
        <path id="Trazado_114379" data-name="Trazado 114379" d="M41.086,49.3H65.737V73.954H41.086Z" fill="#bf4c4c"/>
        <path id="Trazado_114380" data-name="Trazado 114380" d="M36.3,15.9H60.952V26.856H36.3Z" transform="translate(29.367 -28.129) rotate(45)" fill="#fc7777"/>
        <path id="Trazado_114381" data-name="Trazado 114381" d="M56.39,21.382l-7.755-7.755L56.39,5.872a5.484,5.484,0,1,1,7.755,7.755Z" fill="#21d6d3"/>
        <g id="Grupo_83691" data-name="Grupo 83691">
          <path id="Trazado_114382" data-name="Trazado 114382" d="M20.56,49.474a4.092,4.092,0,0,1,0-5.8L41.873,22.357l5.8,5.8L26.363,49.474A4.123,4.123,0,0,1,20.56,49.474Z" fill="#156887"/>
          <path id="Trazado_114383" data-name="Trazado 114383" d="M27.39,63a4.109,4.109,0,0,1-8.217,0c0-2.277,4.109-6.848,4.109-6.848S27.39,60.721,27.39,63Z" fill="#156887"/>
          <path id="Trazado_114384" data-name="Trazado 114384" d="M27.39,79.432a4.109,4.109,0,0,1-8.217,0c0-2.277,4.109-6.848,4.109-6.848S27.39,77.155,27.39,79.432Z" fill="#156887"/>
        </g>
        <path id="Trazado_114385" data-name="Trazado 114385" d="M60.259,58.889H56.15V54.781H50.672v4.109H46.564v5.478h4.109v4.109H56.15V64.367h4.109Z" fill="#daf7f3"/>
        <g id="Grupo_83692" data-name="Grupo 83692">
          <path id="Trazado_114386" data-name="Trazado 114386" d="M75.341,37.782A19.588,19.588,0,0,0,72.4,34.015V24.994a3.09,3.09,0,0,0-3.081-3.081H58.838l-.531-.531L65.086,14.6a6.77,6.77,0,0,0,2.02-4.845A6.851,6.851,0,0,0,55.414,4.913l-6.779,6.779L44.766,7.823a1.406,1.406,0,0,0-1.952,0l-7.738,7.755a1.374,1.374,0,0,0,0,1.934l4.845,4.845L19.584,42.695a5.468,5.468,0,0,0-1.609,3.869,5.4,5.4,0,0,0,1.609,3.869,5.5,5.5,0,0,0,3.869,1.609,5.4,5.4,0,0,0,3.869-1.609l17.7-17.684v1.626a19.158,19.158,0,0,0-5.307,13.233V83.541a1.374,1.374,0,0,0,1.37,1.37H76.693a1.374,1.374,0,0,0,1.37-1.37V47.608a19.1,19.1,0,0,0-2.722-9.826ZM57.349,6.865a4.116,4.116,0,0,1,5.82,5.82L56.39,19.464l-5.8-5.8Zm-9.587,26V30.181l2.688,2.688Zm10.8-2.037.7-.7H69.674v2.739H56.527Zm10.768-6.18a.343.343,0,0,1,.342.342v2.4H62.005l.188-.188a1.406,1.406,0,0,0,0-1.952l-.6-.6ZM43.79,10.734,54.113,21.056,55.4,22.34l1.9,1.9,1.969,1.969-2.653,2.653-.017.017-3.15,3.15L48.6,27.185l-2.91-2.91L37.936,16.52ZM25.4,48.5a2.736,2.736,0,1,1-3.869-3.869L41.873,24.292l3.869,3.869-.308.308Zm17.051,2.174H64.367V72.585H42.455Zm32.868,31.5H42.455V75.324H65.737a1.374,1.374,0,0,0,1.37-1.37V49.3a1.374,1.374,0,0,0-1.37-1.37H42.455v-.325a16.474,16.474,0,0,1,5.2-12H70.1A16.679,16.679,0,0,1,73,39.185a16.426,16.426,0,0,1,2.328,8.423Z"/>
          <path id="Trazado_114387" data-name="Trazado 114387" d="M23.282,54.781a1.4,1.4,0,0,0-1.027.462c-.736.822-4.451,5.1-4.451,7.755A5.478,5.478,0,0,0,28.76,63c0-2.653-3.715-6.933-4.451-7.755A1.4,1.4,0,0,0,23.282,54.781Zm0,10.956A2.747,2.747,0,0,1,20.543,63c0-.873,1.284-2.91,2.739-4.725,1.455,1.815,2.739,3.852,2.739,4.725A2.747,2.747,0,0,1,23.282,65.737Z"/>
          <path id="Trazado_114388" data-name="Trazado 114388" d="M23.282,71.215a1.4,1.4,0,0,0-1.027.462c-.736.822-4.451,5.1-4.451,7.755a5.478,5.478,0,1,0,10.956,0c0-2.653-3.715-6.933-4.451-7.755A1.4,1.4,0,0,0,23.282,71.215Zm0,10.956a2.747,2.747,0,0,1-2.739-2.739c0-.873,1.284-2.91,2.739-4.725,1.455,1.815,2.739,3.852,2.739,4.725A2.747,2.747,0,0,1,23.282,82.171Z"/>
          <path id="Trazado_114389" data-name="Trazado 114389" d="M60.259,57.52H57.52V54.781a1.374,1.374,0,0,0-1.37-1.37H50.672a1.374,1.374,0,0,0-1.37,1.37V57.52H46.564a1.374,1.374,0,0,0-1.37,1.37v5.478a1.374,1.374,0,0,0,1.37,1.37H49.3v2.739a1.374,1.374,0,0,0,1.37,1.37H56.15a1.374,1.374,0,0,0,1.37-1.37V65.737h2.739a1.374,1.374,0,0,0,1.37-1.37V58.889A1.374,1.374,0,0,0,60.259,57.52ZM58.889,63H56.15a1.374,1.374,0,0,0-1.37,1.37v2.739H52.042V64.367A1.374,1.374,0,0,0,50.672,63H47.933V60.259h2.739a1.374,1.374,0,0,0,1.37-1.37V56.15h2.739v2.739a1.374,1.374,0,0,0,1.37,1.37h2.739Z"/>
        </g>
      </g>
    </g>
  </g>
</svg>
