<svg xmlns="http://www.w3.org/2000/svg" xmlns:xlink="http://www.w3.org/1999/xlink" width="190" height="223.493" viewBox="0 0 190 223.493">
  <defs>
    <clipPath id="clip-path">
      <path id="Trazado_160310" data-name="Trazado 160310" d="M414.636,162.9a24.136,24.136,0,0,1,16.9,1.7c9.092,4.469,28.974,11.8,30.833-8.4,2.236-24.3,52.832-31.4,71.739-12.848,23,22.574.937,38.587,19.622,48.457s33.867,36.066,11.848,47.38c-14.258,7.327-26.715,5.794-27.748,13.194-1.949,13.962-1.549,22.4-14.357,26.277-24.22,7.336-30.545-6.282-45.634-8.656s-70.762,18.234-89.351-14.965c-11.206-20.013,28.471-38.654,17.213-49.559C393.717,193.878,394.79,168.239,414.636,162.9Z" transform="translate(-386.471 -132.851)" fill="none"/>
    </clipPath>
  </defs>
  <g id="Grupo_86529" data-name="Grupo 86529" transform="translate(-386.471 -132.851)">
    <g id="Grupo_86528" data-name="Grupo 86528" transform="translate(386.471 132.851)">
      <g id="Grupo_86527" data-name="Grupo 86527" transform="translate(0 0)" clip-path="url(#clip-path)">
        <g id="Grupo_86433" data-name="Grupo 86433">
          <g id="Grupo_86432" data-name="Grupo 86432">
            <path id="Trazado_160226" data-name="Trazado 160226" d="M414.636,162.9a24.136,24.136,0,0,1,16.9,1.7c9.092,4.469,28.974,11.8,30.833-8.4,2.236-24.3,52.832-31.4,71.739-12.848,23,22.574.937,38.587,19.622,48.457s33.867,36.066,11.848,47.38c-14.258,7.327-26.715,5.794-27.748,13.194-1.949,13.962-1.549,22.4-14.357,26.277-24.22,7.336-30.545-6.282-45.634-8.656s-70.762,18.234-89.351-14.965c-11.206-20.013,28.471-38.654,17.213-49.559C393.717,193.878,394.79,168.239,414.636,162.9Z" transform="translate(-386.471 -132.851)" fill="#88f2ff"/>
          </g>
        </g>
        <g id="Grupo_86526" data-name="Grupo 86526" transform="translate(43.887 16.865)">
          <path id="Trazado_160245" data-name="Trazado 160245" d="M900.886,739.337a9.811,9.811,0,0,1,8.579-9.946c6.367-.644,10.442,4.845,10.442,9.817s-4.45,8.814-9.511,8.814S900.886,744.309,900.886,739.337Z" transform="translate(-900.886 -695.315)" fill="#51c6d4" opacity="0.6"/>
          <path id="Trazado_160246" data-name="Trazado 160246" d="M1382.617,339.207a8.509,8.509,0,0,1,7.441-8.627c5.523-.559,9.057,4.2,9.057,8.515s-3.86,7.645-8.249,7.645S1382.617,343.519,1382.617,339.207Z" transform="translate(-1341.519 -330.535)" fill="#51c6d4" opacity="0.6"/>
          <path id="Trazado_160247" data-name="Trazado 160247" d="M1989.4,765.626a8.674,8.674,0,0,1,7.585-8.793c5.629-.57,9.231,4.283,9.231,8.679s-3.934,7.793-8.408,7.793S1989.4,770.021,1989.4,765.626Z" transform="translate(-1896.53 -720.421)" fill="#51c6d4" opacity="0.6"/>
          <g id="Grupo_86445" data-name="Grupo 86445" transform="translate(81.773 0.412)" opacity="0.6">
            <path id="Trazado_160248" data-name="Trazado 160248" d="M1866.966,350.277a7.962,7.962,0,0,1-5.3-1.976,6.587,6.587,0,0,1-2.285-4.966,8.229,8.229,0,0,1,1.914-5.3,7.4,7.4,0,0,1,4.931-2.633,7.132,7.132,0,0,1,5.649,1.822,8.228,8.228,0,0,1,2.682,6.005,6.725,6.725,0,0,1-2.284,5.016A7.98,7.98,0,0,1,1866.966,350.277Zm.073-14.632a7.84,7.84,0,0,0-.789.04,7.513,7.513,0,0,0-6.593,7.65c0,3.673,3.278,6.661,7.308,6.661a7.059,7.059,0,0,0,7.308-6.762,8.054,8.054,0,0,0-2.59-5.8A6.815,6.815,0,0,0,1867.039,335.645Z" transform="translate(-1859.377 -335.364)" fill="#51c6d4"/>
          </g>
          <g id="Grupo_86446" data-name="Grupo 86446" transform="translate(52.109 35.624)" opacity="0.6">
            <path id="Trazado_160249" data-name="Trazado 160249" d="M1520.829,766.1a9.61,9.61,0,0,1-6.4-2.385,7.952,7.952,0,0,1-2.758-5.994,9.933,9.933,0,0,1,2.31-6.392,8.932,8.932,0,0,1,5.952-3.179,8.609,8.609,0,0,1,6.819,2.2,9.932,9.932,0,0,1,3.238,7.249,8.12,8.12,0,0,1-2.757,6.054A9.635,9.635,0,0,1,1520.829,766.1Zm.089-17.661a9.434,9.434,0,0,0-.952.049,9.068,9.068,0,0,0-7.957,9.233c0,4.433,3.957,8.04,8.82,8.04s8.82-3.662,8.82-8.162a9.719,9.719,0,0,0-3.126-7A8.226,8.226,0,0,0,1520.918,748.434Z" transform="translate(-1511.669 -748.095)" fill="#51c6d4"/>
          </g>
          <g id="Grupo_86449" data-name="Grupo 86449" transform="translate(44.983 3.82)">
            <g id="Grupo_86447" data-name="Grupo 86447">
              <path id="Trazado_160250" data-name="Trazado 160250" d="M1432.123,376.362c-.325-1.2-1.633-1.3-2.579-.638-1.4.983-1.484,2.95-1.346,4.47a3.324,3.324,0,0,0,1.973,3.118,1.9,1.9,0,0,0,2.509-1.474c.093-.569-.794-.815-.888-.241q-1.111,1.447-1.869.472a1.5,1.5,0,0,1-.622-.916,4.889,4.889,0,0,1-.21-1.4,6.62,6.62,0,0,1,.07-1.655l.129-.5q.346-1.461,1.946-.993a.46.46,0,0,0,.888-.24Z" transform="translate(-1428.151 -375.316)" fill="#fff"/>
            </g>
            <g id="Grupo_86448" data-name="Grupo 86448" transform="translate(5.424 4.216)">
              <path id="Trazado_160251" data-name="Trazado 160251" d="M1495.264,426.521a2,2,0,0,0-2.057-1.7,1.558,1.558,0,0,0-1.4,2.159,1.581,1.581,0,0,0,2.222,1.2c1.1-.518,1.422-1.927,1.4-3.014h-.921c.123.933.276,1.859.468,2.781.119.57,1.006.329.888-.24-.176-.842-.323-1.688-.435-2.54-.073-.558-.935-.6-.921,0a3.252,3.252,0,0,1-.308,1.59c-.245.466-.827.978-1.291.454-.309-.349-.475-1.272.1-1.475a1.156,1.156,0,0,1,1.336.785c.059.574.98.58.92,0Z" transform="translate(-1491.726 -424.733)" fill="#fff"/>
            </g>
          </g>
          <g id="Grupo_86452" data-name="Grupo 86452" transform="translate(6.226 41.121)">
            <g id="Grupo_86450" data-name="Grupo 86450" transform="translate(0 0.003)">
              <path id="Trazado_160252" data-name="Trazado 160252" d="M973.864,813.011q.042,3.675.014,7.35a.47.47,0,0,0,.938,0q.028-3.675-.014-7.35a.47.47,0,0,0-.938,0Z" transform="translate(-973.864 -812.566)" fill="#fff"/>
            </g>
            <g id="Grupo_86451" data-name="Grupo 86451" transform="translate(0.052)">
              <path id="Trazado_160253" data-name="Trazado 160253" d="M975.1,813.468c2.439-.132,6.025.212,6.374,3.3.39,3.454-4.3,3.267-6.549,3-.6-.073-.592.85,0,.921,2.741.333,7.656.164,7.536-3.729-.116-3.739-4.409-4.572-7.362-4.412-.6.033-.6.954,0,.921Z" transform="translate(-974.478 -812.528)" fill="#fff"/>
            </g>
          </g>
          <g id="Grupo_86465" data-name="Grupo 86465" transform="translate(4.175 37.836)">
            <g id="Grupo_86453" data-name="Grupo 86453" transform="translate(0 0.248)">
              <path id="Trazado_160254" data-name="Trazado 160254" d="M949.837,777.247q.253.583.546,1.146a.154.154,0,0,0,.261,0,8.118,8.118,0,0,0,.574-1.283c.063-.182-.229-.259-.292-.079a7.7,7.7,0,0,1-.544,1.212h.261q-.293-.564-.546-1.146c-.076-.175-.337-.024-.261.15Z" transform="translate(-949.823 -776.929)" fill="#fff"/>
            </g>
            <g id="Grupo_86456" data-name="Grupo 86456" transform="translate(1.934)">
              <g id="Grupo_86454" data-name="Grupo 86454" transform="translate(0 0.535)">
                <path id="Trazado_160255" data-name="Trazado 160255" d="M972.789,781.418q.014-.49.028-.979c.005-.192-.3-.191-.3,0l-.028.979c-.005.191.3.191.3,0Z" transform="translate(-972.486 -780.295)" fill="#fff"/>
              </g>
              <g id="Grupo_86455" data-name="Grupo 86455" transform="translate(0.077)">
                <path id="Trazado_160256" data-name="Trazado 160256" d="M973.533,774.32a.149.149,0,0,0,0-.3.149.149,0,0,0,0,.3Z" transform="translate(-973.386 -774.023)" fill="#fff"/>
              </g>
            </g>
            <g id="Grupo_86459" data-name="Grupo 86459" transform="translate(8.047)">
              <g id="Grupo_86457" data-name="Grupo 86457" transform="translate(0 0.535)">
                <path id="Trazado_160257" data-name="Trazado 160257" d="M1044.45,781.418q.014-.49.028-.979c.005-.192-.3-.191-.3,0l-.028.979c-.005.191.3.191.3,0Z" transform="translate(-1044.147 -780.295)" fill="#fff"/>
              </g>
              <g id="Grupo_86458" data-name="Grupo 86458" transform="translate(0.077)">
                <path id="Trazado_160258" data-name="Trazado 160258" d="M1045.194,774.32a.149.149,0,0,0,0-.3.149.149,0,0,0,0,.3Z" transform="translate(-1045.047 -774.023)" fill="#fff"/>
              </g>
            </g>
            <g id="Grupo_86460" data-name="Grupo 86460" transform="translate(3.149 0.089)">
              <path id="Trazado_160259" data-name="Trazado 160259" d="M986.757,775.214c-.01.4-.221,1.988.665,1.439a.149.149,0,0,0-.153-.257c-.283.175-.225-.553-.223-.609l.014-.574c0-.192-.3-.191-.3,0Z" transform="translate(-986.728 -775.07)" fill="#fff"/>
            </g>
            <g id="Grupo_86461" data-name="Grupo 86461" transform="translate(2.853 0.761)">
              <path id="Trazado_160260" data-name="Trazado 160260" d="M983.415,783.236l.625.013a.149.149,0,0,0,0-.3l-.625-.013a.149.149,0,0,0,0,.3Z" transform="translate(-983.269 -782.939)" fill="#fff"/>
            </g>
            <g id="Grupo_86462" data-name="Grupo 86462" transform="translate(4.393 0.531)">
              <path id="Trazado_160261" data-name="Trazado 160261" d="M1002.545,780.864c.251-.857-1.3-.839-1.222.123a.582.582,0,0,0,.755.545c.484-.094.5-.633.5-1.034l-.3.039.172.847c.038.188.33.108.292-.079l-.172-.847c-.034-.168-.294-.124-.3.04-.005.28.019.47-.215.639q-.27.316-.443-.211.115-.666.633-.143a.151.151,0,0,0,.292.079Z" transform="translate(-1001.32 -780.242)" fill="#fff"/>
            </g>
            <g id="Grupo_86463" data-name="Grupo 86463" transform="translate(6.291 0.542)">
              <path id="Trazado_160262" data-name="Trazado 160262" d="M1023.924,781.48a2.813,2.813,0,0,1-.045-.562c.043-.314.125,0,.173.161a.153.153,0,0,0,.292,0c.047-.171.115-.536.326-.157a1.231,1.231,0,0,1,.052.5c0,.191.307.192.3,0-.007-.313-.01-.866-.388-.988-.358-.116-.511.3-.585.566h.292a1.028,1.028,0,0,0-.382-.6.155.155,0,0,0-.153,0c-.377.19-.215.761-.189,1.084.016.19.318.191.3,0Z" transform="translate(-1023.564 -780.376)" fill="#fff"/>
            </g>
            <g id="Grupo_86464" data-name="Grupo 86464" transform="translate(8.979 0.535)">
              <path id="Trazado_160263" data-name="Trazado 160263" d="M1055.07,780.438q.008.454.016.908a.152.152,0,0,0,.3,0,.361.361,0,0,1,.239-.434q.207-.252.267.082a1.55,1.55,0,0,1,.092.4c.024.187.327.19.3,0-.038-.3-.122-.872-.526-.905-.443-.036-.66.513-.678.858h.3q-.008-.454-.016-.908a.152.152,0,0,0-.3,0Z" transform="translate(-1055.07 -780.295)" fill="#fff"/>
            </g>
          </g>
          <g id="Grupo_86478" data-name="Grupo 86478" transform="translate(85.177 2.848)" opacity="0.6">
            <g id="Grupo_86466" data-name="Grupo 86466" transform="translate(0 0.22)">
              <path id="Trazado_160264" data-name="Trazado 160264" d="M1899.294,366.832q.222.511.479,1.007a.18.18,0,0,0,.306,0,7.168,7.168,0,0,0,.509-1.137c.073-.212-.268-.3-.342-.093a6.619,6.619,0,0,1-.473,1.053h.306q-.257-.5-.479-1.006c-.089-.205-.395-.028-.306.176Z" transform="translate(-1899.278 -366.49)" fill="#51c6d4"/>
            </g>
            <g id="Grupo_86469" data-name="Grupo 86469" transform="translate(1.695)">
              <g id="Grupo_86467" data-name="Grupo 86467" transform="translate(0 0.471)">
                <path id="Trazado_160265" data-name="Trazado 160265" d="M1919.5,370.467q.012-.43.024-.86c.007-.224-.348-.224-.354,0l-.025.86c-.006.224.348.224.354,0Z" transform="translate(-1919.148 -369.439)" fill="#51c6d4"/>
              </g>
              <g id="Grupo_86468" data-name="Grupo 86468" transform="translate(0.069)">
                <path id="Trazado_160266" data-name="Trazado 160266" d="M1920.127,364.264a.174.174,0,0,0,0-.348.174.174,0,0,0,0,.348Z" transform="translate(-1919.956 -363.916)" fill="#51c6d4"/>
              </g>
            </g>
            <g id="Grupo_86472" data-name="Grupo 86472" transform="translate(7.062)">
              <g id="Grupo_86470" data-name="Grupo 86470" transform="translate(0 0.471)">
                <path id="Trazado_160267" data-name="Trazado 160267" d="M1982.407,370.467q.012-.43.024-.86c.006-.224-.348-.224-.354,0q-.012.43-.024.86c-.006.224.348.224.354,0Z" transform="translate(-1982.053 -369.439)" fill="#51c6d4"/>
              </g>
              <g id="Grupo_86471" data-name="Grupo 86471" transform="translate(0.069)">
                <path id="Trazado_160268" data-name="Trazado 160268" d="M1983.032,364.264a.174.174,0,0,0,0-.348.174.174,0,0,0,0,.348Z" transform="translate(-1982.861 -363.916)" fill="#51c6d4"/>
              </g>
            </g>
            <g id="Grupo_86473" data-name="Grupo 86473" transform="translate(2.767 0.08)">
              <path id="Trazado_160269" data-name="Trazado 160269" d="M1931.726,365.021c-.01.389-.18,1.815.65,1.3a.175.175,0,0,0-.179-.3c-.167.1-.13-.463-.129-.5q.006-.252.012-.5c.006-.224-.349-.224-.354,0Z" transform="translate(-1931.705 -364.853)" fill="#51c6d4"/>
            </g>
            <g id="Grupo_86474" data-name="Grupo 86474" transform="translate(2.504 0.668)">
              <path id="Trazado_160270" data-name="Trazado 160270" d="M1928.8,372.09l.549.011a.174.174,0,0,0,0-.348l-.549-.011a.174.174,0,0,0,0,.348Z" transform="translate(-1928.632 -371.741)" fill="#51c6d4"/>
            </g>
            <g id="Grupo_86475" data-name="Grupo 86475" transform="translate(3.855 0.468)">
              <path id="Trazado_160271" data-name="Trazado 160271" d="M1945.622,370c.239-.815-1.232-.812-1.16.1a.556.556,0,0,0,.718.521c.448-.091.467-.574.474-.949l-.348.046q.076.372.151.743c.044.22.386.127.342-.093q-.075-.372-.151-.743c-.04-.2-.344-.145-.348.046,0,.214.023.406-.165.533q-.2.233-.323-.157.077-.5.469-.137a.177.177,0,0,0,.342.092Z" transform="translate(-1944.46 -369.399)" fill="#51c6d4"/>
            </g>
            <g id="Grupo_86476" data-name="Grupo 86476" transform="translate(5.523 0.476)">
              <path id="Trazado_160272" data-name="Trazado 160272" d="M1964.412,370.505c-.008-.095-.12-.621.012-.688h-.179a.645.645,0,0,1,.193.347.18.18,0,0,0,.342,0c.035-.126.082-.424.2-.138a1.244,1.244,0,0,1,.044.427.177.177,0,0,0,.354,0c-.006-.293-.016-.8-.373-.91s-.494.265-.568.528h.342a.947.947,0,0,0-.355-.555.182.182,0,0,0-.179,0c-.351.177-.212.685-.187.989.018.222.373.224.354,0Z" transform="translate(-1964.01 -369.493)" fill="#51c6d4"/>
            </g>
            <g id="Grupo_86477" data-name="Grupo 86477" transform="translate(7.88 0.471)">
              <path id="Trazado_160273" data-name="Trazado 160273" d="M1991.641,369.606q.007.4.014.8a.177.177,0,0,0,.354,0c.008-.158.213-.641.358-.3a1.323,1.323,0,0,1,.079.339c.027.219.382.222.354,0-.037-.291-.117-.8-.494-.836-.421-.043-.634.465-.652.795h.354q-.007-.4-.014-.8a.177.177,0,0,0-.354,0Z" transform="translate(-1991.641 -369.438)" fill="#51c6d4"/>
            </g>
          </g>
          <g id="Grupo_86481" data-name="Grupo 86481" transform="translate(33.113 29.827)">
            <g id="Grupo_86479" data-name="Grupo 86479" opacity="0.6">
              <path id="Trazado_160274" data-name="Trazado 160274" d="M1290.323,686.839c-.088-.9-.161-1.8-.208-2.71-.031-.593-.311-2.228.122-2.709l-.633.08c1.1.5,1.526,1.841,2.207,2.708a.563.563,0,0,0,.59.236c.531-.087.7-.557.963-.975a17.922,17.922,0,0,1,1.9-2.44l-.872-.226c.59,1.747.264,3.983.283,5.809a.523.523,0,0,0,1.044,0c-.02-1.919.3-4.236-.32-6.082a.531.531,0,0,0-.873-.226c-.418.457-.822.924-1.2,1.416-.224.294-.9,1.686-1.2,1.735l.589.236c-.79-1.005-1.31-2.5-2.582-3.076a.545.545,0,0,0-.633.08,3.4,3.4,0,0,0-.472,2.324c.024,1.275.127,2.551.252,3.819.064.651,1.109.658,1.044,0Z" transform="translate(-1289.02 -680.152)" fill="#51c6d4"/>
            </g>
            <g id="Grupo_86480" data-name="Grupo 86480" transform="translate(7.659 3.353)" opacity="0.6">
              <path id="Trazado_160275" data-name="Trazado 160275" d="M1382.822,721.022c-.012-2.34-4.343-1.528-3.711.663a1.755,1.755,0,0,0,2.347,1.074,2.673,2.673,0,0,0,1.512-2.812.523.523,0,0,0-1.044,0c-.007,1.087-.01,2.174-.022,3.261-.006.56.135,1.4-.534,1.685-.3.13-2.12.146-1.237-.774.461-.48-.276-1.207-.738-.725a1.484,1.484,0,0,0-.288,2.054,2.622,2.622,0,0,0,2.251.492,1.816,1.816,0,0,0,1.552-1.68,34.6,34.6,0,0,0,.062-4.314h-1.044a1.938,1.938,0,0,1-.458,1.616q-1.508.927-.79-.839a.826.826,0,0,1,1.1.3.523.523,0,0,0,1.044,0Z" transform="translate(-1378.797 -719.453)" fill="#51c6d4"/>
            </g>
          </g>
          <g id="Grupo_86485" data-name="Grupo 86485" transform="translate(85.68 5.599)">
            <g id="Grupo_86482" data-name="Grupo 86482" transform="translate(0 0.044)">
              <path id="Trazado_160276" data-name="Trazado 160276" d="M1905.286,397.015q-.057,2.761-.114,5.522a.355.355,0,0,0,.708,0q.057-2.761.114-5.522a.355.355,0,0,0-.709,0Z" transform="translate(-1905.172 -396.679)" fill="#92d9e2"/>
            </g>
            <g id="Grupo_86483" data-name="Grupo 86483" transform="translate(0.111)">
              <path id="Trazado_160277" data-name="Trazado 160277" d="M1906.807,396.9a4.813,4.813,0,0,1,.744-.062q1.035-.141.916.772.425.806-.571.916a4.275,4.275,0,0,1-.993.042v.7c.783-.044,2.676.116,2.713,1.27.025.784-1.041,1.136-1.641,1.177a7.685,7.685,0,0,1-1.039-.035c-.455-.032-.453.665,0,.7,1.279.089,3.4-.1,3.389-1.838-.007-1.577-2.2-2.036-3.421-1.967a.348.348,0,0,0,0,.7c1.045.033,2.612-.249,2.6-1.589-.008-1.376-1.649-1.6-2.7-1.472-.446.055-.452.752,0,.7Z" transform="translate(-1906.47 -396.168)" fill="#92d9e2"/>
            </g>
            <g id="Grupo_86484" data-name="Grupo 86484" transform="translate(4.347 2.065)">
              <path id="Trazado_160278" data-name="Trazado 160278" d="M1958.765,421.268a1.263,1.263,0,0,0-2.269-.3c-.492.789-.592,2.369.252,2.96.788.552,2.178.23,2.091-.89-.092-1.18-1.506-1.212-2.33-.835-.413.189-.054.789.358.6.343-.157.988-.31,1.21.124.235.459-.363.639-.678.539a.717.717,0,0,1-.505-.572,2.67,2.67,0,0,1,.05-1.121c.11-.51.822-1.161,1.138-.318.157.417.842.237.683-.185Z" transform="translate(-1956.12 -420.377)" fill="#92d9e2"/>
            </g>
          </g>
          <g id="Grupo_86498" data-name="Grupo 86498" transform="translate(55.818 39.297)" opacity="0.6">
            <g id="Grupo_86486" data-name="Grupo 86486" transform="translate(0 0.265)">
              <path id="Trazado_160279" data-name="Trazado 160279" d="M1555.162,794.669q.269.617.578,1.215a.217.217,0,0,0,.369,0,8.658,8.658,0,0,0,.614-1.372c.089-.257-.324-.367-.412-.112a8.078,8.078,0,0,1-.571,1.271h.369q-.31-.6-.578-1.215c-.108-.248-.476-.034-.369.212Z" transform="translate(-1555.143 -794.255)" fill="#51c6d4"/>
            </g>
            <g id="Grupo_86489" data-name="Grupo 86489" transform="translate(2.046)">
              <g id="Grupo_86487" data-name="Grupo 86487" transform="translate(0 0.569)">
                <path id="Trazado_160280" data-name="Trazado 160280" d="M1579.555,799.056q.015-.519.029-1.038c.008-.27-.42-.27-.428,0q-.015.519-.029,1.038c-.008.27.42.27.427,0Z" transform="translate(-1579.127 -797.816)" fill="#51c6d4"/>
              </g>
              <g id="Grupo_86488" data-name="Grupo 86488" transform="translate(0.083)">
                <path id="Trazado_160281" data-name="Trazado 160281" d="M1580.309,791.569a.21.21,0,0,0,0-.42.21.21,0,0,0,0,.42Z" transform="translate(-1580.102 -791.149)" fill="#51c6d4"/>
              </g>
            </g>
            <g id="Grupo_86492" data-name="Grupo 86492" transform="translate(8.524)">
              <g id="Grupo_86490" data-name="Grupo 86490" transform="translate(0 0.569)">
                <path id="Trazado_160282" data-name="Trazado 160282" d="M1655.483,799.056l.029-1.038c.008-.27-.42-.27-.427,0q-.015.519-.03,1.038c-.008.27.42.27.428,0Z" transform="translate(-1655.055 -797.816)" fill="#51c6d4"/>
              </g>
              <g id="Grupo_86491" data-name="Grupo 86491" transform="translate(0.083)">
                <path id="Trazado_160283" data-name="Trazado 160283" d="M1656.237,791.569a.21.21,0,0,0,0-.42.21.21,0,0,0,0,.42Z" transform="translate(-1656.03 -791.149)" fill="#51c6d4"/>
              </g>
            </g>
            <g id="Grupo_86493" data-name="Grupo 86493" transform="translate(3.339 0.096)">
              <path id="Trazado_160284" data-name="Trazado 160284" d="M1594.31,792.482c-.012.469-.218,2.191.784,1.57a.211.211,0,0,0-.216-.363c-.2.125-.157-.559-.156-.6q.008-.3.015-.608c.007-.271-.421-.27-.427,0Z" transform="translate(-1594.285 -792.28)" fill="#51c6d4"/>
            </g>
            <g id="Grupo_86494" data-name="Grupo 86494" transform="translate(3.023 0.806)">
              <path id="Trazado_160285" data-name="Trazado 160285" d="M1590.781,801.016l.663.014a.21.21,0,0,0,0-.42l-.663-.014a.21.21,0,0,0,0,.42Z" transform="translate(-1590.574 -800.595)" fill="#51c6d4"/>
            </g>
            <g id="Grupo_86495" data-name="Grupo 86495" transform="translate(4.653 0.565)">
              <path id="Trazado_160286" data-name="Trazado 160286" d="M1611.082,798.49c.288-.984-1.487-.98-1.4.117a.672.672,0,0,0,.867.628c.54-.109.563-.693.572-1.146l-.42.056.182.9c.054.265.466.153.412-.112l-.182-.9c-.048-.238-.416-.175-.42.056-.005.258.028.491-.2.644q-.242.282-.39-.19.092-.6.565-.165a.214.214,0,0,0,.412.112Z" transform="translate(-1609.68 -797.768)" fill="#51c6d4"/>
            </g>
            <g id="Grupo_86496" data-name="Grupo 86496" transform="translate(6.666 0.574)">
              <path id="Trazado_160287" data-name="Trazado 160287" d="M1633.762,799.1c-.009-.115-.145-.75.015-.831h-.216a.78.78,0,0,1,.232.419.217.217,0,0,0,.412,0c.043-.152.1-.512.242-.167a1.5,1.5,0,0,1,.053.516.214.214,0,0,0,.428,0c-.008-.354-.02-.966-.45-1.1-.415-.127-.6.32-.685.637h.412a1.145,1.145,0,0,0-.429-.67.219.219,0,0,0-.216,0c-.424.214-.257.827-.226,1.194.022.268.45.27.427,0Z" transform="translate(-1633.276 -797.88)" fill="#51c6d4"/>
            </g>
            <g id="Grupo_86497" data-name="Grupo 86497" transform="translate(9.511 0.569)">
              <path id="Trazado_160288" data-name="Trazado 160288" d="M1666.628,798.018q.008.481.017.962a.214.214,0,0,0,.428,0c.01-.191.257-.774.432-.359a1.592,1.592,0,0,1,.1.409c.033.265.461.268.427,0-.044-.352-.141-.963-.6-1.01-.508-.052-.766.561-.787.959h.428l-.017-.962a.214.214,0,0,0-.427,0Z" transform="translate(-1666.628 -797.815)" fill="#51c6d4"/>
            </g>
          </g>
          <g id="Grupo_86503" data-name="Grupo 86503" transform="translate(56.179 42.618)">
            <g id="Grupo_86499" data-name="Grupo 86499" transform="translate(0 0.053)">
              <path id="Trazado_160289" data-name="Trazado 160289" d="M1559.518,831.1q-.069,3.333-.138,6.665a.428.428,0,0,0,.855,0q.069-3.333.138-6.665a.428.428,0,0,0-.855,0Z" transform="translate(-1559.38 -830.695)" fill="#92d9e2"/>
            </g>
            <g id="Grupo_86500" data-name="Grupo 86500" transform="translate(0.134)">
              <path id="Trazado_160290" data-name="Trazado 160290" d="M1561.352,830.956a5.8,5.8,0,0,1,.9-.075q1.249-.17,1.105.932.513.973-.689,1.106a5.167,5.167,0,0,1-1.2.05v.84c.945-.054,3.23.14,3.275,1.533.03.946-1.256,1.372-1.981,1.421a9.268,9.268,0,0,1-1.254-.043c-.549-.038-.547.8,0,.84,1.544.107,4.1-.126,4.091-2.218-.008-1.9-2.651-2.458-4.13-2.374a.42.42,0,0,0,0,.84c1.261.04,3.154-.3,3.144-1.918-.01-1.661-1.991-1.932-3.26-1.776-.539.066-.546.907,0,.84Z" transform="translate(-1560.945 -830.078)" fill="#92d9e2"/>
            </g>
            <g id="Grupo_86501" data-name="Grupo 86501" transform="translate(5.543 3.154)">
              <path id="Trazado_160291" data-name="Trazado 160291" d="M1625.17,869.139l1.079-1.469-.672.085a5.871,5.871,0,0,1,.007.681c.009.266.015.531.021.8q.017.8.016,1.594a.428.428,0,0,0,.856,0q0-1.129-.033-2.258c-.012-.423.112-1.1-.261-1.408a.441.441,0,0,0-.671.085l-1.08,1.469c-.323.439.419.859.739.424Z" transform="translate(-1624.352 -867.043)" fill="#92d9e2"/>
            </g>
            <g id="Grupo_86502" data-name="Grupo 86502" transform="translate(8.393 2.902)">
              <path id="Trazado_160292" data-name="Trazado 160292" d="M1658.893,865.139q.634.039.479.426a1.069,1.069,0,0,1-.2.488,6.166,6.166,0,0,1-.358.517c-.3.416-.613.823-.944,1.217a.425.425,0,0,0,.3.717l1.87-.037a.42.42,0,0,0,0-.84l-1.87.037.3.717c.739-.88,2.212-2.3,1.678-3.56a1.085,1.085,0,0,0-2.111.318c-.024.541.832.54.855,0Z" transform="translate(-1657.758 -864.092)" fill="#92d9e2"/>
            </g>
          </g>
          <g id="Grupo_86507" data-name="Grupo 86507" transform="translate(74.87 21.765)">
            <g id="Grupo_86504" data-name="Grupo 86504" transform="translate(0 0.044)">
              <path id="Trazado_160293" data-name="Trazado 160293" d="M1778.573,586.5q-.057,2.761-.114,5.522a.355.355,0,0,0,.709,0q.057-2.761.114-5.522a.355.355,0,0,0-.708,0Z" transform="translate(-1778.459 -586.161)" fill="#92d9e2"/>
            </g>
            <g id="Grupo_86505" data-name="Grupo 86505" transform="translate(0.111)">
              <path id="Trazado_160294" data-name="Trazado 160294" d="M1780.094,586.378a4.837,4.837,0,0,1,.744-.062q1.035-.141.916.772.425.806-.571.917a4.285,4.285,0,0,1-.993.042v.7c.783-.044,2.676.117,2.713,1.27.025.784-1.041,1.136-1.641,1.177a7.708,7.708,0,0,1-1.039-.035c-.455-.032-.453.665,0,.7,1.28.089,3.4-.1,3.39-1.838-.007-1.577-2.2-2.036-3.422-1.967a.348.348,0,0,0,0,.7c1.045.033,2.613-.249,2.6-1.589-.008-1.376-1.649-1.6-2.7-1.472-.447.055-.452.751,0,.7Z" transform="translate(-1779.757 -585.65)" fill="#92d9e2"/>
            </g>
            <g id="Grupo_86506" data-name="Grupo 86506" transform="translate(4.784 2.404)">
              <path id="Trazado_160295" data-name="Trazado 160295" d="M1835.474,614.7q.525.033.4.353a.885.885,0,0,1-.169.4,5.045,5.045,0,0,1-.3.428c-.25.344-.508.682-.782,1.008a.352.352,0,0,0,.25.594l1.549-.031a.348.348,0,0,0,0-.7l-1.549.031.25.594c.612-.729,1.833-1.9,1.39-2.95a.9.9,0,0,0-1.749.263c-.02.448.689.447.709,0Z" transform="translate(-1834.532 -613.83)" fill="#92d9e2"/>
            </g>
          </g>
          <g id="Grupo_86511" data-name="Grupo 86511" transform="translate(109.682 61.302)">
            <g id="Grupo_86508" data-name="Grupo 86508">
              <path id="Trazado_160296" data-name="Trazado 160296" d="M2186.615,1049.416q.085,3.175-.109,6.344c-.027.448.681.446.708,0q.194-3.171.11-6.344c-.012-.447-.721-.449-.709,0Z" transform="translate(-2186.505 -1049.08)" fill="#92d9e2"/>
            </g>
            <g id="Grupo_86509" data-name="Grupo 86509" transform="translate(0.33 0.13)">
              <path id="Trazado_160297" data-name="Trazado 160297" d="M2190.8,1054.262a5.209,5.209,0,0,0,1.861-1.165,11.642,11.642,0,0,0,1.308-1.979c.254-.374-.36-.723-.612-.351a12.4,12.4,0,0,1-1.075,1.711,4.395,4.395,0,0,1-1.671,1.112c-.422.159-.239.832.188.671Z" transform="translate(-2190.368 -1050.609)" fill="#92d9e2"/>
            </g>
            <g id="Grupo_86510" data-name="Grupo 86510" transform="translate(1.903 2.261)">
              <path id="Trazado_160298" data-name="Trazado 160298" d="M2208.959,1076.244c1.1.788,1.7,2.7,2.025,3.925a.354.354,0,0,0,.683-.185c-.388-1.454-1.064-3.421-2.351-4.341-.369-.264-.723.34-.358.6Z" transform="translate(-2208.805 -1075.578)" fill="#92d9e2"/>
            </g>
          </g>
          <g id="Grupo_86512" data-name="Grupo 86512" transform="translate(98.962 41.537)">
            <path id="Trazado_160299" data-name="Trazado 160299" d="M2064.906,818.47c-.332-1.224-1.665-1.328-2.629-.65-1.425,1-1.513,3.007-1.372,4.556.117,1.283.631,2.739,2.011,3.178a1.935,1.935,0,0,0,2.557-1.5c.1-.58-.809-.83-.9-.245q-1.133,1.475-1.905.482a1.533,1.533,0,0,1-.634-.934,5.008,5.008,0,0,1-.214-1.427,6.746,6.746,0,0,1,.071-1.687l.131-.512q.353-1.489,1.983-1.013a.469.469,0,0,0,.905-.245Z" transform="translate(-2060.857 -817.403)" fill="#fff"/>
          </g>
          <g id="Grupo_86525" data-name="Grupo 86525" transform="translate(96.179 38.712)">
            <g id="Grupo_86513" data-name="Grupo 86513" transform="translate(0 0.248)">
              <path id="Trazado_160300" data-name="Trazado 160300" d="M2028.251,787.519q.254.583.546,1.147a.154.154,0,0,0,.262,0,8.161,8.161,0,0,0,.574-1.284c.064-.182-.229-.259-.292-.079a7.7,7.7,0,0,1-.544,1.212h.262q-.293-.565-.546-1.147c-.076-.175-.337-.024-.262.15Z" transform="translate(-2028.238 -787.201)" fill="#fff"/>
            </g>
            <g id="Grupo_86516" data-name="Grupo 86516" transform="translate(1.934)">
              <g id="Grupo_86514" data-name="Grupo 86514" transform="translate(0 0.535)">
                <path id="Trazado_160301" data-name="Trazado 160301" d="M2051.216,791.692l.028-.98c.005-.192-.3-.191-.3,0q-.014.49-.028.98c-.005.192.3.191.3,0Z" transform="translate(-2050.913 -790.569)" fill="#fff"/>
              </g>
              <g id="Grupo_86515" data-name="Grupo 86515" transform="translate(0.077)">
                <path id="Trazado_160302" data-name="Trazado 160302" d="M2051.96,784.592a.149.149,0,0,0,0-.3.149.149,0,0,0,0,.3Z" transform="translate(-2051.813 -784.294)" fill="#fff"/>
              </g>
            </g>
            <g id="Grupo_86519" data-name="Grupo 86519" transform="translate(8.051)">
              <g id="Grupo_86517" data-name="Grupo 86517" transform="translate(0 0.535)">
                <path id="Trazado_160303" data-name="Trazado 160303" d="M2122.911,791.692l.028-.98c.006-.192-.3-.191-.3,0l-.028.98c0,.192.3.191.3,0Z" transform="translate(-2122.608 -790.569)" fill="#fff"/>
              </g>
              <g id="Grupo_86518" data-name="Grupo 86518" transform="translate(0.077)">
                <path id="Trazado_160304" data-name="Trazado 160304" d="M2123.655,784.592a.149.149,0,0,0,0-.3.149.149,0,0,0,0,.3Z" transform="translate(-2123.509 -784.294)" fill="#fff"/>
              </g>
            </g>
            <g id="Grupo_86520" data-name="Grupo 86520" transform="translate(3.15 0.089)">
              <path id="Trazado_160305" data-name="Trazado 160305" d="M2065.191,785.485c-.01.4-.221,1.989.665,1.44a.15.15,0,0,0-.153-.257c-.283.175-.225-.554-.223-.609q.007-.287.014-.574c0-.192-.3-.191-.3,0Z" transform="translate(-2065.162 -785.342)" fill="#fff"/>
            </g>
            <g id="Grupo_86521" data-name="Grupo 86521" transform="translate(2.855 0.761)">
              <path id="Trazado_160306" data-name="Trazado 160306" d="M2061.847,793.511l.626.013a.149.149,0,0,0,0-.3l-.626-.013a.149.149,0,0,0,0,.3Z" transform="translate(-2061.701 -793.214)" fill="#fff"/>
            </g>
            <g id="Grupo_86522" data-name="Grupo 86522" transform="translate(4.396 0.531)">
              <path id="Trazado_160307" data-name="Trazado 160307" d="M2080.986,791.138c.251-.857-1.3-.84-1.222.124a.583.583,0,0,0,.755.546c.485-.094.5-.633.5-1.034l-.3.04q.086.424.172.847c.038.188.33.108.292-.079l-.172-.847c-.034-.168-.294-.124-.3.04-.006.28.019.47-.215.639q-.271.316-.443-.211.115-.667.633-.143a.151.151,0,0,0,.292.079Z" transform="translate(-2079.76 -790.516)" fill="#fff"/>
            </g>
            <g id="Grupo_86523" data-name="Grupo 86523" transform="translate(6.294 0.542)">
              <path id="Trazado_160308" data-name="Trazado 160308" d="M2102.375,791.754a2.831,2.831,0,0,1-.044-.563c.043-.314.125,0,.173.161a.153.153,0,0,0,.292,0c.048-.171.115-.536.326-.157a1.241,1.241,0,0,1,.052.5c0,.191.307.192.3,0-.007-.313-.01-.866-.388-.989-.358-.116-.511.3-.585.567h.292a1.029,1.029,0,0,0-.382-.6.155.155,0,0,0-.153,0c-.377.19-.216.762-.189,1.084.016.189.319.191.3,0Z" transform="translate(-2102.015 -790.65)" fill="#fff"/>
            </g>
            <g id="Grupo_86524" data-name="Grupo 86524" transform="translate(8.983 0.535)">
              <path id="Trazado_160309" data-name="Trazado 160309" d="M2133.536,790.712q.008.454.016.909a.152.152,0,0,0,.3,0,.361.361,0,0,1,.239-.434q.208-.252.268.082a1.567,1.567,0,0,1,.092.4c.023.188.327.19.3,0-.038-.3-.122-.873-.526-.906-.444-.036-.661.513-.679.858h.3q-.008-.454-.016-.909a.152.152,0,0,0-.3,0Z" transform="translate(-2133.536 -790.568)" fill="#fff"/>
            </g>
          </g>
        </g>
      </g>
    </g>
    <g id="Grupo_86530" data-name="Grupo 86530" transform="translate(401.358 231.235)">
      <path id="Trazado_160227" data-name="Trazado 160227" d="M1101.051,1046.825c-4.863,4.114-18.729,9.426-33.619,14.248-5.514,1.791-11.178,3.51-16.555,5.085-13.276,3.862-24.944,6.793-28.989,7.522a6.334,6.334,0,0,1-.643.066l-.013,0a12.863,12.863,0,0,1-2.147-.1c-9.692-1.159-34.174-10.564-41.55-14.386-6.831-3.537-23.586-16.534-23.586-16.534-1.548-4.076,7.278-8.033,19.036-.536.746.472,10.009,2.943,16.169,4.572.121.021.247.056.372.09.5.125.97.257,1.407.371,1.952.51,3.338.859,3.636.943-.271-.136-1.266-.575-2.705-1.2q-.5-.219-1.047-.467c-.116-.052-.236-.117-.366-.165-4.717-2.1-12.134-5.429-15-6.972-4.2-2.257-18.818-13.444-16.878-15.292,5.19-4.9,14.417,1.4,23.322,6.245,3.093,1.678,16.869,5.13,21.9,7.133-3.336-1.866-10.307-5.871-12.669-7.948-3.15-2.783-9.145-10.369-7.687-11.369,2.667-1.823,6-.364,14.806,5.893,7.437,5.277,22.041,5.427,26.031,6.539,8.006,2.215,20.682-5.007,42.254-11.9a42.322,42.322,0,0,1,5.34-1.358l0,.013c21.358-3.9,23.653,16.178,30.682,25.78C1103.336,1044.157,1102.721,1045.424,1101.051,1046.825Z" transform="translate(-953.773 -1016.773)" fill="#ffcfbf"/>
      <path id="Trazado_160228" data-name="Trazado 160228" d="M1487.438,1043.212s-9.193-9.925-2.922-9.786,21.96,13.77,34.77,10.367l-6.011,6.749Z" transform="translate(-1436.661 -1031.262)" fill="#ffcfbf"/>
      <g id="Grupo_86434" data-name="Grupo 86434" transform="translate(68.38)">
        <path id="Trazado_160229" data-name="Trazado 160229" d="M1436.464,1037.667a10.677,10.677,0,0,1-8.552-12.388,10.566,10.566,0,0,1,12.232-8.66,10.677,10.677,0,0,1,8.552,12.388A10.566,10.566,0,0,1,1436.464,1037.667Z" transform="translate(-1427.749 -1016.453)" fill="#9ee0e5"/>
        <path id="Trazado_160230" data-name="Trazado 160230" d="M1436.526,1076.45h0a1.774,1.774,0,0,1,2.054-1.454l15.708,2.817a1.792,1.792,0,0,1,1.436,2.08h0a1.774,1.774,0,0,1-2.054,1.454l-15.708-2.817A1.793,1.793,0,0,1,1436.526,1076.45Z" transform="translate(-1435.742 -1067.512)" fill="#89c7c9"/>
      </g>
      <g id="Grupo_86435" data-name="Grupo 86435" transform="translate(53.558 3.649)">
        <path id="Trazado_160231" data-name="Trazado 160231" d="M1553.311,1067.552h0a6.223,6.223,0,0,1-8.87-.315l-10.136-11.48a6.415,6.415,0,0,1,.679-8.963h0a6.225,6.225,0,0,1,8.871.315l10.136,11.481A6.416,6.416,0,0,1,1553.311,1067.552Z" transform="translate(-1532.787 -1045.091)" fill="#fff"/>
        <path id="Trazado_160232" data-name="Trazado 160232" d="M1546.726,1120.688a6.224,6.224,0,0,1-8.871-.315l-5.068-5.74,9.55-8.648,5.068,5.74A6.416,6.416,0,0,1,1546.726,1120.688Z" transform="translate(-1526.203 -1098.226)" fill="#d86d55"/>
      </g>
      <g id="Grupo_86436" data-name="Grupo 86436" transform="translate(42.12 9.707)">
        <path id="Trazado_160233" data-name="Trazado 160233" d="M1678.272,1098.4a9.173,9.173,0,0,1-5.042,11.865,8.983,8.983,0,0,1-11.717-5.106,9.173,9.173,0,0,1,5.042-11.866A8.982,8.982,0,0,1,1678.272,1098.4Z" transform="translate(-1660.871 -1092.642)" fill="#9ee0e5"/>
        <path id="Trazado_160234" data-name="Trazado 160234" d="M1707.172,1118.861h0a1.508,1.508,0,0,1-1.968-.857l-5.044-12.827a1.539,1.539,0,0,1,.846-1.992h0a1.508,1.508,0,0,1,1.968.857l5.045,12.826A1.541,1.541,0,0,1,1707.172,1118.861Z" transform="translate(-1695.012 -1101.745)" fill="#89c7c9"/>
      </g>
      <g id="Grupo_86437" data-name="Grupo 86437" transform="translate(70.07 14.672)">
        <path id="Trazado_160235" data-name="Trazado 160235" d="M1365.387,1141.89h0a6.356,6.356,0,0,1,4.925-7.479l14.97-2.7a6.289,6.289,0,0,1,7.174,5.294h0a6.356,6.356,0,0,1-4.925,7.479l-14.97,2.7A6.29,6.29,0,0,1,1365.387,1141.89Z" transform="translate(-1365.283 -1131.614)" fill="#fff"/>
        <path id="Trazado_160236" data-name="Trazado 160236" d="M1464.869,1151.79a6.357,6.357,0,0,1,4.925-7.479l7.485-1.352,2.249,12.773-7.485,1.352A6.29,6.29,0,0,1,1464.869,1151.79Z" transform="translate(-1464.764 -1141.514)" fill="#ed7c5d"/>
      </g>
      <g id="Grupo_86438" data-name="Grupo 86438" transform="translate(49.523 18.843)">
        <path id="Trazado_160237" data-name="Trazado 160237" d="M1533.14,1168.822h0a6.264,6.264,0,0,1,7.873-4.152l14.405,4.933a6.38,6.38,0,0,1,3.77,8.139h0a6.263,6.263,0,0,1-7.873,4.152l-14.405-4.933A6.381,6.381,0,0,1,1533.14,1168.822Z" transform="translate(-1532.787 -1164.353)" fill="#fff"/>
        <path id="Trazado_160238" data-name="Trazado 160238" d="M1623.16,1168.822a6.264,6.264,0,0,1,7.874-4.152l7.2,2.467-4.1,12.291-7.2-2.467A6.381,6.381,0,0,1,1623.16,1168.822Z" transform="translate(-1622.807 -1164.353)" fill="#ed7c5d"/>
      </g>
      <g id="Grupo_86442" data-name="Grupo 86442" transform="translate(33.026 0.369)">
        <g id="Grupo_86439" data-name="Grupo 86439" transform="translate(27.926 11.912)">
          <path id="Trazado_160239" data-name="Trazado 160239" d="M253.628,1225.673c-23.069-35.7-63.743-72.615-64.7-73.164l-.017-.01a1.822,1.822,0,0,0-.193-.116,8.236,8.236,0,0,0-1.15-.523,3.629,3.629,0,0,0-.923-.2,39.419,39.419,0,0,0-11.024-1.713l-.017-.01c-15.439-.536-34.264,4.324-34.332,4.287-5.368-3.606,1.892-11.125,13.316-18.635l1.428-1.5c6.632-4.365,11.246-6.831,17.512-10.252.854-.466,4.636-1.4,5.429-1.833l.013,0c.669-.365,1.328-.713,1.961-1.053,3.838-2.05,12.293-1.66,13.711-2.026,19.809-5.1,19.324-7.333,22.732-5.372l0,.013a9.064,9.064,0,0,1,1.5,1.014c-.023.284,15.2,14.321,34.58,32.407C253.628,1169.34,253.628,1191.007,253.628,1225.673Z" transform="translate(-139.467 -1112.844)" fill="#ffcfbf"/>
        </g>
        <path id="Trazado_160240" data-name="Trazado 160240" d="M1248.982,1254.789c-11.209,6.3-32.948,10.154-45.91,10.418-3.385.068-6.824.648-10.074-.315a30.322,30.322,0,0,1-8.048-4.29q-11.343-7.613-22.6-15.349c-2.082-1.43-4.4-4.165-2.781-6.12a4.546,4.546,0,0,1,2.38-1.234c5.5-1.563,11.532-3.1,16.781-.8,3.477,1.521,6.125,4.553,9.554,6.18a13.6,13.6,0,0,0,13.076-.916Z" transform="translate(-1158.712 -1208.334)" fill="#ffcfbf"/>
        <g id="Grupo_86440" data-name="Grupo 86440" transform="translate(0 27.403)">
          <path id="Trazado_160241" data-name="Trazado 160241" d="M1301.49,1255.06c-8.018,4.478-16.954,6.762-26,7.832-4.64.548-9.289.666-13.947.943a23.9,23.9,0,0,1-7.023-.263,21.4,21.4,0,0,1-6.346-2.974c-4.1-2.606-8.082-5.405-12.1-8.131-4.116-2.791-8.232-5.583-12.323-8.41-1.388-.959-3.64-2.682-3.431-4.647.121-1.137,1.15-1.656,2.113-1.965,1.1-.353,2.228-.638,3.347-.922,4.029-1.024,8.438-1.809,12.49-.463,4.411,1.466,7.394,5.472,11.746,7.059a14.189,14.189,0,0,0,12.456-1.43c.494-.317-.072-1.039-.563-.724a13.2,13.2,0,0,1-12.884.724c-3.861-1.929-6.732-5.44-10.974-6.655-4.17-1.195-8.583-.412-12.693.652-1.645.425-4.026.7-5.229,2.036-1.1,1.225-.766,2.859.051,4.139,1.17,1.834,3.058,2.955,4.8,4.149q3.262,2.236,6.53,4.462,6.537,4.451,13.1,8.862c3.8,2.552,7.658,5.236,12.354,5.508,2.334.135,4.669-.129,7-.213,2.439-.088,4.875-.2,7.309-.4,10.591-.852,21.2-3.09,30.576-8.326.508-.283.154-1.133-.36-.846Z" transform="translate(-1219.424 -1234.435)" fill="#ef9f8a"/>
        </g>
        <g id="Grupo_86441" data-name="Grupo 86441" transform="translate(56.464 17.816)">
          <path id="Trazado_160242" data-name="Trazado 160242" d="M1119.785,1166.278c-1.781-6.349-9.447-7.011-14.851-7.087a57.983,57.983,0,0,0-29.24,7.488c-.486.274-.024,1.014.461.741a57.4,57.4,0,0,1,17.409-6.36,56.745,56.745,0,0,1,9.229-.982,36.255,36.255,0,0,1,9.115.655c3.067.722,6.139,2.553,7.05,5.8a.433.433,0,0,0,.827-.253Z" transform="translate(-1075.487 -1159.185)" fill="#ef9f8a"/>
        </g>
        <path id="Trazado_160243" data-name="Trazado 160243" d="M1069.538,1037.339s2.261-11.207,5.935-14.96,5.278-2.96,5.278-2.96,6.315,2.594,7.189,3.33S1069.538,1037.339,1069.538,1037.339Z" transform="translate(-986.44 -1019.349)" fill="#ffcfbf"/>
      </g>
      <g id="Grupo_86443" data-name="Grupo 86443" transform="translate(139.138 35.158)">
        <path id="Trazado_160244" data-name="Trazado 160244" d="M979.234,1293.283a21.661,21.661,0,0,0,4.279,5.245q.712.636,1.48,1.2a.615.615,0,0,0,.4.152.574.574,0,0,0,.4-.183.584.584,0,0,0-.03-.809,21.02,21.02,0,0,1-2.5-2.176q-.577-.589-1.107-1.222c-.02-.024-.137-.166-.059-.07l-.135-.167q-.135-.168-.266-.339-.255-.332-.5-.674-.539-.762-1.009-1.571a.566.566,0,0,0-.779-.179.588.588,0,0,0-.177.789Z" transform="translate(-979.151 -1292.406)" fill="#f18e7b"/>
      </g>
    </g>
  </g>
</svg>
