<svg xmlns="http://www.w3.org/2000/svg" width="293.449" height="334" viewBox="0 0 293.449 334">
  <g id="Grupo_83697" data-name="Grupo 83697" transform="translate(-67.976 -85.646)">
    <g id="Grupo_82964" data-name="Grupo 82964" transform="translate(114.632 121.184)">
      <rect id="Rectángulo_33793" data-name="Rectángulo 33793" width="55.141" height="63.448" transform="translate(0 0)" fill="#fd6c71"/>
      <path id="Trazado_113531" data-name="Trazado 113531" d="M169.492,157.639c4.724-4.854,1.873-13.289-4.878-13.836q-.394-.033-.8-.032a9.7,9.7,0,0,0-7.486,3.523,9.7,9.7,0,0,0-7.485-3.523q-.4,0-.8.032c-6.751.547-9.6,8.982-4.878,13.836l9.658,9.926a4.887,4.887,0,0,0,7,0Z" transform="translate(-128.762 -132.456)" fill="#fff"/>
      <g id="Grupo_82963" data-name="Grupo 82963" transform="translate(7.573 46.154)">
        <rect id="Rectángulo_33794" data-name="Rectángulo 33794" width="23.205" height="2.488" fill="#2c1817"/>
        <rect id="Rectángulo_33795" data-name="Rectángulo 33795" width="11.603" height="2.488" transform="translate(0 6.527)" fill="#2c1817"/>
        <rect id="Rectángulo_33796" data-name="Rectángulo 33796" width="18.408" height="2.488" transform="translate(14.057 6.527)" fill="#2c1817"/>
        <rect id="Rectángulo_33797" data-name="Rectángulo 33797" width="13.388" height="2.488" transform="translate(26.608)" fill="#2c1817"/>
      </g>
    </g>
    <g id="Grupo_82983" data-name="Grupo 82983" transform="translate(154.264 85.646)">
      <g id="Grupo_82968" data-name="Grupo 82968" transform="translate(25.23)">
        <path id="Trazado_113532" data-name="Trazado 113532" d="M249.267,96.444s-9.19-10.776-14.627-10.8c-10.011-.04-22.715,15.245-26.209,21.6s-1.588,64.314-1.588,64.314h52.912s-6.078-29.917-1.461-44.249c7.384-22.923,6.908-33.4,3.573-34.834C256.841,90.32,249.267,96.444,249.267,96.444Z" transform="translate(-206.324 -85.646)" fill="#2c1817"/>
        <path id="Trazado_113533" data-name="Trazado 113533" d="M240.025,159.829v-25.9l-16.87-9.671-2.706,35.493S233.719,163.64,240.025,159.829Z" transform="translate(-209.063 -93.133)" fill="#b2614e"/>
        <path id="Trazado_113534" data-name="Trazado 113534" d="M231.128,141.48s.084,9.939,10.968,10.892V141.48Z" transform="translate(-211.134 -96.474)" fill="#995343"/>
        <path id="Trazado_113535" data-name="Trazado 113535" d="M257.421,123.235c-2.407,21.9-9.616,19.4-21.39,14.945-8.792-3.328-14.235-12.048-11.624-21.08a17.022,17.022,0,0,1,21.079-11.624C254.517,108.088,258.448,113.891,257.421,123.235Z" transform="translate(-209.704 -89.361)" fill="#b2614e"/>
        <path id="Trazado_113536" data-name="Trazado 113536" d="M224.125,123.353a4.539,4.539,0,0,1-4.84,4.6,5.2,5.2,0,0,1-4.84-5.14,4.539,4.539,0,0,1,4.84-4.6A5.2,5.2,0,0,1,224.125,123.353Z" transform="translate(-207.899 -91.96)" fill="#b2614e"/>
        <g id="Grupo_82965" data-name="Grupo 82965" transform="translate(8.735 29.415)">
          <path id="Trazado_113537" data-name="Trazado 113537" d="M218.928,125.777l-.262-.306a5.43,5.43,0,0,1,3.286-1.257,6.3,6.3,0,0,0-4.757-1.652l-.035-.4a6.682,6.682,0,0,1,5.435,2.131l.342.376-.507-.04A4.975,4.975,0,0,0,218.928,125.777Z" transform="translate(-217.16 -122.138)" fill="#2c1817"/>
        </g>
        <path id="Trazado_113538" data-name="Trazado 113538" d="M249.934,120.027c0,.472-2.631.855-4.189.855s-2.095-.383-2.095-.855,1.9-.855,3.463-.855S249.934,119.555,249.934,120.027Z" transform="translate(-213.563 -92.148)" fill="#2c1817"/>
        <path id="Trazado_113539" data-name="Trazado 113539" d="M250.652,126.941c0,.893-.344,1.616-.77,1.616s-.769-.723-.769-1.616.344-1.616.769-1.616S250.652,126.048,250.652,126.941Z" transform="translate(-214.622 -93.341)" fill="#2c1817"/>
        <path id="Trazado_113540" data-name="Trazado 113540" d="M258.219,120.027c0,.472,2.632.855,4.19.855s2.094-.383,2.094-.855-1.9-.855-3.462-.855S258.219,119.555,258.219,120.027Z" transform="translate(-216.388 -92.148)" fill="#2c1817"/>
        <path id="Trazado_113541" data-name="Trazado 113541" d="M258.644,126.941c0,.893.344,1.616.769,1.616s.77-.723.77-1.616-.345-1.616-.77-1.616S258.644,126.048,258.644,126.941Z" transform="translate(-216.47 -93.341)" fill="#2c1817"/>
        <g id="Grupo_82966" data-name="Grupo 82966" transform="translate(37.698 31.101)">
          <path id="Trazado_113542" data-name="Trazado 113542" d="M254.3,134.992h-.048a1.418,1.418,0,0,1-1.162-.582l.34-.217a1.042,1.042,0,0,0,.833.4.887.887,0,0,0,.746-.309c.31-.456-.227-5.451-.515-8.135-.075-.7-.143-1.34-.2-1.876l.4-.04c.053.536.122,1.177.2,1.873.56,5.21.783,7.942.442,8.415A1.242,1.242,0,0,1,254.3,134.992Z" transform="translate(-253.091 -124.229)" fill="#2c1817"/>
        </g>
        <g id="Grupo_82967" data-name="Grupo 82967" transform="translate(35.535 44.545)">
          <path id="Trazado_113543" data-name="Trazado 113543" d="M252.775,142.985a2.011,2.011,0,0,1-.25-.015c-1.228-.156-2.081-1.809-2.118-1.879l.359-.183c.007.015.793,1.533,1.809,1.662a3.478,3.478,0,0,0,2.187-.839l.261.307A4.064,4.064,0,0,1,252.775,142.985Z" transform="translate(-250.408 -140.908)" fill="#2c1817"/>
        </g>
        <path id="Trazado_113544" data-name="Trazado 113544" d="M252.56,105.619s-9.6,9.476-18.922,10.191l-9.317.716s-3.1-10.589,1.523-13.765S252.56,105.619,252.56,105.619Z" transform="translate(-209.617 -88.786)" fill="#2c1817"/>
      </g>
      <g id="Grupo_82982" data-name="Grupo 82982" transform="translate(0 66.614)">
        <path id="Trazado_113545" data-name="Trazado 113545" d="M260.75,170.193s12.709,1.781,13.437,5.28c.615,2.959,4.507,47.785,4.507,47.785l41.289,7.413L314.9,244.327l-42.956-5.718Z" transform="translate(-191.649 -168.656)" fill="#ccc8c7"/>
        <path id="Trazado_113546" data-name="Trazado 113546" d="M244.735,168.388s11.391,1.282,14.011,1.673S279.469,200.7,280.9,202.61s-1.191,19.294-1.191,23.105,4.526,63.361,4.526,63.361h-20.4Z" transform="translate(-188.543 -168.306)" fill="#fdfdfd"/>
        <path id="Trazado_113547" data-name="Trazado 113547" d="M262.492,289.057H239.148L221.407,174.435l-.953-6.145s12.921,3.9,19.571.076l.048.085c.039.077.114.219.219.41l.4.734c.1.2.219.419.352.658l.838,1.552c4.183,7.794,14.254,26.669,17.246,33.405.82,1.858,1.449,6.822,1.925,13.473.066.972.133,1.982.2,3.02C262.749,246.457,262.492,289.057,262.492,289.057Z" transform="translate(-183.834 -168.287)" fill="#539fff"/>
        <path id="Trazado_113548" data-name="Trazado 113548" d="M241.883,171.805c-7.488,6.975-20.476,2.63-20.476,2.63l-.953-6.145s12.921,3.9,19.571.076l.048.085.219.41.4.734.352.658Z" transform="translate(-183.834 -168.287)" fill="#4585dd"/>
        <g id="Grupo_82969" data-name="Grupo 82969" transform="translate(37.541 6.053)">
          <path id="Trazado_113549" data-name="Trazado 113549" d="M230.491,177.325a31.519,31.519,0,0,1-8.894-1.339l.064-.191a29.415,29.415,0,0,0,13.085.94l.039.2A22.454,22.454,0,0,1,230.491,177.325Z" transform="translate(-221.597 -175.795)" fill="#2c1817"/>
        </g>
        <path id="Trazado_113550" data-name="Trazado 113550" d="M215.876,168.286s16.9,31.525,19.576,42.005,3.529,78.765,3.529,78.765H206.915s.929-10.958,5.478-44.067l-15.525-68.364Z" transform="translate(-179.26 -168.286)" fill="#fdfdfd"/>
        <g id="Grupo_82970" data-name="Grupo 82970" transform="translate(28.486 3.503)">
          <path id="Trazado_113551" data-name="Trazado 113551" d="M238.434,213.278c-12.409-4.032-19.953-17.285-20.028-17.419l-.056-.1.106-.043c3.152-1.293,4.56-5.014,4.758-5.581-2.106-1.315-5.987.039-6.025.052l-.071.026-.044-.061c-4.251-5.9-6.686-17.364-6.71-17.48l.2-.041c.023.114,2.433,11.455,6.632,17.342.571-.192,4.156-1.317,6.2.035l.064.042-.023.073c-.014.043-1.384,4.262-4.792,5.734.713,1.22,8.088,13.4,19.858,17.228Z" transform="translate(-210.363 -172.632)" fill="#ccc8c7"/>
        </g>
        <g id="Grupo_82971" data-name="Grupo 82971" transform="translate(64.089 0.932)">
          <path id="Trazado_113552" data-name="Trazado 113552" d="M266.721,209.212l-.152-.132a15.859,15.859,0,0,0,2.925-16.541,26,26,0,0,0-4.571-7.779c-1.924,1.056-4.814.012-4.936-.033l-.053-.019-.011-.056c-.3-1.525,2.37-3.531,2.835-3.868-1.464-3.772-8.156-11.13-8.224-11.205l.15-.136c.069.076,6.872,7.557,8.291,11.343l.027.073-.064.045c-.031.022-3.042,2.15-2.827,3.653.414.14,3.079.983,4.784-.011l.069-.041.055.06a26.111,26.111,0,0,1,4.666,7.907A16.052,16.052,0,0,1,266.721,209.212Z" transform="translate(-254.532 -169.442)" fill="#ccc8c7"/>
        </g>
        <path id="Trazado_113553" data-name="Trazado 113553" d="M266.808,233.827c-3.1.067-6.146.915-9.233,1.144-3.182.228-6.288-.468-8.48-2.773a24.487,24.487,0,0,0,6.831.01c1.82-.257,3.621-.715,5.441-1.01a33.263,33.263,0,0,1,5.24-.391C266.674,231.779,266.741,232.789,266.808,233.827Z" transform="translate(-189.388 -180.411)" fill="#4585dd"/>
        <g id="Grupo_82972" data-name="Grupo 82972" transform="translate(40.733 0.99)">
          <path id="Trazado_113554" data-name="Trazado 113554" d="M226.257,175.623a17.527,17.527,0,0,1-.656-6.109l.2.021a17.287,17.287,0,0,0,.649,6.029Z" transform="translate(-225.557 -169.514)" fill="#2c1817"/>
        </g>
        <g id="Grupo_82973" data-name="Grupo 82973" transform="translate(45.776 1.666)">
          <path id="Trazado_113555" data-name="Trazado 113555" d="M232.319,176.188a40.4,40.4,0,0,1-.506-5.835h.2a40.133,40.133,0,0,0,.5,5.8Z" transform="translate(-231.813 -170.353)" fill="#2c1817"/>
        </g>
        <g id="Grupo_82974" data-name="Grupo 82974" transform="translate(51.502 1.518)">
          <path id="Trazado_113556" data-name="Trazado 113556" d="M240.411,175.145a27.18,27.18,0,0,1-1.5-4.937l.2-.039a27.037,27.037,0,0,0,1.482,4.894Z" transform="translate(-238.916 -170.169)" fill="#2c1817"/>
        </g>
        <g id="Grupo_82975" data-name="Grupo 82975" transform="translate(54.653 0.725)">
          <path id="Trazado_113557" data-name="Trazado 113557" d="M244.689,173.228c-.909-.912-1.825-3.857-1.864-3.983l.193-.059c.01.03.939,3.023,1.813,3.9Z" transform="translate(-242.825 -169.186)" fill="#2c1817"/>
        </g>
        <g id="Grupo_82976" data-name="Grupo 82976" transform="translate(62.835 86.653)">
          <path id="Trazado_113558" data-name="Trazado 113558" d="M253.122,295.919l-.146-.139a160.048,160.048,0,0,0,15.755-19.995l.168.11A160.026,160.026,0,0,1,253.122,295.919Z" transform="translate(-252.976 -275.786)" fill="#2c1817"/>
        </g>
        <g id="Grupo_82977" data-name="Grupo 82977" transform="translate(73.073 99.289)">
          <path id="Trazado_113559" data-name="Trazado 113559" d="M265.833,300.383l-.156-.127a51.088,51.088,0,0,0,5.459-8.793l.183.086A51.3,51.3,0,0,1,265.833,300.383Z" transform="translate(-265.677 -291.462)" fill="#2c1817"/>
        </g>
        <path id="Trazado_113560" data-name="Trazado 113560" d="M192.632,178.632h0a29.366,29.366,0,0,0-11.7,18.719l-5.755,32.888a10.335,10.335,0,0,0,3.923,10.007L214.274,267l7.517-13.074-24.621-25.752s1.557-9.843,3.155-22C201.623,196.319,200.331,190.781,192.632,178.632Z" transform="translate(-175.024 -170.292)" fill="#fdfdfd"/>
        <g id="Grupo_82978" data-name="Grupo 82978" transform="translate(38.126 80.996)">
          <path id="Trazado_113561" data-name="Trazado 113561" d="M222.5,286.338l-.175-.1,10.044-17.469.175.1Z" transform="translate(-222.322 -268.769)" fill="#ccc8c7"/>
        </g>
        <g id="Grupo_82979" data-name="Grupo 82979" transform="translate(18.935 54.532)">
          <rect id="Rectángulo_33798" data-name="Rectángulo 33798" width="0.201" height="35.836" transform="translate(0 0.139) rotate(-43.713)" fill="#ccc8c7"/>
        </g>
        <g id="Grupo_82980" data-name="Grupo 82980" transform="translate(4.017 69.873)">
          <rect id="Rectángulo_33799" data-name="Rectángulo 33799" width="0.202" height="44.195" transform="matrix(0.605, -0.796, 0.796, 0.605, 0, 0.161)" fill="#ccc8c7"/>
        </g>
        <g id="Grupo_82981" data-name="Grupo 82981" transform="translate(19.617 14.985)">
          <path id="Trazado_113562" data-name="Trazado 113562" d="M205.189,207.92l-4.326-1.072.049-.2,3.989.988c-2.98-10.68-5.515-20.616-5.541-20.715l.2-.05c.025.1,2.587,10.136,5.586,20.877Z" transform="translate(-199.36 -186.876)" fill="#ccc8c7"/>
        </g>
        <path id="Trazado_113563" data-name="Trazado 113563" d="M262.485,264.01s-4.2-3.267,1.438-9.925l11.957,6.511S270.844,268.219,262.485,264.01Z" transform="translate(-191.694 -184.925)" fill="#ccc8c7"/>
        <path id="Trazado_113564" data-name="Trazado 113564" d="M295.934,208.971s-17.1,43.67-33.087,46.29c0,0,10.855,12.6,39.28,9.528,0,0,21.946-20.882,23.836-55.818Z" transform="translate(-192.055 -176.176)" fill="#e8e8e8"/>
        <path id="Trazado_113565" data-name="Trazado 113565" d="M298.545,208.971l-22.232,62.25,39.065-1.588,24.138-60.662Z" transform="translate(-194.667 -176.176)" fill="#f9a755"/>
        <path id="Trazado_113566" data-name="Trazado 113566" d="M303.273,208.971l-22.232,62.25,39.065-1.588,24.138-60.662Z" transform="translate(-195.584 -176.176)" fill="#ffbd6f"/>
        <path id="Trazado_113567" data-name="Trazado 113567" d="M337.332,257.211s5.326-2.753,7.112-5.73.715-6.193.715-7.861-3.374-10.084-4.8-9.012,1.072,5.836,1.072,5.836-2.858-5.734-4.049-4.713,2.263,7.691,2.263,7.691-2.858-4.645-4.05-3.573,2.5,5.805,2.5,5.805-2.778-3.3-3.889-2.034,5.347,7.95,5.347,7.95Z" transform="translate(-205.868 -181.129)" fill="#b2614e"/>
      </g>
    </g>
    <rect id="Rectángulo_33800" data-name="Rectángulo 33800" width="12.826" height="10.835" transform="translate(276.231 257.473)" fill="#3c3443"/>
    <rect id="Rectángulo_33801" data-name="Rectángulo 33801" width="47.361" height="10.835" transform="translate(289.057 257.473)" fill="#4f4559"/>
    <g id="Grupo_82984" data-name="Grupo 82984" transform="translate(273.129 214.212)">
      <path id="Trazado_113568" data-name="Trazado 113568" d="M363.139,296.564H344.883a.906.906,0,0,0-.906.906h0a.906.906,0,0,0,.906.906h18.256Z" transform="translate(-326.653 -255.115)" fill="#3c3443"/>
      <rect id="Rectángulo_33802" data-name="Rectángulo 33802" width="53.299" height="34.247" rx="1.542" transform="translate(0 0.003)" fill="#3c3443"/>
      <path id="Trazado_113569" data-name="Trazado 113569" d="M378.318,246.388v31.761a1.246,1.246,0,0,1-1.245,1.245H326.258a1.24,1.24,0,0,1-1.238-1.245V246.388a1.241,1.241,0,0,1,1.238-1.245h50.814A1.246,1.246,0,0,1,378.318,246.388Z" transform="translate(-322.977 -245.143)" fill="#706c7d"/>
      <path id="Trazado_113570" data-name="Trazado 113570" d="M369.294,282.495H338.1A2.607,2.607,0,0,0,335.5,285.1v1.588h36.4V285.1A2.607,2.607,0,0,0,369.294,282.495Z" transform="translate(-325.009 -252.387)" fill="#575461"/>
      <path id="Trazado_113571" data-name="Trazado 113571" d="M365.33,294.065h-8.124v-1.812l-3.3-13.3a3.721,3.721,0,0,1,3.612-4.616h0a3.721,3.721,0,0,1,3.611,2.825Z" transform="translate(-328.558 -250.804)" fill="#3c3443"/>
      <path id="Trazado_113572" data-name="Trazado 113572" d="M366.7,294.065h-7.658v-1.812l-3.3-13.3a3.72,3.72,0,0,1,3.61-4.616h0a3.72,3.72,0,0,1,3.61,2.825l3.739,15.092Z" transform="translate(-328.913 -250.804)" fill="#898599"/>
      <rect id="Rectángulo_33803" data-name="Rectángulo 33803" width="7.658" height="1.812" transform="translate(30.13 41.449)" fill="#9e9ab0"/>
    </g>
    <rect id="Rectángulo_33804" data-name="Rectángulo 33804" width="3.541" height="0.873" transform="translate(291.565 264.275)" fill="#3c3443"/>
    <rect id="Rectángulo_33805" data-name="Rectángulo 33805" width="3.541" height="0.873" transform="translate(291.565 265.618)" fill="#3c3443"/>
    <g id="Grupo_82985" data-name="Grupo 82985" transform="translate(306.318 257.473)" opacity="0.1">
      <rect id="Rectángulo_33806" data-name="Rectángulo 33806" width="7.011" height="10.835" fill="#f9fafe"/>
    </g>
    <g id="Grupo_82986" data-name="Grupo 82986" transform="translate(317.563 257.473)" opacity="0.1">
      <rect id="Rectángulo_33807" data-name="Rectángulo 33807" width="4.748" height="10.835" fill="#f9fafe"/>
    </g>
    <g id="Grupo_82987" data-name="Grupo 82987" transform="translate(278.195 257.473)" opacity="0.1">
      <rect id="Rectángulo_33808" data-name="Rectángulo 33808" width="2.966" height="10.835" transform="translate(0)" fill="#f9fafe"/>
    </g>
    <g id="Grupo_82991" data-name="Grupo 82991" transform="translate(314.539 201.871)">
      <rect id="Rectángulo_33809" data-name="Rectángulo 33809" width="31.736" height="9.958" rx="1.317" transform="translate(0 0.002)" fill="#3c3443"/>
      <path id="Trazado_113573" data-name="Trazado 113573" d="M407.755,230.9v7.836a1.064,1.064,0,0,1-1.063,1.063H377.079a1.058,1.058,0,0,1-1.057-1.063V230.9a1.058,1.058,0,0,1,1.057-1.063h29.613A1.064,1.064,0,0,1,407.755,230.9Z" transform="translate(-374.277 -229.833)" fill="#706c7d"/>
      <path id="Trazado_113574" data-name="Trazado 113574" d="M395.16,287.229h-1.411V239.788a.706.706,0,0,1,.705-.705h0a.706.706,0,0,1,.705.705Z" transform="translate(-377.715 -231.627)" fill="#898599"/>
      <g id="Grupo_82988" data-name="Grupo 82988" transform="translate(4.313 0)" opacity="0.1">
        <rect id="Rectángulo_33810" data-name="Rectángulo 33810" width="5.239" height="9.96" fill="#f9fafe"/>
      </g>
      <g id="Grupo_82989" data-name="Grupo 82989" transform="translate(14.322 0)" opacity="0.1">
        <rect id="Rectángulo_33811" data-name="Rectángulo 33811" width="3.829" height="9.96" fill="#f9fafe"/>
      </g>
      <g id="Grupo_82990" data-name="Grupo 82990" transform="translate(24.196 0)" opacity="0.1">
        <rect id="Rectángulo_33812" data-name="Rectángulo 33812" width="5.945" height="9.96" fill="#f9fafe"/>
      </g>
    </g>
    <g id="Grupo_82992" data-name="Grupo 82992" transform="translate(92.782 230.492)">
      <rect id="Rectángulo_33813" data-name="Rectángulo 33813" width="20.555" height="37.816" transform="translate(0)" fill="#37b997"/>
      <rect id="Rectángulo_33814" data-name="Rectángulo 33814" width="8.766" height="37.816" transform="translate(20.555)" fill="#2ba580"/>
      <rect id="Rectángulo_33815" data-name="Rectángulo 33815" width="20.555" height="10.414" transform="translate(0 16.084)" fill="#ffbd6f"/>
      <rect id="Rectángulo_33816" data-name="Rectángulo 33816" width="20.555" height="1.994" transform="translate(0 11.72)" fill="#fdfdfd"/>
      <rect id="Rectángulo_33817" data-name="Rectángulo 33817" width="8.766" height="10.414" transform="translate(20.555 16.084)" fill="#f5a755"/>
      <rect id="Rectángulo_33818" data-name="Rectángulo 33818" width="8.766" height="1.994" transform="translate(20.555 11.72)" fill="#e6e6e6"/>
    </g>
    <g id="Grupo_82993" data-name="Grupo 82993" transform="translate(118.426 240.556)">
      <rect id="Rectángulo_33819" data-name="Rectángulo 33819" width="44.737" height="27.784" fill="#fdfdfd"/>
      <rect id="Rectángulo_33820" data-name="Rectángulo 33820" width="7.859" height="27.784" transform="translate(36.878)" fill="#e8e8e8"/>
      <path id="Trazado_113575" data-name="Trazado 113575" d="M130.563,293.25l36.878,5.441V308.6H130.563Z" transform="translate(-130.563 -280.816)" fill="#fd6c71"/>
      <path id="Trazado_113576" data-name="Trazado 113576" d="M130.563,292.386l36.878,5.441v-3.983L130.563,288.8Z" transform="translate(-130.563 -279.953)" fill="#ffbd6f"/>
      <rect id="Rectángulo_33821" data-name="Rectángulo 33821" width="7.859" height="9.909" transform="translate(36.878 17.875)" fill="#e66266"/>
      <rect id="Rectángulo_33822" data-name="Rectángulo 33822" width="7.859" height="3.983" transform="translate(36.878 13.892)" fill="#f5a755"/>
      <rect id="Rectángulo_33823" data-name="Rectángulo 33823" width="9.27" height="1.119" transform="translate(24.4 3.993)" fill="#2c1817"/>
      <rect id="Rectángulo_33824" data-name="Rectángulo 33824" width="4.43" height="1.119" transform="translate(18.643 3.993)" fill="#2c1817"/>
      <rect id="Rectángulo_33825" data-name="Rectángulo 33825" width="6.11" height="1.119" transform="translate(27.56 6.579)" fill="#2c1817"/>
      <rect id="Rectángulo_33826" data-name="Rectángulo 33826" width="4.416" height="1.119" transform="translate(21.917 6.579)" fill="#2c1817"/>
    </g>
    <g id="Grupo_82994" data-name="Grupo 82994" transform="translate(124.622 203.924)">
      <rect id="Rectángulo_33827" data-name="Rectángulo 33827" width="22.839" height="29.311" rx="6.93" transform="translate(0 7.321)" fill="#bf5b06"/>
      <path id="Trazado_113577" data-name="Trazado 113577" d="M145.881,237.786h10.264a.7.7,0,0,0,.7-.7v-2.634a2.071,2.071,0,0,0-2.071-2.071h-7.525a2.071,2.071,0,0,0-2.071,2.071v2.634A.7.7,0,0,0,145.881,237.786Z" transform="translate(-139.594 -232.38)" fill="#2c1817"/>
      <rect id="Rectángulo_33828" data-name="Rectángulo 33828" width="4.769" height="13.852" transform="translate(0 15.941)" fill="#ffbd6f"/>
      <rect id="Rectángulo_33829" data-name="Rectángulo 33829" width="11.419" height="13.852" transform="translate(11.419 15.941)" fill="#ffbd6f"/>
      <path id="Trazado_113578" data-name="Trazado 113578" d="M161.272,267.774h0V244.667h0a3.16,3.16,0,0,1,3.16,3.16v16.787A3.16,3.16,0,0,1,161.272,267.774Z" transform="translate(-142.715 -234.763)" fill="#fff" opacity="0.1"/>
      <path id="Trazado_113579" data-name="Trazado 113579" d="M158.507,275.613c0,.5-3.591.905-8.02.905s-8.02-.405-8.02-.905,3.591-.905,8.02-.905S158.507,275.113,158.507,275.613Z" transform="translate(-139.068 -240.589)" fill="#fff" opacity="0.1"/>
    </g>
    <path id="Trazado_113580" data-name="Trazado 113580" d="M155.889,241h-9.751a.958.958,0,0,1-.958-.957h0a.958.958,0,0,1,.958-.958h9.751a.958.958,0,0,1,.958.958h0A.958.958,0,0,1,155.889,241Z" transform="translate(-14.972 -29.756)" fill="#bf5b06"/>
    <g id="Grupo_82998" data-name="Grupo 82998" transform="translate(67.976 264.711)">
      <rect id="Rectángulo_33830" data-name="Rectángulo 33830" width="267.616" height="136.869" transform="translate(12.917 18.064)" fill="#e8e8e8"/>
      <g id="Grupo_82995" data-name="Grupo 82995" transform="translate(12.917 18.064)" opacity="0.1">
        <rect id="Rectángulo_33831" data-name="Rectángulo 33831" width="267.616" height="15.152" fill="#3c3443"/>
      </g>
      <rect id="Rectángulo_33832" data-name="Rectángulo 33832" width="293.449" height="14.468" transform="translate(0 3.596)" fill="#fdfdfd"/>
      <rect id="Rectángulo_33833" data-name="Rectángulo 33833" width="126.676" height="28.38" transform="translate(83.386)" fill="#539fff"/>
      <g id="Grupo_82997" data-name="Grupo 82997" transform="translate(83.386 28.38)" opacity="0.1">
        <rect id="Rectángulo_33834" data-name="Rectángulo 33834" width="126.676" height="10.882" transform="translate(0)" fill="#3c3443"/>
      </g>
    </g>
  </g>
</svg>
