<svg xmlns="http://www.w3.org/2000/svg" xmlns:xlink="http://www.w3.org/1999/xlink" width="504.326" height="319.416" viewBox="0 0 504.326 319.416">
  <defs>
    <clipPath id="clip-path">
      <rect id="BG" width="504.326" height="319.416" transform="translate(285 2886)" fill="#e8e8e8" opacity="0.949"/>
    </clipPath>
  </defs>
  <g id="Enmascarar_grupo_53" data-name="Enmascarar grupo 53" transform="translate(-285 -2886)" clip-path="url(#clip-path)">
    <g id="Grupo_86298" data-name="Grupo 86298" transform="translate(180 2665)">
      <g id="Ñëîé_1" data-name="Ñëîé 1" transform="translate(0 221)">
        <rect id="Rectángulo_35104" data-name="Rectángulo 35104" width="667" height="340" fill="#212121"/>
      </g>
      <g id="Ñëîé_12" data-name="Ñëîé 12" transform="translate(28.657 238.306)">
        <g id="Grupo_86363" data-name="Grupo 86363">
          <g id="Grupo_86358" data-name="Grupo 86358">
            <rect id="Rectángulo_35115" data-name="Rectángulo 35115" width="97.489" height="144.916" rx="4.441" fill="#ffd03c"/>
          </g>
          <g id="Grupo_86359" data-name="Grupo 86359" transform="translate(3.029 3.03)">
            <path id="Trazado_159966" data-name="Trazado 159966" d="M109.24,373.572H24.925a3.563,3.563,0,0,1-3.558-3.559V238.269a3.561,3.561,0,0,1,3.558-3.556H109.24a3.561,3.561,0,0,1,3.556,3.556V370.013A3.562,3.562,0,0,1,109.24,373.572ZM24.925,236.558a1.714,1.714,0,0,0-1.713,1.711V370.013a1.715,1.715,0,0,0,1.713,1.713H109.24a1.713,1.713,0,0,0,1.711-1.713V238.269a1.713,1.713,0,0,0-1.711-1.711Z" transform="translate(-21.367 -234.713)" fill="#212121"/>
          </g>
          <g id="Grupo_86360" data-name="Grupo 86360" transform="translate(24.42 95.068)">
            <path id="Trazado_159967" data-name="Trazado 159967" d="M56.266,319.588H51.742L40.642,301.6h-.123l.077,1q.216,2.872.217,5.25v11.733H37.461V297.017h4.477l11.07,17.893H53.1q-.031-.356-.123-2.586t-.092-3.482V297.017h3.381Z" transform="translate(-34.984 -296.661)" fill="#212121"/>
            <path id="Trazado_159968" data-name="Trazado 159968" d="M74.561,308.387q0,5.512-2.755,8.569T64,320.012q-5.11,0-7.851-3.034t-2.739-8.62q0-5.59,2.755-8.585t7.866-3q5.032,0,7.781,3.042T74.561,308.387Zm-17.229,0q0,4.169,1.683,6.322A5.935,5.935,0,0,0,64,316.862a5.927,5.927,0,0,0,4.963-2.13q1.675-2.129,1.676-6.346,0-4.153-1.659-6.3a5.875,5.875,0,0,0-4.949-2.144,6,6,0,0,0-5.009,2.144Q57.332,304.234,57.332,308.387Z" transform="translate(-27.281 -296.777)" fill="#212121"/>
            <path id="Trazado_159969" data-name="Trazado 159969" d="M40.608,321.208a1.892,1.892,0,0,1-.727,1.575,3.155,3.155,0,0,1-2,.571,4.751,4.751,0,0,1-2.088-.4v-1.163a5.471,5.471,0,0,0,1.093.381,4.587,4.587,0,0,0,1.078.139,1.715,1.715,0,0,0,1.078-.279.905.905,0,0,0,.347-.746.933.933,0,0,0-.319-.715,4.836,4.836,0,0,0-1.318-.7,3.479,3.479,0,0,1-1.45-.951,2.014,2.014,0,0,1-.421-1.287,1.8,1.8,0,0,1,.667-1.483,2.786,2.786,0,0,1,1.8-.54,5.27,5.27,0,0,1,2.15.475l-.392,1a4.712,4.712,0,0,0-1.79-.421,1.373,1.373,0,0,0-.906.26.852.852,0,0,0-.308.687.975.975,0,0,0,.123.5,1.276,1.276,0,0,0,.406.393,6.681,6.681,0,0,0,1.019.488,5.543,5.543,0,0,1,1.215.645,1.881,1.881,0,0,1,.566.673A2.029,2.029,0,0,1,40.608,321.208Z" transform="translate(-35.791 -287.677)" fill="#212121"/>
            <path id="Trazado_159970" data-name="Trazado 159970" d="M43.272,323.216l-2.181-6.285h-.042q.089,1.4.087,2.625v3.66H40.02v-7.524h1.735l2.089,5.985h.031l2.15-5.985h1.74v7.524H46.582V319.5c0-.374.009-.862.028-1.461s.036-.965.049-1.093h-.042l-2.259,6.274Z" transform="translate(-33.749 -287.642)" fill="#212121"/>
            <path id="Trazado_159971" data-name="Trazado 159971" d="M53.379,319.482a4.108,4.108,0,0,1-.918,2.855,3.859,3.859,0,0,1-5.219.009,4.138,4.138,0,0,1-.914-2.874,4.081,4.081,0,0,1,.919-2.862,3.386,3.386,0,0,1,2.622-1,3.311,3.311,0,0,1,2.592,1.014A4.111,4.111,0,0,1,53.379,319.482Zm-5.744,0a3.365,3.365,0,0,0,.562,2.107,2.282,2.282,0,0,0,3.316.007,4.271,4.271,0,0,0,.006-4.215,1.955,1.955,0,0,0-1.649-.715,2,2,0,0,0-1.671.715A3.347,3.347,0,0,0,47.635,319.482Z" transform="translate(-30.702 -287.68)" fill="#212121"/>
            <path id="Trazado_159972" data-name="Trazado 159972" d="M57.915,323.216H56.49l-2.362-3.406-.725.59v2.816H52.173v-7.524H53.4v3.592c.337-.411.67-.808,1-1.188l2.032-2.4h1.4q-1.971,2.316-2.825,3.3Z" transform="translate(-27.879 -287.642)" fill="#212121"/>
            <path id="Trazado_159973" data-name="Trazado 159973" d="M56.715,323.216v-7.524h1.229v7.524Z" transform="translate(-25.685 -287.642)" fill="#212121"/>
            <path id="Trazado_159974" data-name="Trazado 159974" d="M65.152,323.216H63.644l-3.7-6H59.9l.025.334q.073.959.073,1.75v3.912H58.884v-7.524h1.493l3.688,5.964H64.1c-.006-.078-.019-.366-.04-.862s-.031-.882-.031-1.16v-3.943h1.127Z" transform="translate(-24.638 -287.642)" fill="#212121"/>
            <path id="Trazado_159975" data-name="Trazado 159975" d="M67.649,319.171h2.769v3.776a8.017,8.017,0,0,1-1.305.314,8.961,8.961,0,0,1-1.351.093,3.4,3.4,0,0,1-2.635-1.011,4.075,4.075,0,0,1-.925-2.855,3.8,3.8,0,0,1,1.044-2.843,3.928,3.928,0,0,1,2.877-1.026,5.6,5.6,0,0,1,2.233.454l-.432,1.023a4.365,4.365,0,0,0-1.833-.421,2.469,2.469,0,0,0-1.9.756,2.93,2.93,0,0,0-.7,2.067,3.1,3.1,0,0,0,.63,2.1,2.288,2.288,0,0,0,1.815.718,5.872,5.872,0,0,0,1.275-.15v-1.938H67.649Z" transform="translate(-22.07 -287.677)" fill="#212121"/>
          </g>
          <g id="Grupo_86361" data-name="Grupo 86361" transform="translate(9.222 9.22)">
            <path id="Trazado_159976" data-name="Trazado 159976" d="M84.559,263.145l-.292-.374L49.426,297.611l.374.294a24.856,24.856,0,0,0,15.289,5.272,24.75,24.75,0,0,0,19.47-40.031Zm-19.1,21.331,6.381-6.383H84.651v6.383Zm14.87-25.559a24.879,24.879,0,0,0-15.289-5.273,24.752,24.752,0,0,0-19.47,40.03l.292.375L80.7,259.21ZM45.478,274.9c0-5.514,2.951-7.222,5.552-8.732,2.247-1.3,4.023-2.331,4.023-5.631a.876.876,0,1,1,1.753,0c0,4.312-2.6,5.821-4.9,7.149-2.4,1.4-4.676,2.712-4.676,7.213a.877.877,0,0,1-1.754,0Zm5.665,9.573H46.358v-6.383h4.786Zm1.6-.2v-6.179h6.18Zm3.3-15c-2.247,1.3-4.022,2.331-4.022,5.635a.879.879,0,0,1-1.757,0c0-4.317,2.6-5.822,4.9-7.154,2.405-1.394,4.677-2.711,4.677-7.209a.876.876,0,1,1,1.751,0C61.592,266.053,58.646,267.76,56.043,269.268Zm9.022-30.381a39.524,39.524,0,1,0,39.524,39.521A39.522,39.522,0,0,0,65.065,238.887Zm21.083,60.606a29.814,29.814,0,1,1,0-42.165A29.614,29.614,0,0,1,86.149,299.493Z" transform="translate(-25.543 -238.887)" fill="#212121"/>
          </g>
          <g id="Grupo_86362" data-name="Grupo 86362" transform="translate(48.746 0)" opacity="0.1">
            <path id="Trazado_159977" data-name="Trazado 159977" d="M94.351,232.67H52.2V377.587H94.351A6.593,6.593,0,0,0,100.939,371V239.256A6.594,6.594,0,0,0,94.351,232.67Z" transform="translate(-52.195 -232.67)" fill="#151516"/>
          </g>
        </g>
      </g>
      <g id="Ñëîé_13" data-name="Ñëîé 13" transform="translate(157.288 238.306)">
        <g id="Grupo_86369" data-name="Grupo 86369">
          <g id="Grupo_86364" data-name="Grupo 86364">
            <path id="Rectángulo_35116" data-name="Rectángulo 35116" d="M4.441,0H93.049A4.441,4.441,0,0,1,97.49,4.441V140.474a4.442,4.442,0,0,1-4.442,4.442H4.441A4.441,4.441,0,0,1,0,140.475V4.441A4.441,4.441,0,0,1,4.441,0Z" fill="#ffd03c"/>
          </g>
          <g id="Grupo_86365" data-name="Grupo 86365" transform="translate(3.029 3.03)">
            <path id="Trazado_159978" data-name="Trazado 159978" d="M195.979,373.572H111.664a3.564,3.564,0,0,1-3.558-3.559V238.269a3.562,3.562,0,0,1,3.558-3.556h84.315a3.561,3.561,0,0,1,3.558,3.556V370.013A3.563,3.563,0,0,1,195.979,373.572ZM111.664,236.558a1.713,1.713,0,0,0-1.711,1.711V370.013a1.713,1.713,0,0,0,1.711,1.713h84.315a1.715,1.715,0,0,0,1.713-1.713V238.269a1.714,1.714,0,0,0-1.713-1.711Z" transform="translate(-108.106 -234.713)" fill="#212121"/>
          </g>
          <g id="Grupo_86366" data-name="Grupo 86366" transform="translate(14.277 95.619)">
            <path id="Trazado_159979" data-name="Trazado 159979" d="M121.047,298.742a3.036,3.036,0,0,0-2.5,1.126,5.914,5.914,0,0,0-.036,6.254,3.094,3.094,0,0,0,2.536,1.065,6.682,6.682,0,0,0,1.39-.142q.672-.142,1.4-.368v1.584a8.5,8.5,0,0,1-3.012.5,4.813,4.813,0,0,1-3.805-1.5,6.282,6.282,0,0,1-1.327-4.3,6.952,6.952,0,0,1,.644-3.08,4.6,4.6,0,0,1,1.866-2.023,5.634,5.634,0,0,1,2.864-.7,7.11,7.11,0,0,1,3.2.725l-.664,1.538a9.983,9.983,0,0,0-1.209-.476A4.39,4.39,0,0,0,121.047,298.742Z" transform="translate(-115.691 -297.143)" fill="#212121"/>
            <path id="Trazado_159980" data-name="Trazado 159980" d="M130.308,308.569l-1.127-3.133h-4.315l-1.1,3.133h-1.946l4.223-11.333h2.006l4.222,11.333Zm-1.612-4.725-1.059-3.073q-.116-.309-.32-.971t-.282-.973a17.32,17.32,0,0,1-.609,2.076l-1.019,2.941Z" transform="translate(-112.732 -297.105)" fill="#212121"/>
            <path id="Trazado_159981" data-name="Trazado 159981" d="M138.749,297.268v7.3a4.353,4.353,0,0,1-.535,2.189,3.588,3.588,0,0,1-1.553,1.443,5.4,5.4,0,0,1-2.428.506,4.54,4.54,0,0,1-3.265-1.112,4.021,4.021,0,0,1-1.166-3.056v-7.271h1.852v7.14a2.852,2.852,0,0,0,.65,2.061,2.672,2.672,0,0,0,1.99.663q2.609,0,2.61-2.741v-7.124Z" transform="translate(-108.876 -297.09)" fill="#212121"/>
            <path id="Trazado_159982" data-name="Trazado 159982" d="M142.093,308.553h-1.846v-9.7h-3.319v-1.582h8.484v1.582h-3.319Z" transform="translate(-105.434 -297.09)" fill="#212121"/>
            <path id="Trazado_159983" data-name="Trazado 159983" d="M143.815,308.553V297.268h1.845v11.285Z" transform="translate(-102.108 -297.09)" fill="#212121"/>
            <path id="Trazado_159984" data-name="Trazado 159984" d="M157.269,302.954a6.162,6.162,0,0,1-1.378,4.283,5.789,5.789,0,0,1-7.827.012,6.209,6.209,0,0,1-1.37-4.311,6.111,6.111,0,0,1,1.378-4.292,5.071,5.071,0,0,1,3.933-1.5,4.97,4.97,0,0,1,3.89,1.522A6.162,6.162,0,0,1,157.269,302.954Zm-8.615,0a5.063,5.063,0,0,0,.841,3.16,3.425,3.425,0,0,0,4.975.012,6.406,6.406,0,0,0,.007-6.322A2.931,2.931,0,0,0,152,298.73a2.993,2.993,0,0,0-2.5,1.074A5.01,5.01,0,0,0,148.654,302.954Z" transform="translate(-100.718 -297.148)" fill="#212121"/>
            <path id="Trazado_159985" data-name="Trazado 159985" d="M164.862,308.553H162.6l-5.549-8.993h-.062l.04.5q.107,1.437.107,2.625v5.867h-1.676V297.268H157.7l5.536,8.947h.046c-.01-.119-.031-.549-.062-1.293s-.046-1.324-.046-1.741v-5.913h1.691Z" transform="translate(-96.485 -297.09)" fill="#212121"/>
            <path id="Trazado_159986" data-name="Trazado 159986" d="M121.494,312.852v3h-1.229v-7.523h2.125a3.5,3.5,0,0,1,2.156.544,1.964,1.964,0,0,1,.7,1.648,2.058,2.058,0,0,1-1.461,2l2.125,3.329h-1.4l-1.8-3Zm0-1.02h.854a1.959,1.959,0,0,0,1.246-.317,1.163,1.163,0,0,0,.386-.948,1.021,1.021,0,0,0-.417-.916,2.3,2.3,0,0,0-1.256-.277h-.813Z" transform="translate(-113.482 -291.746)" fill="#212121"/>
            <path id="Trazado_159987" data-name="Trazado 159987" d="M129.8,315.867l-.752-2.089H126.17l-.736,2.089h-1.3l2.816-7.556h1.336l2.816,7.556Zm-1.077-3.15-.7-2.048q-.078-.2-.214-.648c-.092-.294-.154-.512-.188-.649a11.68,11.68,0,0,1-.406,1.385l-.679,1.961Z" transform="translate(-111.612 -291.757)" fill="#212121"/>
            <path id="Trazado_159988" data-name="Trazado 159988" d="M135.625,312.023a3.752,3.752,0,0,1-1.035,2.849,4.155,4.155,0,0,1-2.979.985h-2.1v-7.523h2.325a3.843,3.843,0,0,1,2.794.967A3.615,3.615,0,0,1,135.625,312.023Zm-1.3.042q0-2.7-2.527-2.7h-1.065v5.462h.875A2.42,2.42,0,0,0,134.327,312.064Z" transform="translate(-109.019 -291.746)" fill="#212121"/>
            <path id="Trazado_159989" data-name="Trazado 159989" d="M134.722,315.856v-7.523h1.229v7.523Z" transform="translate(-106.5 -291.746)" fill="#212121"/>
            <path id="Trazado_159990" data-name="Trazado 159990" d="M141.881,315.867l-.752-2.089h-2.877l-.736,2.089h-1.3l2.815-7.556h1.338l2.815,7.556Zm-1.077-3.15-.7-2.048c-.05-.136-.123-.353-.214-.648s-.153-.512-.188-.649a11.15,11.15,0,0,1-.406,1.385l-.679,1.961Z" transform="translate(-105.776 -291.757)" fill="#212121"/>
            <path id="Trazado_159991" data-name="Trazado 159991" d="M144.463,315.856h-1.231v-6.469H141.02v-1.054h5.656v1.054h-2.213Z" transform="translate(-103.458 -291.746)" fill="#212121"/>
            <path id="Trazado_159992" data-name="Trazado 159992" d="M145.611,315.856v-7.523h1.229v7.523Z" transform="translate(-101.241 -291.746)" fill="#212121"/>
            <path id="Trazado_159993" data-name="Trazado 159993" d="M154.582,312.122a4.113,4.113,0,0,1-.919,2.856,3.859,3.859,0,0,1-5.219.009,4.142,4.142,0,0,1-.914-2.875,4.079,4.079,0,0,1,.919-2.861,3.386,3.386,0,0,1,2.622-1,3.31,3.31,0,0,1,2.592,1.013A4.107,4.107,0,0,1,154.582,312.122Zm-5.744,0a3.372,3.372,0,0,0,.561,2.107,2.28,2.28,0,0,0,3.316.009,4.273,4.273,0,0,0,.006-4.216,1.956,1.956,0,0,0-1.649-.713,2,2,0,0,0-1.671.713A3.36,3.36,0,0,0,148.838,312.122Z" transform="translate(-100.314 -291.785)" fill="#212121"/>
            <path id="Trazado_159994" data-name="Trazado 159994" d="M159.642,315.856h-1.508l-3.7-6h-.042l.025.335q.073.959.073,1.75v3.911h-1.117v-7.523h1.492l3.69,5.963h.031c-.007-.077-.021-.366-.042-.862s-.03-.881-.03-1.16v-3.942h1.127Z" transform="translate(-97.492 -291.746)" fill="#212121"/>
            <path id="Trazado_159995" data-name="Trazado 159995" d="M135.641,324.4l-.752-2.091h-2.877l-.736,2.091h-1.3l2.816-7.556h1.338l2.815,7.556Zm-1.077-3.151-.7-2.046q-.078-.207-.214-.65c-.09-.294-.153-.512-.188-.648a11.373,11.373,0,0,1-.406,1.384l-.679,1.96Z" transform="translate(-108.79 -287.638)" fill="#212121"/>
            <path id="Trazado_159996" data-name="Trazado 159996" d="M136.577,321.38v3.006h-1.229v-7.525h2.125a3.5,3.5,0,0,1,2.156.544,1.965,1.965,0,0,1,.7,1.649,2.061,2.061,0,0,1-1.461,2l2.125,3.329h-1.4l-1.8-3.006Zm0-1.019h.854a1.953,1.953,0,0,0,1.246-.319,1.159,1.159,0,0,0,.386-.948,1.018,1.018,0,0,0-.417-.917,2.3,2.3,0,0,0-1.255-.276h-.814Z" transform="translate(-106.197 -287.627)" fill="#212121"/>
            <path id="Trazado_159997" data-name="Trazado 159997" d="M144.146,324.386h-4.255v-7.525h4.255V317.9H141.12v2.046h2.835v1.031H141.12v2.361h3.025Z" transform="translate(-104.003 -287.627)" fill="#212121"/>
            <path id="Trazado_159998" data-name="Trazado 159998" d="M148.847,324.4l-.75-2.091H145.22l-.737,2.091h-1.3L146,316.84h1.338l2.816,7.556Zm-1.075-3.151-.7-2.046q-.078-.207-.214-.65c-.092-.294-.154-.512-.188-.648a11.647,11.647,0,0,1-.406,1.384l-.679,1.96Z" transform="translate(-102.411 -287.638)" fill="#212121"/>
          </g>
          <g id="Grupo_86367" data-name="Grupo 86367" transform="translate(9.222 9.22)">
            <path id="Trazado_159999" data-name="Trazado 159999" d="M151.806,238.887a39.522,39.522,0,1,0,39.522,39.521A39.524,39.524,0,0,0,151.806,238.887Zm0,69.759a30.235,30.235,0,1,1,30.232-30.238A30.235,30.235,0,0,1,151.806,308.646Zm0-23.146a7.026,7.026,0,0,1-2.892-.623l-9.488,16.446a26.048,26.048,0,0,0,26.017-.74l-9.486-16.437A7.057,7.057,0,0,1,151.806,285.5Zm-2.892-13.556L139.426,255.5a26.041,26.041,0,0,0-13.655,22.91h18.946A7.092,7.092,0,0,1,148.914,271.944Zm16.529-15.708-9.486,16.439a7.08,7.08,0,0,1,2.936,5.733h18.946A25.993,25.993,0,0,0,165.443,256.236Zm-18.678,22.172a5.039,5.039,0,1,0,5.041-5.036A5.042,5.042,0,0,0,146.765,278.408Z" transform="translate(-112.282 -238.887)" fill="#212121"/>
          </g>
          <g id="Grupo_86368" data-name="Grupo 86368" transform="translate(48.747 0)" opacity="0.1">
            <path id="Trazado_160000" data-name="Trazado 160000" d="M181.09,232.67H138.935V377.587H181.09A6.6,6.6,0,0,0,187.679,371V239.256A6.6,6.6,0,0,0,181.09,232.67Z" transform="translate(-138.935 -232.67)" fill="#151516"/>
          </g>
        </g>
      </g>
      <g id="Ñëîé_14" data-name="Ñëîé 14" transform="translate(285.921 238.306)">
        <g id="Grupo_86375" data-name="Grupo 86375">
          <g id="Grupo_86370" data-name="Grupo 86370">
            <path id="Rectángulo_35117" data-name="Rectángulo 35117" d="M4.442,0H93.049A4.441,4.441,0,0,1,97.49,4.441V140.475a4.441,4.441,0,0,1-4.441,4.441H4.441A4.441,4.441,0,0,1,0,140.475V4.442A4.442,4.442,0,0,1,4.442,0Z" fill="#ffd03c"/>
          </g>
          <g id="Grupo_86371" data-name="Grupo 86371" transform="translate(3.032 3.03)">
            <path id="Trazado_160001" data-name="Trazado 160001" d="M282.719,373.572H198.4a3.562,3.562,0,0,1-3.556-3.559V238.269a3.561,3.561,0,0,1,3.556-3.556h84.315a3.561,3.561,0,0,1,3.558,3.556V370.013A3.563,3.563,0,0,1,282.719,373.572ZM198.4,236.558a1.713,1.713,0,0,0-1.711,1.711V370.013a1.713,1.713,0,0,0,1.711,1.713h84.315a1.715,1.715,0,0,0,1.713-1.713V238.269a1.714,1.714,0,0,0-1.713-1.711Z" transform="translate(-194.848 -234.713)" fill="#212121"/>
          </g>
          <g id="Grupo_86372" data-name="Grupo 86372" transform="translate(14.277 98.254)">
            <path id="Trazado_160002" data-name="Trazado 160002" d="M207.787,300.517a3.041,3.041,0,0,0-2.5,1.127,5.919,5.919,0,0,0-.036,6.252,3.094,3.094,0,0,0,2.536,1.065,6.776,6.776,0,0,0,1.39-.141c.449-.1.915-.218,1.4-.368v1.582a8.46,8.46,0,0,1-3.01.5,4.81,4.81,0,0,1-3.805-1.5,6.273,6.273,0,0,1-1.329-4.295,6.939,6.939,0,0,1,.645-3.082,4.61,4.61,0,0,1,1.864-2.023,5.649,5.649,0,0,1,2.864-.7,7.11,7.11,0,0,1,3.2.725l-.664,1.536a9.806,9.806,0,0,0-1.207-.475A4.355,4.355,0,0,0,207.787,300.517Z" transform="translate(-202.431 -298.92)" fill="#212121"/>
            <path id="Trazado_160003" data-name="Trazado 160003" d="M217.049,310.344l-1.129-3.134h-4.314l-1.1,3.134h-1.944l4.222-11.331h2.006l4.222,11.331Zm-1.613-4.723-1.059-3.073q-.116-.309-.319-.973c-.138-.443-.231-.767-.283-.973a16.978,16.978,0,0,1-.61,2.076l-1.019,2.942Z" transform="translate(-199.472 -298.882)" fill="#212121"/>
            <path id="Trazado_160004" data-name="Trazado 160004" d="M225.489,299.044v7.3a4.335,4.335,0,0,1-.535,2.187,3.588,3.588,0,0,1-1.553,1.443,5.377,5.377,0,0,1-2.428.507,4.534,4.534,0,0,1-3.264-1.112,4.02,4.02,0,0,1-1.167-3.058v-7.271h1.852v7.14a2.852,2.852,0,0,0,.65,2.061,2.674,2.674,0,0,0,1.992.663q2.609,0,2.609-2.739v-7.126Z" transform="translate(-195.616 -298.867)" fill="#212121"/>
            <path id="Trazado_160005" data-name="Trazado 160005" d="M228.833,310.329h-1.845v-9.7h-3.319v-1.582h8.484v1.582h-3.32Z" transform="translate(-192.174 -298.867)" fill="#212121"/>
            <path id="Trazado_160006" data-name="Trazado 160006" d="M230.556,310.329V299.044H232.4v11.285Z" transform="translate(-188.848 -298.867)" fill="#212121"/>
            <path id="Trazado_160007" data-name="Trazado 160007" d="M244.008,304.729a6.175,6.175,0,0,1-1.376,4.284,5.789,5.789,0,0,1-7.829.01,6.206,6.206,0,0,1-1.369-4.311,6.111,6.111,0,0,1,1.376-4.29,5.076,5.076,0,0,1,3.934-1.5,4.982,4.982,0,0,1,3.891,1.52A6.173,6.173,0,0,1,244.008,304.729Zm-8.613,0a5.061,5.061,0,0,0,.841,3.162,3.427,3.427,0,0,0,4.975.01,6.411,6.411,0,0,0,.009-6.322,2.936,2.936,0,0,0-2.475-1.074,2.993,2.993,0,0,0-2.5,1.074A5,5,0,0,0,235.394,304.729Z" transform="translate(-187.458 -298.925)" fill="#212121"/>
            <path id="Trazado_160008" data-name="Trazado 160008" d="M251.6,310.329h-2.262l-5.551-8.993h-.062l.04.5q.109,1.435.107,2.623v5.867H242.2V299.044h2.239l5.533,8.947h.047c-.01-.119-.031-.549-.061-1.293s-.047-1.323-.047-1.741v-5.913H251.6Z" transform="translate(-183.225 -298.867)" fill="#212121"/>
            <path id="Trazado_160009" data-name="Trazado 160009" d="M206.227,314.628v3.006H205v-7.525h2.125a3.488,3.488,0,0,1,2.156.546,1.964,1.964,0,0,1,.7,1.648,2.059,2.059,0,0,1-1.461,2l2.125,3.329h-1.4l-1.8-3.006Zm0-1.019h.854a1.958,1.958,0,0,0,1.246-.319,1.163,1.163,0,0,0,.386-.948,1.021,1.021,0,0,0-.417-.916,2.3,2.3,0,0,0-1.256-.277h-.813Z" transform="translate(-201.191 -293.524)" fill="#212121"/>
            <path id="Trazado_160010" data-name="Trazado 160010" d="M209.54,317.634v-7.525h1.229v7.525Z" transform="translate(-198.998 -293.524)" fill="#212121"/>
            <path id="Trazado_160011" data-name="Trazado 160011" d="M216.2,315.625a1.9,1.9,0,0,1-.725,1.575,3.155,3.155,0,0,1-2,.571,4.754,4.754,0,0,1-2.09-.4v-1.163a5.508,5.508,0,0,0,1.093.381,4.609,4.609,0,0,0,1.08.139,1.718,1.718,0,0,0,1.078-.279.9.9,0,0,0,.346-.746.936.936,0,0,0-.317-.715,4.834,4.834,0,0,0-1.318-.7,3.486,3.486,0,0,1-1.452-.951,2.022,2.022,0,0,1-.421-1.287,1.805,1.805,0,0,1,.669-1.483,2.785,2.785,0,0,1,1.8-.54,5.3,5.3,0,0,1,2.152.473l-.391,1a4.718,4.718,0,0,0-1.791-.421,1.371,1.371,0,0,0-.9.26.852.852,0,0,0-.308.687.961.961,0,0,0,.123.5,1.278,1.278,0,0,0,.406.393,6.683,6.683,0,0,0,1.019.488,5.576,5.576,0,0,1,1.215.645,1.881,1.881,0,0,1,.566.673A2.029,2.029,0,0,1,216.2,315.625Z" transform="translate(-198.106 -293.559)" fill="#212121"/>
            <path id="Trazado_160012" data-name="Trazado 160012" d="M221.36,317.634h-1.427l-2.361-3.406-.727.59v2.816h-1.229v-7.525h1.229V313.7q.5-.616,1-1.189l2.033-2.4h1.4q-1.969,2.316-2.824,3.3Z" transform="translate(-196.063 -293.524)" fill="#212121"/>
            <path id="Trazado_160013" data-name="Trazado 160013" d="M228.805,313.9a4.117,4.117,0,0,1-.918,2.856,3.861,3.861,0,0,1-5.219.007,4.138,4.138,0,0,1-.914-2.874,4.08,4.08,0,0,1,.918-2.862,3.389,3.389,0,0,1,2.623-1,3.32,3.32,0,0,1,2.594,1.014A4.115,4.115,0,0,1,228.805,313.9Zm-5.743,0a3.365,3.365,0,0,0,.562,2.107,2.282,2.282,0,0,0,3.316.007,4.271,4.271,0,0,0,.006-4.215,1.955,1.955,0,0,0-1.649-.715,1.994,1.994,0,0,0-1.671.715A3.347,3.347,0,0,0,223.062,313.9Z" transform="translate(-193.098 -293.562)" fill="#212121"/>
            <path id="Trazado_160014" data-name="Trazado 160014" d="M228.818,317.634H227.6v-7.525h4.244v1.04h-3.025V313.5h2.835v1.044h-2.835Z" transform="translate(-190.276 -293.524)" fill="#212121"/>
            <path id="Trazado_160015" data-name="Trazado 160015" d="M234.446,317.634h-1.219v-7.525h4.244v1.04h-3.025V313.5h2.835v1.044h-2.835Z" transform="translate(-187.558 -293.524)" fill="#212121"/>
            <path id="Trazado_160016" data-name="Trazado 160016" d="M237.009,317.634v-7.525h1.229v7.525Z" transform="translate(-185.731 -293.524)" fill="#212121"/>
            <path id="Trazado_160017" data-name="Trazado 160017" d="M240.407,314.628v3.006h-1.229v-7.525H241.3a3.479,3.479,0,0,1,2.156.546,1.961,1.961,0,0,1,.7,1.648,2.061,2.061,0,0,1-1.462,2l2.125,3.329h-1.4l-1.8-3.006Zm0-1.019h.854a1.955,1.955,0,0,0,1.246-.319,1.158,1.158,0,0,0,.386-.948,1.018,1.018,0,0,0-.417-.916,2.292,2.292,0,0,0-1.255-.277h-.814Z" transform="translate(-184.684 -293.524)" fill="#212121"/>
            <path id="Trazado_160018" data-name="Trazado 160018" d="M247.977,317.634h-4.256v-7.525h4.256v1.04H244.95V313.2h2.835v1.031H244.95v2.361h3.027Z" transform="translate(-182.489 -293.524)" fill="#212121"/>
          </g>
          <g id="Grupo_86373" data-name="Grupo 86373" transform="translate(9.223 9.223)">
            <path id="Trazado_160019" data-name="Trazado 160019" d="M238.544,238.889a39.522,39.522,0,1,0,39.525,39.519A39.521,39.521,0,0,0,238.544,238.889Zm0,69.756a30.235,30.235,0,1,1,30.235-30.236A30.233,30.233,0,0,1,238.544,308.645Zm12.578-23.88c.8-12.267-5.746-19.762-14.419-28.725.593,18.234-16.636,16.158-16.636,30.77,0,7.787,5.687,14.453,12.5,17.167a20.024,20.024,0,0,1,6.828-24c-5.03,10.468,8.134,10.468,4.344,23.136,8.379-1.495,18.233-13.459,13.345-27.623A14.4,14.4,0,0,1,251.122,284.764Z" transform="translate(-199.023 -238.889)" fill="#212121"/>
          </g>
          <g id="Grupo_86374" data-name="Grupo 86374" transform="translate(48.748 0)" opacity="0.1">
            <path id="Trazado_160020" data-name="Trazado 160020" d="M267.831,232.67H225.676V377.587h42.155A6.593,6.593,0,0,0,274.418,371V239.256A6.593,6.593,0,0,0,267.831,232.67Z" transform="translate(-225.676 -232.67)" fill="#151516"/>
          </g>
        </g>
      </g>
      <g id="Ñëîé_15" data-name="Ñëîé 15" transform="translate(414.553 238.306)">
        <g id="Grupo_86381" data-name="Grupo 86381">
          <g id="Grupo_86376" data-name="Grupo 86376">
            <rect id="Rectángulo_35118" data-name="Rectángulo 35118" width="97.489" height="144.916" rx="4.441" fill="#ffd03c"/>
          </g>
          <g id="Grupo_86377" data-name="Grupo 86377" transform="translate(3.03 3.03)">
            <path id="Trazado_160021" data-name="Trazado 160021" d="M369.46,373.572H285.143a3.562,3.562,0,0,1-3.556-3.559V238.269a3.561,3.561,0,0,1,3.556-3.556H369.46a3.561,3.561,0,0,1,3.556,3.556V370.013A3.562,3.562,0,0,1,369.46,373.572ZM285.143,236.558a1.714,1.714,0,0,0-1.711,1.711V370.013a1.714,1.714,0,0,0,1.711,1.713H369.46a1.714,1.714,0,0,0,1.711-1.713V238.269a1.714,1.714,0,0,0-1.711-1.711Z" transform="translate(-281.587 -234.713)" fill="#212121"/>
          </g>
          <g id="Grupo_86378" data-name="Grupo 86378" transform="translate(12.014 99.228)">
            <path id="Trazado_160022" data-name="Trazado 160022" d="M294.722,309.1l-.939-2.61h-3.6l-.921,2.61h-1.621l3.521-9.443h1.671l3.519,9.443Zm-1.344-3.936-.882-2.56c-.064-.174-.154-.442-.267-.811s-.193-.639-.234-.811a14.2,14.2,0,0,1-.509,1.731l-.85,2.451Z" transform="translate(-287.645 -299.547)" fill="#212121"/>
            <path id="Trazado_160023" data-name="Trazado 160023" d="M297.948,309.085h-1.536V301h-2.767v-1.318h7.069V301h-2.766Z" transform="translate(-284.748 -299.534)" fill="#212121"/>
            <path id="Trazado_160024" data-name="Trazado 160024" d="M302.974,309.085h-1.536V301h-2.766v-1.318h7.068V301h-2.766Z" transform="translate(-282.319 -299.534)" fill="#212121"/>
            <path id="Trazado_160025" data-name="Trazado 160025" d="M309.731,309.085H304.41v-9.4h5.321v1.3h-3.783v2.56h3.544v1.286h-3.544v2.954h3.783Z" transform="translate(-279.548 -299.534)" fill="#212121"/>
            <path id="Trazado_160026" data-name="Trazado 160026" d="M317.2,309.085h-1.883l-4.625-7.493h-.052l.033.418q.089,1.2.09,2.187v4.888h-1.4v-9.4h1.865l4.612,7.455h.04c-.009-.1-.027-.458-.053-1.078s-.037-1.1-.037-1.45v-4.926H317.2Z" transform="translate(-277.154 -299.534)" fill="#212121"/>
            <path id="Trazado_160027" data-name="Trazado 160027" d="M319.919,309.085h-1.538V301h-2.766v-1.318h7.069V301h-2.766Z" transform="translate(-274.137 -299.534)" fill="#212121"/>
            <path id="Trazado_160028" data-name="Trazado 160028" d="M321.353,309.085v-9.4h1.539v9.4Z" transform="translate(-271.365 -299.534)" fill="#212121"/>
            <path id="Trazado_160029" data-name="Trazado 160029" d="M332.565,304.419a5.143,5.143,0,0,1-1.148,3.57,4.827,4.827,0,0,1-6.523.01,5.179,5.179,0,0,1-1.142-3.593,5.1,5.1,0,0,1,1.148-3.575,4.228,4.228,0,0,1,3.277-1.249,4.149,4.149,0,0,1,3.243,1.266A5.148,5.148,0,0,1,332.565,304.419Zm-7.179,0a4.216,4.216,0,0,0,.7,2.634,2.852,2.852,0,0,0,4.146.01,5.337,5.337,0,0,0,.006-5.269,2.447,2.447,0,0,0-2.063-.894,2.494,2.494,0,0,0-2.087.894A4.184,4.184,0,0,0,325.386,304.419Z" transform="translate(-270.207 -299.582)" fill="#212121"/>
            <path id="Trazado_160030" data-name="Trazado 160030" d="M338.892,309.085h-1.885l-4.625-7.493h-.05l.031.418q.089,1.2.09,2.187v4.888h-1.4v-9.4h1.864l4.613,7.455h.039c-.009-.1-.025-.458-.052-1.078s-.037-1.1-.037-1.45v-4.926h1.407Z" transform="translate(-266.679 -299.534)" fill="#212121"/>
            <path id="Trazado_160031" data-name="Trazado 160031" d="M294.75,313.169a3.759,3.759,0,0,1-1.034,2.849,4.163,4.163,0,0,1-2.981.985h-2.1v-7.525h2.325a3.844,3.844,0,0,1,2.8.968A3.618,3.618,0,0,1,294.75,313.169Zm-1.3.04q0-2.7-2.525-2.7H289.86v5.46h.875A2.42,2.42,0,0,0,293.452,313.209Z" transform="translate(-287.169 -294.803)" fill="#212121"/>
            <path id="Trazado_160032" data-name="Trazado 160032" d="M298.837,317.013l-.752-2.089H295.21l-.737,2.089h-1.3l2.815-7.556h1.338l2.815,7.556Zm-1.075-3.15-.706-2.048c-.05-.138-.122-.353-.214-.65s-.153-.51-.188-.648a11.051,11.051,0,0,1-.406,1.384l-.679,1.962Z" transform="translate(-284.973 -294.813)" fill="#212121"/>
            <path id="Trazado_160033" data-name="Trazado 160033" d="M304.812,317h-1.507l-3.7-6h-.043l.027.334q.071.959.073,1.75V317h-1.117v-7.525h1.492l3.69,5.964h.031c-.006-.079-.021-.366-.042-.862s-.03-.882-.03-1.16v-3.943h1.126Z" transform="translate(-282.381 -294.803)" fill="#212121"/>
            <path id="Trazado_160034" data-name="Trazado 160034" d="M307.309,312.957h2.77v3.777a8.179,8.179,0,0,1-1.3.314,9.166,9.166,0,0,1-1.351.092,3.394,3.394,0,0,1-2.635-1.01,4.073,4.073,0,0,1-.927-2.855,3.807,3.807,0,0,1,1.044-2.843,3.929,3.929,0,0,1,2.878-1.028,5.6,5.6,0,0,1,2.233.454l-.433,1.023a4.36,4.36,0,0,0-1.833-.421,2.466,2.466,0,0,0-1.9.756,2.926,2.926,0,0,0-.7,2.069,3.084,3.084,0,0,0,.632,2.1,2.283,2.283,0,0,0,1.814.718,5.885,5.885,0,0,0,1.277-.15v-1.938h-1.56Z" transform="translate(-279.813 -294.838)" fill="#212121"/>
            <path id="Trazado_160035" data-name="Trazado 160035" d="M313.529,317h-4.258v-7.525h4.258v1.041H310.5v2.047h2.835V313.6H310.5v2.362h3.027Z" transform="translate(-277.2 -294.803)" fill="#212121"/>
            <path id="Trazado_160036" data-name="Trazado 160036" d="M314.467,314V317h-1.229v-7.525h2.125a3.494,3.494,0,0,1,2.156.546,1.965,1.965,0,0,1,.7,1.648,2.06,2.06,0,0,1-1.464,2L318.884,317h-1.4l-1.8-3.006Zm0-1.019h.856a1.941,1.941,0,0,0,1.244-.319,1.156,1.156,0,0,0,.386-.948,1.02,1.02,0,0,0-.415-.917,2.3,2.3,0,0,0-1.256-.276h-.814Z" transform="translate(-275.284 -294.803)" fill="#212121"/>
            <path id="Trazado_160037" data-name="Trazado 160037" d="M324.617,317.013l-.75-2.089H320.99l-.737,2.089h-1.3l2.815-7.556h1.339l2.813,7.556Zm-1.075-3.15-.706-2.048c-.05-.138-.122-.353-.212-.65s-.154-.51-.188-.648a11.34,11.34,0,0,1-.408,1.384l-.679,1.962Z" transform="translate(-272.522 -294.813)" fill="#212121"/>
            <path id="Trazado_160038" data-name="Trazado 160038" d="M325.554,314V317h-1.229v-7.525h2.125a3.494,3.494,0,0,1,2.156.546,1.965,1.965,0,0,1,.7,1.648,2.062,2.062,0,0,1-1.464,2L329.971,317h-1.4L326.77,314Zm0-1.019h.854a1.946,1.946,0,0,0,1.246-.319,1.156,1.156,0,0,0,.385-.948,1.02,1.02,0,0,0-.415-.917,2.3,2.3,0,0,0-1.256-.276h-.814Z" transform="translate(-269.93 -294.803)" fill="#212121"/>
            <path id="Trazado_160039" data-name="Trazado 160039" d="M333.124,317h-4.256v-7.525h4.256v1.041H330.1v2.047h2.835V313.6H330.1v2.362h3.027Z" transform="translate(-267.736 -294.803)" fill="#212121"/>
            <path id="Trazado_160040" data-name="Trazado 160040" d="M337.825,317.013l-.75-2.089H334.2l-.737,2.089h-1.3l2.815-7.556h1.339l2.813,7.556Zm-1.075-3.15-.706-2.048c-.05-.138-.122-.353-.212-.65s-.154-.51-.188-.648a11.34,11.34,0,0,1-.408,1.384l-.679,1.962Z" transform="translate(-266.143 -294.813)" fill="#212121"/>
          </g>
          <g id="Grupo_86379" data-name="Grupo 86379" transform="translate(9.223 9.223)">
            <path id="Trazado_160041" data-name="Trazado 160041" d="M325.285,238.889a39.522,39.522,0,1,0,39.522,39.522A39.522,39.522,0,0,0,325.285,238.889Zm0,69.509a29.986,29.986,0,1,1,29.987-29.987A29.987,29.987,0,0,1,325.285,308.4Zm-1.763-22.932h3.528l.912-.888,1.837-27.054-.641-1.166h-7.741l-.534,1.149,1.842,27.07Zm1.791,4.886a4.791,4.791,0,0,0-3.418,1.1,4.365,4.365,0,0,0-1.146,3.291,4.314,4.314,0,0,0,1.176,3.249,4.693,4.693,0,0,0,3.389,1.143,4.567,4.567,0,0,0,3.331-1.166,4.286,4.286,0,0,0,1.174-3.227,4.36,4.36,0,0,0-1.158-3.268A4.663,4.663,0,0,0,325.314,290.352Z" transform="translate(-285.763 -238.889)" fill="#212121"/>
          </g>
          <g id="Grupo_86380" data-name="Grupo 86380" transform="translate(48.747 0)" opacity="0.1">
            <path id="Trazado_160042" data-name="Trazado 160042" d="M354.571,232.67H312.415V377.587h42.156A6.592,6.592,0,0,0,361.157,371V239.256A6.593,6.593,0,0,0,354.571,232.67Z" transform="translate(-312.415 -232.67)" fill="#151516"/>
          </g>
        </g>
      </g>
      <g id="Ñëîé_16" data-name="Ñëîé 16" transform="translate(543.184 238.306)">
        <g id="Grupo_86388" data-name="Grupo 86388">
          <g id="Grupo_86382" data-name="Grupo 86382">
            <path id="Rectángulo_35119" data-name="Rectángulo 35119" d="M4.442,0H93.049A4.441,4.441,0,0,1,97.49,4.441V140.475a4.441,4.441,0,0,1-4.441,4.441H4.441A4.441,4.441,0,0,1,0,140.475V4.442A4.442,4.442,0,0,1,4.442,0Z" fill="#ffd03c"/>
          </g>
          <g id="Grupo_86383" data-name="Grupo 86383" transform="translate(3.031 3.03)">
            <path id="Trazado_160043" data-name="Trazado 160043" d="M456.2,373.572H371.885a3.563,3.563,0,0,1-3.558-3.559V238.269a3.561,3.561,0,0,1,3.558-3.556H456.2a3.561,3.561,0,0,1,3.556,3.556V370.013A3.562,3.562,0,0,1,456.2,373.572ZM371.885,236.558a1.714,1.714,0,0,0-1.713,1.711V370.013a1.714,1.714,0,0,0,1.713,1.713H456.2a1.713,1.713,0,0,0,1.711-1.713V238.269a1.713,1.713,0,0,0-1.711-1.711Z" transform="translate(-368.327 -234.713)" fill="#212121"/>
          </g>
          <g id="Grupo_86384" data-name="Grupo 86384" transform="translate(11.502 95.633)">
            <path id="Trazado_160044" data-name="Trazado 160044" d="M387.471,302.8a5.62,5.62,0,0,1-1.551,4.272,6.226,6.226,0,0,1-4.468,1.478h-3.157V297.268h3.488a5.777,5.777,0,0,1,4.192,1.45A5.422,5.422,0,0,1,387.471,302.8Zm-1.944.062q0-4.053-3.79-4.053h-1.6V307h1.312Q385.526,307,385.526,302.865Z" transform="translate(-371.984 -297.105)" fill="#212121"/>
            <path id="Trazado_160045" data-name="Trazado 160045" d="M393.6,308.569l-1.127-3.133h-4.315l-1.1,3.133h-1.946l4.223-11.333h2.006l4.222,11.333Zm-1.613-4.725-1.057-3.073q-.116-.309-.32-.971t-.282-.973a17.6,17.6,0,0,1-.61,2.076l-1.019,2.941Z" transform="translate(-368.691 -297.12)" fill="#212121"/>
            <path id="Trazado_160046" data-name="Trazado 160046" d="M402.567,308.553H400.3l-5.549-8.993h-.062l.04.5q.107,1.437.107,2.625v5.867h-1.674V297.268H395.4l5.533,8.947h.046c-.009-.119-.03-.549-.061-1.293s-.046-1.324-.046-1.741v-5.913h1.691Z" transform="translate(-364.802 -297.105)" fill="#212121"/>
            <path id="Trazado_160047" data-name="Trazado 160047" d="M406.311,302.485h4.154v5.666a12.181,12.181,0,0,1-1.958.472,13.967,13.967,0,0,1-2.027.138,5.092,5.092,0,0,1-3.952-1.517,6.112,6.112,0,0,1-1.388-4.28,5.711,5.711,0,0,1,1.566-4.265,5.893,5.893,0,0,1,4.315-1.541,8.419,8.419,0,0,1,3.35.679l-.648,1.536a6.535,6.535,0,0,0-2.748-.632,3.706,3.706,0,0,0-2.858,1.133,4.4,4.4,0,0,0-1.048,3.1,4.627,4.627,0,0,0,.945,3.145,3.427,3.427,0,0,0,2.721,1.078,8.907,8.907,0,0,0,1.914-.225v-2.91h-2.339Z" transform="translate(-360.95 -297.158)" fill="#212121"/>
            <path id="Trazado_160048" data-name="Trazado 160048" d="M415.639,308.553h-6.384V297.268h6.384v1.559H411.1V301.9h4.253v1.544H411.1v3.543h4.539Z" transform="translate(-357.031 -297.105)" fill="#212121"/>
            <path id="Trazado_160049" data-name="Trazado 160049" d="M417.049,304.045v4.508H415.2V297.268h3.187a5.252,5.252,0,0,1,3.236.817,2.939,2.939,0,0,1,1.048,2.471,3.087,3.087,0,0,1-2.19,3l3.187,4.995h-2.1l-2.7-4.508Zm0-1.527h1.28a2.914,2.914,0,0,0,1.869-.481,1.73,1.73,0,0,0,.58-1.419,1.528,1.528,0,0,0-.626-1.373,3.414,3.414,0,0,0-1.883-.418h-1.219Z" transform="translate(-354.158 -297.105)" fill="#212121"/>
            <path id="Trazado_160050" data-name="Trazado 160050" d="M379.972,315.856h-1.235v-3.392h-3.469v3.392h-1.229v-7.523h1.229v3.077h3.469v-3.077h1.235Z" transform="translate(-374.039 -291.761)" fill="#212121"/>
            <path id="Trazado_160051" data-name="Trazado 160051" d="M379.376,315.856v-7.523h1.229v7.523Z" transform="translate(-371.461 -291.761)" fill="#212121"/>
            <path id="Trazado_160052" data-name="Trazado 160052" d="M384.743,311.81h2.769v3.777a7.95,7.95,0,0,1-1.3.314,9.165,9.165,0,0,1-1.351.094,3.393,3.393,0,0,1-2.634-1.011,4.07,4.07,0,0,1-.927-2.855,3.8,3.8,0,0,1,1.044-2.843,3.924,3.924,0,0,1,2.877-1.026,5.589,5.589,0,0,1,2.233.452l-.433,1.025a4.331,4.331,0,0,0-1.831-.421,2.467,2.467,0,0,0-1.9.755,2.919,2.919,0,0,0-.7,2.069,3.088,3.088,0,0,0,.632,2.1,2.283,2.283,0,0,0,1.812.716,5.992,5.992,0,0,0,1.278-.148v-1.94h-1.56Z" transform="translate(-370.535 -291.796)" fill="#212121"/>
            <path id="Trazado_160053" data-name="Trazado 160053" d="M392.638,315.856H391.4v-3.392h-3.469v3.392h-1.229v-7.523h1.229v3.077H391.4v-3.077h1.235Z" transform="translate(-367.922 -291.761)" fill="#212121"/>
            <path id="Trazado_160054" data-name="Trazado 160054" d="M398.5,308.333h1.277l-2.635,7.523h-1.3l-2.623-7.523h1.265l1.57,4.677c.082.224.169.51.262.862s.153.614.181.786c.043-.261.113-.562.2-.906s.169-.6.227-.761Z" transform="translate(-364.776 -291.761)" fill="#212121"/>
            <path id="Trazado_160055" data-name="Trazado 160055" d="M405.107,312.122a4.112,4.112,0,0,1-.918,2.856,3.857,3.857,0,0,1-5.217.009,4.142,4.142,0,0,1-.914-2.875,4.079,4.079,0,0,1,.918-2.861,3.39,3.39,0,0,1,2.622-1,3.315,3.315,0,0,1,2.594,1.013A4.121,4.121,0,0,1,405.107,312.122Zm-5.742,0a3.372,3.372,0,0,0,.561,2.107,2.282,2.282,0,0,0,3.317.009,4.274,4.274,0,0,0,.006-4.216,1.961,1.961,0,0,0-1.651-.713,2,2,0,0,0-1.67.713A3.341,3.341,0,0,0,399.365,312.122Z" transform="translate(-362.438 -291.8)" fill="#212121"/>
            <path id="Trazado_160056" data-name="Trazado 160056" d="M403.9,315.856v-7.523h1.229V314.8h3.187v1.054Z" transform="translate(-359.616 -291.761)" fill="#212121"/>
            <path id="Trazado_160057" data-name="Trazado 160057" d="M410.627,315.856H409.4v-6.469h-2.213v-1.054h5.654v1.054h-2.213Z" transform="translate(-358.031 -291.761)" fill="#212121"/>
            <path id="Trazado_160058" data-name="Trazado 160058" d="M416.767,315.867l-.752-2.089H413.14l-.738,2.089h-1.3l2.816-7.556h1.338l2.815,7.556Zm-1.077-3.15-.7-2.048c-.052-.136-.122-.353-.213-.648s-.153-.512-.188-.649a11.138,11.138,0,0,1-.406,1.385l-.679,1.961Z" transform="translate(-356.137 -291.772)" fill="#212121"/>
            <path id="Trazado_160059" data-name="Trazado 160059" d="M419.672,311.81h2.769v3.777a8.024,8.024,0,0,1-1.3.314,9.166,9.166,0,0,1-1.351.094,3.391,3.391,0,0,1-2.634-1.011,4.07,4.07,0,0,1-.927-2.855,3.8,3.8,0,0,1,1.044-2.843,3.922,3.922,0,0,1,2.877-1.026,5.6,5.6,0,0,1,2.233.452l-.433,1.025a4.331,4.331,0,0,0-1.831-.421,2.473,2.473,0,0,0-1.9.755,2.925,2.925,0,0,0-.7,2.069,3.081,3.081,0,0,0,.632,2.1,2.283,2.283,0,0,0,1.812.716,5.991,5.991,0,0,0,1.278-.148v-1.94h-1.56Z" transform="translate(-353.665 -291.796)" fill="#212121"/>
            <path id="Trazado_160060" data-name="Trazado 160060" d="M425.89,315.856h-4.256v-7.523h4.256v1.04h-3.027v2.048H425.7v1.029h-2.835v2.362h3.027Z" transform="translate(-351.052 -291.761)" fill="#212121"/>
          </g>
          <g id="Grupo_86385" data-name="Grupo 86385" transform="translate(40.629 35.75)">
            <path id="Trazado_160061" data-name="Trazado 160061" d="M407.889,256.777H397.736l-4.055,13.77h6.088l-4.061,15.733,14.21-17.7h-6.09Z" transform="translate(-393.681 -256.777)" fill="#212121"/>
          </g>
          <g id="Grupo_86386" data-name="Grupo 86386" transform="translate(11.405 11.557)">
            <path id="Trazado_160062" data-name="Trazado 160062" d="M444.67,303.854H377.957a3.672,3.672,0,0,1-3.307-5.828l33.272-55.452a3.78,3.78,0,0,1,6.782,0l33.273,55.451a3.674,3.674,0,0,1-3.307,5.831Zm-65.979-4.269h65.244l-32.622-54.367Z" transform="translate(-373.974 -240.463)" fill="#212121"/>
          </g>
          <g id="Grupo_86387" data-name="Grupo 86387" transform="translate(48.749 0)" opacity="0.1">
            <path id="Trazado_160063" data-name="Trazado 160063" d="M441.309,232.67H399.156V377.587h42.153A6.594,6.594,0,0,0,447.9,371V239.256A6.594,6.594,0,0,0,441.309,232.67Z" transform="translate(-399.156 -232.67)" fill="#151516"/>
          </g>
        </g>
      </g>
      <g id="Ñëîé_17" data-name="Ñëîé 17" transform="translate(28.657 404.081)">
        <g id="Grupo_86394" data-name="Grupo 86394">
          <g id="Grupo_86389" data-name="Grupo 86389" transform="translate(0 0)">
            <rect id="Rectángulo_35120" data-name="Rectángulo 35120" width="97.489" height="144.915" rx="4.441" fill="#ffd03c"/>
          </g>
          <g id="Grupo_86390" data-name="Grupo 86390" transform="translate(3.029 3.03)">
            <path id="Trazado_160064" data-name="Trazado 160064" d="M109.24,485.356H24.925a3.562,3.562,0,0,1-3.558-3.559V350.055a3.561,3.561,0,0,1,3.558-3.556H109.24a3.561,3.561,0,0,1,3.556,3.556V481.8A3.561,3.561,0,0,1,109.24,485.356ZM24.925,348.344a1.714,1.714,0,0,0-1.713,1.711V481.8a1.716,1.716,0,0,0,1.713,1.714H109.24a1.715,1.715,0,0,0,1.711-1.714V350.055a1.713,1.713,0,0,0-1.711-1.711Z" transform="translate(-21.367 -346.499)" fill="#212121"/>
          </g>
          <g id="Grupo_86391" data-name="Grupo 86391" transform="translate(9.296 94.921)">
            <path id="Trazado_160065" data-name="Trazado 160065" d="M32.913,413.063v3H31.684v-7.523h2.125a3.5,3.5,0,0,1,2.156.544,1.964,1.964,0,0,1,.7,1.648,2.059,2.059,0,0,1-1.461,2l2.125,3.329h-1.4l-1.8-3Zm0-1.02h.854a1.959,1.959,0,0,0,1.246-.317,1.163,1.163,0,0,0,.386-.948,1.021,1.021,0,0,0-.417-.916,2.3,2.3,0,0,0-1.256-.277h-.813Z" transform="translate(-22.651 -408.425)" fill="#212121"/>
            <path id="Trazado_160066" data-name="Trazado 160066" d="M40.482,416.067H36.226v-7.523h4.256v1.04H37.455v2.048h2.835v1.029H37.455v2.362h3.027Z" transform="translate(-20.458 -408.425)" fill="#212121"/>
            <path id="Trazado_160067" data-name="Trazado 160067" d="M44.687,414.059a1.9,1.9,0,0,1-.727,1.576,3.155,3.155,0,0,1-2,.57,4.752,4.752,0,0,1-2.088-.4v-1.163a5.7,5.7,0,0,0,1.093.381,4.659,4.659,0,0,0,1.078.138,1.712,1.712,0,0,0,1.078-.277.905.905,0,0,0,.347-.746.929.929,0,0,0-.319-.715,4.77,4.77,0,0,0-1.318-.7,3.494,3.494,0,0,1-1.45-.952,2.007,2.007,0,0,1-.421-1.286,1.8,1.8,0,0,1,.667-1.483,2.786,2.786,0,0,1,1.8-.54,5.267,5.267,0,0,1,2.15.473l-.392,1a4.683,4.683,0,0,0-1.79-.421,1.373,1.373,0,0,0-.906.258.856.856,0,0,0-.308.687.975.975,0,0,0,.123.5,1.279,1.279,0,0,0,.406.394,6.822,6.822,0,0,0,1.019.488,5.475,5.475,0,0,1,1.215.645,1.866,1.866,0,0,1,.566.673A2.021,2.021,0,0,1,44.687,414.059Z" transform="translate(-18.698 -408.461)" fill="#212121"/>
            <path id="Trazado_160068" data-name="Trazado 160068" d="M49.08,410.817a2.2,2.2,0,0,1-.771,1.808,3.4,3.4,0,0,1-2.2.627h-.782v2.815H44.1v-7.523h2.165a3.272,3.272,0,0,1,2.113.577A2.062,2.062,0,0,1,49.08,410.817Zm-3.75,1.4h.654a2.359,2.359,0,0,0,1.39-.329,1.206,1.206,0,0,0,.442-1.031,1.169,1.169,0,0,0-.4-.967,1.962,1.962,0,0,0-1.235-.32h-.854Z" transform="translate(-16.655 -408.425)" fill="#212121"/>
            <path id="Trazado_160069" data-name="Trazado 160069" d="M48.472,416.067v-7.523H49.7v7.523Z" transform="translate(-14.543 -408.425)" fill="#212121"/>
            <path id="Trazado_160070" data-name="Trazado 160070" d="M51.87,413.063v3H50.641v-7.523h2.125a3.494,3.494,0,0,1,2.156.544,1.96,1.96,0,0,1,.7,1.648,2.061,2.061,0,0,1-1.461,2l2.125,3.329h-1.4l-1.8-3Zm0-1.02h.854a1.953,1.953,0,0,0,1.246-.317,1.158,1.158,0,0,0,.386-.948,1.018,1.018,0,0,0-.417-.916,2.3,2.3,0,0,0-1.255-.277H51.87Z" transform="translate(-13.496 -408.425)" fill="#212121"/>
            <path id="Trazado_160071" data-name="Trazado 160071" d="M60.174,416.078l-.752-2.089H56.546l-.736,2.089h-1.3l2.815-7.556h1.338l2.815,7.556Zm-1.077-3.15-.7-2.048c-.05-.136-.123-.353-.214-.648s-.153-.512-.188-.649a11.138,11.138,0,0,1-.406,1.385l-.679,1.961Z" transform="translate(-11.625 -408.436)" fill="#212121"/>
            <path id="Trazado_160072" data-name="Trazado 160072" d="M62.756,416.067H61.526V409.6H59.313v-1.054h5.656V409.6H62.756Z" transform="translate(-9.307 -408.425)" fill="#212121"/>
            <path id="Trazado_160073" data-name="Trazado 160073" d="M70.705,412.333a4.115,4.115,0,0,1-.919,2.856,3.863,3.863,0,0,1-5.219.009,4.142,4.142,0,0,1-.914-2.875,4.077,4.077,0,0,1,.919-2.861,3.386,3.386,0,0,1,2.622-1,3.316,3.316,0,0,1,2.594,1.013A4.111,4.111,0,0,1,70.705,412.333Zm-5.744,0a3.372,3.372,0,0,0,.561,2.107,2.283,2.283,0,0,0,3.316.009,4.273,4.273,0,0,0,.006-4.216,1.957,1.957,0,0,0-1.649-.713,2,2,0,0,0-1.67.713A3.347,3.347,0,0,0,64.962,412.333Z" transform="translate(-7.211 -408.464)" fill="#212121"/>
            <path id="Trazado_160074" data-name="Trazado 160074" d="M70.727,413.063v3H69.5v-7.523h2.125a3.494,3.494,0,0,1,2.156.544,1.96,1.96,0,0,1,.7,1.648,2.061,2.061,0,0,1-1.461,2l2.125,3.329h-1.4l-1.8-3Zm0-1.02h.854a1.953,1.953,0,0,0,1.246-.317,1.158,1.158,0,0,0,.386-.948,1.018,1.018,0,0,0-.417-.916,2.3,2.3,0,0,0-1.255-.277h-.814Z" transform="translate(-4.389 -408.425)" fill="#212121"/>
            <path id="Trazado_160075" data-name="Trazado 160075" d="M46.261,424.6l-2.183-6.285h-.04q.087,1.4.087,2.625v3.66H43.009v-7.525h1.734l2.089,5.985h.031l2.152-5.985h1.738V424.6H49.57v-3.721c0-.374.01-.862.028-1.462s.036-.964.049-1.091h-.04l-2.26,6.274Z" transform="translate(-17.182 -404.307)" fill="#212121"/>
            <path id="Trazado_160076" data-name="Trazado 160076" d="M54.558,424.607l-.752-2.091H50.93l-.736,2.091H48.9l2.815-7.556H53.05l2.815,7.556Zm-1.077-3.15-.7-2.048c-.05-.138-.123-.354-.214-.65s-.153-.512-.188-.648a11.385,11.385,0,0,1-.406,1.384l-.679,1.962Z" transform="translate(-14.338 -404.317)" fill="#212121"/>
            <path id="Trazado_160077" data-name="Trazado 160077" d="M58.76,422.588a1.9,1.9,0,0,1-.725,1.575,3.155,3.155,0,0,1-2,.571,4.759,4.759,0,0,1-2.089-.4v-1.163a5.676,5.676,0,0,0,1.094.381,4.668,4.668,0,0,0,1.078.139,1.715,1.715,0,0,0,1.078-.279.905.905,0,0,0,.347-.746.938.938,0,0,0-.319-.715,4.837,4.837,0,0,0-1.318-.7,3.48,3.48,0,0,1-1.45-.952,2.008,2.008,0,0,1-.423-1.286,1.8,1.8,0,0,1,.669-1.483,2.786,2.786,0,0,1,1.8-.54,5.272,5.272,0,0,1,2.15.473l-.392,1a4.712,4.712,0,0,0-1.79-.421,1.373,1.373,0,0,0-.906.26.852.852,0,0,0-.308.687.965.965,0,0,0,.123.5,1.278,1.278,0,0,0,.406.393,6.682,6.682,0,0,0,1.019.488,5.541,5.541,0,0,1,1.215.645,1.881,1.881,0,0,1,.566.673A2.029,2.029,0,0,1,58.76,422.588Z" transform="translate(-11.901 -404.342)" fill="#212121"/>
            <path id="Trazado_160078" data-name="Trazado 160078" d="M63.917,424.6H62.49l-2.361-3.406-.727.59V424.6H58.173v-7.525H59.4v3.592q.507-.616,1-1.189l2.033-2.4h1.4q-1.971,2.316-2.825,3.3Z" transform="translate(-9.858 -404.307)" fill="#212121"/>
            <path id="Trazado_160079" data-name="Trazado 160079" d="M28.845,433.124l-2.181-6.285h-.042q.089,1.4.087,2.625v3.66H25.593V425.6h1.735l2.088,5.985h.031L31.6,425.6h1.74v7.523H32.155V429.4c0-.374.009-.862.028-1.461s.034-.965.049-1.093h-.042l-2.259,6.274Z" transform="translate(-25.593 -400.187)" fill="#212121"/>
            <path id="Trazado_160080" data-name="Trazado 160080" d="M38.07,425.6v4.867a2.884,2.884,0,0,1-.357,1.459,2.381,2.381,0,0,1-1.034.962,3.583,3.583,0,0,1-1.618.337,3.026,3.026,0,0,1-2.178-.742,2.683,2.683,0,0,1-.777-2.038V425.6h1.237v4.759a1.905,1.905,0,0,0,.432,1.375,1.788,1.788,0,0,0,1.329.442q1.737,0,1.738-1.826V425.6Z" transform="translate(-22.447 -400.187)" fill="#212121"/>
            <path id="Trazado_160081" data-name="Trazado 160081" d="M41.921,431.116a1.893,1.893,0,0,1-.725,1.575,3.158,3.158,0,0,1-2,.571,4.778,4.778,0,0,1-2.089-.4V431.7a5.5,5.5,0,0,0,1.093.381,4.61,4.61,0,0,0,1.078.139,1.713,1.713,0,0,0,1.078-.279.9.9,0,0,0,.347-.744.937.937,0,0,0-.317-.716,4.832,4.832,0,0,0-1.318-.7,3.476,3.476,0,0,1-1.452-.951,2.018,2.018,0,0,1-.421-1.286,1.8,1.8,0,0,1,.669-1.483,2.774,2.774,0,0,1,1.8-.541,5.269,5.269,0,0,1,2.15.475l-.39,1a4.723,4.723,0,0,0-1.791-.421,1.378,1.378,0,0,0-.906.259.857.857,0,0,0-.308.687.975.975,0,0,0,.123.5,1.268,1.268,0,0,0,.408.393,6.537,6.537,0,0,0,1.019.488,5.615,5.615,0,0,1,1.215.645,1.876,1.876,0,0,1,.565.673A2.029,2.029,0,0,1,41.921,431.116Z" transform="translate(-20.034 -400.223)" fill="#212121"/>
            <path id="Trazado_160082" data-name="Trazado 160082" d="M44.207,433.124H42.978v-6.47H40.765V425.6h5.656v1.053H44.207Z" transform="translate(-18.265 -400.187)" fill="#212121"/>
            <path id="Trazado_160083" data-name="Trazado 160083" d="M47.2,425.6h2.233a4.25,4.25,0,0,1,2.247.451,1.589,1.589,0,0,1,.693,1.431,1.726,1.726,0,0,1-.341,1.1,1.5,1.5,0,0,1-.977.55v.053a1.941,1.941,0,0,1,1.166.589,1.78,1.78,0,0,1,.374,1.192,1.932,1.932,0,0,1-.707,1.587,3.048,3.048,0,0,1-1.969.574H47.2Zm1.229,3.107h1.185a2,2,0,0,0,1.126-.245.934.934,0,0,0,.356-.83.829.829,0,0,0-.384-.767,2.4,2.4,0,0,0-1.218-.237H48.431Zm0,1v2.385h1.308a1.913,1.913,0,0,0,1.166-.3,1.087,1.087,0,0,0,.393-.933.993.993,0,0,0-.4-.87,2.137,2.137,0,0,0-1.219-.283Z" transform="translate(-15.157 -400.187)" fill="#212121"/>
            <path id="Trazado_160084" data-name="Trazado 160084" d="M56.15,433.124H51.894V425.6H56.15v1.04H53.123v2.048h2.835v1.029H53.123v2.362H56.15Z" transform="translate(-12.891 -400.187)" fill="#212121"/>
            <path id="Trazado_160085" data-name="Trazado 160085" d="M64.953,433.124H63.613l-1.275-4.489c-.055-.194-.123-.478-.206-.845s-.132-.626-.15-.768q-.051.327-.166.853c-.077.35-.142.611-.193.783l-1.246,4.467H59.038l-.971-3.767-.989-3.756h1.256l1.075,4.384a18.368,18.368,0,0,1,.36,1.864c.037-.294.095-.618.171-.979s.144-.653.2-.875l1.226-4.394H62.59l1.256,4.415a16.424,16.424,0,0,1,.38,1.833,13.649,13.649,0,0,1,.371-1.875l1.071-4.373h1.246Z" transform="translate(-10.387 -400.187)" fill="#212121"/>
            <path id="Trazado_160086" data-name="Trazado 160086" d="M71.229,429.39a4.115,4.115,0,0,1-.919,2.856,3.861,3.861,0,0,1-5.219.007,4.138,4.138,0,0,1-.913-2.874,4.083,4.083,0,0,1,.919-2.862,3.385,3.385,0,0,1,2.622-1,3.315,3.315,0,0,1,2.594,1.013A4.111,4.111,0,0,1,71.229,429.39Zm-5.744,0a3.365,3.365,0,0,0,.561,2.107,2.283,2.283,0,0,0,3.316.009,4.273,4.273,0,0,0,.006-4.216,1.957,1.957,0,0,0-1.649-.715,2,2,0,0,0-1.67.715A3.338,3.338,0,0,0,65.486,429.39Z" transform="translate(-6.958 -400.226)" fill="#212121"/>
            <path id="Trazado_160087" data-name="Trazado 160087" d="M71.251,430.118v3.006H70.022V425.6h2.125a3.5,3.5,0,0,1,2.156.544,1.96,1.96,0,0,1,.7,1.648,2.061,2.061,0,0,1-1.462,2l2.127,3.329h-1.4l-1.8-3.006Zm0-1.019h.854a1.943,1.943,0,0,0,1.246-.319,1.159,1.159,0,0,0,.386-.948,1.018,1.018,0,0,0-.417-.916,2.3,2.3,0,0,0-1.256-.276h-.813Z" transform="translate(-4.135 -400.187)" fill="#212121"/>
            <path id="Trazado_160088" data-name="Trazado 160088" d="M80.832,433.124H79.324l-3.7-6h-.04l.025.334q.071.959.071,1.75v3.912H74.565V425.6h1.492l3.69,5.963h.031c-.007-.079-.021-.366-.042-.862s-.031-.882-.031-1.16V425.6h1.127Z" transform="translate(-1.941 -400.187)" fill="#212121"/>
          </g>
          <g id="Grupo_86392" data-name="Grupo 86392" transform="translate(9.222 9.221)">
            <path id="Trazado_160089" data-name="Trazado 160089" d="M63.5,383.152c0-3.455-4.366-4.694-7.821-4.694s-6.257,1.565-6.257,6.261a6.257,6.257,0,0,0,6.257,6.255C59.134,390.975,63.5,386.609,63.5,383.152Zm10.952-4.694c-3.455,0-7.823,1.238-7.823,4.694s4.367,7.823,7.823,7.823a6.26,6.26,0,0,0,6.26-6.255C80.711,380.023,77.9,378.459,74.451,378.459Zm-9.389,18.774a4.693,4.693,0,1,0,4.7,4.691A4.695,4.695,0,0,0,65.062,397.233Zm-1.952,7.431a1.565,1.565,0,1,1,1.562-1.566A1.566,1.566,0,0,1,63.111,404.664Zm.389-4.7a1.565,1.565,0,1,1,1.563,1.566A1.565,1.565,0,0,1,63.5,399.969Zm3.522,4.7a1.565,1.565,0,1,1,1.563-1.566A1.565,1.565,0,0,1,67.021,404.664Zm-1.959-53.99A39.523,39.523,0,1,0,104.589,390.2,39.522,39.522,0,0,0,65.062,350.674Zm26.337,53.3-8.626,13.05a1.565,1.565,0,0,1-2.167.442l-6.529-4.312a1.568,1.568,0,0,1-.439-2.173l1.725-2.609-1.639-1.084c-2.591,2.5-5.53,4.025-8.662,4.025s-6.065-1.526-8.656-4.025l-1.639,1.084,1.726,2.609a1.573,1.573,0,0,1-.443,2.173l-6.524,4.312a1.564,1.564,0,0,1-2.168-.442l-8.629-13.05a1.562,1.562,0,0,1,.442-2.167l6.525-4.315a1.563,1.563,0,0,1,2.165.439l1.728,2.613,1.358-.9a43.865,43.865,0,0,1-3.965-11.8H45.511a1.566,1.566,0,0,1-1.567-1.565v-6.26a1.567,1.567,0,0,1,1.567-1.565h.876c.737-8.613,5.867-13.838,13.981-15.245v-1.179a1.567,1.567,0,0,1,1.567-1.566h6.258a1.564,1.564,0,0,1,1.563,1.566v1.179c8.119,1.407,13.247,6.632,13.984,15.245h.879a1.564,1.564,0,0,1,1.563,1.565v6.26a1.563,1.563,0,0,1-1.563,1.565H83.147a43.814,43.814,0,0,1-3.965,11.8l1.358.9,1.729-2.613a1.563,1.563,0,0,1,2.165-.439l6.524,4.315A1.561,1.561,0,0,1,91.4,403.975Z" transform="translate(-25.543 -350.674)" fill="#212121"/>
          </g>
          <g id="Grupo_86393" data-name="Grupo 86393" transform="translate(48.746)" opacity="0.1">
            <path id="Trazado_160090" data-name="Trazado 160090" d="M94.351,344.456H52.2V489.371H94.351a6.593,6.593,0,0,0,6.587-6.587V351.042A6.594,6.594,0,0,0,94.351,344.456Z" transform="translate(-52.195 -344.456)" fill="#151516"/>
          </g>
        </g>
      </g>
      <g id="Ñëîé_18" data-name="Ñëîé 18" transform="translate(157.288 404.081)">
        <g id="Grupo_86400" data-name="Grupo 86400">
          <g id="Grupo_86395" data-name="Grupo 86395" transform="translate(0 0)">
            <path id="Rectángulo_35121" data-name="Rectángulo 35121" d="M4.441,0H93.049A4.441,4.441,0,0,1,97.49,4.441V140.474a4.442,4.442,0,0,1-4.442,4.442H4.441A4.441,4.441,0,0,1,0,140.475V4.441A4.441,4.441,0,0,1,4.441,0Z" fill="#ffd03c"/>
          </g>
          <g id="Grupo_86396" data-name="Grupo 86396" transform="translate(3.029 3.03)">
            <path id="Trazado_160091" data-name="Trazado 160091" d="M195.979,485.358H111.664a3.563,3.563,0,0,1-3.558-3.559V350.055a3.562,3.562,0,0,1,3.558-3.556h84.315a3.561,3.561,0,0,1,3.558,3.556V481.8A3.562,3.562,0,0,1,195.979,485.358ZM111.664,348.344a1.713,1.713,0,0,0-1.711,1.711V481.8a1.715,1.715,0,0,0,1.711,1.714h84.315a1.716,1.716,0,0,0,1.713-1.714V350.055a1.714,1.714,0,0,0-1.713-1.711Z" transform="translate(-108.106 -346.499)" fill="#212121"/>
          </g>
          <g id="Grupo_86397" data-name="Grupo 86397" transform="translate(8.379 100.11)">
            <path id="Trazado_160092" data-name="Trazado 160092" d="M115.7,419.091h-3.989v-7.054H115.7v.974h-2.837v1.92h2.659v.967h-2.659v2.214H115.7Z" transform="translate(-111.714 -411.927)" fill="#212121"/>
            <path id="Trazado_160093" data-name="Trazado 160093" d="M120.111,419.1l-.7-1.959h-2.7l-.691,1.959h-1.215l2.638-7.083H118.7l2.638,7.083Zm-1.007-2.953-.661-1.92c-.049-.129-.116-.331-.2-.607s-.145-.481-.176-.608a10.963,10.963,0,0,1-.381,1.3l-.638,1.837Z" transform="translate(-110.221 -411.936)" fill="#212121"/>
            <path id="Trazado_160094" data-name="Trazado 160094" d="M120.991,416.274v2.818h-1.154v-7.054h1.993a3.261,3.261,0,0,1,2.021.513,1.833,1.833,0,0,1,.657,1.544,1.931,1.931,0,0,1-1.372,1.877l1.993,3.12h-1.312l-1.688-2.818Zm0-.955h.8a1.821,1.821,0,0,0,1.167-.3,1.083,1.083,0,0,0,.362-.888.955.955,0,0,0-.39-.859,2.148,2.148,0,0,0-1.177-.261h-.762Z" transform="translate(-107.791 -411.927)" fill="#212121"/>
            <path id="Trazado_160095" data-name="Trazado 160095" d="M130.5,414.171a2.055,2.055,0,0,1-.725,1.692,3.183,3.183,0,0,1-2.06.59h-.734v2.638h-1.152v-7.054h2.032a3.07,3.07,0,0,1,1.98.541A1.942,1.942,0,0,1,130.5,414.171Zm-3.519,1.311h.614a2.194,2.194,0,0,0,1.3-.308,1.123,1.123,0,0,0,.415-.964,1.094,1.094,0,0,0-.372-.908,1.84,1.84,0,0,0-1.158-.3h-.8Z" transform="translate(-104.898 -411.927)" fill="#212121"/>
            <path id="Trazado_160096" data-name="Trazado 160096" d="M131.08,416.274v2.818h-1.154v-7.054h1.993a3.261,3.261,0,0,1,2.021.513,1.833,1.833,0,0,1,.657,1.544,1.931,1.931,0,0,1-1.372,1.877l1.993,3.12h-1.312l-1.688-2.818Zm0-.955h.8a1.821,1.821,0,0,0,1.167-.3,1.083,1.083,0,0,0,.362-.888.958.958,0,0,0-.39-.859,2.148,2.148,0,0,0-1.177-.261h-.762Z" transform="translate(-102.918 -411.927)" fill="#212121"/>
            <path id="Trazado_160097" data-name="Trazado 160097" d="M140.561,415.59a3.861,3.861,0,0,1-.862,2.678,3.621,3.621,0,0,1-4.892.007,3.884,3.884,0,0,1-.856-2.7,3.814,3.814,0,0,1,.862-2.681,3.167,3.167,0,0,1,2.457-.936,3.116,3.116,0,0,1,2.432.949A3.86,3.86,0,0,1,140.561,415.59Zm-5.385,0a3.153,3.153,0,0,0,.526,1.975,2.139,2.139,0,0,0,3.108.007,4.009,4.009,0,0,0,.006-3.951,1.834,1.834,0,0,0-1.547-.67,1.872,1.872,0,0,0-1.566.67A3.138,3.138,0,0,0,135.176,415.59Z" transform="translate(-100.974 -411.963)" fill="#212121"/>
            <path id="Trazado_160098" data-name="Trazado 160098" d="M142.123,419.091H140.97v-6.065H138.9v-.989h5.3v.989h-2.075Z" transform="translate(-98.587 -411.927)" fill="#212121"/>
            <path id="Trazado_160099" data-name="Trazado 160099" d="M147.189,419.091H143.2v-7.054h3.989v.974h-2.837v1.92h2.659v.967h-2.659v2.214h2.837Z" transform="translate(-96.507 -411.927)" fill="#212121"/>
            <path id="Trazado_160100" data-name="Trazado 160100" d="M150.033,412.958a1.9,1.9,0,0,0-1.563.7,3.7,3.7,0,0,0-.022,3.908,1.934,1.934,0,0,0,1.585.666,4.061,4.061,0,0,0,.868-.089c.28-.059.572-.135.873-.23v.989a5.292,5.292,0,0,1-1.88.314,3.009,3.009,0,0,1-2.379-.937,3.929,3.929,0,0,1-.83-2.686,4.334,4.334,0,0,1,.4-1.925,2.868,2.868,0,0,1,1.166-1.264,3.508,3.508,0,0,1,1.79-.439,4.437,4.437,0,0,1,2,.452l-.414.961a6.112,6.112,0,0,0-.756-.3A2.69,2.69,0,0,0,150.033,412.958Z" transform="translate(-94.825 -411.96)" fill="#212121"/>
            <path id="Trazado_160101" data-name="Trazado 160101" d="M153.835,419.091h-1.154v-6.065h-2.075v-.989h5.3v.989h-2.075Z" transform="translate(-92.93 -411.927)" fill="#212121"/>
            <path id="Trazado_160102" data-name="Trazado 160102" d="M154.912,419.091v-7.054h1.152v7.054Z" transform="translate(-90.851 -411.927)" fill="#212121"/>
            <path id="Trazado_160103" data-name="Trazado 160103" d="M163.32,415.59a3.86,3.86,0,0,1-.86,2.678,3.621,3.621,0,0,1-4.892.007,3.884,3.884,0,0,1-.857-2.7,3.821,3.821,0,0,1,.862-2.681,3.173,3.173,0,0,1,2.459-.936,3.11,3.11,0,0,1,2.431.949A3.852,3.852,0,0,1,163.32,415.59Zm-5.383,0a3.153,3.153,0,0,0,.526,1.975,2.138,2.138,0,0,0,3.108.007,4.008,4.008,0,0,0,.006-3.951,1.834,1.834,0,0,0-1.547-.67,1.87,1.87,0,0,0-1.566.67A3.138,3.138,0,0,0,157.936,415.59Z" transform="translate(-89.983 -411.963)" fill="#212121"/>
            <path id="Trazado_160104" data-name="Trazado 160104" d="M168.064,419.091h-1.413l-3.469-5.62h-.039l.024.313q.069.9.068,1.64v3.667h-1.047v-7.054h1.4l3.46,5.594h.028c-.006-.074-.018-.344-.039-.808s-.028-.829-.028-1.09v-3.7h1.056Z" transform="translate(-87.336 -411.927)" fill="#212121"/>
            <path id="Trazado_160105" data-name="Trazado 160105" d="M115.585,427.772l-2.181-6.283h-.042q.089,1.4.087,2.623v3.66h-1.117v-7.523h1.735l2.09,5.985h.031l2.15-5.985h1.74v7.523H118.9v-3.719q0-.563.028-1.462t.049-1.091h-.042l-2.259,6.273Z" transform="translate(-111.415 -407.961)" fill="#212121"/>
            <path id="Trazado_160106" data-name="Trazado 160106" d="M124.811,420.249v4.867a2.879,2.879,0,0,1-.359,1.461,2.37,2.37,0,0,1-1.034.961,3.584,3.584,0,0,1-1.618.338,3.02,3.02,0,0,1-2.177-.741,2.678,2.678,0,0,1-.777-2.038v-4.848h1.235v4.76a1.908,1.908,0,0,0,.432,1.375,1.788,1.788,0,0,0,1.329.442q1.737,0,1.74-1.827v-4.75Z" transform="translate(-108.269 -407.961)" fill="#212121"/>
            <path id="Trazado_160107" data-name="Trazado 160107" d="M128.661,425.764a1.9,1.9,0,0,1-.725,1.576,3.155,3.155,0,0,1-2,.571,4.754,4.754,0,0,1-2.089-.4v-1.163a5.7,5.7,0,0,0,1.093.381,4.684,4.684,0,0,0,1.08.138,1.719,1.719,0,0,0,1.078-.277.9.9,0,0,0,.346-.746.932.932,0,0,0-.317-.715,4.792,4.792,0,0,0-1.318-.7,3.5,3.5,0,0,1-1.452-.952,2.015,2.015,0,0,1-.421-1.286,1.8,1.8,0,0,1,.669-1.483,2.785,2.785,0,0,1,1.8-.54,5.274,5.274,0,0,1,2.152.473l-.392,1a4.69,4.69,0,0,0-1.791-.421,1.363,1.363,0,0,0-.9.26.851.851,0,0,0-.308.685.957.957,0,0,0,.123.5,1.264,1.264,0,0,0,.406.394,6.839,6.839,0,0,0,1.019.488,5.513,5.513,0,0,1,1.215.645,1.868,1.868,0,0,1,.567.673A2.027,2.027,0,0,1,128.661,425.764Z" transform="translate(-105.856 -407.996)" fill="#212121"/>
            <path id="Trazado_160108" data-name="Trazado 160108" d="M130.948,427.772h-1.231V421.3H127.5v-1.054h5.656V421.3h-2.213Z" transform="translate(-104.088 -407.961)" fill="#212121"/>
            <path id="Trazado_160109" data-name="Trazado 160109" d="M133.942,420.249h2.233a4.249,4.249,0,0,1,2.247.452,1.587,1.587,0,0,1,.693,1.431,1.74,1.74,0,0,1-.34,1.1,1.519,1.519,0,0,1-.979.55v.052a1.946,1.946,0,0,1,1.167.589,1.79,1.79,0,0,1,.372,1.192,1.93,1.93,0,0,1-.707,1.587,3.045,3.045,0,0,1-1.969.574h-2.717Zm1.229,3.108h1.185a2.026,2.026,0,0,0,1.127-.245.94.94,0,0,0,.354-.832.828.828,0,0,0-.384-.765,2.376,2.376,0,0,0-1.216-.239h-1.066Zm0,1v2.383h1.308a1.914,1.914,0,0,0,1.166-.3,1.093,1.093,0,0,0,.394-.934.992.992,0,0,0-.4-.869,2.134,2.134,0,0,0-1.221-.283Z" transform="translate(-100.979 -407.961)" fill="#212121"/>
            <path id="Trazado_160110" data-name="Trazado 160110" d="M142.89,427.772h-4.256v-7.523h4.256v1.04h-3.027v2.048H142.7v1.029h-2.835v2.362h3.027Z" transform="translate(-98.713 -407.961)" fill="#212121"/>
            <path id="Trazado_160111" data-name="Trazado 160111" d="M151.693,427.772h-1.338l-1.277-4.487q-.082-.294-.206-.845c-.082-.369-.132-.626-.15-.77-.034.218-.089.5-.166.853s-.142.611-.193.783l-1.246,4.467H145.78l-.973-3.767-.989-3.756h1.256l1.077,4.384a18.909,18.909,0,0,1,.359,1.864q.058-.438.171-.977c.076-.36.144-.654.206-.876l1.225-4.394h1.219l1.256,4.416a16.644,16.644,0,0,1,.381,1.831,13.3,13.3,0,0,1,.371-1.875l1.069-4.373h1.246Z" transform="translate(-96.209 -407.961)" fill="#212121"/>
            <path id="Trazado_160112" data-name="Trazado 160112" d="M157.969,424.038a4.115,4.115,0,0,1-.919,2.856,3.859,3.859,0,0,1-5.219.009,4.14,4.14,0,0,1-.913-2.874,4.081,4.081,0,0,1,.919-2.862,3.388,3.388,0,0,1,2.622-1,3.316,3.316,0,0,1,2.594,1.014A4.108,4.108,0,0,1,157.969,424.038Zm-5.744,0a3.372,3.372,0,0,0,.561,2.107,2.282,2.282,0,0,0,3.317.009,4.278,4.278,0,0,0,0-4.216,1.956,1.956,0,0,0-1.649-.713,2,2,0,0,0-1.67.713A3.35,3.35,0,0,0,152.226,424.038Z" transform="translate(-92.78 -408)" fill="#212121"/>
            <path id="Trazado_160113" data-name="Trazado 160113" d="M157.991,424.768v3h-1.229v-7.523h2.125a3.5,3.5,0,0,1,2.156.544,1.961,1.961,0,0,1,.7,1.649,2.059,2.059,0,0,1-1.461,2l2.125,3.329h-1.4l-1.8-3Zm0-1.02h.854a1.953,1.953,0,0,0,1.246-.317,1.159,1.159,0,0,0,.387-.948,1.019,1.019,0,0,0-.418-.917,2.293,2.293,0,0,0-1.255-.277h-.814Z" transform="translate(-89.957 -407.961)" fill="#212121"/>
            <path id="Trazado_160114" data-name="Trazado 160114" d="M167.572,427.772h-1.507l-3.7-6h-.04l.025.335q.071.957.073,1.75v3.911h-1.117v-7.523H162.8l3.69,5.965h.031c-.007-.079-.021-.368-.042-.862s-.031-.882-.031-1.161v-3.942h1.127Z" transform="translate(-87.763 -407.961)" fill="#212121"/>
          </g>
          <g id="Grupo_86398" data-name="Grupo 86398" transform="translate(9.222 9.22)">
            <path id="Trazado_160115" data-name="Trazado 160115" d="M151.8,350.673A39.525,39.525,0,1,0,191.328,390.2,39.523,39.523,0,0,0,151.8,350.673Zm21.915,58.933a2.134,2.134,0,0,1-2.2,2.072,2.166,2.166,0,0,1-1.965-2.325l1.077-19.8a2.125,2.125,0,0,1,2.2-2.07,2.168,2.168,0,0,1,1.962,2.324c.061.007.119.021.179.028a25.279,25.279,0,0,0-6.549-13.964c-.9.064-2.533-.709-4.14-2.063a12.545,12.545,0,0,1-1.909-1.956,8.444,8.444,0,0,1-4.117-.875,10.963,10.963,0,0,1-2.889-1.772,11.326,11.326,0,0,1-7.129,0,10.971,10.971,0,0,1-2.893,1.772,8.423,8.423,0,0,1-4.111.875,12.3,12.3,0,0,1-1.91,1.956c-1.608,1.354-3.24,2.131-4.14,2.063a25.284,25.284,0,0,0-6.553,13.964c.064-.007.125-.021.187-.028a2.161,2.161,0,0,1,1.96-2.324,2.122,2.122,0,0,1,2.2,2.07l1.078,19.8a2.165,2.165,0,0,1-1.962,2.325,2.126,2.126,0,0,1-2.2-2.072c-3.449.208-6.482-4.054-6.78-9.521a13.616,13.616,0,0,1,1.271-6.759v-.034c0-15.971,12.3-28.971,27.416-28.971s27.421,13,27.421,28.971v.04a13.644,13.644,0,0,1,1.268,6.753C180.194,405.551,177.16,409.814,173.718,409.606Z" transform="translate(-112.282 -350.673)" fill="#212121"/>
          </g>
          <g id="Grupo_86399" data-name="Grupo 86399" transform="translate(48.747)" opacity="0.1">
            <path id="Trazado_160116" data-name="Trazado 160116" d="M181.09,344.456H138.935V489.373H181.09a6.6,6.6,0,0,0,6.589-6.587V351.042A6.594,6.594,0,0,0,181.09,344.456Z" transform="translate(-138.935 -344.456)" fill="#151516"/>
          </g>
        </g>
      </g>
      <g id="Ñëîé_19" data-name="Ñëîé 19" transform="translate(285.921 404.081)">
        <g id="Grupo_86406" data-name="Grupo 86406">
          <g id="Grupo_86401" data-name="Grupo 86401" transform="translate(0 0)">
            <path id="Rectángulo_35122" data-name="Rectángulo 35122" d="M4.442,0H93.049A4.441,4.441,0,0,1,97.49,4.441V140.475a4.441,4.441,0,0,1-4.441,4.441H4.441A4.441,4.441,0,0,1,0,140.475V4.442A4.442,4.442,0,0,1,4.442,0Z" fill="#ffd03c"/>
          </g>
          <g id="Grupo_86402" data-name="Grupo 86402" transform="translate(3.032 3.03)">
            <path id="Trazado_160117" data-name="Trazado 160117" d="M282.719,485.358H198.4a3.561,3.561,0,0,1-3.556-3.559V350.055A3.561,3.561,0,0,1,198.4,346.5h84.315a3.561,3.561,0,0,1,3.558,3.556V481.8A3.562,3.562,0,0,1,282.719,485.358ZM198.4,348.344a1.713,1.713,0,0,0-1.711,1.711V481.8a1.714,1.714,0,0,0,1.711,1.714h84.315a1.716,1.716,0,0,0,1.713-1.714V350.055a1.714,1.714,0,0,0-1.713-1.711Z" transform="translate(-194.848 -346.499)" fill="#212121"/>
          </g>
          <g id="Grupo_86403" data-name="Grupo 86403" transform="translate(9.121 100.202)">
            <path id="Trazado_160118" data-name="Trazado 160118" d="M203.771,417.614a1.893,1.893,0,0,1-.725,1.575,3.158,3.158,0,0,1-2,.571,4.777,4.777,0,0,1-2.09-.4V418.2a5.6,5.6,0,0,0,1.093.38,4.606,4.606,0,0,0,1.078.139,1.713,1.713,0,0,0,1.078-.277.9.9,0,0,0,.347-.746.937.937,0,0,0-.317-.716,4.836,4.836,0,0,0-1.318-.7,3.475,3.475,0,0,1-1.452-.951,2.015,2.015,0,0,1-.421-1.286,1.8,1.8,0,0,1,.669-1.483,2.774,2.774,0,0,1,1.8-.541,5.269,5.269,0,0,1,2.15.475l-.39,1a4.7,4.7,0,0,0-1.791-.423,1.378,1.378,0,0,0-.906.259.858.858,0,0,0-.308.687.975.975,0,0,0,.123.5,1.253,1.253,0,0,0,.408.393,6.658,6.658,0,0,0,1.019.489,5.554,5.554,0,0,1,1.215.644,1.9,1.9,0,0,1,.566.673A2.029,2.029,0,0,1,203.771,417.614Z" transform="translate(-198.954 -412.025)" fill="#212121"/>
            <path id="Trazado_160119" data-name="Trazado 160119" d="M208.174,419.633l-.75-2.089h-2.877l-.736,2.089h-1.3l2.816-7.556h1.336l2.816,7.556Zm-1.075-3.15-.7-2.048c-.052-.138-.123-.353-.214-.65s-.154-.51-.188-.648a11.665,11.665,0,0,1-.406,1.385l-.679,1.961Z" transform="translate(-197.235 -412)" fill="#212121"/>
            <path id="Trazado_160120" data-name="Trazado 160120" d="M209.1,419.622h-1.219V412.1h4.246v1.04H209.1v2.352h2.835v1.044H209.1Z" transform="translate(-194.642 -411.989)" fill="#212121"/>
            <path id="Trazado_160121" data-name="Trazado 160121" d="M215.921,419.622h-4.256V412.1h4.256v1.04H212.9v2.048h2.835v1.029H212.9v2.362h3.025Z" transform="translate(-192.815 -411.989)" fill="#212121"/>
            <path id="Trazado_160122" data-name="Trazado 160122" d="M218.505,419.622h-1.229v-6.469h-2.214V412.1h5.656v1.054h-2.213Z" transform="translate(-191.174 -411.989)" fill="#212121"/>
            <path id="Trazado_160123" data-name="Trazado 160123" d="M222.1,415.531l1.781-3.432h1.338l-2.506,4.6v2.918H221.48v-2.877l-2.5-4.646h1.338Z" transform="translate(-189.28 -411.989)" fill="#212121"/>
            <path id="Trazado_160124" data-name="Trazado 160124" d="M231.639,419.622H230.4v-3.391h-3.469v3.391h-1.229V412.1h1.229v3.077H230.4V412.1h1.235Z" transform="translate(-186.034 -411.989)" fill="#212121"/>
            <path id="Trazado_160125" data-name="Trazado 160125" d="M235.3,419.622h-4.256V412.1H235.3v1.04h-3.027v2.048h2.835v1.029h-2.835v2.362H235.3Z" transform="translate(-183.456 -411.989)" fill="#212121"/>
            <path id="Trazado_160126" data-name="Trazado 160126" d="M235.01,419.622V412.1h1.229v6.469h3.185v1.054Z" transform="translate(-181.54 -411.989)" fill="#212121"/>
            <path id="Trazado_160127" data-name="Trazado 160127" d="M242.115,419.622l-2.183-6.283h-.04q.087,1.4.086,2.623v3.66h-1.117V412.1h1.734l2.09,5.985h.031l2.152-5.985h1.74v7.523h-1.183V415.9c0-.374.009-.862.028-1.461s.034-.965.049-1.093h-.042l-2.26,6.274Z" transform="translate(-179.68 -411.989)" fill="#212121"/>
            <path id="Trazado_160128" data-name="Trazado 160128" d="M249.676,419.622H245.42V412.1h4.256v1.04h-3.027v2.048h2.835v1.029h-2.835v2.362h3.027Z" transform="translate(-176.513 -411.989)" fill="#212121"/>
            <path id="Trazado_160129" data-name="Trazado 160129" d="M252.26,419.622h-1.229v-6.469h-2.214V412.1h5.656v1.054H252.26Z" transform="translate(-174.872 -411.989)" fill="#212121"/>
            <path id="Trazado_160130" data-name="Trazado 160130" d="M202.326,428.15l-2.183-6.283h-.04q.087,1.4.087,2.623v3.66h-1.117v-7.523h1.734l2.089,5.985h.031l2.15-5.985h1.74v7.523h-1.183v-3.721c0-.372.009-.862.028-1.461s.036-.964.049-1.091h-.042l-2.259,6.273Z" transform="translate(-198.896 -407.871)" fill="#212121"/>
            <path id="Trazado_160131" data-name="Trazado 160131" d="M211.551,420.627v4.867a2.894,2.894,0,0,1-.357,1.461,2.374,2.374,0,0,1-1.035.961,3.584,3.584,0,0,1-1.618.338,3.029,3.029,0,0,1-2.177-.741,2.687,2.687,0,0,1-.777-2.038v-4.848h1.235v4.76a1.906,1.906,0,0,0,.432,1.375,1.79,1.79,0,0,0,1.329.44q1.74,0,1.74-1.826v-4.75Z" transform="translate(-195.75 -407.871)" fill="#212121"/>
            <path id="Trazado_160132" data-name="Trazado 160132" d="M215.4,426.142a1.9,1.9,0,0,1-.725,1.576,3.155,3.155,0,0,1-2,.571,4.76,4.76,0,0,1-2.089-.4v-1.163a5.675,5.675,0,0,0,1.094.381,4.662,4.662,0,0,0,1.078.138,1.716,1.716,0,0,0,1.078-.277.905.905,0,0,0,.347-.746.936.936,0,0,0-.319-.715,4.793,4.793,0,0,0-1.318-.7,3.5,3.5,0,0,1-1.45-.952,2.007,2.007,0,0,1-.421-1.286,1.8,1.8,0,0,1,.667-1.483,2.787,2.787,0,0,1,1.8-.54,5.273,5.273,0,0,1,2.15.473l-.391,1a4.684,4.684,0,0,0-1.79-.421,1.373,1.373,0,0,0-.906.258.856.856,0,0,0-.308.687.975.975,0,0,0,.123.5,1.264,1.264,0,0,0,.406.394,6.832,6.832,0,0,0,1.019.488,5.476,5.476,0,0,1,1.215.645,1.868,1.868,0,0,1,.566.673A2.026,2.026,0,0,1,215.4,426.142Z" transform="translate(-193.337 -407.906)" fill="#212121"/>
            <path id="Trazado_160133" data-name="Trazado 160133" d="M217.688,428.15h-1.231v-6.469h-2.213v-1.054H219.9v1.054h-2.213Z" transform="translate(-191.569 -407.871)" fill="#212121"/>
            <path id="Trazado_160134" data-name="Trazado 160134" d="M220.683,420.627h2.232a4.234,4.234,0,0,1,2.247.452,1.584,1.584,0,0,1,.693,1.431,1.729,1.729,0,0,1-.34,1.1,1.52,1.52,0,0,1-.977.55v.052a1.926,1.926,0,0,1,1.164.59,1.776,1.776,0,0,1,.374,1.191,1.935,1.935,0,0,1-.707,1.588,3.055,3.055,0,0,1-1.968.572h-2.717Zm1.229,3.108H223.1a2.026,2.026,0,0,0,1.127-.245.94.94,0,0,0,.356-.832.835.835,0,0,0-.384-.767,2.4,2.4,0,0,0-1.217-.237h-1.065Zm0,1v2.383h1.306a1.924,1.924,0,0,0,1.166-.3,1.093,1.093,0,0,0,.395-.934.992.992,0,0,0-.4-.869,2.128,2.128,0,0,0-1.219-.283Z" transform="translate(-188.46 -407.871)" fill="#212121"/>
            <path id="Trazado_160135" data-name="Trazado 160135" d="M229.63,428.15h-4.256v-7.523h4.256v1.04H226.6v2.048h2.835v1.029H226.6v2.362h3.027Z" transform="translate(-186.194 -407.871)" fill="#212121"/>
            <path id="Trazado_160136" data-name="Trazado 160136" d="M238.431,428.15h-1.336l-1.278-4.487q-.082-.294-.2-.847c-.083-.369-.132-.624-.15-.768-.034.218-.089.5-.166.853s-.142.611-.194.784l-1.246,4.465h-1.336l-.973-3.767-.988-3.756h1.255l1.075,4.384q.251,1.057.36,1.864.056-.438.169-.977c.076-.36.145-.654.208-.876l1.223-4.394h1.219l1.256,4.415a16.431,16.431,0,0,1,.381,1.833,13.5,13.5,0,0,1,.371-1.875l1.071-4.373h1.244Z" transform="translate(-183.69 -407.871)" fill="#212121"/>
            <path id="Trazado_160137" data-name="Trazado 160137" d="M244.708,424.416a4.115,4.115,0,0,1-.918,2.856,3.859,3.859,0,0,1-5.219.009,4.142,4.142,0,0,1-.914-2.875,4.079,4.079,0,0,1,.918-2.861,3.392,3.392,0,0,1,2.623-1,3.315,3.315,0,0,1,2.594,1.013A4.118,4.118,0,0,1,244.708,424.416Zm-5.742,0a3.372,3.372,0,0,0,.561,2.107,2.284,2.284,0,0,0,3.316.009,4.273,4.273,0,0,0,.006-4.216,1.958,1.958,0,0,0-1.649-.713,2,2,0,0,0-1.67.713A3.34,3.34,0,0,0,238.966,424.416Z" transform="translate(-180.261 -407.909)" fill="#212121"/>
            <path id="Trazado_160138" data-name="Trazado 160138" d="M244.731,425.146v3H243.5v-7.523h2.125a3.5,3.5,0,0,1,2.156.544,1.964,1.964,0,0,1,.7,1.648,2.061,2.061,0,0,1-1.462,2l2.127,3.329h-1.4l-1.8-3Zm0-1.02h.854a1.956,1.956,0,0,0,1.246-.317,1.158,1.158,0,0,0,.386-.948,1.02,1.02,0,0,0-.415-.916,2.3,2.3,0,0,0-1.256-.277h-.814Z" transform="translate(-177.439 -407.871)" fill="#212121"/>
            <path id="Trazado_160139" data-name="Trazado 160139" d="M254.312,428.15h-1.507l-3.7-6h-.043l.027.335q.071.959.073,1.75v3.911h-1.117v-7.523h1.492l3.69,5.963h.031c-.006-.077-.021-.366-.042-.862s-.03-.881-.03-1.16v-3.942h1.126Z" transform="translate(-175.245 -407.871)" fill="#212121"/>
          </g>
          <g id="Grupo_86404" data-name="Grupo 86404" transform="translate(9.223 9.22)">
            <path id="Trazado_160140" data-name="Trazado 160140" d="M238.547,350.673A39.525,39.525,0,1,0,278.069,390.2,39.524,39.524,0,0,0,238.547,350.673Zm24.9,48.573c-1.173,0-9.156,2.531-24.891,2.531s-23.723-2.531-24.9-2.531c-5.1,0-7.621-.945-2.149-5.5,1.505-6.906,4.834-12.448,9.592-16.238a1.988,1.988,0,0,1,.749-2.669l3.458-1.993a1.994,1.994,0,0,1,2.726.727l.028.049a28.705,28.705,0,0,1,6.5-1.535v-.259a2,2,0,0,1,2-2h4a2,2,0,0,1,1.995,2v.259a28.724,28.724,0,0,1,6.5,1.535l.028-.049a1.993,1.993,0,0,1,2.724-.727l3.458,1.993a1.992,1.992,0,0,1,.752,2.669c4.754,3.79,8.084,9.332,9.587,16.238C271.061,398.3,268.544,399.246,263.443,399.246Z" transform="translate(-199.023 -350.673)" fill="#212121"/>
          </g>
          <g id="Grupo_86405" data-name="Grupo 86405" transform="translate(48.748)" opacity="0.1">
            <path id="Trazado_160141" data-name="Trazado 160141" d="M267.831,344.456H225.676V489.373h42.155a6.593,6.593,0,0,0,6.587-6.587V351.042A6.592,6.592,0,0,0,267.831,344.456Z" transform="translate(-225.676 -344.456)" fill="#151516"/>
          </g>
        </g>
      </g>
      <g id="Ñëîé_20" data-name="Ñëîé 20" transform="translate(414.553 404.081)">
        <g id="Grupo_86412" data-name="Grupo 86412">
          <g id="Grupo_86407" data-name="Grupo 86407" transform="translate(0 0)">
            <rect id="Rectángulo_35123" data-name="Rectángulo 35123" width="97.489" height="144.915" rx="4.441" fill="#ffd03c"/>
          </g>
          <g id="Grupo_86408" data-name="Grupo 86408" transform="translate(3.03 3.03)">
            <path id="Trazado_160142" data-name="Trazado 160142" d="M369.46,485.356H285.143a3.561,3.561,0,0,1-3.556-3.559V350.055a3.561,3.561,0,0,1,3.556-3.556H369.46a3.561,3.561,0,0,1,3.556,3.556V481.8A3.561,3.561,0,0,1,369.46,485.356ZM285.143,348.344a1.714,1.714,0,0,0-1.711,1.711V481.8a1.715,1.715,0,0,0,1.711,1.714H369.46a1.715,1.715,0,0,0,1.711-1.714V350.055a1.714,1.714,0,0,0-1.711-1.711Z" transform="translate(-281.587 -346.499)" fill="#212121"/>
          </g>
          <g id="Grupo_86409" data-name="Grupo 86409" transform="translate(8.053 100.109)">
            <path id="Trazado_160143" data-name="Trazado 160143" d="M289.49,417.207a1.775,1.775,0,0,1-.681,1.477,2.968,2.968,0,0,1-1.876.535,4.475,4.475,0,0,1-1.959-.372v-1.09a5.139,5.139,0,0,0,1.025.357,4.323,4.323,0,0,0,1.011.13,1.6,1.6,0,0,0,1.01-.261.846.846,0,0,0,.326-.7.872.872,0,0,0-.3-.67,4.461,4.461,0,0,0-1.235-.653,3.262,3.262,0,0,1-1.36-.893,1.884,1.884,0,0,1-.4-1.206,1.69,1.69,0,0,1,.627-1.39,2.6,2.6,0,0,1,1.685-.506,4.93,4.93,0,0,1,2.015.443l-.366.94a4.435,4.435,0,0,0-1.679-.4,1.285,1.285,0,0,0-.85.245.8.8,0,0,0-.289.642.911.911,0,0,0,.116.472,1.2,1.2,0,0,0,.381.369,6.529,6.529,0,0,0,.955.458,5.143,5.143,0,0,1,1.139.6,1.773,1.773,0,0,1,.531.63A1.934,1.934,0,0,1,289.49,417.207Z" transform="translate(-284.974 -411.959)" fill="#212121"/>
            <path id="Trazado_160144" data-name="Trazado 160144" d="M293.62,419.1l-.706-1.959h-2.7l-.69,1.959h-1.217l2.64-7.083H292.2l2.641,7.083Zm-1.01-2.953-.66-1.92c-.049-.129-.117-.331-.2-.607s-.145-.48-.177-.608a11.244,11.244,0,0,1-.381,1.3l-.638,1.837Z" transform="translate(-283.362 -411.935)" fill="#212121"/>
            <path id="Trazado_160145" data-name="Trazado 160145" d="M294.488,419.09h-1.143v-7.054h3.979v.974h-2.835v2.207h2.658v.979h-2.658Z" transform="translate(-280.931 -411.926)" fill="#212121"/>
            <path id="Trazado_160146" data-name="Trazado 160146" d="M300.88,419.09h-3.989v-7.054h3.989v.974h-2.837v1.92H300.7v.967h-2.659v2.214h2.837Z" transform="translate(-279.219 -411.926)" fill="#212121"/>
            <path id="Trazado_160147" data-name="Trazado 160147" d="M303.3,419.09h-1.152v-6.065h-2.075v-.989h5.3v.989H303.3Z" transform="translate(-277.68 -411.926)" fill="#212121"/>
            <path id="Trazado_160148" data-name="Trazado 160148" d="M306.676,415.255l1.668-3.219H309.6l-2.351,4.318v2.736h-1.157v-2.7l-2.34-4.358h1.255Z" transform="translate(-275.905 -411.926)" fill="#212121"/>
            <path id="Trazado_160149" data-name="Trazado 160149" d="M313.052,415.3h2.6v3.541a7.541,7.541,0,0,1-1.222.3,8.678,8.678,0,0,1-1.268.086,3.183,3.183,0,0,1-2.469-.948,3.821,3.821,0,0,1-.869-2.675,3.57,3.57,0,0,1,.979-2.666,3.69,3.69,0,0,1,2.7-.961,5.241,5.241,0,0,1,2.092.424l-.4.96a4.093,4.093,0,0,0-1.717-.4,2.316,2.316,0,0,0-1.785.709,2.748,2.748,0,0,0-.656,1.94,2.9,2.9,0,0,0,.59,1.966,2.143,2.143,0,0,0,1.7.673,5.5,5.5,0,0,0,1.2-.141v-1.818h-1.462Z" transform="translate(-272.975 -411.959)" fill="#212121"/>
            <path id="Trazado_160150" data-name="Trazado 160150" d="M321.267,415.589a3.853,3.853,0,0,1-.862,2.678,3.107,3.107,0,0,1-2.438.955,3.141,3.141,0,0,1-2.454-.948,3.893,3.893,0,0,1-.856-2.7,3.821,3.821,0,0,1,.862-2.681,3.172,3.172,0,0,1,2.457-.936,3.112,3.112,0,0,1,2.432.951A3.853,3.853,0,0,1,321.267,415.589Zm-5.385,0a3.162,3.162,0,0,0,.526,1.975,2.14,2.14,0,0,0,3.11.007,4,4,0,0,0,0-3.951,1.832,1.832,0,0,0-1.547-.67,1.869,1.869,0,0,0-1.565.67A3.128,3.128,0,0,0,315.882,415.589Z" transform="translate(-270.638 -411.962)" fill="#212121"/>
            <path id="Trazado_160151" data-name="Trazado 160151" d="M323.134,415.3h2.6v3.541a7.539,7.539,0,0,1-1.222.3,8.677,8.677,0,0,1-1.268.086,3.183,3.183,0,0,1-2.469-.948,3.821,3.821,0,0,1-.869-2.675,3.57,3.57,0,0,1,.979-2.666,3.69,3.69,0,0,1,2.7-.961,5.241,5.241,0,0,1,2.092.424l-.4.96a4.092,4.092,0,0,0-1.717-.4,2.317,2.317,0,0,0-1.786.709,2.748,2.748,0,0,0-.656,1.94,2.9,2.9,0,0,0,.59,1.966,2.144,2.144,0,0,0,1.7.673,5.5,5.5,0,0,0,1.2-.141v-1.818h-1.462Z" transform="translate(-268.106 -411.959)" fill="#212121"/>
            <path id="Trazado_160152" data-name="Trazado 160152" d="M327.972,415.3h2.6v3.541a7.544,7.544,0,0,1-1.222.3,8.679,8.679,0,0,1-1.268.086,3.181,3.181,0,0,1-2.469-.948,3.821,3.821,0,0,1-.869-2.675,3.57,3.57,0,0,1,.979-2.666,3.69,3.69,0,0,1,2.7-.961,5.247,5.247,0,0,1,2.093.424l-.4.96a4.092,4.092,0,0,0-1.717-.4,2.317,2.317,0,0,0-1.786.709,2.748,2.748,0,0,0-.655,1.94,2.893,2.893,0,0,0,.59,1.966,2.144,2.144,0,0,0,1.7.673,5.5,5.5,0,0,0,1.2-.141v-1.818h-1.462Z" transform="translate(-265.769 -411.959)" fill="#212121"/>
            <path id="Trazado_160153" data-name="Trazado 160153" d="M329.811,419.09v-7.054h1.154V418.1h2.985v.989Z" transform="translate(-263.319 -411.926)" fill="#212121"/>
            <path id="Trazado_160154" data-name="Trazado 160154" d="M337.412,419.09h-3.989v-7.054h3.989v.974h-2.837v1.92h2.659v.967h-2.659v2.214h2.837Z" transform="translate(-261.575 -411.926)" fill="#212121"/>
            <path id="Trazado_160155" data-name="Trazado 160155" d="M341.355,417.207a1.778,1.778,0,0,1-.679,1.477,2.975,2.975,0,0,1-1.877.535,4.48,4.48,0,0,1-1.959-.372v-1.09a5.171,5.171,0,0,0,1.025.357,4.323,4.323,0,0,0,1.011.13,1.605,1.605,0,0,0,1.011-.261.849.849,0,0,0,.325-.7.872.872,0,0,0-.3-.67,4.46,4.46,0,0,0-1.235-.653,3.262,3.262,0,0,1-1.36-.893,1.883,1.883,0,0,1-.4-1.206,1.69,1.69,0,0,1,.627-1.39,2.6,2.6,0,0,1,1.685-.506,4.93,4.93,0,0,1,2.015.443l-.366.94a4.422,4.422,0,0,0-1.677-.4,1.29,1.29,0,0,0-.851.245.8.8,0,0,0-.289.642.911.911,0,0,0,.116.472,1.2,1.2,0,0,0,.381.369,6.526,6.526,0,0,0,.955.458,5.144,5.144,0,0,1,1.139.6,1.772,1.772,0,0,1,.531.63A1.912,1.912,0,0,1,341.355,417.207Z" transform="translate(-259.925 -411.959)" fill="#212121"/>
            <path id="Trazado_160156" data-name="Trazado 160156" d="M289.067,427.771l-2.183-6.283h-.04q.087,1.4.086,2.623v3.66h-1.117v-7.523h1.734l2.091,5.985h.03l2.152-5.985h1.74v7.523h-1.183v-3.719q0-.563.028-1.462t.049-1.091h-.042l-2.26,6.273Z" transform="translate(-284.569 -407.96)" fill="#212121"/>
            <path id="Trazado_160157" data-name="Trazado 160157" d="M298.291,420.248v4.867a2.878,2.878,0,0,1-.359,1.461,2.378,2.378,0,0,1-1.034.961,3.59,3.59,0,0,1-1.619.338,3.018,3.018,0,0,1-2.175-.742,2.677,2.677,0,0,1-.777-2.038v-4.848h1.234v4.76a1.908,1.908,0,0,0,.433,1.375,1.788,1.788,0,0,0,1.329.442q1.737,0,1.738-1.827v-4.75Z" transform="translate(-281.423 -407.96)" fill="#212121"/>
            <path id="Trazado_160158" data-name="Trazado 160158" d="M302.14,425.763a1.9,1.9,0,0,1-.725,1.576,3.152,3.152,0,0,1-2,.571,4.762,4.762,0,0,1-2.089-.4V426.35a5.775,5.775,0,0,0,1.093.381,4.69,4.69,0,0,0,1.08.139,1.718,1.718,0,0,0,1.078-.279.905.905,0,0,0,.347-.746.93.93,0,0,0-.319-.715,4.747,4.747,0,0,0-1.318-.7,3.471,3.471,0,0,1-1.45-.952,2.007,2.007,0,0,1-.421-1.286,1.8,1.8,0,0,1,.669-1.483,2.782,2.782,0,0,1,1.8-.54,5.272,5.272,0,0,1,2.15.473l-.391,1a4.684,4.684,0,0,0-1.79-.421,1.375,1.375,0,0,0-.906.258.856.856,0,0,0-.308.687.957.957,0,0,0,.123.5,1.278,1.278,0,0,0,.406.394,6.87,6.87,0,0,0,1.02.488,5.528,5.528,0,0,1,1.213.645,1.869,1.869,0,0,1,.567.673A2.027,2.027,0,0,1,302.14,425.763Z" transform="translate(-279.01 -407.995)" fill="#212121"/>
            <path id="Trazado_160159" data-name="Trazado 160159" d="M304.427,427.771H303.2V421.3h-2.214v-1.054h5.656V421.3h-2.213Z" transform="translate(-277.242 -407.96)" fill="#212121"/>
            <path id="Trazado_160160" data-name="Trazado 160160" d="M307.421,420.248h2.233a4.245,4.245,0,0,1,2.245.452,1.584,1.584,0,0,1,.693,1.431,1.737,1.737,0,0,1-.338,1.1,1.523,1.523,0,0,1-.98.55v.052a1.941,1.941,0,0,1,1.167.589,1.783,1.783,0,0,1,.374,1.192,1.936,1.936,0,0,1-.709,1.588,3.05,3.05,0,0,1-1.968.572h-2.717Zm1.229,3.108h1.183a2.035,2.035,0,0,0,1.128-.245.94.94,0,0,0,.354-.832.828.828,0,0,0-.384-.765,2.38,2.38,0,0,0-1.216-.239H308.65Zm0,1v2.383h1.308a1.92,1.92,0,0,0,1.166-.3,1.092,1.092,0,0,0,.393-.934.988.988,0,0,0-.4-.869,2.129,2.129,0,0,0-1.219-.283Z" transform="translate(-274.133 -407.96)" fill="#212121"/>
            <path id="Trazado_160161" data-name="Trazado 160161" d="M316.368,427.771h-4.256v-7.523h4.256v1.04h-3.027v2.048h2.835v1.029h-2.835v2.362h3.027Z" transform="translate(-271.867 -407.96)" fill="#212121"/>
            <path id="Trazado_160162" data-name="Trazado 160162" d="M325.169,427.771h-1.336l-1.277-4.487q-.082-.294-.206-.845c-.083-.369-.132-.626-.15-.77-.034.218-.089.5-.166.853s-.142.611-.194.784l-1.246,4.465h-1.336L318.285,424l-.988-3.756h1.256l1.074,4.384q.251,1.057.36,1.864.058-.438.171-.977c.074-.36.144-.654.206-.876l1.223-4.394h1.22l1.255,4.416a16.321,16.321,0,0,1,.381,1.831,13.506,13.506,0,0,1,.371-1.874l1.071-4.373h1.246Z" transform="translate(-269.363 -407.96)" fill="#212121"/>
            <path id="Trazado_160163" data-name="Trazado 160163" d="M331.446,424.037a4.115,4.115,0,0,1-.918,2.856,3.857,3.857,0,0,1-5.217.009,4.141,4.141,0,0,1-.915-2.874,4.073,4.073,0,0,1,.919-2.862,3.39,3.39,0,0,1,2.622-1,3.316,3.316,0,0,1,2.594,1.014A4.114,4.114,0,0,1,331.446,424.037Zm-5.742,0a3.371,3.371,0,0,0,.561,2.107,2.282,2.282,0,0,0,3.317.009,4.278,4.278,0,0,0,0-4.216,1.958,1.958,0,0,0-1.649-.713,2,2,0,0,0-1.67.713A3.34,3.34,0,0,0,325.7,424.037Z" transform="translate(-265.935 -407.999)" fill="#212121"/>
            <path id="Trazado_160164" data-name="Trazado 160164" d="M331.469,424.767v3H330.24v-7.523h2.125a3.5,3.5,0,0,1,2.156.544,1.967,1.967,0,0,1,.7,1.649,2.061,2.061,0,0,1-1.464,2l2.127,3.329h-1.4l-1.8-3Zm0-1.02h.854a1.956,1.956,0,0,0,1.246-.317,1.158,1.158,0,0,0,.386-.948,1.02,1.02,0,0,0-.415-.917,2.3,2.3,0,0,0-1.256-.277h-.814Z" transform="translate(-263.112 -407.96)" fill="#212121"/>
            <path id="Trazado_160165" data-name="Trazado 160165" d="M341.052,427.771h-1.508l-3.7-6H335.8l.025.335q.071.959.073,1.75v3.911h-1.117v-7.523h1.492l3.69,5.964H340c-.007-.079-.022-.368-.043-.862s-.03-.882-.03-1.161v-3.942h1.127Z" transform="translate(-260.918 -407.96)" fill="#212121"/>
          </g>
          <g id="Grupo_86410" data-name="Grupo 86410" transform="translate(9.223 9.221)">
            <path id="Trazado_160166" data-name="Trazado 160166" d="M325.282,350.674A39.523,39.523,0,1,0,364.808,390.2,39.522,39.522,0,0,0,325.282,350.674ZM352.894,390.2a1.778,1.778,0,0,1-1.781,1.78H350.1a14.261,14.261,0,0,1-14.125,12.47,14.09,14.09,0,0,1-7.127-1.782c-.593-.28-1.777-1.781-3.559-1.7-1.781-.083-2.97,1.418-3.564,1.7a14.084,14.084,0,0,1-7.126,1.782,14.259,14.259,0,0,1-14.124-12.47H299.46a1.78,1.78,0,0,1-1.783-1.78v-7.123a1.784,1.784,0,0,1,1.783-1.784h.891v-1.781a3.565,3.565,0,0,1,3.562-3.562h42.743a3.563,3.563,0,0,1,3.567,3.562v1.781h.89a1.782,1.782,0,0,1,1.781,1.784Zm-16.921-10.241H314.6c-8.613,0-10.238,1.63-10.238,10.241A10.245,10.245,0,0,0,314.6,400.438a12.157,12.157,0,0,0,5.481-1.814,8.638,8.638,0,0,1,10.415,0,12.1,12.1,0,0,0,5.48,1.818A10.252,10.252,0,0,0,346.215,390.2c0-4.674-.525-7.022-1.873-8.364S340.646,379.955,335.973,379.955Z" transform="translate(-285.763 -350.674)" fill="#212121"/>
          </g>
          <g id="Grupo_86411" data-name="Grupo 86411" transform="translate(48.747)" opacity="0.1">
            <path id="Trazado_160167" data-name="Trazado 160167" d="M354.571,344.456H312.415V489.371h42.156a6.591,6.591,0,0,0,6.586-6.587V351.042A6.593,6.593,0,0,0,354.571,344.456Z" transform="translate(-312.415 -344.456)" fill="#151516"/>
          </g>
        </g>
      </g>
      <g id="Ñëîé_21" data-name="Ñëîé 21" transform="translate(543.184 404.079)">
        <g id="Grupo_86418" data-name="Grupo 86418">
          <g id="Grupo_86413" data-name="Grupo 86413" transform="translate(0 0)">
            <path id="Rectángulo_35124" data-name="Rectángulo 35124" d="M4.442,0H93.048A4.442,4.442,0,0,1,97.49,4.442V140.476a4.441,4.441,0,0,1-4.441,4.441H4.441A4.441,4.441,0,0,1,0,140.476V4.442A4.442,4.442,0,0,1,4.442,0Z" fill="#ffd03c"/>
          </g>
          <g id="Grupo_86414" data-name="Grupo 86414" transform="translate(3.031 3.03)">
            <path id="Trazado_160168" data-name="Trazado 160168" d="M456.2,485.358H371.885a3.562,3.562,0,0,1-3.558-3.559V350.056a3.561,3.561,0,0,1,3.558-3.558H456.2a3.561,3.561,0,0,1,3.556,3.558V481.8A3.561,3.561,0,0,1,456.2,485.358ZM371.885,348.343a1.715,1.715,0,0,0-1.713,1.713V481.8a1.716,1.716,0,0,0,1.713,1.714H456.2a1.714,1.714,0,0,0,1.711-1.714V350.056a1.713,1.713,0,0,0-1.711-1.713Z" transform="translate(-368.327 -346.498)" fill="#212121"/>
          </g>
          <g id="Grupo_86415" data-name="Grupo 86415" transform="translate(9.298 100.106)">
            <path id="Trazado_160169" data-name="Trazado 160169" d="M383.885,419.087v-7.055h1.152V418.1h2.987v.989Z" transform="translate(-367.08 -411.923)" fill="#212121"/>
            <path id="Trazado_160170" data-name="Trazado 160170" d="M392.175,419.1l-.7-1.959h-2.7l-.69,1.959h-1.216l2.638-7.083h1.255l2.64,7.083Zm-1.008-2.953-.661-1.92c-.047-.129-.116-.331-.2-.607s-.144-.479-.177-.608a10.67,10.67,0,0,1-.381,1.3l-.636,1.837Z" transform="translate(-365.639 -411.932)" fill="#212121"/>
            <path id="Trazado_160171" data-name="Trazado 160171" d="M391.9,412.033h2.094a3.971,3.971,0,0,1,2.106.426,1.488,1.488,0,0,1,.649,1.342,1.614,1.614,0,0,1-.319,1.026,1.421,1.421,0,0,1-.916.518v.047a1.817,1.817,0,0,1,1.093.553,1.667,1.667,0,0,1,.348,1.117,1.811,1.811,0,0,1-.663,1.489,2.859,2.859,0,0,1-1.845.537H391.9Zm1.154,2.916h1.109a1.9,1.9,0,0,0,1.057-.23.88.88,0,0,0,.332-.78.783.783,0,0,0-.359-.718,2.245,2.245,0,0,0-1.142-.221h-1Zm0,.936v2.233h1.225a1.8,1.8,0,0,0,1.093-.277,1.024,1.024,0,0,0,.369-.876.928.928,0,0,0-.377-.814,2,2,0,0,0-1.143-.266Z" transform="translate(-363.209 -411.923)" fill="#212121"/>
            <path id="Trazado_160172" data-name="Trazado 160172" d="M401.145,412.954a1.9,1.9,0,0,0-1.563.7,3.7,3.7,0,0,0-.022,3.908,1.932,1.932,0,0,0,1.585.666,4.085,4.085,0,0,0,.869-.089q.418-.089.872-.228v.989a5.323,5.323,0,0,1-1.882.313,3.009,3.009,0,0,1-2.379-.937,3.929,3.929,0,0,1-.829-2.686,4.355,4.355,0,0,1,.4-1.925,2.885,2.885,0,0,1,1.166-1.263,3.534,3.534,0,0,1,1.79-.439,4.42,4.42,0,0,1,2,.454l-.415.959a6.021,6.021,0,0,0-.755-.3A2.7,2.7,0,0,0,401.145,412.954Z" transform="translate(-360.362 -411.956)" fill="#212121"/>
            <path id="Trazado_160173" data-name="Trazado 160173" d="M408.629,415.586a3.854,3.854,0,0,1-.863,2.678,3.618,3.618,0,0,1-4.891.007,3.883,3.883,0,0,1-.856-2.7,3.814,3.814,0,0,1,.862-2.681,3.167,3.167,0,0,1,2.457-.936,3.106,3.106,0,0,1,2.431.951A3.853,3.853,0,0,1,408.629,415.586Zm-5.385,0a3.164,3.164,0,0,0,.525,1.975,2.14,2.14,0,0,0,3.11.007,4.008,4.008,0,0,0,.006-3.951,1.834,1.834,0,0,0-1.547-.67,1.87,1.87,0,0,0-1.566.67A3.138,3.138,0,0,0,403.244,415.586Z" transform="translate(-358.322 -411.959)" fill="#212121"/>
            <path id="Trazado_160174" data-name="Trazado 160174" d="M412.177,419.1l-.7-1.959h-2.7l-.69,1.959h-1.216l2.638-7.083h1.255l2.64,7.083Zm-1.008-2.953-.661-1.92c-.047-.129-.116-.331-.2-.607s-.144-.479-.177-.608a10.682,10.682,0,0,1-.381,1.3l-.636,1.837Z" transform="translate(-355.98 -411.932)" fill="#212121"/>
            <path id="Trazado_160175" data-name="Trazado 160175" d="M414.6,419.087h-1.152v-6.065h-2.075v-.989h5.3v.989H414.6Z" transform="translate(-353.806 -411.923)" fill="#212121"/>
            <path id="Trazado_160176" data-name="Trazado 160176" d="M375.805,427.768l-2.183-6.283h-.04q.087,1.4.087,2.625v3.658h-1.117v-7.523h1.734l2.09,5.985h.03l2.152-5.985h1.74v7.523h-1.183v-3.719c0-.374.009-.863.028-1.462s.034-.964.049-1.091h-.042l-2.26,6.273Z" transform="translate(-372.553 -407.957)" fill="#212121"/>
            <path id="Trazado_160177" data-name="Trazado 160177" d="M385.03,420.245v4.867a2.893,2.893,0,0,1-.357,1.461,2.39,2.39,0,0,1-1.035.961,3.564,3.564,0,0,1-1.618.338,3.022,3.022,0,0,1-2.177-.742,2.677,2.677,0,0,1-.777-2.038v-4.848H380.3v4.76a1.905,1.905,0,0,0,.433,1.375,1.793,1.793,0,0,0,1.329.442q1.737,0,1.74-1.827v-4.75Z" transform="translate(-369.407 -407.957)" fill="#212121"/>
            <path id="Trazado_160178" data-name="Trazado 160178" d="M388.879,425.76a1.9,1.9,0,0,1-.725,1.576,3.15,3.15,0,0,1-2,.571,4.768,4.768,0,0,1-2.091-.4v-1.163a5.75,5.75,0,0,0,1.094.381,4.673,4.673,0,0,0,1.078.138,1.715,1.715,0,0,0,1.078-.277.905.905,0,0,0,.347-.746.933.933,0,0,0-.319-.715,4.794,4.794,0,0,0-1.317-.7,3.476,3.476,0,0,1-1.452-.952,2.015,2.015,0,0,1-.421-1.286,1.8,1.8,0,0,1,.669-1.483,2.782,2.782,0,0,1,1.8-.54,5.272,5.272,0,0,1,2.15.473l-.39,1a4.7,4.7,0,0,0-1.79-.421,1.369,1.369,0,0,0-.908.26.856.856,0,0,0-.308.687.969.969,0,0,0,.123.5,1.287,1.287,0,0,0,.408.394,6.829,6.829,0,0,0,1.019.488,5.552,5.552,0,0,1,1.215.645,1.878,1.878,0,0,1,.565.673A2.027,2.027,0,0,1,388.879,425.76Z" transform="translate(-366.995 -407.992)" fill="#212121"/>
            <path id="Trazado_160179" data-name="Trazado 160179" d="M391.166,427.768h-1.229V421.3h-2.213v-1.054h5.655V421.3h-2.213Z" transform="translate(-365.226 -407.957)" fill="#212121"/>
            <path id="Trazado_160180" data-name="Trazado 160180" d="M394.16,420.245h2.233a4.255,4.255,0,0,1,2.247.452,1.586,1.586,0,0,1,.691,1.431,1.737,1.737,0,0,1-.338,1.1,1.519,1.519,0,0,1-.979.55v.052a1.942,1.942,0,0,1,1.166.59,1.776,1.776,0,0,1,.374,1.191,1.932,1.932,0,0,1-.709,1.588,3.038,3.038,0,0,1-1.968.572H394.16Zm1.229,3.108h1.183a2.028,2.028,0,0,0,1.129-.245.939.939,0,0,0,.354-.832.828.828,0,0,0-.384-.765,2.383,2.383,0,0,0-1.216-.237h-1.066Zm0,1v2.383H396.7a1.917,1.917,0,0,0,1.166-.3,1.092,1.092,0,0,0,.393-.934.988.988,0,0,0-.4-.869,2.126,2.126,0,0,0-1.219-.283Z" transform="translate(-362.118 -407.957)" fill="#212121"/>
            <path id="Trazado_160181" data-name="Trazado 160181" d="M403.108,427.768h-4.256v-7.523h4.256v1.04h-3.027v2.048h2.835v1.031h-2.835v2.361h3.027Z" transform="translate(-359.852 -407.957)" fill="#212121"/>
            <path id="Trazado_160182" data-name="Trazado 160182" d="M411.909,427.768h-1.338l-1.277-4.487q-.082-.294-.206-.845c-.082-.369-.132-.626-.148-.77-.036.219-.09.5-.168.853s-.141.611-.193.784l-1.246,4.465H406L405.024,424l-.988-3.756h1.256l1.074,4.384q.254,1.057.362,1.864.056-.438.169-.977c.076-.36.144-.654.206-.876l1.225-4.394h1.219l1.256,4.416a16.044,16.044,0,0,1,.38,1.831,13.967,13.967,0,0,1,.371-1.874l1.071-4.373h1.246Z" transform="translate(-357.348 -407.957)" fill="#212121"/>
            <path id="Trazado_160183" data-name="Trazado 160183" d="M418.186,424.034a4.106,4.106,0,0,1-.92,2.856,3.857,3.857,0,0,1-5.217.009,4.14,4.14,0,0,1-.914-2.874,4.08,4.08,0,0,1,.918-2.862,3.39,3.39,0,0,1,2.622-1,3.316,3.316,0,0,1,2.594,1.014A4.107,4.107,0,0,1,418.186,424.034Zm-5.742,0a3.382,3.382,0,0,0,.559,2.107,2.282,2.282,0,0,0,3.317.009,4.273,4.273,0,0,0,.006-4.216,1.96,1.96,0,0,0-1.651-.713,2,2,0,0,0-1.67.713A3.351,3.351,0,0,0,412.444,424.034Z" transform="translate(-353.919 -407.996)" fill="#212121"/>
            <path id="Trazado_160184" data-name="Trazado 160184" d="M418.21,424.764v3h-1.231v-7.523H419.1a3.493,3.493,0,0,1,2.156.544,1.962,1.962,0,0,1,.7,1.649,2.059,2.059,0,0,1-1.464,2l2.127,3.329h-1.4l-1.8-3Zm0-1.02h.854a1.959,1.959,0,0,0,1.246-.317,1.162,1.162,0,0,0,.384-.948,1.017,1.017,0,0,0-.415-.917,2.3,2.3,0,0,0-1.256-.277h-.813Z" transform="translate(-351.097 -407.957)" fill="#212121"/>
            <path id="Trazado_160185" data-name="Trazado 160185" d="M427.79,427.768h-1.508l-3.7-6h-.042l.027.335q.071.959.071,1.75v3.911h-1.117v-7.523h1.492l3.691,5.964h.031c-.007-.079-.022-.366-.042-.863s-.031-.881-.031-1.16v-3.942h1.127Z" transform="translate(-348.903 -407.957)" fill="#212121"/>
          </g>
          <g id="Grupo_86416" data-name="Grupo 86416" transform="translate(9.224 9.221)">
            <path id="Trazado_160186" data-name="Trazado 160186" d="M417.164,410.748h8.56v-8.566h-8.56Zm5.781-23.978v-6.85h-6.851v6.85l3.429,1.714Zm-10.919-36.1A39.522,39.522,0,1,0,451.548,390.2,39.521,39.521,0,0,0,412.025,350.673Zm0,63.5c0,2.834-1.535,5.14-3.427,5.14H398.321a1.712,1.712,0,0,1-1.708-1.714V379.92l-10.278,18.838-5.135-2.567,11.985-29.972,7.41-1.483.16,6.076,2.4.316-.976,2.1,7.547,4.057,2.3,1.232ZM404.5,372.45l1.292-2.775-3.3-.43-.144-5.341,2.825-2.822,6.85,15.412,6.85-15.412L421.7,363.9l-.142,5.341-3.3.43,1.293,2.775-7.523,4.044Zm33.214,26.308L427.436,379.92V417.6a1.714,1.714,0,0,1-1.713,1.714H415.451a2.984,2.984,0,0,1-2.413-1.493,8.753,8.753,0,0,0,.765-3.647V377.561l.516-.28,7.548-4.057-.976-2.1,2.4-.316.16-6.076,7.409,1.483,11.99,29.972Zm-39.393,11.99h8.563v-8.566h-8.563Z" transform="translate(-372.503 -350.673)" fill="#212121"/>
          </g>
          <g id="Grupo_86417" data-name="Grupo 86417" transform="translate(48.746)" opacity="0.1">
            <path id="Trazado_160187" data-name="Trazado 160187" d="M441.31,344.455H399.154V489.373H441.31a6.594,6.594,0,0,0,6.587-6.587V351.042A6.594,6.594,0,0,0,441.31,344.455Z" transform="translate(-399.154 -344.455)" fill="#151516"/>
          </g>
        </g>
      </g>
    </g>
  </g>
</svg>
